<?xml version="1.0" encoding="utf-8"?>
<!-- Generator: Adobe Illustrator 27.3.1, SVG Export Plug-In . SVG Version: 6.00 Build 0)  -->
<svg version="1.1" id="レイヤー_1" xmlns="http://www.w3.org/2000/svg" xmlns:xlink="http://www.w3.org/1999/xlink" x="0px"
	 y="0px" viewBox="0 0 283.5 283.5" style="enable-background:new 0 0 283.5 283.5;" xml:space="preserve">
<style type="text/css">
	.st0{fill:none;stroke:#F3F2EA;stroke-width:4.9606;stroke-miterlimit:10;}
	.st1{fill:none;}
	.st2{fill:#333333;}
</style>
<path class="st0" d="M-253.3-17.1c-36.6,0-41.1,0.2-55.6,0.8c-14.3,0.6-24.2,3-32.7,6.2c-9,3.6-16.5,8.3-24,15.8s-12,15-15.6,23.8
	c-3.4,8.6-5.6,18.4-6.2,32.7c-0.6,14.5-0.8,19-0.8,55.6s0.2,41.1,0.8,55.6c0.6,14.3,3,24.2,6.2,32.7c3.4,8.8,8.1,16.3,15.6,23.8
	s15,12.2,23.8,15.6c8.6,3.4,18.4,5.6,32.7,6.2c14.5,0.6,19,0.8,55.6,0.8s41.1-0.2,55.6-0.8c14.3-0.6,24.2-3,32.7-6.2
	c8.8-3.4,16.3-8.1,23.8-15.6s12-15,15.6-23.8c3.4-8.6,5.6-18.4,6.2-32.7c0.6-14.5,0.8-19,0.8-55.6s-0.2-41.1-0.8-55.6
	c-0.8-14.3-3-24.2-6.2-32.7c-3.4-8.8-8.1-16.3-15.6-23.8s-15-12-23.8-15.6c-8.6-3.4-18.4-5.6-32.7-6.2
	C-212.2-16.9-216.7-17.1-253.3-17.1L-253.3-17.1L-253.3-17.1z"/>
<circle class="st1" cx="-253.5" cy="117.9" r="69.3"/>
<path class="st1" d="M-181.4,29.7c-9,0-16.1,7.3-16.1,16.1c0,9,7.3,16.1,16.1,16.1c9,0,16.1-7.3,16.1-16.1
	C-165.2,37-172.6,29.7-181.4,29.7z"/>
<path class="st0" d="M-143.6,63.5c-0.6-13.2-2.8-20.3-4.7-25c-2.4-6.4-5.2-10.9-10.1-15.6c-4.9-4.7-9.2-7.7-15.6-10.1
	c-4.7-1.9-11.9-4.1-25-4.7c-14.3-0.6-18.4-0.8-54.5-0.8h-12c-25.2,0-29.9,0.2-42.4,0.6c-13.2,0.6-20.3,2.8-25,4.7
	c-6.4,2.4-10.9,5.4-15.6,10.1c-4.7,4.9-7.7,9.2-10.2,15.6c-1.9,4.7-4.1,11.9-4.7,25c-0.6,14.3-0.8,18.4-0.8,54.5s0.2,40.2,0.8,54.5
	c0.6,13.2,2.8,20.3,4.7,25c2.4,6.4,5.4,10.9,10.1,15.6c4.9,4.7,9.2,7.7,15.6,10.1c4.7,1.9,11.9,4.1,25,4.7
	c14.3,0.6,18.4,0.8,54.5,0.8s40.2-0.2,54.5-0.8c13.2-0.6,20.3-2.8,25-4.7c6.4-2.4,10.9-5.4,15.6-10.1c4.7-4.7,7.7-9,10.1-15.4
	c1.9-4.7,4.1-11.9,4.7-25c0.6-14.3,0.8-18.4,0.8-54.5C-142.8,81.9-143,77.8-143.6,63.5z"/>
<circle class="st0" cx="-253.5" cy="117.9" r="69.3"/>
<path class="st0" d="M-181.4,61.9c-8.8,0-16.1-7.1-16.1-16.1c0-8.8,7.1-16.1,16.1-16.1c8.8,0,16.2,7.3,16.1,16.1
	C-165.3,54.6-172.4,61.9-181.4,61.9z"/>
<path class="st0" d="M-253.5,72.9c24.8,0,44.9,20.1,44.9,44.9s-20.1,44.9-44.9,44.9s-44.9-20.1-44.9-44.9S-278.3,72.9-253.5,72.9z"
	/>
<path class="st2" d="M85.2,7.1h113.1c43.1,0,78.1,35,78.1,78.1v113.1c0,43.1-35,78.1-78.1,78.1H85.2c-43.1,0-78.1-35-78.1-78.1V85.2
	C7.1,42.1,42.1,7.1,85.2,7.1 M82.5,34C55.7,34,34,55.7,34,82.5l0,0V201c0,26.8,21.7,48.5,48.5,48.5H201c26.8,0,48.5-21.7,48.5-48.5
	l0,0V82.5c0-26.8-21.7-48.5-48.5-48.5H82.5 M212.4,54.2c9.3,0,16.8,7.5,16.8,16.8s-7.5,16.8-16.8,16.8s-16.8-7.5-16.8-16.8
	S203.1,54.2,212.4,54.2 M141.8,74.4c37.2,0,67.3,30.1,67.3,67.3S179,209,141.8,209s-67.3-30.1-67.3-67.3S104.6,74.4,141.8,74.4
	 M141.8,101.4c-22.3,0-40.4,18.1-40.4,40.4s18.1,40.4,40.4,40.4s40.4-18.1,40.4-40.4S164.1,101.4,141.8,101.4z"/>
</svg>
