<svg xmlns="http://www.w3.org/2000/svg" width="1366" height="142.435" viewBox="0 0 1366 142.435">
  <g id="レイヤー_1" data-name="レイヤー 1" transform="translate(-0.01)">
    <g id="グループ_8" data-name="グループ 8" transform="translate(0.01)">
      <path id="パス_1" data-name="パス 1" d="M20.728,51.253,3.895,66.792V106.6H.01V1.38H3.895V62.239l17.334-17L64.879,1.38h5.639L23.61,48.58,74.11,106.6H69.056Z" transform="translate(-0.01 4.384)" fill="#fff"/>
      <path id="パス_2" data-name="パス 2" d="M21.112,46.523a45.643,45.643,0,0,1,4.3-20.133A33.174,33.174,0,0,1,37.569,12.481,32.573,32.573,0,0,1,55.321,7.51,32.227,32.227,0,0,1,85.145,26.1a45.27,45.27,0,0,1,4.428,20.008v3.467a46.142,46.142,0,0,1-4.261,20.175A32.225,32.225,0,0,1,55.447,88.585a32.542,32.542,0,0,1-17.752-4.929A32.98,32.98,0,0,1,25.5,69.872,45.936,45.936,0,0,1,21.07,49.948V46.481ZM25,49.572A40.9,40.9,0,0,0,28.881,67.45a30.684,30.684,0,0,0,10.777,12.7A27.882,27.882,0,0,0,55.447,84.7a27.132,27.132,0,0,0,21.8-10.067c5.6-6.683,8.438-15.33,8.438-25.856V46.523A41.063,41.063,0,0,0,81.8,28.729a30.9,30.9,0,0,0-10.818-12.74,27.7,27.7,0,0,0-15.664-4.595,27,27,0,0,0-21.8,10.192c-5.639,6.808-8.438,15.33-8.438,25.647v2.3Z" transform="translate(66.897 23.859)" fill="#fff"/>
      <path id="パス_3" data-name="パス 3" d="M47.8,51A32.608,32.608,0,0,1,59.074,36.632a27.876,27.876,0,0,1,16.457-5.263q12.594,0,18.671,7.1c4.052,4.72,6.14,11.9,6.182,21.511v51H96.5V59.856c-.042-8.354-1.754-14.578-5.138-18.588s-8.73-6.015-16.04-6.015a24.331,24.331,0,0,0-17.543,7.184,36.7,36.7,0,0,0-10.025,18.5v50.04H43.87V0h3.885V51Z" transform="translate(139.333)" fill="#fff"/>
      <path id="パス_4" data-name="パス 4" d="M65.67,5.092a3.814,3.814,0,0,1,1.17-2.84,3.761,3.761,0,0,1,2.8-1.211,3.921,3.921,0,0,1,2.84,1.211,3.921,3.921,0,0,1,1.211,2.84,3.615,3.615,0,0,1-1.211,2.8,4.126,4.126,0,0,1-2.84,1.17,3.723,3.723,0,0,1-2.8-1.17A3.954,3.954,0,0,1,65.67,5.092ZM71.6,107.72H67.717V29.485H71.6v78.193Z" transform="translate(208.591 3.304)" fill="#fff"/>
      <path id="パス_5" data-name="パス 5" d="M74.83,47.265q0-18.734,7.895-29.239Q90.619,7.5,104.32,7.5a29.9,29.9,0,0,1,15.538,4.01,29.119,29.119,0,0,1,10.9,11.737V8.92h3.968V85.735q0,15.476-7.936,24.185-7.957,8.709-21.6,8.688a30.8,30.8,0,0,1-14.411-3.383,31.837,31.837,0,0,1-11.153-9.774l2.757-2.59a34.366,34.366,0,0,0,9.983,8.813,25.4,25.4,0,0,0,12.7,3.049q12.092,0,18.8-7.31c4.469-4.887,6.808-11.779,6.934-20.676V74.749a27.451,27.451,0,0,1-10.944,10.234,33.555,33.555,0,0,1-15.664,3.592q-13.6,0-21.47-10.777Q74.83,67.022,74.83,48.226v-1Zm3.968,1.5q0,16.791,6.641,26.357,6.641,9.586,18.629,9.565c6.6,0,12.2-1.546,16.833-4.595a24.512,24.512,0,0,0,9.816-12.907v-35.5q-6.328-20.3-26.524-20.3c-8.062,0-14.285,3.175-18.755,9.482s-6.683,15.622-6.683,27.9Z" transform="translate(237.692 23.827)" fill="#fff"/>
      <path id="パス_6" data-name="パス 6" d="M152.9,87.123c-.961-3.342-1.462-8.1-1.462-14.327A31.553,31.553,0,0,1,138.778,84.45a39.016,39.016,0,0,1-18.128,4.135c-7.226,0-13.032-1.963-17.46-5.89s-6.6-9.064-6.6-15.371c0-7.184,3.258-12.907,9.732-17.251q9.712-6.453,25.814-6.6h19.3v-11.4c0-6.558-2.047-11.654-6.182-15.246-4.135-3.634-10.025-5.43-17.669-5.43-7.143,0-13.074,1.838-17.836,5.514S102.6,25.1,102.6,30.483l-3.885-.167q0-9.524,8.4-16.165T127.625,7.51c8.062,0,15.121,2.088,20.091,6.307s7.519,10.15,7.644,17.794V68.953c0,8.563.668,14.411,2.047,17.5v.668h-4.469Zm-32.246-2.464c7.31,0,13.617-1.629,18.88-4.929a30.515,30.515,0,0,0,11.9-13.784V47.358H133.347c-11.194,0-19.715,2.214-25.647,6.641-4.8,3.592-7.226,8.1-7.226,13.492A15.631,15.631,0,0,0,106.2,79.647c3.8,3.342,8.6,4.971,14.452,4.971Z" transform="translate(306.823 23.859)" fill="#fff"/>
      <path id="パス_7" data-name="パス 7" d="M170.507,67.993q0-14.223-24.268-19.381c-9.732-2.088-16.5-4.72-20.3-7.978s-5.722-7.727-5.722-13.408,2.423-10.442,7.268-14.16,11.153-5.555,18.88-5.555q12.656,0,20.3,6.015t7.644,16.29H170.34q0-7.895-6.641-13.158c-4.428-3.509-10.234-5.263-17.335-5.263s-12.28,1.5-16.248,4.469c-4.01,3.007-6.015,6.725-6.015,11.194q0,5.263,2.256,8.27a19.483,19.483,0,0,0,7.31,5.43,74.363,74.363,0,0,0,14.745,4.678A64.72,64.72,0,0,1,163.74,50.7a20.906,20.906,0,0,1,8.187,7.184,19.258,19.258,0,0,1,2.548,10.15,17.643,17.643,0,0,1-7.6,14.87q-7.581,5.639-19.882,5.639-13.157,0-21.219-5.973c-5.388-3.968-8.062-9.106-8.062-15.371h3.885a16.119,16.119,0,0,0,7.268,12.823c4.469,3.049,10.484,4.595,18.086,4.595,6.976,0,12.656-1.629,17-4.887s6.558-7.184,6.558-11.821Z" transform="translate(373.921 23.859)" fill="#fff"/>
      <path id="パス_8" data-name="パス 8" d="M142.486,51a32.608,32.608,0,0,1,11.278-14.369,27.876,27.876,0,0,1,16.457-5.263q12.594,0,18.671,7.1c4.052,4.72,6.14,11.9,6.182,21.511v51H191.19V59.856c-.042-8.354-1.754-14.578-5.138-18.588s-8.73-6.015-16.04-6.015a24.331,24.331,0,0,0-17.543,7.184,36.7,36.7,0,0,0-10.025,18.5v50.04H138.56V0h3.885V51Z" transform="translate(440.162)" fill="#fff"/>
      <path id="パス_9" data-name="パス 9" d="M160.35,5.092a3.814,3.814,0,0,1,1.17-2.84,3.761,3.761,0,0,1,2.8-1.211,3.921,3.921,0,0,1,2.84,1.211,3.921,3.921,0,0,1,1.211,2.84,3.615,3.615,0,0,1-1.211,2.8,4.126,4.126,0,0,1-2.84,1.17,3.723,3.723,0,0,1-2.8-1.17A3.954,3.954,0,0,1,160.35,5.092Zm5.931,102.629H162.4V29.485h3.885v78.193Z" transform="translate(509.388 3.304)" fill="#fff"/>
      <path id="パス_10" data-name="パス 10" d="M263.34,5.275h-38.3V106.608h-3.885V5.275h-38.3V1.39h80.491V5.275Z" transform="translate(580.87 4.416)" fill="#fff"/>
      <path id="パス_11" data-name="パス 11" d="M201.972,46.523a45.642,45.642,0,0,1,4.3-20.133,33.173,33.173,0,0,1,12.155-13.909A32.98,32.98,0,0,1,266.005,26.1a45.269,45.269,0,0,1,4.428,20.008v3.467a46.141,46.141,0,0,1-4.261,20.175,33.059,33.059,0,0,1-59.814.125,45.935,45.935,0,0,1-4.428-19.924V46.481Zm3.885,3.049a40.9,40.9,0,0,0,3.885,17.877,30.684,30.684,0,0,0,10.777,12.7A27.882,27.882,0,0,0,236.307,84.7a27.132,27.132,0,0,0,21.8-10.067c5.6-6.683,8.438-15.33,8.438-25.856V46.523a41.064,41.064,0,0,0-3.885-17.794,30.9,30.9,0,0,0-10.818-12.74,27.7,27.7,0,0,0-15.664-4.595,27,27,0,0,0-21.8,10.192c-5.639,6.808-8.438,15.33-8.438,25.647v2.3Z" transform="translate(641.487 23.859)" fill="#fff"/>
      <path id="パス_12" data-name="パス 12" d="M281.3,87.155h-3.885V34.65c-.042-7.853-1.754-13.7-5.179-17.5-3.383-3.843-8.813-5.722-16.207-5.722-8.563,0-15.58,3.8-21.01,11.32a37.814,37.814,0,0,0-6.432,15V87.113H224.62V8.962h3.968v18.5A32.9,32.9,0,0,1,239.95,12.721,27.748,27.748,0,0,1,256.282,7.5c6.558,0,11.9,1.462,16.081,4.344s6.892,7.6,8.187,14.16a28.428,28.428,0,0,1,11.278-13.492,31.718,31.718,0,0,1,17.5-5.012q12.656,0,18.838,7.143,6.2,7.143,6.265,21.47v51h-3.885V36.447c0-8.563-1.712-14.912-5.179-19.005-3.425-4.093-8.855-6.14-16.207-6.015q-14.223.251-22.556,11.32c-3.175,4.3-4.929,8.438-5.221,12.406v52Z" transform="translate(713.573 23.827)" fill="#fff"/>
      <path id="パス_13" data-name="パス 13" d="M257.132,46.523a45.643,45.643,0,0,1,4.3-20.133,33.173,33.173,0,0,1,12.155-13.909A32.98,32.98,0,0,1,321.165,26.1a45.27,45.27,0,0,1,4.428,20.008v3.467a46.142,46.142,0,0,1-4.261,20.175,33.059,33.059,0,0,1-59.814.125,45.936,45.936,0,0,1-4.428-19.924V46.481Zm3.885,3.049A40.9,40.9,0,0,0,264.9,67.45a30.684,30.684,0,0,0,10.777,12.7A27.882,27.882,0,0,0,291.466,84.7a27.132,27.132,0,0,0,21.8-10.067c5.6-6.683,8.438-15.33,8.438-25.856V46.523a41.062,41.062,0,0,0-3.885-17.794A30.9,30.9,0,0,0,307,15.989a27.7,27.7,0,0,0-15.664-4.595,27,27,0,0,0-21.8,10.192c-5.639,6.808-8.437,15.33-8.437,25.647v2.3Z" transform="translate(816.73 23.859)" fill="#fff"/>
      <path id="パス_14" data-name="パス 14" d="M314.43,11.886l-5.054-.418a23.273,23.273,0,0,0-16.708,6.474c-4.469,4.3-7.435,10.317-8.813,18.086v51.21H279.97V8.962h3.885V25.21a29.074,29.074,0,0,1,9.523-12.949C297.6,9.087,302.943,7.5,309.334,7.5a15.314,15.314,0,0,1,5.472.794l-.418,3.509Z" transform="translate(889.419 23.827)" fill="#fff"/>
      <path id="パス_15" data-name="パス 15" d="M291.062,46.523a45.643,45.643,0,0,1,4.3-20.133,33.173,33.173,0,0,1,12.155-13.909A32.98,32.98,0,0,1,355.1,26.1a45.269,45.269,0,0,1,4.428,20.008v3.467a46.142,46.142,0,0,1-4.26,20.175,33.059,33.059,0,0,1-59.814.125,45.934,45.934,0,0,1-4.428-19.924V46.481Zm3.885,3.049a40.9,40.9,0,0,0,3.885,17.877,30.685,30.685,0,0,0,10.777,12.7A27.881,27.881,0,0,0,325.4,84.7a27.132,27.132,0,0,0,21.8-10.067c5.6-6.683,8.438-15.33,8.438-25.856V46.523a41.064,41.064,0,0,0-3.885-17.794,30.9,30.9,0,0,0-10.818-12.74,27.7,27.7,0,0,0-15.664-4.595,27,27,0,0,0-21.8,10.192c-5.639,6.808-8.437,15.33-8.437,25.647v2.3Z" transform="translate(924.525 23.859)" fill="#fff"/>
      <path id="パス_16" data-name="パス 16" d="M366.152,86.043V73.387A25.544,25.544,0,0,1,356.044,83.7c-4.428,2.548-10.025,3.8-16.833,3.8q-12.782,0-19.172-7.477-6.391-7.456-6.558-21.8V7.85h3.885v50.5c.083,8.27,1.963,14.578,5.639,18.838s9.022,6.391,16.04,6.391c7.477,0,13.533-1.754,18.212-5.263s7.644-8.688,8.9-15.455V7.85h3.968V86.043h-3.968Z" transform="translate(995.88 24.939)" fill="#fff"/>
    </g>
  </g>
</svg>
