<?xml version="1.0" encoding="utf-8"?>
<!-- Generator: Adobe Illustrator 27.5.0, SVG Export Plug-In . SVG Version: 6.00 Build 0)  -->
<svg version="1.1" id="レイヤー_1" xmlns="http://www.w3.org/2000/svg" xmlns:xlink="http://www.w3.org/1999/xlink" x="0px"
	 y="0px" viewBox="0 0 162.3 64.1" style="enable-background:new 0 0 162.3 64.1;" xml:space="preserve">
<style type="text/css">
	.st0{fill:#FFFFFF;}
</style>
<g>
	<g>
		<path class="st0" d="M4.9,13.4l-4,3.7v9.5H0V1.4h0.9V16l4.2-4.1L15.6,1.4h1.3L5.7,12.7l12.1,13.9h-1.2L4.9,13.4z"/>
		<path class="st0" d="M21,17c0-1.8,0.3-3.4,1-4.8s1.7-2.5,2.9-3.3c1.3-0.8,2.7-1.2,4.2-1.2c1.6,0,3,0.4,4.2,1.2
			c1.2,0.8,2.2,1.9,2.9,3.3s1.1,3,1.1,4.8v0.8c0,1.8-0.3,3.4-1,4.8s-1.6,2.5-2.9,3.3c-1.3,0.8-2.7,1.2-4.2,1.2s-3-0.4-4.2-1.2
			c-1.3-0.8-2.2-1.9-2.9-3.3c-0.7-1.4-1-3-1.1-4.8V17z M22,17.7c0,1.6,0.3,3,0.9,4.3s1.5,2.3,2.6,3s2.4,1.1,3.8,1.1
			c2.1,0,3.9-0.8,5.2-2.4s2-3.7,2-6.2V17c0-1.5-0.3-3-0.9-4.3c-0.6-1.3-1.5-2.3-2.6-3.1c-1.1-0.8-2.4-1.1-3.7-1.1
			c-2.1,0-3.9,0.8-5.2,2.4c-1.3,1.6-2,3.7-2,6.1L22,17.7L22,17.7z"/>
		<path class="st0" d="M44.8,12.3c0.6-1.5,1.5-2.6,2.7-3.4s2.5-1.3,3.9-1.3c2,0,3.5,0.6,4.5,1.7s1.5,2.9,1.5,5.1v12.2h-1V14.4
			c0-2-0.4-3.5-1.2-4.5s-2.1-1.4-3.8-1.4c-1.6,0-3,0.6-4.2,1.7s-2,2.6-2.4,4.4v12h-0.9V0h0.9C44.8,0,44.8,12.3,44.8,12.3z"/>
		<path class="st0" d="M65.6,2.1c0-0.3,0.1-0.5,0.3-0.7s0.4-0.3,0.7-0.3c0.3,0,0.5,0.1,0.7,0.3c0.2,0.2,0.3,0.4,0.3,0.7
			s-0.1,0.5-0.3,0.7s-0.4,0.3-0.7,0.3c-0.3,0-0.5-0.1-0.7-0.3C65.7,2.6,65.6,2.4,65.6,2.1z M67.1,26.7h-0.9V8h0.9V26.7z"/>
		<path class="st0" d="M74.8,17.1c0-3,0.6-5.3,1.9-7c1.3-1.7,3-2.5,5.2-2.5c1.4,0,2.6,0.3,3.7,1s2,1.6,2.6,2.8V8h1v18.4
			c0,2.5-0.6,4.4-1.9,5.8c-1.3,1.4-3,2.1-5.2,2.1c-1.3,0-2.4-0.3-3.5-0.8c-1-0.5-1.9-1.3-2.7-2.3l0.7-0.6c0.7,0.9,1.5,1.6,2.4,2.1
			s1.9,0.7,3,0.7c1.9,0,3.4-0.6,4.5-1.8c1.1-1.2,1.6-2.8,1.7-4.9v-2.9c-0.6,1.1-1.5,1.9-2.6,2.4S83.2,27,81.8,27
			c-2.2,0-3.9-0.9-5.1-2.6c-1.3-1.7-1.9-4.1-1.9-7.1C74.8,17.3,74.8,17.1,74.8,17.1z M75.7,17.5c0,2.7,0.5,4.8,1.6,6.3
			c1.1,1.5,2.5,2.3,4.5,2.3c1.6,0,2.9-0.4,4-1.1c1.1-0.7,1.9-1.8,2.4-3.1v-8.5c-1-3.2-3.1-4.9-6.3-4.9c-1.9,0-3.4,0.8-4.5,2.3
			C76.3,12.3,75.7,14.6,75.7,17.5z"/>
		<path class="st0" d="M110,26.7c-0.2-0.8-0.3-1.9-0.3-3.4c-0.7,1.2-1.7,2.1-3,2.8c-1.3,0.7-2.7,1-4.3,1c-1.7,0-3.1-0.5-4.2-1.4
			c-1.1-0.9-1.6-2.2-1.6-3.7c0-1.7,0.8-3.1,2.3-4.1c1.6-1,3.6-1.6,6.2-1.6h4.6v-2.7c0-1.6-0.5-2.8-1.5-3.7c-1-0.9-2.4-1.3-4.2-1.3
			c-1.7,0-3.1,0.4-4.3,1.3c-1.1,0.9-1.7,2-1.7,3.3h-0.9c0-1.5,0.7-2.8,2-3.9c1.3-1.1,3-1.6,4.9-1.6c2,0,3.6,0.5,4.8,1.5
			s1.8,2.4,1.8,4.3v8.9c0,2.1,0.2,3.4,0.5,4.2v0.2H110V26.7z M102.3,26.1c1.8,0,3.3-0.4,4.5-1.2c1.3-0.8,2.2-1.9,2.8-3.3v-4.4h-4.2
			c-2.7,0-4.7,0.5-6.1,1.6c-1.2,0.9-1.7,1.9-1.7,3.2c0,1.1,0.5,2.1,1.4,2.9C99.8,25.7,100.9,26.1,102.3,26.1z"/>
		<path class="st0" d="M130.3,22.1c0-2.3-1.9-3.8-5.8-4.6c-2.3-0.5-4-1.1-4.9-1.9c-0.9-0.8-1.4-1.8-1.4-3.2c0-1.4,0.6-2.5,1.7-3.4
			c1.2-0.9,2.7-1.3,4.5-1.3c2,0,3.6,0.5,4.9,1.4c1.2,1,1.8,2.3,1.8,3.9h-1c0-1.3-0.5-2.3-1.6-3.1c-1.1-0.8-2.4-1.3-4.2-1.3
			c-1.6,0-2.9,0.4-3.9,1.1s-1.4,1.6-1.4,2.7c0,0.8,0.2,1.5,0.5,2c0.4,0.5,0.9,0.9,1.7,1.3c0.8,0.4,2,0.8,3.5,1.1
			c1.5,0.4,2.8,0.8,3.7,1.3c0.9,0.5,1.6,1.1,2,1.7c0.4,0.7,0.6,1.5,0.6,2.4c0,1.5-0.6,2.7-1.8,3.6c-1.2,0.9-2.8,1.3-4.8,1.3
			c-2.1,0-3.8-0.5-5.1-1.4c-1.3-1-1.9-2.2-1.9-3.7h0.9c0.1,1.3,0.7,2.3,1.7,3.1c1.1,0.7,2.5,1.1,4.3,1.1c1.7,0,3-0.4,4.1-1.2
			C129.8,24.1,130.3,23.2,130.3,22.1z"/>
		<path class="st0" d="M139.5,12.3c0.6-1.5,1.5-2.6,2.7-3.4c1.2-0.8,2.5-1.3,3.9-1.3c2,0,3.5,0.6,4.5,1.7s1.5,2.9,1.5,5.1v12.2h-0.9
			V14.4c0-2-0.4-3.5-1.2-4.5s-2.1-1.4-3.8-1.4c-1.6,0-3,0.6-4.2,1.7s-2,2.6-2.4,4.4v12h-0.9V0h0.9v12.3H139.5z"/>
		<path class="st0" d="M160.3,2.1c0-0.3,0.1-0.5,0.3-0.7s0.4-0.3,0.7-0.3c0.3,0,0.5,0.1,0.7,0.3c0.2,0.2,0.3,0.4,0.3,0.7
			s-0.1,0.5-0.3,0.7c-0.2,0.2-0.4,0.3-0.7,0.3s-0.5-0.1-0.7-0.3S160.3,2.4,160.3,2.1z M161.7,26.7h-0.9V8h0.9V26.7z"/>
	</g>
	<g>
		<path class="st0" d="M19.3,39.4h-9.2v24.3H9.2V39.4H0v-0.9h19.3V39.4z"/>
		<path class="st0" d="M19.1,54c0-1.8,0.3-3.4,1-4.8s1.7-2.5,2.9-3.3c1.3-0.8,2.7-1.2,4.2-1.2c1.6,0,3,0.4,4.2,1.2
			c1.2,0.8,2.2,1.9,2.9,3.3s1.1,3,1.1,4.8v0.8c0,1.8-0.3,3.4-1,4.8s-1.6,2.5-2.9,3.3c-1.3,0.8-2.7,1.2-4.2,1.2s-3-0.4-4.2-1.2
			c-1.3-0.8-2.2-1.9-2.9-3.3c-0.7-1.4-1-3-1.1-4.8C19.1,54.8,19.1,54,19.1,54z M20,54.7c0,1.6,0.3,3,0.9,4.3s1.5,2.3,2.6,3
			s2.4,1.1,3.8,1.1c2.1,0,3.9-0.8,5.2-2.4c1.3-1.6,2-3.7,2-6.2V54c0-1.5-0.3-3-0.9-4.3c-0.6-1.3-1.5-2.3-2.6-3.1
			c-1.1-0.8-2.4-1.1-3.7-1.1c-2.1,0-3.9,0.8-5.2,2.4c-1.3,1.6-2,3.7-2,6.1v0.7H20z"/>
		<path class="st0" d="M55.4,63.7h-0.9V51.1c0-1.9-0.4-3.3-1.2-4.2c-0.8-0.9-2.1-1.4-3.9-1.4c-2.1,0-3.7,0.9-5,2.7
			c-0.8,1.1-1.3,2.3-1.5,3.6v11.8h-1V45h1v4.4c0.6-1.5,1.5-2.7,2.7-3.5s2.5-1.2,3.9-1.2c1.6,0,2.9,0.3,3.8,1s1.7,1.8,2,3.4
			c0.6-1.3,1.5-2.4,2.7-3.2c1.2-0.8,2.6-1.2,4.2-1.2c2,0,3.5,0.6,4.5,1.7s1.5,2.9,1.5,5.1v12.2h-0.9V51.6c0-2.1-0.4-3.6-1.2-4.6
			s-2.1-1.5-3.9-1.4c-2.3,0-4.1,0.9-5.4,2.7c-0.8,1-1.2,2-1.2,3v12.4H55.4z"/>
		<path class="st0" d="M74.3,54c0-1.8,0.3-3.4,1-4.8s1.7-2.5,2.9-3.3c1.3-0.8,2.7-1.2,4.2-1.2c1.6,0,3,0.4,4.2,1.2
			c1.2,0.8,2.2,1.9,2.9,3.3s1.1,3,1.1,4.8v0.8c0,1.8-0.3,3.4-1,4.8s-1.6,2.5-2.9,3.3c-1.3,0.8-2.7,1.2-4.2,1.2s-3-0.4-4.2-1.2
			c-1.3-0.8-2.2-1.9-2.9-3.3s-1-3-1.1-4.8V54z M75.2,54.7c0,1.6,0.3,3,0.9,4.3c0.6,1.3,1.5,2.3,2.6,3s2.4,1.1,3.8,1.1
			c2.1,0,3.9-0.8,5.2-2.4s2-3.7,2-6.2V54c0-1.5-0.3-3-0.9-4.3c-0.6-1.3-1.5-2.3-2.6-3.1s-2.4-1.1-3.7-1.1c-2.1,0-3.9,0.8-5.2,2.4
			s-2,3.7-2,6.1v0.7H75.2z"/>
		<path class="st0" d="M105.4,45.7l-1.2-0.1c-1.6,0-2.9,0.5-4,1.5s-1.8,2.5-2.1,4.3v12.3h-0.9V45h0.9v3.9c0.5-1.3,1.3-2.3,2.3-3.1
			c1-0.8,2.3-1.1,3.8-1.1c0.5,0,1,0.1,1.3,0.2L105.4,45.7z"/>
		<path class="st0" d="M108.2,54c0-1.8,0.3-3.4,1-4.8s1.7-2.5,2.9-3.3c1.3-0.8,2.7-1.2,4.2-1.2c1.6,0,3,0.4,4.2,1.2
			c1.2,0.8,2.2,1.9,2.9,3.3s1.1,3,1.1,4.8v0.8c0,1.8-0.3,3.4-1,4.8s-1.6,2.5-2.9,3.3c-1.3,0.8-2.7,1.2-4.2,1.2s-3-0.4-4.2-1.2
			c-1.3-0.8-2.2-1.9-2.9-3.3s-1-3-1.1-4.8V54z M109.1,54.7c0,1.6,0.3,3,0.9,4.3c0.6,1.3,1.5,2.3,2.6,3s2.4,1.1,3.8,1.1
			c2.1,0,3.9-0.8,5.2-2.4s2-3.7,2-6.2V54c0-1.5-0.3-3-0.9-4.3c-0.6-1.3-1.5-2.3-2.6-3.1s-2.4-1.1-3.7-1.1c-2.1,0-3.9,0.8-5.2,2.4
			s-2,3.7-2,6.1v0.7H109.1z"/>
		<path class="st0" d="M143.3,63.7v-3c-0.6,1-1.4,1.9-2.4,2.5c-1.1,0.6-2.4,0.9-4,0.9c-2,0-3.6-0.6-4.6-1.8c-1-1.2-1.5-2.9-1.6-5.2
			V45h0.9v12.1c0,2,0.5,3.5,1.3,4.5c0.9,1,2.2,1.5,3.8,1.5c1.8,0,3.2-0.4,4.4-1.3c1.1-0.8,1.8-2.1,2.1-3.7V45h1v18.7H143.3z"/>
	</g>
</g>
</svg>
