<svg width="1920" height="754" viewBox="0 0 1920 754" fill="none" xmlns="http://www.w3.org/2000/svg">
<path d="M142 190.89H171.97V6.20969H142V2.42969H228.94V6.20969H198.97V94.4997H288.88V6.20969H258.91V2.42969H345.85V6.20969H315.88V190.89H345.85V194.67H258.91V190.89H288.88V98.2797H198.97V190.89H228.94V194.67H142V190.89Z" fill="white"/>
<path d="M393.369 127.709C393.369 129.509 393.329 131.349 393.239 133.249C393.149 135.139 393.109 137.529 393.109 140.409C393.109 146.349 393.469 152.559 394.189 159.039C394.909 165.519 396.479 171.369 398.909 176.589C401.339 181.809 404.939 186.129 409.709 189.549C414.479 192.969 420.819 194.679 428.749 194.679C436.679 194.679 443.199 193.509 448.319 191.169C453.449 188.829 457.499 185.999 460.469 182.669C463.439 179.339 465.639 175.969 467.089 172.549C468.529 169.129 469.609 166.339 470.329 164.179L474.379 164.989C473.839 166.969 472.799 169.809 471.279 173.489C469.749 177.179 467.319 180.869 463.989 184.559C460.659 188.249 456.159 191.489 450.489 194.279C444.819 197.069 437.479 198.469 428.479 198.469C419.479 198.469 411.149 197.029 403.509 194.149C395.859 191.269 389.239 187.129 383.669 181.729C378.089 176.329 373.769 169.899 370.709 162.429C367.649 154.959 366.119 146.639 366.119 137.449C366.119 129.529 367.689 121.839 370.839 114.369C373.989 106.899 378.309 100.289 383.799 94.5294C389.289 88.7694 395.719 84.1294 403.099 80.6194C410.479 77.1094 418.399 75.3594 426.859 75.3594C431.899 75.3594 437.299 76.2594 443.059 78.0594C448.819 79.8594 454.169 82.7794 459.129 86.8294C464.079 90.8794 468.219 96.2394 471.549 102.899C474.879 109.559 476.539 117.839 476.539 127.739H393.379L393.369 127.709ZM448.989 123.929C449.349 121.409 449.529 119.069 449.529 116.909V110.159C449.529 104.039 448.939 98.9994 447.779 95.0394C446.609 91.0794 444.989 87.9294 442.919 85.5894C440.849 83.2494 438.329 81.5894 435.359 80.5894C432.389 79.5994 429.189 79.1094 425.769 79.1094C419.649 79.1094 414.609 80.3194 410.649 82.7494C406.689 85.1794 403.539 88.4694 401.199 92.6094C398.859 96.7494 397.099 101.519 395.939 106.919C394.769 112.319 393.999 117.989 393.649 123.929H448.999H448.989Z" fill="white"/>
<path d="M618.009 191.701C615.669 193.501 612.879 195.081 609.639 196.421C606.399 197.771 602.439 198.451 597.759 198.451C589.119 198.451 582.859 196.601 578.989 192.911C575.119 189.221 572.459 184.051 571.029 177.381H570.489C569.769 179.001 568.779 181.031 567.519 183.461C566.259 185.891 564.319 188.231 561.719 190.481C559.109 192.731 555.649 194.621 551.329 196.151C547.009 197.681 541.519 198.441 534.859 198.441C527.299 198.441 521.269 197.581 516.769 195.871C512.269 194.161 508.759 192.051 506.239 189.531C503.719 187.011 502.049 184.181 501.239 181.031C500.429 177.881 500.029 174.951 500.029 172.251C500.029 165.951 501.289 160.911 503.809 157.131C506.329 153.351 509.619 150.341 513.669 148.091C517.719 145.841 522.219 144.001 527.169 142.551C532.119 141.111 537.109 139.581 542.159 137.961C548.099 135.981 552.999 134.271 556.869 132.831C560.739 131.391 563.749 129.641 565.909 127.571C568.069 125.501 569.549 122.891 570.369 119.741C571.179 116.591 571.579 112.321 571.579 106.911C571.579 102.591 571.309 98.7206 570.769 95.3006C570.229 91.8806 569.239 88.9605 567.799 86.5305C566.359 84.1005 564.289 82.2605 561.589 80.9905C558.889 79.7305 555.289 79.1005 550.789 79.1005C544.849 79.1005 539.939 80.1405 536.079 82.2005C532.209 84.2705 530.279 87.6505 530.279 92.3205C530.279 95.3805 530.549 98.4005 531.089 101.361C531.629 104.331 531.899 106.541 531.899 107.981C531.899 110.501 530.999 112.621 529.199 114.321C527.399 116.031 524.789 116.891 521.369 116.891C515.429 116.891 511.739 115.811 510.299 113.651C508.859 111.491 508.139 108.701 508.139 105.281C508.139 101.321 509.039 97.5406 510.839 93.9406C512.639 90.3406 515.299 87.1505 518.799 84.3605C522.309 81.5705 526.719 79.3605 532.029 77.7405C537.339 76.1205 543.409 75.3105 550.249 75.3105C558.529 75.3105 565.459 76.3506 571.039 78.4106C576.619 80.4806 581.119 83.2705 584.539 86.7805C587.959 90.2905 590.389 94.2506 591.829 98.6606C593.269 103.071 593.989 107.701 593.989 112.571V179.801C593.989 185.021 594.799 188.531 596.419 190.331C598.039 192.131 600.379 193.031 603.439 193.031C605.419 193.031 607.489 192.671 609.649 191.951C611.809 191.231 613.879 190.151 615.859 188.711L618.019 191.681L618.009 191.701ZM570.759 128.521H570.219C569.859 130.861 566.889 133.201 561.309 135.541L541.059 143.641C535.299 145.981 530.889 149.271 527.829 153.501C524.769 157.731 523.239 163.001 523.239 169.291C523.239 171.991 523.509 174.781 524.049 177.661C524.589 180.541 525.579 183.111 527.019 185.351C528.459 187.601 530.479 189.451 533.089 190.891C535.699 192.331 539.069 193.051 543.209 193.051C549.149 193.051 553.959 191.791 557.659 189.271C561.349 186.751 564.139 183.601 566.029 179.821C567.919 176.041 569.179 171.951 569.809 167.531C570.439 163.121 570.759 159.121 570.759 155.511V128.511V128.521Z" fill="white"/>
<path d="M626.369 190.89H647.159V3.78H626.369V0H670.379V190.89H691.169V194.67H626.369V190.89Z" fill="white"/>
<path d="M703.32 78.8398H724.11V44.0098C725.55 44.5498 726.9 44.9998 728.16 45.3598C729.42 45.7198 731.58 45.8998 734.64 45.8998C737.34 45.8998 739.68 45.5898 741.66 44.9498C743.64 44.3198 745.53 43.2898 747.33 41.8398V78.8298H785.67V82.6098H747.33V170.9C747.33 175.94 747.82 180.04 748.82 183.19C749.81 186.34 751.11 188.77 752.73 190.48C754.35 192.19 756.11 193.31 758 193.86C759.89 194.41 761.73 194.67 763.54 194.67C769.84 194.67 774.92 192.38 778.79 187.79C782.66 183.2 785.14 177.93 786.22 172L790 173.35C789.46 175.69 788.65 178.3 787.57 181.18C786.49 184.06 784.82 186.81 782.58 189.42C780.33 192.03 777.4 194.19 773.8 195.9C770.2 197.61 765.7 198.47 760.3 198.47C746.8 198.47 737.39 195.86 732.09 190.64C726.78 185.42 724.13 178.04 724.13 168.5V82.6398H703.34V78.8598L703.32 78.8398Z" fill="white"/>
<path d="M795.391 190.89H816.181V3.78H795.391V0H839.401V106.11H839.941C840.841 103.77 842.371 100.84 844.531 97.33C846.691 93.82 849.611 90.49 853.311 87.34C857.001 84.19 861.501 81.49 866.811 79.24C872.121 76.99 878.461 75.86 885.851 75.86C897.731 75.86 907.401 78.74 914.871 84.5C922.341 90.26 926.081 99.44 926.081 112.04V190.88H946.871V194.66H882.071V190.88H902.861V103.67C902.861 96.65 901.191 90.89 897.861 86.39C894.531 81.89 889.361 79.64 882.341 79.64C876.581 79.64 871.091 80.9 865.871 83.42C860.651 85.94 856.061 89.45 852.101 93.95C848.141 98.45 845.031 103.76 842.781 109.88C840.531 116 839.401 122.66 839.401 129.86V190.88H860.191V194.66H795.391V190.88V190.89Z" fill="white"/>
<path d="M952.26 78.8398H1018.41V82.6199H995.73L1030.56 167.4L1067.01 82.6199H1044.6V78.8398H1085.91V82.6199H1071.33L1026.78 186.84C1023.36 194.58 1020.12 202.37 1017.06 210.2C1014 218.03 1010.94 225.9 1007.88 233.82C1005.36 240.3 1002.84 245.97 1000.32 250.83C997.8 255.69 995.14 259.65 992.36 262.71C989.57 265.77 986.56 268.06 983.32 269.59C980.08 271.12 976.3 271.88 971.98 271.88C966.76 271.88 962.57 271.07 959.43 269.45C956.28 267.83 953.8 265.94 952 263.78C950.2 261.62 949.03 259.37 948.49 257.03C947.95 254.69 947.68 252.71 947.68 251.09C947.68 246.59 948.94 243.21 951.46 240.97C953.98 238.72 957.04 237.59 960.64 237.59C961.9 237.59 963.25 237.73 964.69 238C966.13 238.27 967.48 238.76 968.74 239.49C970 240.21 971.08 241.2 971.98 242.46C972.88 243.72 973.33 245.25 973.33 247.05C973.33 249.57 972.56 251.95 971.04 254.21C969.51 256.46 968.75 258.93 968.75 261.63C968.75 263.97 969.38 265.5 970.64 266.22C971.9 266.94 973.61 267.3 975.77 267.3C978.65 267.3 981.31 266.63 983.74 265.28C986.17 263.93 988.55 261.72 990.89 258.66C993.23 255.6 995.57 251.59 997.91 246.64C1000.25 241.69 1002.86 235.61 1005.74 228.42L1017.62 198.18L970.91 82.6199H952.28V78.8398H952.26Z" fill="white"/>
<path d="M1451.24 435.68C1449.94 436.68 1448.39 437.56 1446.59 438.3C1444.79 439.05 1442.59 439.42 1439.99 439.42C1435.19 439.42 1431.71 438.39 1429.56 436.35C1427.41 434.3 1425.94 431.43 1425.13 427.73H1424.83C1424.43 428.63 1423.88 429.75 1423.18 431.11C1422.48 432.46 1421.4 433.76 1419.96 435.01C1418.51 436.26 1416.58 437.31 1414.18 438.16C1411.78 439.01 1408.73 439.43 1405.03 439.43C1400.83 439.43 1397.48 438.95 1394.98 438.01C1392.48 437.06 1390.53 435.89 1389.13 434.49C1387.73 433.09 1386.81 431.52 1386.36 429.76C1385.91 428.01 1385.68 426.38 1385.68 424.88C1385.68 421.38 1386.38 418.58 1387.78 416.48C1389.18 414.38 1391 412.71 1393.25 411.45C1395.5 410.2 1398 409.18 1400.75 408.37C1403.5 407.57 1406.28 406.72 1409.08 405.82C1412.38 404.72 1415.1 403.77 1417.25 402.97C1419.4 402.17 1421.08 401.2 1422.28 400.04C1423.48 398.89 1424.31 397.44 1424.75 395.69C1425.2 393.94 1425.43 391.57 1425.43 388.57C1425.43 386.17 1425.28 384.02 1424.98 382.12C1424.68 380.22 1424.13 378.6 1423.33 377.24C1422.53 375.89 1421.38 374.87 1419.88 374.16C1418.38 373.46 1416.38 373.11 1413.88 373.11C1410.58 373.11 1407.85 373.69 1405.71 374.84C1403.56 375.99 1402.49 377.87 1402.49 380.46C1402.49 382.16 1402.64 383.84 1402.94 385.48C1403.24 387.13 1403.39 388.36 1403.39 389.15C1403.39 390.55 1402.89 391.73 1401.89 392.68C1400.89 393.63 1399.44 394.1 1397.54 394.1C1394.24 394.1 1392.19 393.5 1391.39 392.3C1390.59 391.1 1390.19 389.55 1390.19 387.65C1390.19 385.45 1390.69 383.35 1391.69 381.35C1392.69 379.35 1394.16 377.58 1396.12 376.02C1398.07 374.47 1400.52 373.25 1403.47 372.35C1406.42 371.45 1409.79 371 1413.59 371C1418.19 371 1422.04 371.58 1425.14 372.72C1428.24 373.87 1430.74 375.42 1432.64 377.37C1434.54 379.32 1435.89 381.52 1436.69 383.97C1437.49 386.42 1437.89 389 1437.89 391.7V429.05C1437.89 431.95 1438.34 433.9 1439.24 434.9C1440.14 435.9 1441.44 436.4 1443.14 436.4C1444.24 436.4 1445.39 436.2 1446.59 435.8C1447.79 435.4 1448.94 434.8 1450.04 434L1451.24 435.65V435.68ZM1424.99 400.58H1424.69C1424.49 401.88 1422.84 403.18 1419.74 404.48L1408.49 408.98C1405.29 410.28 1402.84 412.11 1401.14 414.45C1399.44 416.8 1398.59 419.73 1398.59 423.23C1398.59 424.73 1398.74 426.28 1399.04 427.88C1399.34 429.48 1399.89 430.91 1400.69 432.16C1401.49 433.41 1402.61 434.44 1404.07 435.24C1405.52 436.04 1407.39 436.44 1409.69 436.44C1412.99 436.44 1415.66 435.74 1417.72 434.34C1419.77 432.94 1421.32 431.19 1422.37 429.09C1423.42 426.99 1424.12 424.72 1424.47 422.26C1424.82 419.81 1425 417.59 1425 415.59V400.59L1424.99 400.58Z" fill="white"/>
<path d="M1455.43 435.23H1466.98V375.08H1455.43V372.98H1479.58V389.03H1479.88C1480.48 387.73 1481.35 386.08 1482.5 384.08C1483.65 382.08 1485.22 380.13 1487.22 378.23C1489.22 376.33 1491.72 374.7 1494.72 373.35C1497.72 372 1501.37 371.32 1505.67 371.32C1512.27 371.32 1517.64 372.92 1521.79 376.12C1525.94 379.32 1528.01 384.42 1528.01 391.42V435.22H1539.56V437.32H1503.56V435.22H1515.11V386.77C1515.11 382.87 1514.18 379.67 1512.33 377.17C1510.48 374.67 1507.61 373.42 1503.71 373.42C1500.51 373.42 1497.46 374.12 1494.56 375.52C1491.66 376.92 1489.11 378.87 1486.91 381.37C1484.71 383.87 1482.98 386.82 1481.74 390.22C1480.49 393.62 1479.86 397.32 1479.86 401.32V435.22H1491.41V437.32H1455.41V435.22L1455.43 435.23Z" fill="white"/>
<path d="M1592.08 329.18H1616.53V435.23H1628.08V437.33H1603.93V424.28H1603.63C1603.23 425.48 1602.63 426.93 1601.83 428.63C1601.03 430.33 1599.86 431.98 1598.3 433.58C1596.75 435.18 1594.8 436.56 1592.45 437.7C1590.1 438.84 1587.22 439.42 1583.83 439.42C1579.43 439.42 1575.25 438.47 1571.3 436.57C1567.35 434.67 1563.88 432.12 1560.88 428.92C1557.88 425.72 1555.5 422.05 1553.76 417.9C1552.01 413.75 1551.14 409.38 1551.14 404.78C1551.14 400.18 1551.99 395.98 1553.69 391.88C1555.39 387.78 1557.69 384.21 1560.59 381.16C1563.49 378.11 1566.84 375.66 1570.64 373.81C1574.44 371.96 1578.49 371.04 1582.79 371.04C1588.29 371.04 1592.74 372.39 1596.14 375.09C1599.54 377.79 1601.94 381.09 1603.34 384.99H1603.64V331.29H1592.09V329.19L1592.08 329.18ZM1566.13 402.98C1566.13 408.18 1566.28 412.91 1566.58 417.15C1566.88 421.4 1567.63 425.03 1568.83 428.03C1570.03 431.03 1571.83 433.33 1574.23 434.93C1576.63 436.53 1579.88 437.33 1583.98 437.33C1588.08 437.33 1591.55 436.43 1594.1 434.63C1596.65 432.83 1598.62 430.51 1600.03 427.66C1601.43 424.81 1602.38 421.64 1602.88 418.13C1603.38 414.63 1603.63 411.23 1603.63 407.93C1603.63 404.03 1603.55 400.66 1603.41 397.81C1603.26 394.96 1602.98 392.44 1602.58 390.24C1602.18 388.04 1601.63 386.14 1600.93 384.54C1600.23 382.94 1599.38 381.44 1598.38 380.04C1596.88 378.04 1594.93 376.39 1592.53 375.09C1590.13 373.79 1587.08 373.14 1583.38 373.14C1579.88 373.14 1577 373.84 1574.76 375.24C1572.51 376.64 1570.76 378.64 1569.51 381.24C1568.26 383.84 1567.38 386.97 1566.89 390.62C1566.39 394.27 1566.14 398.4 1566.14 403L1566.13 402.98Z" fill="white"/>
<path d="M649.5 745.61H679.47V560.93H649.5V557.15H699.72C702.24 557.15 704.76 557.11 707.28 557.02C709.8 556.93 712.32 556.8 714.84 556.61C717.36 556.61 719.88 556.57 722.4 556.48C724.92 556.39 727.44 556.35 729.96 556.35C735.36 556.35 740.17 556.44 744.41 556.62C748.64 556.8 752.6 557.12 756.29 557.57C759.98 558.02 763.49 558.65 766.82 559.46C770.15 560.27 773.7 561.31 777.48 562.57C788.46 566.17 797.95 570.99 805.97 577.02C813.98 583.05 820.55 590.03 825.68 597.94C830.81 605.86 834.59 614.5 837.02 623.86C839.45 633.22 840.66 643.03 840.66 653.29C840.66 665.17 839.22 675.83 836.34 685.29C833.46 694.74 829.5 703.11 824.46 710.4C819.42 717.69 813.52 723.99 806.77 729.3C800.02 734.61 792.77 738.88 785.04 742.13C780.72 744.11 776.62 745.64 772.75 746.72C768.88 747.8 764.92 748.61 760.87 749.15C756.82 749.69 752.37 750.05 747.51 750.23C742.65 750.41 737.07 750.5 730.77 750.5C728.07 750.5 725.19 750.45 722.13 750.37C719.07 750.28 716.01 750.14 712.95 749.96C709.89 749.78 706.87 749.64 703.91 749.55C700.94 749.46 698.11 749.42 695.4 749.42H649.5V745.64V745.61ZM706.47 745.61C709.53 745.97 713.09 746.24 717.14 746.42C721.19 746.6 725.64 746.69 730.5 746.69C736.62 746.69 742.69 746.38 748.73 745.75C754.76 745.12 760.52 743.77 766.01 741.7C771.5 739.63 776.63 736.66 781.4 732.79C786.17 728.92 790.44 723.84 794.22 717.54C799.98 707.82 803.98 697.88 806.24 687.71C808.49 677.54 809.62 666.43 809.62 654.37C809.62 640.15 808.27 627.24 805.57 615.62C802.87 604.01 798.42 594.11 792.2 585.92C785.99 577.73 777.75 571.39 767.49 566.89C757.23 562.39 744.54 560.14 729.42 560.14C724.92 560.14 720.82 560.23 717.14 560.41C713.45 560.59 709.89 560.77 706.47 560.95V745.63V745.61Z" fill="white"/>
<path d="M900.869 682.428C900.869 684.228 900.829 686.068 900.739 687.968C900.649 689.858 900.609 692.248 900.609 695.128C900.609 701.068 900.969 707.278 901.689 713.758C902.409 720.238 903.979 726.088 906.409 731.308C908.839 736.528 912.439 740.848 917.209 744.268C921.979 747.688 928.319 749.398 936.249 749.398C944.179 749.398 950.699 748.228 955.819 745.888C960.949 743.548 964.999 740.718 967.969 737.388C970.939 734.058 973.139 730.688 974.589 727.268C976.029 723.848 977.109 721.058 977.829 718.898L981.879 719.708C981.339 721.688 980.299 724.528 978.779 728.208C977.249 731.898 974.819 735.588 971.489 739.278C968.159 742.968 963.659 746.208 957.989 748.998C952.319 751.788 944.979 753.188 935.979 753.188C926.979 753.188 918.649 751.748 911.009 748.868C903.359 745.988 896.739 741.848 891.169 736.448C885.589 731.048 881.269 724.618 878.209 717.148C875.149 709.678 873.619 701.358 873.619 692.168C873.619 684.248 875.189 676.558 878.339 669.088C881.489 661.618 885.809 655.008 891.299 649.248C896.789 643.488 903.219 638.848 910.599 635.338C917.979 631.828 925.899 630.078 934.359 630.078C939.399 630.078 944.799 630.978 950.559 632.778C956.319 634.578 961.669 637.498 966.629 641.548C971.579 645.598 975.719 650.958 979.049 657.618C982.379 664.278 984.039 672.558 984.039 682.458H900.879L900.869 682.428ZM956.489 678.648C956.849 676.128 957.029 673.788 957.029 671.628V664.878C957.029 658.758 956.439 653.718 955.279 649.758C954.109 645.798 952.489 642.648 950.419 640.308C948.349 637.968 945.829 636.308 942.859 635.308C939.889 634.318 936.689 633.828 933.269 633.828C927.149 633.828 922.109 635.038 918.149 637.468C914.189 639.898 911.039 643.188 908.699 647.328C906.359 651.468 904.599 656.238 903.439 661.638C902.269 667.038 901.499 672.708 901.149 678.648H956.499H956.489Z" fill="white"/>
<path d="M1004.01 745.609H1024.8V558.499H1004.01V554.719H1048.02V745.609H1068.81V749.389H1004.01V745.609Z" fill="white"/>
<path d="M1083.92 745.61H1104.71V637.34H1083.92V633.56H1127.93V745.61H1148.72V749.39H1083.92V745.61ZM1101.47 570.65C1101.47 566.69 1102.86 563.32 1105.66 560.53C1108.45 557.74 1111.82 556.35 1115.78 556.35C1119.74 556.35 1123.11 557.75 1125.9 560.53C1128.69 563.32 1130.09 566.7 1130.09 570.65C1130.09 574.6 1128.69 577.99 1125.9 580.77C1123.11 583.56 1119.73 584.96 1115.78 584.96C1111.83 584.96 1108.44 583.57 1105.66 580.77C1102.87 577.98 1101.47 574.61 1101.47 570.65Z" fill="white"/>
<path d="M1276.7 719.689C1276.16 721.669 1275.12 724.509 1273.6 728.189C1272.07 731.879 1269.64 735.569 1266.31 739.259C1262.98 742.949 1258.48 746.189 1252.81 748.979C1247.14 751.769 1239.8 753.169 1230.8 753.169C1223.96 753.169 1216.85 752.089 1209.47 749.929C1202.09 747.769 1195.34 744.309 1189.22 739.529C1183.1 734.759 1178.1 728.509 1174.23 720.769C1170.36 713.029 1168.43 703.489 1168.43 692.149C1168.43 683.329 1170.09 675.139 1173.42 667.579C1176.75 660.019 1181.25 653.449 1186.92 647.869C1192.59 642.289 1199.25 637.929 1206.9 634.769C1214.55 631.619 1222.69 630.049 1231.34 630.049C1236.2 630.049 1241.2 630.639 1246.32 631.799C1251.45 632.969 1256.13 634.769 1260.36 637.199C1264.59 639.629 1268.1 642.779 1270.89 646.649C1273.68 650.519 1275.08 655.249 1275.08 660.829C1275.08 664.609 1273.87 667.709 1271.44 670.139C1269.01 672.569 1265.54 673.789 1261.04 673.789C1257.98 673.789 1255.05 673.109 1252.27 671.759C1249.48 670.409 1248.08 668.119 1248.08 664.879C1248.08 662.359 1248.71 659.299 1249.97 655.699C1251.23 652.099 1251.86 649.129 1251.86 646.789C1251.86 642.649 1249.79 639.459 1245.65 637.209C1241.51 634.959 1236.74 633.829 1231.34 633.829C1227.38 633.829 1223.28 634.329 1219.05 635.309C1214.82 636.299 1210.95 638.779 1207.44 642.729C1203.93 646.689 1201.05 652.629 1198.8 660.549C1196.55 668.469 1195.42 679.269 1195.42 692.949C1195.42 700.689 1195.91 707.979 1196.9 714.819C1197.89 721.659 1199.69 727.639 1202.3 732.769C1204.91 737.899 1208.51 741.949 1213.1 744.919C1217.69 747.889 1223.67 749.379 1231.06 749.379C1238.98 749.379 1245.51 748.209 1250.63 745.869C1255.76 743.529 1259.81 740.699 1262.78 737.369C1265.75 734.039 1267.95 730.669 1269.4 727.249C1270.84 723.829 1271.92 721.039 1272.64 718.879L1276.69 719.689H1276.7Z" fill="white"/>
<path d="M1293.71 745.61H1314.5V637.34H1293.71V633.56H1337.72V745.61H1358.51V749.39H1293.71V745.61ZM1311.26 570.65C1311.26 566.69 1312.65 563.32 1315.45 560.53C1318.24 557.74 1321.61 556.35 1325.57 556.35C1329.53 556.35 1332.9 557.75 1335.69 560.53C1338.48 563.32 1339.88 566.7 1339.88 570.65C1339.88 574.6 1338.48 577.99 1335.69 580.77C1332.9 583.56 1329.52 584.96 1325.57 584.96C1321.62 584.96 1318.23 583.57 1315.45 580.77C1312.66 577.98 1311.26 574.61 1311.26 570.65Z" fill="white"/>
<path d="M1378.21 691.609C1378.21 682.789 1380.14 674.599 1384.01 667.039C1387.88 659.479 1392.83 652.959 1398.86 647.459C1404.89 641.969 1411.64 637.699 1419.11 634.629C1426.58 631.569 1433.91 630.039 1441.12 630.039C1448.33 630.039 1455.65 631.569 1463.13 634.629C1470.6 637.689 1477.35 641.969 1483.38 647.459C1489.41 652.949 1494.36 659.469 1498.23 667.039C1502.1 674.599 1504.03 682.789 1504.03 691.609C1504.03 700.429 1502.23 708.039 1498.63 715.509C1495.03 722.979 1490.3 729.509 1484.45 735.089C1478.6 740.669 1471.9 745.079 1464.34 748.319C1456.78 751.559 1449.04 753.179 1441.12 753.179C1433.2 753.179 1425.46 751.559 1417.9 748.319C1410.34 745.079 1403.63 740.669 1397.78 735.089C1391.93 729.509 1387.2 722.989 1383.61 715.509C1380.01 708.039 1378.21 700.079 1378.21 691.609ZM1405.21 691.609C1405.21 704.389 1406.2 714.559 1408.18 722.119C1410.16 729.679 1412.77 735.479 1416.01 739.529C1419.25 743.579 1423.03 746.239 1427.35 747.499C1431.67 748.759 1436.26 749.389 1441.12 749.389C1445.98 749.389 1450.57 748.759 1454.89 747.499C1459.21 746.239 1462.99 743.579 1466.23 739.529C1469.47 735.479 1472.08 729.679 1474.06 722.119C1476.04 714.559 1477.03 704.389 1477.03 691.609C1477.03 680.809 1476.31 671.769 1474.87 664.479C1473.43 657.189 1471.23 651.249 1468.25 646.659C1465.28 642.069 1461.54 638.789 1457.04 636.809C1452.54 634.829 1447.23 633.839 1441.11 633.839C1434.99 633.839 1429.68 634.829 1425.18 636.809C1420.68 638.789 1416.94 642.069 1413.97 646.659C1411 651.249 1408.79 657.189 1407.35 664.479C1405.91 671.769 1405.19 680.809 1405.19 691.609H1405.21Z" fill="white"/>
<path d="M1669.81 749.389H1626.34V722.119H1625.8C1624.18 725.719 1622.24 729.369 1620 733.049C1617.75 736.739 1614.96 740.069 1611.63 743.039C1608.3 746.009 1604.43 748.439 1600.02 750.329C1595.61 752.219 1590.44 753.159 1584.49 753.159C1577.29 753.159 1571.44 752.349 1566.94 750.729C1562.44 749.109 1558.93 747.399 1556.41 745.599C1555.15 744.699 1553.75 743.579 1552.22 742.219C1550.69 740.869 1549.29 739.029 1548.03 736.679C1546.77 734.339 1545.69 731.329 1544.79 727.639C1543.89 723.949 1543.44 719.409 1543.44 714.009V637.329H1522.65V633.549H1566.66V716.439C1566.66 721.119 1566.97 725.439 1567.6 729.399C1568.23 733.359 1569.44 736.829 1571.25 739.799C1573.05 742.769 1575.39 745.109 1578.27 746.819C1581.15 748.529 1584.93 749.389 1589.61 749.389C1593.57 749.389 1597.66 748.219 1601.9 745.879C1606.13 743.539 1610 740.209 1613.51 735.889C1617.02 731.569 1619.94 726.399 1622.29 720.359C1624.63 714.329 1625.8 707.539 1625.8 699.979V637.339H1605.28V633.559H1649.02V745.609H1669.81V749.389Z" fill="white"/>
<path d="M1691.41 711.589H1694.38C1695.64 715.909 1697.26 720.279 1699.24 724.679C1701.22 729.089 1703.87 733.139 1707.2 736.829C1710.53 740.519 1714.62 743.539 1719.49 745.869C1724.35 748.209 1730.2 749.379 1737.04 749.379C1742.8 749.379 1747.93 747.629 1752.43 744.119C1756.93 740.609 1759.18 734.899 1759.18 726.969C1759.18 720.129 1757.42 715.319 1753.91 712.519C1750.4 709.729 1746.3 707.529 1741.62 705.909L1720.56 698.619C1717.86 697.719 1714.93 696.589 1711.78 695.239C1708.63 693.889 1705.7 691.999 1703 689.569C1700.3 687.139 1698.09 684.029 1696.38 680.249C1694.67 676.469 1693.82 671.609 1693.82 665.669C1693.82 660.629 1694.81 655.949 1696.79 651.629C1698.77 647.309 1701.47 643.529 1704.89 640.289C1708.31 637.049 1712.4 634.529 1717.18 632.729C1721.95 630.929 1727.12 630.029 1732.7 630.029C1736.66 630.029 1739.86 630.349 1742.29 630.979C1744.72 631.609 1746.83 632.239 1748.64 632.869C1750.44 633.499 1752.06 634.129 1753.5 634.759C1754.94 635.389 1756.65 635.709 1758.63 635.709C1760.61 635.709 1762.05 634.989 1762.95 633.549H1765.92V664.329H1762.95C1761.69 660.369 1760.25 656.549 1758.63 652.849C1757.01 649.159 1755.08 645.879 1752.83 642.999C1750.58 640.119 1747.79 637.869 1744.46 636.249C1741.13 634.629 1737.21 633.819 1732.71 633.819C1724.07 633.819 1717.36 635.759 1712.6 639.619C1707.83 643.489 1705.44 648.659 1705.44 655.139C1705.44 660.899 1707.47 665.259 1711.52 668.239C1715.57 671.209 1721.55 673.959 1729.48 676.469L1749.19 682.949C1757.65 685.829 1764.58 689.789 1769.98 694.829C1775.38 699.869 1778.08 706.529 1778.08 714.809C1778.08 719.669 1777.13 724.439 1775.24 729.119C1773.35 733.799 1770.56 737.899 1766.87 741.409C1763.18 744.919 1758.68 747.749 1753.37 749.909C1748.06 752.069 1741.98 753.149 1735.15 753.149C1731.19 753.149 1727.54 752.739 1724.21 751.939C1720.88 751.129 1717.82 750.269 1715.03 749.369C1712.24 748.469 1709.67 747.619 1707.33 746.799C1704.99 745.989 1702.83 745.589 1700.85 745.589C1698.87 745.589 1697.43 745.999 1696.53 746.799C1695.63 747.609 1694.91 748.469 1694.37 749.369H1691.4V711.569L1691.41 711.589Z" fill="white"/>
<line x1="1116" y1="135.5" x2="1920" y2="135.5" stroke="white" stroke-width="3"/>
<line x1="1.31134e-07" y1="651.5" x2="646" y2="651.5" stroke="white" stroke-width="3"/>
</svg>
