<svg width="1637" height="754" viewBox="0 0 1637 754" fill="none" xmlns="http://www.w3.org/2000/svg">
<path d="M0 190.89H29.97V6.20969H0V2.42969H86.94V6.20969H56.97V94.4997H146.88V6.20969H116.91V2.42969H203.85V6.20969H173.88V190.89H203.85V194.67H116.91V190.89H146.88V98.2797H56.97V190.89H86.94V194.67H0V190.89Z" fill="white"/>
<path d="M251.371 127.71C251.371 129.51 251.331 131.35 251.241 133.25C251.151 135.14 251.111 137.53 251.111 140.41C251.111 146.35 251.471 152.56 252.191 159.04C252.911 165.52 254.481 171.37 256.911 176.59C259.341 181.81 262.941 186.13 267.711 189.55C272.481 192.97 278.821 194.68 286.751 194.68C294.681 194.68 301.201 193.51 306.321 191.17C311.451 188.83 315.501 186 318.471 182.67C321.441 179.34 323.641 175.97 325.091 172.55C326.531 169.13 327.611 166.34 328.331 164.18L332.381 164.99C331.841 166.97 330.801 169.81 329.281 173.49C327.751 177.18 325.321 180.87 321.991 184.56C318.661 188.25 314.161 191.49 308.491 194.28C302.821 197.07 295.481 198.47 286.481 198.47C277.481 198.47 269.151 197.03 261.511 194.15C253.861 191.27 247.241 187.13 241.671 181.73C236.091 176.33 231.771 169.9 228.711 162.43C225.651 154.96 224.121 146.64 224.121 137.45C224.121 129.53 225.691 121.84 228.841 114.37C231.991 106.9 236.311 100.29 241.801 94.5303C247.291 88.7703 253.721 84.1304 261.101 80.6204C268.481 77.1104 276.401 75.3604 284.861 75.3604C289.901 75.3604 295.301 76.2603 301.061 78.0603C306.821 79.8603 312.171 82.7804 317.131 86.8304C322.081 90.8804 326.221 96.2404 329.551 102.9C332.881 109.56 334.541 117.84 334.541 127.74H251.381L251.371 127.71ZM306.991 123.93C307.351 121.41 307.531 119.07 307.531 116.91V110.16C307.531 104.04 306.941 99.0004 305.781 95.0404C304.611 91.0804 302.991 87.9303 300.921 85.5903C298.851 83.2503 296.331 81.5903 293.361 80.5903C290.391 79.6003 287.191 79.1104 283.771 79.1104C277.651 79.1104 272.611 80.3204 268.651 82.7504C264.691 85.1804 261.541 88.4704 259.201 92.6104C256.861 96.7504 255.101 101.52 253.941 106.92C252.771 112.32 252.001 117.99 251.651 123.93H307.001H306.991Z" fill="white"/>
<path d="M476.011 191.7C473.671 193.5 470.881 195.08 467.641 196.42C464.401 197.77 460.441 198.45 455.761 198.45C447.121 198.45 440.861 196.6 436.991 192.91C433.121 189.22 430.461 184.05 429.031 177.38H428.491C427.771 179 426.781 181.03 425.521 183.46C424.261 185.89 422.321 188.23 419.721 190.48C417.111 192.73 413.651 194.62 409.331 196.15C405.011 197.68 399.521 198.44 392.861 198.44C385.301 198.44 379.271 197.58 374.771 195.87C370.271 194.16 366.761 192.05 364.241 189.53C361.721 187.01 360.051 184.18 359.241 181.03C358.431 177.88 358.031 174.95 358.031 172.25C358.031 165.95 359.291 160.91 361.811 157.13C364.331 153.35 367.621 150.34 371.671 148.09C375.721 145.84 380.221 144 385.171 142.55C390.121 141.11 395.111 139.58 400.161 137.96C406.101 135.98 411.001 134.27 414.871 132.83C418.741 131.39 421.751 129.64 423.911 127.57C426.071 125.5 427.551 122.89 428.371 119.74C429.181 116.59 429.581 112.32 429.581 106.91C429.581 102.59 429.311 98.7196 428.771 95.2996C428.231 91.8796 427.241 88.9596 425.801 86.5296C424.361 84.0996 422.291 82.2596 419.591 80.9896C416.891 79.7296 413.291 79.0996 408.791 79.0996C402.851 79.0996 397.941 80.1396 394.081 82.1996C390.211 84.2696 388.281 87.6496 388.281 92.3196C388.281 95.3796 388.551 98.3996 389.091 101.36C389.631 104.33 389.901 106.54 389.901 107.98C389.901 110.5 389.001 112.62 387.201 114.32C385.401 116.03 382.791 116.89 379.371 116.89C373.431 116.89 369.741 115.81 368.301 113.65C366.861 111.49 366.141 108.7 366.141 105.28C366.141 101.32 367.041 97.5396 368.841 93.9396C370.641 90.3396 373.301 87.1496 376.801 84.3596C380.311 81.5696 384.721 79.3596 390.031 77.7396C395.341 76.1196 401.411 75.3096 408.251 75.3096C416.531 75.3096 423.461 76.3496 429.041 78.4096C434.621 80.4796 439.121 83.2696 442.541 86.7796C445.961 90.2896 448.391 94.2496 449.831 98.6596C451.271 103.07 451.991 107.7 451.991 112.57V179.8C451.991 185.02 452.801 188.53 454.421 190.33C456.041 192.13 458.381 193.03 461.441 193.03C463.421 193.03 465.491 192.67 467.651 191.95C469.811 191.23 471.881 190.15 473.861 188.71L476.021 191.68L476.011 191.7ZM428.761 128.52H428.221C427.861 130.86 424.891 133.2 419.311 135.54L399.061 143.64C393.301 145.98 388.891 149.27 385.831 153.5C382.771 157.73 381.241 163 381.241 169.29C381.241 171.99 381.511 174.78 382.051 177.66C382.591 180.54 383.581 183.11 385.021 185.35C386.461 187.6 388.481 189.45 391.091 190.89C393.701 192.33 397.071 193.05 401.211 193.05C407.151 193.05 411.961 191.79 415.661 189.27C419.351 186.75 422.141 183.6 424.031 179.82C425.921 176.04 427.181 171.95 427.811 167.53C428.441 163.12 428.761 159.12 428.761 155.51V128.51V128.52Z" fill="white"/>
<path d="M484.371 190.89H505.161V3.78H484.371V0H528.381V190.89H549.171V194.67H484.371V190.89Z" fill="white"/>
<path d="M561.32 78.8398H582.11V44.0098C583.55 44.5498 584.9 44.9998 586.16 45.3598C587.42 45.7198 589.58 45.8998 592.64 45.8998C595.34 45.8998 597.68 45.5898 599.66 44.9498C601.64 44.3198 603.53 43.2898 605.33 41.8398V78.8298H643.67V82.6098H605.33V170.9C605.33 175.94 605.82 180.04 606.82 183.19C607.81 186.34 609.11 188.77 610.73 190.48C612.35 192.19 614.11 193.31 616 193.86C617.89 194.41 619.73 194.67 621.54 194.67C627.84 194.67 632.92 192.38 636.79 187.79C640.66 183.2 643.14 177.93 644.22 172L648 173.35C647.46 175.69 646.65 178.3 645.57 181.18C644.49 184.06 642.82 186.81 640.58 189.42C638.33 192.03 635.4 194.19 631.8 195.9C628.2 197.61 623.7 198.47 618.3 198.47C604.8 198.47 595.39 195.86 590.09 190.64C584.78 185.42 582.13 178.04 582.13 168.5V82.6398H561.34V78.8598L561.32 78.8398Z" fill="white"/>
<path d="M653.391 190.89H674.181V3.78H653.391V0H697.401V106.11H697.941C698.841 103.77 700.371 100.84 702.531 97.33C704.691 93.82 707.611 90.49 711.311 87.34C715.001 84.19 719.501 81.49 724.811 79.24C730.121 76.99 736.461 75.86 743.851 75.86C755.731 75.86 765.401 78.74 772.871 84.5C780.341 90.26 784.081 99.44 784.081 112.04V190.88H804.871V194.66H740.071V190.88H760.861V103.67C760.861 96.65 759.191 90.89 755.861 86.39C752.531 81.89 747.361 79.64 740.341 79.64C734.581 79.64 729.091 80.9 723.871 83.42C718.651 85.94 714.061 89.45 710.101 93.95C706.141 98.45 703.031 103.76 700.781 109.88C698.531 116 697.401 122.66 697.401 129.86V190.88H718.191V194.66H653.391V190.88V190.89Z" fill="white"/>
<path d="M810.26 78.8398H876.41V82.6199H853.73L888.56 167.4L925.01 82.6199H902.6V78.8398H943.91V82.6199H929.33L884.78 186.84C881.36 194.58 878.12 202.37 875.06 210.2C872 218.03 868.94 225.9 865.88 233.82C863.36 240.3 860.84 245.97 858.32 250.83C855.8 255.69 853.14 259.65 850.36 262.71C847.57 265.77 844.56 268.06 841.32 269.59C838.08 271.12 834.3 271.88 829.98 271.88C824.76 271.88 820.57 271.07 817.43 269.45C814.28 267.83 811.8 265.94 810 263.78C808.2 261.62 807.03 259.37 806.49 257.03C805.95 254.69 805.68 252.71 805.68 251.09C805.68 246.59 806.94 243.21 809.46 240.97C811.98 238.72 815.04 237.59 818.64 237.59C819.9 237.59 821.25 237.73 822.69 238C824.13 238.27 825.48 238.76 826.74 239.49C828 240.21 829.08 241.2 829.98 242.46C830.88 243.72 831.33 245.25 831.33 247.05C831.33 249.57 830.56 251.95 829.04 254.21C827.51 256.46 826.75 258.93 826.75 261.63C826.75 263.97 827.38 265.5 828.64 266.22C829.9 266.94 831.61 267.3 833.77 267.3C836.65 267.3 839.31 266.63 841.74 265.28C844.17 263.93 846.55 261.72 848.89 258.66C851.23 255.6 853.57 251.59 855.91 246.64C858.25 241.69 860.86 235.61 863.74 228.42L875.62 198.18L828.91 82.6199H810.28V78.8398H810.26Z" fill="white"/>
<path d="M1309.24 435.68C1307.94 436.68 1306.39 437.56 1304.59 438.3C1302.79 439.05 1300.59 439.42 1297.99 439.42C1293.19 439.42 1289.71 438.39 1287.56 436.35C1285.41 434.3 1283.94 431.43 1283.13 427.73H1282.83C1282.43 428.63 1281.88 429.75 1281.18 431.11C1280.48 432.46 1279.4 433.76 1277.96 435.01C1276.51 436.26 1274.58 437.31 1272.18 438.16C1269.78 439.01 1266.73 439.43 1263.03 439.43C1258.83 439.43 1255.48 438.95 1252.98 438.01C1250.48 437.06 1248.53 435.89 1247.13 434.49C1245.73 433.09 1244.81 431.52 1244.36 429.76C1243.91 428.01 1243.68 426.38 1243.68 424.88C1243.68 421.38 1244.38 418.58 1245.78 416.48C1247.18 414.38 1249 412.71 1251.25 411.45C1253.5 410.2 1256 409.18 1258.75 408.37C1261.5 407.57 1264.28 406.72 1267.08 405.82C1270.38 404.72 1273.1 403.77 1275.25 402.97C1277.4 402.17 1279.08 401.2 1280.28 400.04C1281.48 398.89 1282.31 397.44 1282.75 395.69C1283.2 393.94 1283.43 391.57 1283.43 388.57C1283.43 386.17 1283.28 384.02 1282.98 382.12C1282.68 380.22 1282.13 378.6 1281.33 377.24C1280.53 375.89 1279.38 374.87 1277.88 374.16C1276.38 373.46 1274.38 373.11 1271.88 373.11C1268.58 373.11 1265.85 373.69 1263.71 374.84C1261.56 375.99 1260.49 377.87 1260.49 380.46C1260.49 382.16 1260.64 383.84 1260.94 385.48C1261.24 387.13 1261.39 388.36 1261.39 389.15C1261.39 390.55 1260.89 391.73 1259.89 392.68C1258.89 393.63 1257.44 394.1 1255.54 394.1C1252.24 394.1 1250.19 393.5 1249.39 392.3C1248.59 391.1 1248.19 389.55 1248.19 387.65C1248.19 385.45 1248.69 383.35 1249.69 381.35C1250.69 379.35 1252.16 377.58 1254.12 376.02C1256.07 374.47 1258.52 373.25 1261.47 372.35C1264.42 371.45 1267.79 371 1271.59 371C1276.19 371 1280.04 371.58 1283.14 372.72C1286.24 373.87 1288.74 375.42 1290.64 377.37C1292.54 379.32 1293.89 381.52 1294.69 383.97C1295.49 386.42 1295.89 389 1295.89 391.7V429.05C1295.89 431.95 1296.34 433.9 1297.24 434.9C1298.14 435.9 1299.44 436.4 1301.14 436.4C1302.24 436.4 1303.39 436.2 1304.59 435.8C1305.79 435.4 1306.94 434.8 1308.04 434L1309.24 435.65V435.68ZM1282.99 400.58H1282.69C1282.49 401.88 1280.84 403.18 1277.74 404.48L1266.49 408.98C1263.29 410.28 1260.84 412.11 1259.14 414.45C1257.44 416.8 1256.59 419.73 1256.59 423.23C1256.59 424.73 1256.74 426.28 1257.04 427.88C1257.34 429.48 1257.89 430.91 1258.69 432.16C1259.49 433.41 1260.61 434.44 1262.07 435.24C1263.52 436.04 1265.39 436.44 1267.69 436.44C1270.99 436.44 1273.66 435.74 1275.72 434.34C1277.77 432.94 1279.32 431.19 1280.37 429.09C1281.42 426.99 1282.12 424.72 1282.47 422.26C1282.82 419.81 1283 417.59 1283 415.59V400.59L1282.99 400.58Z" fill="white"/>
<path d="M1313.43 435.229H1324.98V375.079H1313.43V372.979H1337.58V389.029H1337.88C1338.48 387.729 1339.35 386.079 1340.5 384.079C1341.65 382.079 1343.22 380.129 1345.22 378.229C1347.22 376.329 1349.72 374.699 1352.72 373.349C1355.72 371.999 1359.37 371.319 1363.67 371.319C1370.27 371.319 1375.64 372.919 1379.79 376.119C1383.94 379.319 1386.01 384.419 1386.01 391.419V435.219H1397.56V437.319H1361.56V435.219H1373.11V386.769C1373.11 382.869 1372.18 379.669 1370.33 377.169C1368.48 374.669 1365.61 373.419 1361.71 373.419C1358.51 373.419 1355.46 374.119 1352.56 375.519C1349.66 376.919 1347.11 378.869 1344.91 381.369C1342.71 383.869 1340.98 386.819 1339.74 390.219C1338.49 393.619 1337.86 397.319 1337.86 401.319V435.219H1349.41V437.319H1313.41V435.219L1313.43 435.229Z" fill="white"/>
<path d="M1450.08 329.18H1474.53V435.23H1486.08V437.33H1461.93V424.28H1461.63C1461.23 425.48 1460.63 426.93 1459.83 428.63C1459.03 430.33 1457.86 431.98 1456.3 433.58C1454.75 435.18 1452.8 436.56 1450.45 437.7C1448.1 438.84 1445.22 439.42 1441.83 439.42C1437.43 439.42 1433.25 438.47 1429.3 436.57C1425.35 434.67 1421.88 432.12 1418.88 428.92C1415.88 425.72 1413.5 422.05 1411.76 417.9C1410.01 413.75 1409.14 409.38 1409.14 404.78C1409.14 400.18 1409.99 395.98 1411.69 391.88C1413.39 387.78 1415.69 384.21 1418.59 381.16C1421.49 378.11 1424.84 375.66 1428.64 373.81C1432.44 371.96 1436.49 371.04 1440.79 371.04C1446.29 371.04 1450.74 372.39 1454.14 375.09C1457.54 377.79 1459.94 381.09 1461.34 384.99H1461.64V331.29H1450.09V329.19L1450.08 329.18ZM1424.13 402.98C1424.13 408.18 1424.28 412.91 1424.58 417.15C1424.88 421.4 1425.63 425.03 1426.83 428.03C1428.03 431.03 1429.83 433.33 1432.23 434.93C1434.63 436.53 1437.88 437.33 1441.98 437.33C1446.08 437.33 1449.55 436.43 1452.1 434.63C1454.65 432.83 1456.62 430.51 1458.03 427.66C1459.43 424.81 1460.38 421.64 1460.88 418.13C1461.38 414.63 1461.63 411.23 1461.63 407.93C1461.63 404.03 1461.55 400.66 1461.41 397.81C1461.26 394.96 1460.98 392.44 1460.58 390.24C1460.18 388.04 1459.63 386.14 1458.93 384.54C1458.23 382.94 1457.38 381.44 1456.38 380.04C1454.88 378.04 1452.93 376.39 1450.53 375.09C1448.13 373.79 1445.08 373.14 1441.38 373.14C1437.88 373.14 1435 373.84 1432.76 375.24C1430.51 376.64 1428.76 378.64 1427.51 381.24C1426.26 383.84 1425.38 386.97 1424.89 390.62C1424.39 394.27 1424.14 398.4 1424.14 403L1424.13 402.98Z" fill="white"/>
<path d="M507.5 745.61H537.47V560.93H507.5V557.15H557.72C560.24 557.15 562.76 557.11 565.28 557.02C567.8 556.93 570.32 556.8 572.84 556.61C575.36 556.61 577.88 556.57 580.4 556.48C582.92 556.39 585.44 556.35 587.96 556.35C593.36 556.35 598.17 556.44 602.41 556.62C606.64 556.8 610.6 557.12 614.29 557.57C617.98 558.02 621.49 558.65 624.82 559.46C628.15 560.27 631.7 561.31 635.48 562.57C646.46 566.17 655.95 570.99 663.97 577.02C671.98 583.05 678.55 590.03 683.68 597.94C688.81 605.86 692.59 614.5 695.02 623.86C697.45 633.22 698.66 643.03 698.66 653.29C698.66 665.17 697.22 675.83 694.34 685.29C691.46 694.74 687.5 703.11 682.46 710.4C677.42 717.69 671.52 723.99 664.77 729.3C658.02 734.61 650.77 738.88 643.04 742.13C638.72 744.11 634.62 745.64 630.75 746.72C626.88 747.8 622.92 748.61 618.87 749.15C614.82 749.69 610.37 750.05 605.51 750.23C600.65 750.41 595.07 750.5 588.77 750.5C586.07 750.5 583.19 750.45 580.13 750.37C577.07 750.28 574.01 750.14 570.95 749.96C567.89 749.78 564.87 749.64 561.91 749.55C558.94 749.46 556.11 749.42 553.4 749.42H507.5V745.64V745.61ZM564.47 745.61C567.53 745.97 571.09 746.24 575.14 746.42C579.19 746.6 583.64 746.69 588.5 746.69C594.62 746.69 600.69 746.38 606.73 745.75C612.76 745.12 618.52 743.77 624.01 741.7C629.5 739.63 634.63 736.66 639.4 732.79C644.17 728.92 648.44 723.84 652.22 717.54C657.98 707.82 661.98 697.88 664.24 687.71C666.49 677.54 667.62 666.43 667.62 654.37C667.62 640.15 666.27 627.24 663.57 615.62C660.87 604.01 656.42 594.11 650.2 585.92C643.99 577.73 635.75 571.39 625.49 566.89C615.23 562.39 602.54 560.14 587.42 560.14C582.92 560.14 578.82 560.23 575.14 560.41C571.45 560.59 567.89 560.77 564.47 560.95V745.63V745.61Z" fill="white"/>
<path d="M758.871 682.43C758.871 684.23 758.831 686.07 758.741 687.97C758.651 689.86 758.611 692.25 758.611 695.13C758.611 701.07 758.971 707.28 759.691 713.76C760.411 720.24 761.981 726.09 764.411 731.31C766.841 736.53 770.441 740.85 775.211 744.27C779.981 747.69 786.321 749.4 794.251 749.4C802.181 749.4 808.701 748.23 813.821 745.89C818.951 743.55 823.001 740.72 825.971 737.39C828.941 734.06 831.141 730.69 832.591 727.27C834.031 723.85 835.111 721.06 835.831 718.9L839.881 719.71C839.341 721.69 838.301 724.53 836.781 728.21C835.251 731.9 832.821 735.59 829.491 739.28C826.161 742.97 821.661 746.21 815.991 749C810.321 751.79 802.981 753.19 793.981 753.19C784.981 753.19 776.651 751.75 769.011 748.87C761.361 745.99 754.741 741.85 749.171 736.45C743.591 731.05 739.271 724.62 736.211 717.15C733.151 709.68 731.621 701.36 731.621 692.17C731.621 684.25 733.191 676.56 736.341 669.09C739.491 661.62 743.811 655.01 749.301 649.25C754.791 643.49 761.221 638.85 768.601 635.34C775.981 631.83 783.901 630.08 792.361 630.08C797.401 630.08 802.801 630.98 808.561 632.78C814.321 634.58 819.671 637.5 824.631 641.55C829.581 645.6 833.721 650.96 837.051 657.62C840.381 664.28 842.041 672.56 842.041 682.46H758.881L758.871 682.43ZM814.491 678.65C814.851 676.13 815.031 673.79 815.031 671.63V664.88C815.031 658.76 814.441 653.72 813.281 649.76C812.111 645.8 810.491 642.65 808.421 640.31C806.351 637.97 803.831 636.31 800.861 635.31C797.891 634.32 794.691 633.83 791.271 633.83C785.151 633.83 780.111 635.04 776.151 637.47C772.191 639.9 769.041 643.19 766.701 647.33C764.361 651.47 762.601 656.24 761.441 661.64C760.271 667.04 759.501 672.71 759.151 678.65H814.501H814.491Z" fill="white"/>
<path d="M862.012 745.61H882.802V558.5H862.012V554.72H906.022V745.61H926.812V749.39H862.012V745.61Z" fill="white"/>
<path d="M941.922 745.61H962.712V637.34H941.922V633.56H985.932V745.61H1006.72V749.39H941.922V745.61ZM959.472 570.65C959.472 566.69 960.862 563.32 963.662 560.53C966.452 557.74 969.822 556.35 973.782 556.35C977.742 556.35 981.112 557.75 983.902 560.53C986.692 563.32 988.092 566.7 988.092 570.65C988.092 574.6 986.692 577.99 983.902 580.77C981.112 583.56 977.732 584.96 973.782 584.96C969.832 584.96 966.442 583.57 963.662 580.77C960.872 577.98 959.472 574.61 959.472 570.65Z" fill="white"/>
<path d="M1134.7 719.69C1134.16 721.67 1133.12 724.51 1131.6 728.19C1130.07 731.88 1127.64 735.57 1124.31 739.26C1120.98 742.95 1116.48 746.19 1110.81 748.98C1105.14 751.77 1097.8 753.17 1088.8 753.17C1081.96 753.17 1074.85 752.09 1067.47 749.93C1060.09 747.77 1053.34 744.31 1047.22 739.53C1041.1 734.76 1036.1 728.51 1032.23 720.77C1028.36 713.03 1026.43 703.49 1026.43 692.15C1026.43 683.33 1028.09 675.14 1031.42 667.58C1034.75 660.02 1039.25 653.45 1044.92 647.87C1050.59 642.29 1057.25 637.93 1064.9 634.77C1072.55 631.62 1080.69 630.05 1089.34 630.05C1094.2 630.05 1099.2 630.64 1104.32 631.8C1109.45 632.97 1114.13 634.77 1118.36 637.2C1122.59 639.63 1126.1 642.78 1128.89 646.65C1131.68 650.52 1133.08 655.25 1133.08 660.83C1133.08 664.61 1131.87 667.71 1129.44 670.14C1127.01 672.57 1123.54 673.79 1119.04 673.79C1115.98 673.79 1113.05 673.11 1110.27 671.76C1107.48 670.41 1106.08 668.12 1106.08 664.88C1106.08 662.36 1106.71 659.3 1107.97 655.7C1109.23 652.1 1109.86 649.13 1109.86 646.79C1109.86 642.65 1107.79 639.46 1103.65 637.21C1099.51 634.96 1094.74 633.83 1089.34 633.83C1085.38 633.83 1081.28 634.33 1077.05 635.31C1072.82 636.3 1068.95 638.78 1065.44 642.73C1061.93 646.69 1059.05 652.63 1056.8 660.55C1054.55 668.47 1053.42 679.27 1053.42 692.95C1053.42 700.69 1053.91 707.98 1054.9 714.82C1055.89 721.66 1057.69 727.64 1060.3 732.77C1062.91 737.9 1066.51 741.95 1071.1 744.92C1075.69 747.89 1081.67 749.38 1089.06 749.38C1096.98 749.38 1103.51 748.21 1108.63 745.87C1113.76 743.53 1117.81 740.7 1120.78 737.37C1123.75 734.04 1125.95 730.67 1127.4 727.25C1128.84 723.83 1129.92 721.04 1130.64 718.88L1134.69 719.69H1134.7Z" fill="white"/>
<path d="M1151.71 745.61H1172.5V637.34H1151.71V633.56H1195.72V745.61H1216.51V749.39H1151.71V745.61ZM1169.26 570.65C1169.26 566.69 1170.65 563.32 1173.45 560.53C1176.24 557.74 1179.61 556.35 1183.57 556.35C1187.53 556.35 1190.9 557.75 1193.69 560.53C1196.48 563.32 1197.88 566.7 1197.88 570.65C1197.88 574.6 1196.48 577.99 1193.69 580.77C1190.9 583.56 1187.52 584.96 1183.57 584.96C1179.62 584.96 1176.23 583.57 1173.45 580.77C1170.66 577.98 1169.26 574.61 1169.26 570.65Z" fill="white"/>
<path d="M1236.21 691.61C1236.21 682.79 1238.14 674.6 1242.01 667.04C1245.88 659.48 1250.83 652.96 1256.86 647.46C1262.89 641.97 1269.64 637.7 1277.11 634.63C1284.58 631.57 1291.91 630.04 1299.12 630.04C1306.33 630.04 1313.65 631.57 1321.13 634.63C1328.6 637.69 1335.35 641.97 1341.38 647.46C1347.41 652.95 1352.36 659.47 1356.23 667.04C1360.1 674.6 1362.03 682.79 1362.03 691.61C1362.03 700.43 1360.23 708.04 1356.63 715.51C1353.03 722.98 1348.3 729.51 1342.45 735.09C1336.6 740.67 1329.9 745.08 1322.34 748.32C1314.78 751.56 1307.04 753.18 1299.12 753.18C1291.2 753.18 1283.46 751.56 1275.9 748.32C1268.34 745.08 1261.63 740.67 1255.78 735.09C1249.93 729.51 1245.2 722.99 1241.61 715.51C1238.01 708.04 1236.21 700.08 1236.21 691.61ZM1263.21 691.61C1263.21 704.39 1264.2 714.56 1266.18 722.12C1268.16 729.68 1270.77 735.48 1274.01 739.53C1277.25 743.58 1281.03 746.24 1285.35 747.5C1289.67 748.76 1294.26 749.39 1299.12 749.39C1303.98 749.39 1308.57 748.76 1312.89 747.5C1317.21 746.24 1320.99 743.58 1324.23 739.53C1327.47 735.48 1330.08 729.68 1332.06 722.12C1334.04 714.56 1335.03 704.39 1335.03 691.61C1335.03 680.81 1334.31 671.77 1332.87 664.48C1331.43 657.19 1329.23 651.25 1326.25 646.66C1323.28 642.07 1319.54 638.79 1315.04 636.81C1310.54 634.83 1305.23 633.84 1299.11 633.84C1292.99 633.84 1287.68 634.83 1283.18 636.81C1278.68 638.79 1274.94 642.07 1271.97 646.66C1269 651.25 1266.79 657.19 1265.35 664.48C1263.91 671.77 1263.19 680.81 1263.19 691.61H1263.21Z" fill="white"/>
<path d="M1527.81 749.39H1484.34V722.12H1483.8C1482.18 725.72 1480.24 729.37 1478 733.05C1475.75 736.74 1472.96 740.07 1469.63 743.04C1466.3 746.01 1462.43 748.44 1458.02 750.33C1453.61 752.22 1448.44 753.16 1442.49 753.16C1435.29 753.16 1429.44 752.35 1424.94 750.73C1420.44 749.11 1416.93 747.4 1414.41 745.6C1413.15 744.7 1411.75 743.58 1410.22 742.22C1408.69 740.87 1407.29 739.03 1406.03 736.68C1404.77 734.34 1403.69 731.33 1402.79 727.64C1401.89 723.95 1401.44 719.41 1401.44 714.01V637.33H1380.65V633.55H1424.66V716.44C1424.66 721.12 1424.97 725.44 1425.6 729.4C1426.23 733.36 1427.44 736.83 1429.25 739.8C1431.05 742.77 1433.39 745.11 1436.27 746.82C1439.15 748.53 1442.93 749.39 1447.61 749.39C1451.57 749.39 1455.66 748.22 1459.9 745.88C1464.13 743.54 1468 740.21 1471.51 735.89C1475.02 731.57 1477.94 726.4 1480.29 720.36C1482.63 714.33 1483.8 707.54 1483.8 699.98V637.34H1463.28V633.56H1507.02V745.61H1527.81V749.39Z" fill="white"/>
<path d="M1549.41 711.589H1552.38C1553.64 715.909 1555.26 720.279 1557.24 724.679C1559.22 729.089 1561.87 733.139 1565.2 736.829C1568.53 740.519 1572.62 743.539 1577.49 745.869C1582.35 748.209 1588.2 749.379 1595.04 749.379C1600.8 749.379 1605.93 747.629 1610.43 744.119C1614.93 740.609 1617.18 734.899 1617.18 726.969C1617.18 720.129 1615.42 715.319 1611.91 712.519C1608.4 709.729 1604.3 707.529 1599.62 705.909L1578.56 698.619C1575.86 697.719 1572.93 696.589 1569.78 695.239C1566.63 693.889 1563.7 691.999 1561 689.569C1558.3 687.139 1556.09 684.029 1554.38 680.249C1552.67 676.469 1551.82 671.609 1551.82 665.669C1551.82 660.629 1552.81 655.949 1554.79 651.629C1556.77 647.309 1559.47 643.529 1562.89 640.289C1566.31 637.049 1570.4 634.529 1575.18 632.729C1579.95 630.929 1585.12 630.029 1590.7 630.029C1594.66 630.029 1597.86 630.349 1600.29 630.979C1602.72 631.609 1604.83 632.239 1606.64 632.869C1608.44 633.499 1610.06 634.129 1611.5 634.759C1612.94 635.389 1614.65 635.709 1616.63 635.709C1618.61 635.709 1620.05 634.989 1620.95 633.549H1623.92V664.329H1620.95C1619.69 660.369 1618.25 656.549 1616.63 652.849C1615.01 649.159 1613.08 645.879 1610.83 642.999C1608.58 640.119 1605.79 637.869 1602.46 636.249C1599.13 634.629 1595.21 633.819 1590.71 633.819C1582.07 633.819 1575.36 635.759 1570.6 639.619C1565.83 643.489 1563.44 648.659 1563.44 655.139C1563.44 660.899 1565.47 665.259 1569.52 668.239C1573.57 671.209 1579.55 673.959 1587.48 676.469L1607.19 682.949C1615.65 685.829 1622.58 689.789 1627.98 694.829C1633.38 699.869 1636.08 706.529 1636.08 714.809C1636.08 719.669 1635.13 724.439 1633.24 729.119C1631.35 733.799 1628.56 737.899 1624.87 741.409C1621.18 744.919 1616.68 747.749 1611.37 749.909C1606.06 752.069 1599.98 753.149 1593.15 753.149C1589.19 753.149 1585.54 752.739 1582.21 751.939C1578.88 751.129 1575.82 750.269 1573.03 749.369C1570.24 748.469 1567.67 747.619 1565.33 746.799C1562.99 745.989 1560.83 745.589 1558.85 745.589C1556.87 745.589 1555.43 745.999 1554.53 746.799C1553.63 747.609 1552.91 748.469 1552.37 749.369H1549.4V711.569L1549.41 711.589Z" fill="white"/>
</svg>
