<svg width="200" height="60" viewBox="0 0 200 60" fill="none" xmlns="http://www.w3.org/2000/svg">
<g clip-path="url(#clip0_245_2)">
<path d="M194.842 36.3363C194.153 36.734 193.399 36.926 192.651 36.926C191.887 36.9226 191.132 36.7203 190.471 36.3363C191.132 35.9557 191.887 35.75 192.651 35.75C193.416 35.75 194.153 35.9386 194.842 36.3363Z" fill="white"/>
<path d="M195.429 38.5268C195.429 39.2914 195.227 40.0456 194.847 40.7108C194.463 40.0456 194.264 39.2914 194.264 38.5268C194.264 37.7828 194.449 37.0251 194.847 36.3359C195.248 37.0251 195.436 37.7828 195.433 38.5268H195.429Z" fill="white"/>
<path d="M199.217 36.3363C198.552 36.7203 197.797 36.9226 197.029 36.926C196.285 36.926 195.534 36.734 194.842 36.3363C195.534 35.9386 196.285 35.75 197.029 35.75C197.773 35.75 198.552 35.9557 199.217 36.3363Z" fill="white"/>
<path d="M195.429 34.1489C195.429 34.893 195.244 35.6472 194.843 36.3364C194.445 35.6472 194.256 34.893 194.26 34.1489C194.26 33.3809 194.459 32.6266 194.843 31.9614C195.223 32.6266 195.426 33.3809 195.426 34.1489H195.429Z" fill="white"/>
<path d="M80.207 50.1363C80.207 48.7889 80.5019 47.534 81.095 46.3786C81.6882 45.2231 82.4459 44.2254 83.3682 43.3854C84.2905 42.5454 85.3225 41.8906 86.4676 41.4243C87.6093 40.958 88.7339 40.7214 89.8345 40.7214C90.935 40.7214 92.0562 40.9546 93.2013 41.4243C94.343 41.894 95.375 42.5454 96.3007 43.3854C97.223 44.2254 97.9807 45.2231 98.5739 46.3786C99.167 47.534 99.4619 48.7889 99.4619 50.1363C99.4619 51.4837 99.1876 52.6494 98.6356 53.7912C98.0836 54.9329 97.3602 55.934 96.4653 56.7843C95.5705 57.638 94.5453 58.3134 93.3865 58.8071C92.231 59.3043 91.0448 59.5511 89.8345 59.5511C88.6242 59.5511 87.4379 59.3043 86.2825 58.8071C85.127 58.31 84.0985 57.638 83.2036 56.7843C82.3087 55.9306 81.5853 54.9329 81.0367 53.7912C80.4847 52.6494 80.2105 51.4289 80.2105 50.1363H80.207ZM84.335 50.1363C84.335 52.0906 84.4859 53.6472 84.791 54.8026C85.0927 55.958 85.4939 56.846 85.9876 57.4666C86.4847 58.0871 87.0607 58.4917 87.7225 58.6837C88.3842 58.8757 89.087 58.9717 89.8276 58.9717C90.5682 58.9717 91.2745 58.8757 91.9327 58.6837C92.5945 58.4917 93.1705 58.0837 93.6676 57.4666C94.1647 56.846 94.5625 55.958 94.8642 54.8026C95.1659 53.6472 95.3202 52.0906 95.3202 50.1363C95.3202 48.4837 95.2105 47.102 94.991 45.9843C94.7716 44.87 94.4322 43.9614 93.9796 43.2586C93.527 42.5557 92.9545 42.0551 92.2653 41.75C91.5762 41.4483 90.7636 41.294 89.8276 41.294C88.8916 41.294 88.079 41.4449 87.3899 41.75C86.7007 42.0517 86.1316 42.5557 85.6756 43.2586C85.2196 43.9614 84.8836 44.87 84.6642 45.9843C84.4447 47.0986 84.335 48.4837 84.335 50.1363Z" fill="white"/>
<path d="M172.145 50.1363C172.145 48.7889 172.439 47.534 173.033 46.3786C173.626 45.2231 174.38 44.2254 175.306 43.3854C176.228 42.5454 177.26 41.8906 178.405 41.4243C179.547 40.958 180.671 40.7214 181.772 40.7214C182.873 40.7214 183.997 40.9546 185.139 41.4243C186.281 41.894 187.313 42.5454 188.238 43.3854C189.161 44.2254 189.918 45.2231 190.511 46.3786C191.105 47.534 191.399 48.7889 191.399 50.1363C191.399 51.4837 191.125 52.6494 190.573 53.7912C190.021 54.9329 189.298 55.934 188.403 56.7843C187.508 57.638 186.483 58.3134 185.324 58.8071C184.169 59.3043 182.982 59.5511 181.772 59.5511C180.562 59.5511 179.375 59.3043 178.22 58.8071C177.065 58.31 176.036 57.638 175.141 56.7843C174.246 55.9306 173.523 54.9329 172.974 53.7912C172.422 52.6494 172.148 51.4289 172.148 50.1363H172.145ZM176.276 50.1363C176.276 52.0906 176.427 53.6472 176.732 54.8026C177.034 55.958 177.435 56.846 177.929 57.4666C178.426 58.0871 179.002 58.4917 179.663 58.6837C180.325 58.8757 181.028 58.9717 181.769 58.9717C182.509 58.9717 183.215 58.8757 183.874 58.6837C184.535 58.4917 185.111 58.0837 185.609 57.4666C186.106 56.846 186.503 55.958 186.805 54.8026C187.107 53.6472 187.261 52.0906 187.261 50.1363C187.261 48.4837 187.151 47.102 186.932 45.9843C186.713 44.87 186.373 43.9614 185.921 43.2586C185.468 42.5557 184.895 42.0551 184.206 41.75C183.517 41.4483 182.705 41.294 181.769 41.294C180.833 41.294 180.02 41.4449 179.331 41.75C178.642 42.0517 178.073 42.5557 177.617 43.2586C177.161 43.9614 176.825 44.87 176.605 45.9843C176.386 47.0986 176.276 48.4837 176.276 50.1363Z" fill="white"/>
<path d="M58.6875 58.3988H61.8692V29.7738H58.6875V29.1943H65.4212V48.9393H65.8772L74.0955 41.8353H71.1641V41.2559H77.5652V41.8353H75.0864L68.6441 47.3691L77.7709 58.3988H79.5469V58.9782H70.2521V58.3988H73.1835L65.8738 49.5188H65.4178V58.3988H67.6909V58.9782H58.6875V58.3988Z" fill="white"/>
<path d="M101.559 58.3991H104.74V41.8357H101.559V41.2563H108.21V45.5934H108.292C108.872 43.9409 109.705 42.7306 110.792 41.9591C111.879 41.1877 113.195 40.8037 114.735 40.8037C116.113 40.8037 117.33 41.1054 118.389 41.7123C119.449 42.3191 120.145 43.3237 120.474 44.726H120.556C120.748 44.2289 121.009 43.7489 121.341 43.2791C121.671 42.8094 122.085 42.3911 122.579 42.0209C123.073 41.6506 123.659 41.3523 124.335 41.1329C125.01 40.9134 125.775 40.8037 126.628 40.8037C130.647 40.8037 132.659 42.854 132.659 46.958V58.3991H135.841V58.9786H125.929V58.3991H129.111V44.3557C129.111 43.4197 128.857 42.6894 128.346 42.1683C127.835 41.6471 127.139 41.3831 126.261 41.3831C125.572 41.3831 124.883 41.5134 124.197 41.774C123.508 42.0346 122.888 42.4289 122.339 42.95C121.787 43.4746 121.341 44.1466 120.995 44.9729C120.652 45.7991 120.477 46.7626 120.477 47.8631V58.3957H123.659V58.9751H113.747V58.3957H116.929V44.9317C116.929 43.7214 116.682 42.8266 116.185 42.2471C115.688 41.6677 115.029 41.3797 114.203 41.3797C113.624 41.3797 112.989 41.5237 112.304 41.8117C111.615 42.0997 110.973 42.5557 110.384 43.1763C109.791 43.7969 109.297 44.6026 108.896 45.5934C108.495 46.5843 108.296 47.798 108.296 49.2277V58.3991H111.477V58.9786H101.565V58.3991H101.559Z" fill="white"/>
<path d="M156.408 58.5226C156.051 58.7969 155.623 59.0403 155.129 59.246C154.635 59.4517 154.028 59.5546 153.312 59.5546C151.988 59.5546 151.032 59.2734 150.442 58.7077C149.849 58.142 149.444 57.35 149.225 56.3317H149.143C149.033 56.5786 148.882 56.8906 148.69 57.2609C148.498 57.6312 148.2 57.9912 147.802 58.334C147.401 58.6769 146.873 58.9683 146.211 59.2014C145.55 59.4346 144.71 59.5512 143.691 59.5512C142.536 59.5512 141.614 59.4209 140.924 59.1603C140.235 58.8997 139.7 58.574 139.313 58.19C138.929 57.806 138.672 57.3706 138.548 56.8906C138.425 56.4106 138.363 55.9614 138.363 55.5466C138.363 54.5832 138.555 53.8117 138.943 53.2323C139.327 52.6529 139.831 52.1934 140.451 51.8472C141.072 51.5043 141.758 51.2197 142.515 51.0003C143.273 50.7809 144.038 50.5443 144.809 50.2974C145.718 49.9957 146.468 49.7317 147.058 49.5123C147.651 49.2929 148.111 49.0254 148.443 48.7066C148.772 48.3912 148.999 47.99 149.126 47.51C149.249 47.03 149.311 46.3752 149.311 45.5489C149.311 44.8872 149.27 44.2974 149.187 43.7729C149.105 43.2517 148.954 42.8026 148.731 42.4289C148.508 42.0552 148.193 41.774 147.782 41.582C147.367 41.39 146.818 41.294 146.129 41.294C145.22 41.294 144.47 41.4517 143.88 41.7706C143.287 42.086 142.992 42.6037 142.992 43.3203C142.992 43.79 143.033 44.2494 143.115 44.7054C143.198 45.1614 143.239 45.4974 143.239 45.7169C143.239 46.1043 143.102 46.4266 142.824 46.6872C142.55 46.9477 142.148 47.078 141.627 47.078C140.719 47.078 140.153 46.9134 139.934 46.5809C139.714 46.2483 139.604 45.8232 139.604 45.302C139.604 44.6952 139.742 44.1192 140.016 43.5672C140.29 43.0152 140.698 42.5283 141.233 42.0997C141.771 41.6746 142.443 41.3352 143.256 41.0883C144.068 40.8414 144.998 40.718 146.043 40.718C147.308 40.718 148.371 40.8757 149.225 41.1946C150.079 41.51 150.768 41.9386 151.289 42.4734C151.81 43.0117 152.184 43.6152 152.403 44.2906C152.623 44.966 152.732 45.6757 152.732 46.4163V56.702C152.732 57.5009 152.856 58.0392 153.103 58.3134C153.35 58.5877 153.71 58.7283 154.176 58.7283C154.478 58.7283 154.796 58.6734 155.126 58.5637C155.455 58.454 155.774 58.2894 156.075 58.0666L156.404 58.5226H156.408ZM149.18 48.8574H149.098C149.043 49.214 148.587 49.574 147.737 49.9306L144.638 51.1683C143.756 51.5249 143.081 52.0289 142.615 52.6769C142.145 53.3249 141.912 54.1306 141.912 55.094C141.912 55.5054 141.953 55.934 142.035 56.3729C142.118 56.8152 142.268 57.206 142.488 57.5489C142.707 57.8917 143.019 58.1763 143.417 58.3957C143.815 58.6152 144.332 58.7249 144.967 58.7249C145.875 58.7249 146.612 58.5329 147.178 58.1454C147.744 57.7614 148.169 57.278 148.457 56.6986C148.745 56.1192 148.937 55.4952 149.036 54.8197C149.132 54.1443 149.18 53.534 149.18 52.982V48.8506V48.8574Z" fill="white"/>
<path d="M156.99 41.256H160.172V35.928C160.391 36.0103 160.597 36.0789 160.793 36.1337C160.985 36.1886 161.314 36.216 161.783 36.216C162.198 36.216 162.555 36.168 162.857 36.072C163.158 35.976 163.446 35.8183 163.724 35.5955V41.2526H169.59V41.832H163.724V55.3372C163.724 56.1086 163.799 56.736 163.95 57.216C164.101 57.6995 164.303 58.0697 164.55 58.3303C164.797 58.5909 165.068 58.7623 165.356 58.848C165.644 58.9303 165.929 58.9715 166.203 58.9715C167.166 58.9715 167.945 58.6217 168.538 57.9189C169.131 57.216 169.508 56.4103 169.673 55.5017L170.252 55.7075C170.17 56.064 170.046 56.4652 169.882 56.904C169.717 57.3463 169.46 57.7646 169.117 58.1623C168.774 58.5635 168.325 58.8926 167.777 59.1532C167.225 59.4137 166.535 59.544 165.713 59.544C163.649 59.544 162.209 59.1429 161.396 58.3475C160.583 57.5486 160.179 56.4206 160.179 54.96V41.8252H156.997V41.2457L156.99 41.256Z" fill="white"/>
<path d="M7.36699 16.2309C4.30185 16.0012 2.23786 14.9109 1.21614 12.2092L1.775 11.8149C3.12586 13.4641 4.28128 13.8927 6.91785 13.8927C9.02642 13.8927 11.7316 13.4984 13.8744 12.9052C14.2687 12.8058 14.6973 12.6412 15.2596 12.6412C16.3464 12.6412 17.1727 13.5635 17.1727 14.4207C17.1727 14.9829 16.847 15.5761 16.0378 15.6755C15.2287 15.7715 12.6401 15.6995 12.1978 15.7029C11.7556 15.7064 9.70871 15.7338 8.95099 15.8744C6.58185 16.4469 0.828716 20.9795 0.640145 25.4915C0.513287 28.4881 3.86985 29.7601 9.86985 29.7601C11.9133 29.7601 13.3636 29.5955 14.4847 29.4309C14.9476 29.3658 15.2767 29.2664 15.6401 29.1669C15.9384 29.0675 16.2676 28.9681 16.6276 28.9681H16.727C18.2116 28.9681 19.2538 30.4801 19.2538 31.4024C19.2538 31.9955 19.055 32.3898 18.167 32.6881C17.2104 32.9521 14.9373 33.2161 11.4436 33.2161C3.89385 33.2161 0.00585938 31.0389 0.00585938 26.4927C0.00585938 22.9338 2.36472 19.5909 7.25728 15.9429L7.37385 16.2412L7.36699 16.2309Z" fill="white"/>
<path d="M42.9156 12.1474C43.8756 12.4148 44.9145 12.9154 45.6825 13.6079C46.3751 14.2216 47.1431 15.1439 47.1431 15.9908C47.1431 16.5668 46.7454 17.6468 45.7099 17.7599C44.6711 17.8354 43.3476 17.1394 41.5271 17.2971C34.4951 17.3794 28.5329 22.0765 28.5089 26.6159C28.4951 29.1531 28.8997 30.4559 37.0082 30.4559C39.1236 30.4559 42.6002 29.5988 42.3671 29.6536C42.1339 29.7085 43.9442 29.2696 43.9442 29.2696C43.9442 29.2696 44.8288 29.0399 45.2128 29.0399C47.0574 29.0399 47.9556 30.3599 47.9556 31.3199C47.9556 32.2799 47.4551 32.7051 46.1865 32.8971C44.4585 33.1268 41.6128 33.2056 39.1168 33.2056H37.7728C31.4334 33.1302 28.0117 30.8982 28.0117 26.8662C28.0117 23.7154 30.1649 20.6776 34.8516 18.3359C34.7351 17.6434 34.6219 16.6456 34.5054 15.5314C34.3888 13.5702 34.1591 11.0742 33.9671 7.34736C33.8917 5.81136 33.5831 5.5405 32.8529 5.38621C32.5443 5.3485 32.2391 5.31079 31.9306 5.31079H31.5466L31.3923 4.73479C31.9306 4.23421 32.8529 3.8125 33.5831 3.8125C34.4676 3.8125 35.2734 4.07993 36.3876 5.04336C37.4265 5.96564 37.6562 6.46621 37.6562 6.88793C37.6562 7.27193 37.5019 7.50164 37.2722 7.84793C36.9259 8.3485 36.8505 8.77021 36.8505 9.65479C36.8505 12.0376 36.8882 14.8422 37.0425 17.2628C39.1956 16.3782 40.8482 15.6856 42.1545 15.0719C43.0391 14.6502 43.4608 14.3794 43.4608 14.1119C43.4608 13.8822 43.3442 13.6114 43.1934 13.3816C43.0391 13.1896 42.8471 12.9599 42.5385 12.6891L42.9225 12.1508L42.9156 12.1474Z" fill="white"/>
<path d="M26.375 49.9132C26.3956 49.4881 26.4127 45.9224 26.4127 45.9224L26.375 49.9132Z" fill="white"/>
<path d="M25.8303 34.5942L25.6828 30.4903V19.128L25.9023 14.7291C25.9743 12.456 26.0497 10.9166 26.1971 9.30514C26.2691 8.208 26.564 7.33028 27.2188 6.37714C27.2188 6.37714 27.2223 6.37028 27.2257 6.36686C27.7365 5.70857 28.028 5.26971 28.028 4.53943C28.028 3.66171 27.2943 2.78058 26.1971 2.12229C23.924 0.802295 21.2874 -0.00341797 19.9674 -0.00341797C18.5308 -0.00341797 16.9503 0.558866 15.4383 1.75887C15.3834 1.80001 15.3594 1.87201 15.3765 1.93715L15.6028 2.84572C15.6234 2.93144 15.7057 2.98972 15.7948 2.97601C16.1137 2.92801 16.436 2.92801 16.8165 2.92801C17.2554 2.92801 17.6908 2.92801 18.2017 3.00001C18.2051 3.00001 18.2085 3.00001 18.2154 3.00001C19.8954 3.07544 20.4817 3.66171 20.7731 4.464C21.14 5.48914 21.2874 6.95657 21.3594 9.00686C21.5068 11.1326 21.5068 13.1863 21.5068 15.6034V19.8549C21.5068 23.52 21.5788 27.552 21.5788 31.2171L21.6508 35.3931C21.7228 39.2056 21.7983 41.1531 21.8703 45.2571L21.812 48.1714C21.812 50.4034 21.7708 52.3336 21.6063 53.6194C21.284 56.1359 19.9605 58.2102 17.7628 58.9851C17.564 59.0536 17.636 59.3519 17.8451 59.3211C19.8817 59.0091 21.6474 58.3576 23.1148 57.2776C25.1685 55.7382 26.3034 52.6936 26.3754 49.9062C26.3754 49.9062 26.4131 45.9428 26.4131 45.9085C26.4131 45.8742 25.8988 38.9828 25.8268 34.5874L25.8303 34.5942Z" fill="white"/>
<path d="M18.6097 50.9245V50.8594C18.6062 50.8182 18.6062 50.7839 18.6028 50.7462V50.7394C18.6028 50.7085 18.5994 50.6742 18.5994 50.6434V50.6331C18.5959 50.5851 18.5925 50.5405 18.5891 50.4891C18.5891 50.4651 18.5857 50.4342 18.5822 50.4102C18.5822 50.3931 18.5822 50.3725 18.5788 50.3588C18.5754 50.3348 18.5754 50.3108 18.5719 50.2902C18.5685 50.2525 18.5651 50.2182 18.5617 50.1839C18.5582 50.1462 18.5548 50.1119 18.5514 50.0742C18.5479 50.0571 18.5445 50.0331 18.5411 50.0125C18.5377 49.9748 18.5342 49.9405 18.5274 49.9028C18.5239 49.8651 18.5171 49.8342 18.5137 49.7965C18.5068 49.7691 18.5034 49.7348 18.4999 49.7074C18.4965 49.6834 18.4897 49.6559 18.4862 49.6319C18.4862 49.6182 18.4828 49.6079 18.4794 49.5942C18.4725 49.5531 18.4657 49.5154 18.4588 49.4742C18.4485 49.4194 18.4382 49.3645 18.4245 49.3131C18.4142 49.2719 18.4074 49.2308 18.3937 49.1896C18.3868 49.1519 18.3765 49.1176 18.3697 49.0834C18.3628 49.0559 18.3559 49.0285 18.3525 49.0045C18.1297 48.1508 17.7868 47.3485 17.3308 46.6216C17.3068 46.5771 17.2759 46.5359 17.2519 46.4914C17.2348 46.4639 17.2108 46.4331 17.1937 46.4056C17.1697 46.3645 17.1422 46.3268 17.1182 46.2856C17.0874 46.2479 17.0634 46.2102 17.0394 46.1725C17.0394 46.1725 17.0382 46.1704 17.0359 46.1656C17.0188 46.1451 16.9982 46.1176 16.9845 46.0971C16.9742 46.0834 16.9639 46.0696 16.9502 46.0491C16.9297 46.0251 16.9091 45.9942 16.8885 45.9668C16.8679 45.9428 16.8439 45.9119 16.8234 45.8845C16.8165 45.8708 16.8028 45.8605 16.7925 45.8434H16.7891L16.7857 45.8365C16.7822 45.8296 16.7788 45.8262 16.7719 45.8228C16.7617 45.8091 16.7514 45.7954 16.7377 45.7782C16.7342 45.7714 16.7274 45.7645 16.7205 45.7576C16.7137 45.7439 16.7034 45.7336 16.6965 45.7199C16.6862 45.7062 16.6759 45.6959 16.6622 45.6788C16.6382 45.6479 16.6074 45.6171 16.5834 45.5862C16.5765 45.5794 16.5731 45.5725 16.5662 45.5622C16.5662 45.5622 16.5628 45.5622 16.5628 45.5588C16.3777 45.3428 16.1788 45.1336 15.9731 44.9348C15.9388 44.9039 15.9045 44.8696 15.8702 44.8388C15.8668 44.8354 15.8634 44.8319 15.8599 44.8319C15.8531 44.8251 15.8497 44.8182 15.8428 44.8114C15.8188 44.7908 15.7914 44.7634 15.7674 44.7428C15.7571 44.7359 15.7468 44.7256 15.7365 44.7188C15.7194 44.7051 15.7022 44.6914 15.6851 44.6742C15.6611 44.6502 15.6337 44.6262 15.6062 44.6056C15.5891 44.5885 15.5685 44.5748 15.5514 44.5576C15.5274 44.5336 15.4965 44.5096 15.4725 44.4891C15.4691 44.4891 15.4691 44.4856 15.4657 44.4856C15.4314 44.4582 15.4005 44.4308 15.3662 44.4034C15.3285 44.3759 15.2908 44.3451 15.2531 44.3176C15.2497 44.3142 15.2428 44.3108 15.2394 44.3074C15.1845 44.2662 15.1297 44.2251 15.0748 44.1839C15.0577 44.1702 15.0371 44.1565 15.0165 44.1394C14.9857 44.1188 14.9582 44.0948 14.9274 44.0776C14.8759 44.0399 14.8245 44.0056 14.7731 43.9714C14.7422 43.9508 14.7148 43.9302 14.6839 43.9131C14.6668 43.9028 14.6497 43.8925 14.6359 43.8822C14.6119 43.8685 14.5879 43.8548 14.5674 43.8376C14.5605 43.8308 14.5502 43.8274 14.5365 43.8205C14.5022 43.7999 14.4679 43.7759 14.4337 43.7554C14.3994 43.7382 14.3719 43.7176 14.3411 43.7005C14.3171 43.6868 14.2897 43.6731 14.2657 43.6559C13.5971 43.2719 12.8737 42.9736 12.1091 42.7748C12.0782 42.7679 12.0508 42.7611 12.0199 42.7542C11.9719 42.7439 11.9239 42.7302 11.8759 42.7165C11.8142 42.7028 11.7525 42.6925 11.6908 42.6754C11.6462 42.6651 11.5982 42.6582 11.5537 42.6479C11.5091 42.6411 11.4714 42.6342 11.4268 42.6274C11.3857 42.6205 11.3445 42.6136 11.3034 42.6068C11.2794 42.6034 11.2519 42.5999 11.2279 42.5965C11.2177 42.5931 11.2108 42.5931 11.2005 42.5896C11.1662 42.5862 11.1388 42.5828 11.1045 42.5759C11.0702 42.5725 11.0394 42.5691 11.0051 42.5656C10.9742 42.5622 10.9502 42.5588 10.9262 42.5554C10.8748 42.5519 10.8268 42.5451 10.7754 42.5416C10.7548 42.5382 10.7308 42.5348 10.7102 42.5348C10.6999 42.5348 10.6897 42.5314 10.6759 42.5314C10.6451 42.5279 10.6211 42.5279 10.5937 42.5245C10.5559 42.5211 10.5182 42.5176 10.4805 42.5176C10.4634 42.5142 10.4462 42.5142 10.4291 42.5142H10.4154C10.3742 42.5108 10.3365 42.5074 10.2954 42.5074C10.1788 42.5005 10.0588 42.4971 9.9388 42.4971H9.73309C9.70909 42.5005 9.68166 42.5005 9.65766 42.5005C9.61652 42.5005 9.58223 42.5039 9.54452 42.5039C9.5068 42.5039 9.46909 42.5074 9.43137 42.5074C9.42795 42.5074 9.42109 42.5074 9.41766 42.5108C9.37652 42.5108 9.34223 42.5142 9.30109 42.5142C9.25995 42.5176 9.22566 42.5211 9.18452 42.5245C9.15366 42.5245 9.12966 42.5279 9.10566 42.5314H9.09195C9.09195 42.5314 9.06109 42.5348 9.04395 42.5348C9.03023 42.5382 9.01652 42.5382 8.99937 42.5416C8.96852 42.5416 8.94109 42.5451 8.91023 42.5485C8.88623 42.5519 8.85537 42.5554 8.83137 42.5588C8.70452 42.5725 8.57766 42.5896 8.44737 42.6102C8.40623 42.6171 8.36509 42.6239 8.32395 42.6308C8.28966 42.6376 8.2588 42.6411 8.22795 42.6479C8.20737 42.6514 8.18337 42.6548 8.1628 42.6616C8.1388 42.6651 8.1148 42.6685 8.09423 42.6719C8.07366 42.6788 8.04966 42.6822 8.02909 42.6856C7.98795 42.6959 7.95023 42.7028 7.90909 42.7131C7.8748 42.7199 7.84052 42.7268 7.80623 42.7336C7.77537 42.7405 7.74795 42.7474 7.71709 42.7542C7.67937 42.7645 7.64509 42.7748 7.60395 42.7816C6.90109 42.9702 6.22566 43.2445 5.60166 43.5942C5.56395 43.6114 5.53309 43.6319 5.4988 43.6525C5.44052 43.6834 5.38566 43.7176 5.32737 43.7485C5.28966 43.7725 5.25195 43.7965 5.2108 43.8205C5.2108 43.8239 5.20737 43.8239 5.20395 43.8274C5.17309 43.8445 5.14566 43.8651 5.1148 43.8822C5.07023 43.9062 5.03252 43.9371 4.99137 43.9645C4.94337 43.9919 4.8988 44.0262 4.85766 44.0536C4.8508 44.0605 4.84395 44.0639 4.84052 44.0674C4.80966 44.0845 4.78223 44.1085 4.75137 44.1291C4.7308 44.1428 4.7068 44.1599 4.68623 44.1771C4.66566 44.1942 4.64166 44.2079 4.62109 44.2285C4.60395 44.2422 4.57995 44.2559 4.5628 44.2731C4.54566 44.2902 4.52509 44.3005 4.50795 44.3142C4.47709 44.3382 4.44623 44.3622 4.41537 44.3862H4.41195C4.41195 44.3862 4.40166 44.3965 4.39823 44.4034C4.36737 44.4239 4.33995 44.4479 4.30909 44.4685C4.28509 44.4925 4.25423 44.5165 4.2268 44.5405C4.2028 44.5611 4.17537 44.5851 4.1548 44.6056C4.13423 44.6228 4.1068 44.6434 4.08966 44.6605C3.8188 44.9005 3.56509 45.1474 3.32853 45.4148C3.3251 45.4182 3.3251 45.4216 3.32167 45.4216C3.31139 45.4354 3.3011 45.4456 3.28739 45.4594C3.25653 45.4902 3.23253 45.5245 3.2051 45.5588C3.18453 45.5828 3.1571 45.6102 3.13653 45.6376C3.10567 45.6754 3.07825 45.7096 3.04396 45.7474C3.02339 45.7748 2.99939 45.8056 2.97882 45.8331C2.95482 45.8639 2.92396 45.9016 2.89996 45.9325C2.85882 45.9908 2.81767 46.0456 2.77653 46.0971C2.76282 46.1176 2.74567 46.1416 2.73196 46.1622C2.70796 46.1999 2.68053 46.2342 2.65653 46.2719C2.64967 46.2822 2.64282 46.2925 2.63596 46.2994C2.62225 46.3234 2.6051 46.3474 2.58796 46.3714C2.57425 46.3954 2.5571 46.4194 2.53996 46.4434C2.51939 46.4742 2.49539 46.5085 2.47825 46.5428C2.10453 47.1256 1.80625 47.7496 1.58682 48.4148C1.57653 48.4388 1.56967 48.4662 1.56282 48.4902C1.55253 48.5176 1.54225 48.5519 1.53196 48.5794C1.51825 48.6205 1.50796 48.6582 1.49425 48.6959C1.48396 48.7371 1.47367 48.7748 1.45996 48.8159C1.44282 48.8708 1.42567 48.9256 1.41196 48.9771C1.4051 49.0079 1.39825 49.0388 1.39139 49.0696C1.3811 49.1176 1.37082 49.1622 1.3571 49.2102C1.34682 49.2548 1.33653 49.2994 1.32282 49.3439V49.3542C1.31939 49.3714 1.31596 49.3851 1.31253 49.4056C1.3091 49.4125 1.3091 49.4228 1.3091 49.4296C1.30225 49.4571 1.29539 49.4914 1.29196 49.5188C1.2851 49.5496 1.27825 49.5805 1.27482 49.6114C1.26796 49.6525 1.2611 49.6936 1.25425 49.7382C1.25082 49.7485 1.25082 49.7622 1.24739 49.7759C1.24396 49.7999 1.24053 49.8239 1.2371 49.8479C1.23367 49.8685 1.23025 49.8959 1.22682 49.9199V49.9336C1.21653 50.0022 1.20967 50.0708 1.19596 50.1428C1.19253 50.1976 1.18567 50.2559 1.17882 50.3142V50.3314C1.17539 50.3554 1.17539 50.3862 1.17196 50.4102C1.17196 50.4342 1.16853 50.4651 1.1651 50.4891C1.1651 50.5131 1.16167 50.5439 1.16167 50.5679C1.15825 50.5919 1.15825 50.6228 1.15825 50.6468C1.15482 50.6708 1.15482 50.6982 1.15139 50.7256V50.7702C1.15139 50.8011 1.14796 50.8319 1.14796 50.8594C1.14796 50.8834 1.14796 50.9074 1.14453 50.9279V51.2914C1.14453 51.3119 1.14453 51.3394 1.14796 51.3634V51.4285C1.15139 51.4662 1.15139 51.5005 1.15139 51.5416C1.15482 51.5416 1.15482 51.5451 1.15482 51.5451C1.15482 51.5759 1.15482 51.6102 1.15825 51.6411V51.6514C1.16167 51.7028 1.1651 51.7474 1.16853 51.7954C1.16853 51.8228 1.17196 51.8502 1.17539 51.8776C1.17539 51.8914 1.17539 51.9085 1.17882 51.9291C1.17882 51.9496 1.18225 51.9736 1.18567 51.9976C1.1891 52.0354 1.19253 52.0696 1.19596 52.1039C1.19939 52.1416 1.20282 52.1759 1.20625 52.2136C1.20967 52.2308 1.2131 52.2548 1.2131 52.2719C1.21996 52.3096 1.22339 52.3474 1.23025 52.3851C1.23367 52.4228 1.24053 52.4571 1.24396 52.4982C1.25082 52.5222 1.25425 52.5531 1.25767 52.5805C1.2611 52.6011 1.26453 52.6285 1.27139 52.6491C1.27139 52.6662 1.27482 52.6868 1.27825 52.7039C1.2851 52.7416 1.29196 52.7725 1.29882 52.8068L1.31939 52.9268C1.31939 52.9268 1.31939 52.9302 1.32282 52.9336C1.32967 52.9782 1.33996 53.0194 1.35367 53.0639C1.36053 53.0948 1.36739 53.1291 1.37425 53.1599C1.38796 53.2148 1.39825 53.2696 1.41539 53.3211C1.64853 54.2056 2.01882 55.0354 2.50225 55.7862C2.51939 55.8171 2.54339 55.8514 2.56396 55.8822C2.58796 55.9234 2.61539 55.9576 2.63939 55.9988C2.66339 56.0296 2.68739 56.0639 2.70796 56.0948C2.7251 56.1188 2.74225 56.1462 2.75939 56.1668C2.7731 56.1874 2.79367 56.2114 2.80739 56.2319C2.85882 56.3005 2.91025 56.3691 2.9651 56.4376C2.96853 56.4411 2.97196 56.4445 2.97196 56.4479C3.00282 56.4891 3.03367 56.5234 3.06453 56.5645C3.08853 56.5919 3.11596 56.6262 3.13996 56.6536C3.15367 56.6708 3.17082 56.6914 3.18453 56.7085C3.19139 56.7154 3.19825 56.7222 3.2051 56.7325C3.22225 56.7531 3.24625 56.7771 3.26339 56.7976C3.28053 56.8182 3.29767 56.8388 3.31482 56.8594C3.32167 56.8662 3.32853 56.8731 3.33539 56.8799C3.35253 56.9005 3.37653 56.9279 3.3971 56.9485C3.40739 56.9622 3.4211 56.9725 3.4348 56.9896C3.43823 56.9965 3.44509 56.9999 3.45195 57.0068C3.63023 57.2022 3.8188 57.3874 4.01423 57.5588C4.0348 57.5794 4.0588 57.5999 4.0828 57.6171C4.09652 57.6342 4.11709 57.6479 4.13423 57.6651C4.15823 57.6891 4.18909 57.7131 4.21652 57.7371C4.2268 57.7439 4.23709 57.7542 4.2508 57.7645C4.26795 57.7782 4.28852 57.7919 4.30566 57.8091C4.33995 57.8331 4.3708 57.8605 4.40509 57.8879C4.42566 57.9051 4.45309 57.9256 4.47709 57.9462C4.49766 57.9634 4.52166 57.9771 4.54566 57.9976C4.55252 58.0045 4.55937 58.0114 4.56623 58.0148C4.59023 58.0319 4.61423 58.0525 4.6348 58.0662C4.69309 58.1108 4.75137 58.1519 4.80966 58.1965H4.81309C4.83366 58.2136 4.85766 58.2274 4.87823 58.2445C4.89195 58.2548 4.90909 58.2651 4.9228 58.2754C4.94337 58.2856 4.96395 58.2994 4.98109 58.3165H4.98452C5.0188 58.3371 5.04966 58.3611 5.08395 58.3816C5.12166 58.4056 5.15937 58.4331 5.20052 58.4571C5.24166 58.4776 5.27595 58.5051 5.31709 58.5256C5.35823 58.5496 5.39252 58.5736 5.43366 58.5976H5.43709C5.43709 58.5976 5.45423 58.6079 5.46795 58.6148C5.93766 58.8891 6.43823 59.1154 6.95937 59.2971C6.98337 59.3074 7.0108 59.3142 7.0348 59.3211C7.06566 59.3314 7.09309 59.3416 7.12737 59.3519C7.14109 59.3554 7.15823 59.3622 7.17195 59.3656C7.20623 59.3759 7.24052 59.3862 7.27823 59.3965C7.30223 59.4068 7.32966 59.4136 7.35709 59.4205C7.38795 59.4308 7.4188 59.4376 7.45309 59.4479C7.50452 59.4616 7.55595 59.4754 7.60737 59.4925C7.63823 59.4994 7.66223 59.5062 7.68623 59.5096C7.71023 59.5165 7.74109 59.5234 7.76852 59.5302C7.79937 59.5371 7.83023 59.5474 7.86452 59.5542C7.89537 59.5611 7.92623 59.5679 7.96052 59.5748L8.06337 59.5954C8.10795 59.6022 8.15595 59.6125 8.20052 59.6194C8.24166 59.6296 8.2828 59.6365 8.32737 59.6434C8.36852 59.6502 8.40623 59.6571 8.4508 59.6639L8.52623 59.6742C8.52623 59.6742 8.54337 59.6776 8.55709 59.6776C8.58795 59.6845 8.6188 59.6879 8.65309 59.6914C8.68737 59.6948 8.71823 59.7016 8.74909 59.7051C8.78337 59.7085 8.81423 59.7119 8.84852 59.7154C8.8828 59.7188 8.91709 59.7222 8.9548 59.7256C8.97195 59.7291 8.99252 59.7291 9.00623 59.7325C9.02337 59.7325 9.04052 59.7325 9.05423 59.7359C9.0748 59.7359 9.10223 59.7394 9.1228 59.7428C9.14337 59.7428 9.1708 59.7462 9.19137 59.7462C9.21537 59.7496 9.23937 59.7496 9.25995 59.7531C9.28395 59.7531 9.30795 59.7531 9.32852 59.7565C9.3628 59.7565 9.39366 59.7599 9.42452 59.7599H9.4348C9.46909 59.7634 9.49995 59.7634 9.53766 59.7668H9.58566C9.60623 59.7668 9.63023 59.7702 9.65423 59.7702H10.1034C10.1034 59.7702 10.1205 59.7702 10.1308 59.7668H10.2131C10.2508 59.7634 10.2817 59.7634 10.3194 59.7599H10.3399C10.3708 59.7599 10.4017 59.7565 10.4325 59.7565C10.4634 59.7531 10.4908 59.7531 10.5148 59.7496C10.5319 59.7496 10.5559 59.7462 10.5731 59.7462C10.5765 59.7462 10.5834 59.7462 10.5868 59.7428C10.6108 59.7428 10.6348 59.7394 10.6554 59.7394C10.6657 59.7394 10.6759 59.7359 10.6897 59.7359C10.7034 59.7359 10.7205 59.7325 10.7342 59.7325C10.7582 59.7291 10.7822 59.7291 10.8062 59.7256C10.8302 59.7222 10.8542 59.7222 10.8782 59.7188C10.9159 59.7154 10.9502 59.7085 10.9879 59.7051C11.0257 59.7016 11.0599 59.6982 11.0977 59.6914C11.1354 59.6879 11.1697 59.6811 11.2074 59.6776C11.2417 59.6708 11.2759 59.6674 11.3102 59.6605C11.3479 59.6571 11.3857 59.6502 11.4234 59.6434C11.4679 59.6365 11.5125 59.6296 11.5502 59.6194C11.5982 59.6125 11.6462 59.6022 11.6874 59.5954H11.6908C11.7354 59.5851 11.7834 59.5748 11.8245 59.5645C11.8588 59.5576 11.8862 59.5508 11.9205 59.5439C11.9479 59.5371 11.9788 59.5302 12.0097 59.5234C12.0405 59.5165 12.0645 59.5096 12.0919 59.5028C12.1262 59.4959 12.1571 59.4856 12.1914 59.4788C12.2085 59.4754 12.2291 59.4685 12.2462 59.4651C12.2702 59.4582 12.2977 59.4514 12.3217 59.4445C12.3457 59.4376 12.3765 59.4308 12.4005 59.4205C12.4245 59.4136 12.4554 59.4068 12.4794 59.3999C12.9697 59.2491 13.4394 59.0571 13.8885 58.8239C13.9228 58.8068 13.9537 58.7862 13.9879 58.7691C14.0085 58.7588 14.0359 58.7451 14.0565 58.7314C14.0874 58.7176 14.1114 58.7039 14.1354 58.6868C14.1594 58.6731 14.1868 58.6594 14.2142 58.6422C14.2451 58.6251 14.2725 58.6045 14.3034 58.5908C14.3445 58.5668 14.3788 58.5428 14.4199 58.5222C14.4508 58.5051 14.4782 58.4845 14.5091 58.4674C14.5297 58.4536 14.5537 58.4399 14.5742 58.4262C14.5845 58.4159 14.5982 58.4091 14.6119 58.4022C14.6325 58.3885 14.6531 58.3782 14.6737 58.3611C14.7319 58.3199 14.7902 58.2856 14.8485 58.2445C14.8828 58.2205 14.9137 58.1965 14.9479 58.1759C14.9719 58.1588 14.9959 58.1382 15.0199 58.1211C15.0474 58.1005 15.0748 58.0799 15.1022 58.0594C15.1194 58.0456 15.1399 58.0354 15.1571 58.0182C15.1639 58.0114 15.1708 58.0079 15.1742 58.0011C15.1948 57.9874 15.2154 57.9736 15.2325 57.9565C15.2462 57.9462 15.2634 57.9394 15.2737 57.9291C15.2874 57.9188 15.2977 57.9085 15.3148 57.8982C15.3319 57.8845 15.3559 57.8708 15.3731 57.8502C15.3937 57.8365 15.4142 57.8194 15.4314 57.8022C15.4417 57.7954 15.4485 57.7885 15.4554 57.7816C15.4965 57.7542 15.5308 57.7199 15.5685 57.6891C15.5788 57.6822 15.5857 57.6754 15.5925 57.6685C15.6131 57.6514 15.6371 57.6308 15.6577 57.6136C15.6611 57.6102 15.6645 57.6068 15.6679 57.6034C15.6679 57.6034 15.6714 57.6034 15.6714 57.5999C16.0554 57.2639 16.4085 56.8971 16.7274 56.4994C16.7342 56.4891 16.7411 56.4788 16.7479 56.4685C16.7582 56.4582 16.7651 56.4479 16.7754 56.4308C16.7788 56.4308 16.7788 56.4274 16.7788 56.4274C16.8028 56.3965 16.8302 56.3622 16.8542 56.3245C16.8782 56.2971 16.9022 56.2628 16.9262 56.2319C16.9468 56.2045 16.9674 56.1771 16.9845 56.1496C16.9982 56.1325 17.0154 56.1085 17.0291 56.0879C17.0497 56.0639 17.0702 56.0331 17.0908 56.0056C17.0977 55.9919 17.1045 55.9816 17.1148 55.9645C17.1354 55.9336 17.1594 55.8994 17.1799 55.8685C17.2142 55.8171 17.2451 55.7622 17.2794 55.7142C17.2931 55.6902 17.3102 55.6662 17.3239 55.6456C17.3274 55.6354 17.3342 55.6285 17.3377 55.6182C17.3479 55.6045 17.3582 55.5874 17.3685 55.5702C17.3788 55.5565 17.3857 55.5428 17.3994 55.5222C17.4131 55.5016 17.4234 55.4811 17.4371 55.4605H17.4405C17.4508 55.4365 17.4645 55.4125 17.4782 55.3919C17.4954 55.3611 17.5159 55.3268 17.5331 55.2959C17.5502 55.2685 17.5674 55.2342 17.5845 55.2034C17.5845 55.2034 17.5879 55.1965 17.5879 55.1931C17.6085 55.1519 17.6325 55.1142 17.6531 55.0731C17.6599 55.0559 17.6702 55.0354 17.6771 55.0182C17.6908 54.9942 17.7011 54.9668 17.7182 54.9428C17.7251 54.9256 17.7354 54.9051 17.7422 54.8879C17.7525 54.8674 17.7628 54.8399 17.7765 54.8159C17.7834 54.8022 17.7902 54.7885 17.7971 54.7714C17.8074 54.7508 17.8177 54.7268 17.8279 54.7062L17.8485 54.6651C17.8554 54.6479 17.8622 54.6342 17.8657 54.6171C17.8725 54.5999 17.8794 54.5862 17.8862 54.5691C17.8897 54.5656 17.8897 54.5622 17.8897 54.5588C17.9102 54.5108 17.9308 54.4662 17.9514 54.4182C17.9685 54.3736 17.9891 54.3291 18.0062 54.2811C18.0199 54.2502 18.0302 54.2159 18.0439 54.1851C18.0577 54.1542 18.0679 54.1199 18.0817 54.0891L18.1022 54.0342C18.1022 54.0342 18.1057 54.0205 18.1091 54.0171C18.1125 54.0068 18.1125 53.9999 18.1159 53.9931C18.1365 53.9279 18.1639 53.8628 18.1811 53.7976C18.1948 53.7599 18.2051 53.7256 18.2188 53.6845C18.2291 53.6536 18.2394 53.6194 18.2531 53.5851C18.2634 53.5439 18.2771 53.5028 18.2908 53.4582C18.3011 53.4136 18.3114 53.3759 18.3251 53.3314C18.3354 53.2936 18.3457 53.2559 18.3594 53.2148C18.3628 53.2011 18.3662 53.1874 18.3697 53.1702C18.3765 53.1291 18.3868 53.0948 18.3937 53.0536C18.4039 53.0091 18.4108 52.9714 18.4245 52.9302C18.4314 52.8994 18.4348 52.8651 18.4417 52.8342C18.4485 52.8068 18.4554 52.7725 18.4588 52.7451C18.4657 52.7142 18.4691 52.6834 18.4759 52.6525C18.4828 52.6114 18.4897 52.5702 18.4965 52.5291C18.4965 52.5154 18.4999 52.5016 18.5034 52.4845C18.5068 52.4605 18.5102 52.4365 18.5137 52.4159C18.5171 52.3919 18.5205 52.3679 18.5239 52.3439V52.3302C18.5342 52.2616 18.5411 52.1896 18.5479 52.1211C18.5548 52.0628 18.5617 52.0079 18.5651 51.9496C18.5685 51.9428 18.5685 51.9359 18.5685 51.9325C18.5719 51.9051 18.5719 51.8776 18.5754 51.8536C18.5754 51.8262 18.5788 51.7988 18.5822 51.7748C18.5822 51.7474 18.5857 51.7199 18.5857 51.6959C18.5891 51.6719 18.5891 51.6411 18.5891 51.6171C18.5925 51.5931 18.5925 51.5622 18.5925 51.5382C18.5959 51.5279 18.5959 51.5211 18.5959 51.5108V51.4936C18.5959 51.4662 18.5994 51.4354 18.5994 51.4045V51.3188C18.5994 51.3188 18.6028 51.3051 18.6028 51.2982V50.9759C18.6028 50.9519 18.5994 50.9245 18.5994 50.9039L18.6097 50.9245Z" fill="white"/>
<path d="M12.0554 51.8298C11.3114 51.8298 10.5606 51.6412 9.868 51.2435C10.2691 51.9326 10.4577 52.6869 10.4543 53.4309C10.4543 54.1955 10.2486 54.9532 9.87143 55.6149H9.868C9.484 54.9498 9.28514 54.1955 9.28514 53.4309C9.28171 52.6869 9.47029 51.9326 9.868 51.2435C9.17886 51.6412 8.42457 51.8298 7.68057 51.8298C6.916 51.8264 6.15829 51.6241 5.5 51.2435C6.16171 50.8595 6.916 50.6572 7.68057 50.6572C8.44514 50.6572 9.17886 50.8458 9.868 51.2435C9.47029 50.5544 9.28171 49.8001 9.28514 49.0561C9.28514 48.2915 9.48743 47.5338 9.868 46.8721H9.87143C10.252 47.5372 10.4543 48.2915 10.4543 49.0561C10.4577 49.8001 10.2691 50.5544 9.868 51.2435C10.5606 50.8458 11.3114 50.6572 12.0554 50.6572C12.7994 50.6572 13.5777 50.8629 14.2394 51.2435C13.5743 51.6275 12.82 51.8264 12.0554 51.8298Z" fill="white"/>
<path d="M9.86409 51.2435C9.17495 51.6412 8.42067 51.8298 7.67667 51.8298C6.91209 51.8264 6.15438 51.6241 5.49609 51.2435C6.15781 50.8595 6.91209 50.6572 7.67667 50.6572C8.44124 50.6572 9.17495 50.8458 9.86409 51.2435Z" fill="#C42D22"/>
<path d="M10.4543 53.4308C10.4543 54.1954 10.2486 54.9531 9.87149 55.6148H9.86806C9.48406 54.9497 9.2852 54.1954 9.2852 53.4308C9.28177 52.6868 9.47034 51.9326 9.86806 51.2434C10.2692 51.9326 10.4578 52.6868 10.4543 53.4308Z" fill="#C42D22"/>
<path d="M14.2386 51.2435C13.5735 51.6275 12.8192 51.8264 12.0546 51.8298C11.3106 51.8298 10.5598 51.6412 9.86719 51.2435C10.5598 50.8458 11.3106 50.6572 12.0546 50.6572C12.7986 50.6572 13.5769 50.8629 14.2386 51.2435Z" fill="#C42D22"/>
<path d="M10.4543 49.0527C10.4578 49.7967 10.2692 50.5509 9.86806 51.2401C9.47034 50.5509 9.28177 49.7967 9.2852 49.0527C9.2852 48.2881 9.48749 47.5304 9.86806 46.8687H9.87149C10.2521 47.5338 10.4543 48.2881 10.4543 49.0527Z" fill="#C42D22"/>
<path d="M39.8611 51.0993C34.3856 47.1633 30.6005 45.2193 28.2553 44.3827C28.1045 44.3279 28.0119 44.5473 28.1559 44.6159C30.4976 45.761 34.1902 48.7302 36.7548 57.0822C37.3891 59.1462 39.6142 59.8147 40.8485 59.8147C42.6554 59.8147 43.8896 58.4159 43.8896 56.4445C43.8896 54.473 42.7685 53.1907 39.8611 51.0993Z" fill="white"/>
</g>
<defs>
<clipPath id="clip0_245_2">
<rect width="199.543" height="60" fill="white"/>
</clipPath>
</defs>
</svg>
