<svg width="14" height="13" viewBox="0 0 14 13" fill="none" xmlns="http://www.w3.org/2000/svg">
<path d="M6.82174 2.45888L6.1214 1.70602L6.45741 2.06207L6.82105 2.44741L7.18469 2.06207L7.7254 1.4891L7.72541 1.4891L7.72723 1.48716C8.02102 1.17249 8.3703 0.924039 8.75391 0.755051C9.13745 0.586092 9.5483 0.499633 9.9626 0.500001L9.9629 0.500001C10.3773 0.500121 10.7881 0.586847 11.1718 0.75585C11.5182 0.908479 11.8368 1.12576 12.112 1.39799C11.8445 1.14056 11.5353 0.93223 11.1974 0.783402C10.8076 0.611663 10.3881 0.522948 9.9638 0.523162C9.9634 0.523162 9.96299 0.523161 9.96259 0.523161L9.96304 1.02316L6.82174 2.45888ZM6.82174 2.45888L7.68678 1.53244L6.82174 2.45888ZM12.4054 6.09714C12.8958 5.48455 13.165 4.71177 13.1661 3.91358C13.1661 3.91187 13.1661 3.91017 13.1661 3.90846C13.1661 3.0192 12.8334 2.1611 12.2327 1.52049C12.2326 1.52036 12.2325 1.52022 12.2323 1.52008L12.2306 1.52168L12.2314 1.52251C12.8121 2.16118 13.1409 3.01501 13.1421 3.90846C13.1421 3.91017 13.1421 3.91187 13.1421 3.91358C13.1421 4.71531 12.8784 5.48542 12.4054 6.09714ZM12.4054 6.09714C12.3407 6.18091 12.272 6.26171 12.1995 6.33922M12.4054 6.09714C12.3505 6.16578 12.2928 6.23241 12.2323 6.29684L12.2319 6.29731L7.18529 11.6638L6.82105 12.0511L6.45681 11.6638L1.4102 6.29731L1.40975 6.29684C1.3495 6.2326 1.29195 6.16618 1.23716 6.09776M12.1995 6.33922L1.41095 1.52225C0.830122 2.16094 0.501255 3.01487 0.500004 3.90846C0.500001 3.91017 0.5 3.91187 0.5 3.91358C0.5 4.7156 0.763941 5.48595 1.23716 6.09776M12.1995 6.33922C12.1994 6.33937 12.1992 6.33952 12.1991 6.33966L6.82105 12.0596M12.1995 6.33922L6.82105 12.0596M1.23716 6.09776C0.746506 5.48508 0.477091 4.71205 0.475944 3.91358C0.475941 3.91187 0.47594 3.91017 0.47594 3.90846C0.47594 3.01912 0.808778 2.16097 1.40949 1.52036L1.07786 1.14593C0.38706 1.88446 0 2.87832 0 3.91358C0 4.94883 0.38706 5.94269 1.07786 6.68122L1.44213 6.33872L1.44255 6.33917C1.37028 6.26187 1.30177 6.18129 1.23716 6.09776ZM6.82105 12.0596L1.44302 6.33966L6.82105 12.0596ZM1.52834 1.39977C1.80394 1.12697 2.12313 0.909294 2.4703 0.756498C2.85392 0.587654 3.26477 0.501071 3.6791 0.501071C4.09343 0.501071 4.50428 0.587654 4.8879 0.756498C5.23521 0.909359 5.55453 1.12715 5.83021 1.40012C5.5621 1.14191 5.25219 0.932938 4.91344 0.783688C4.5234 0.611827 4.1037 0.522941 3.6791 0.522941C3.25449 0.522941 2.8348 0.611828 2.44475 0.783685L2.44475 0.783688C2.10616 0.932871 1.79637 1.14172 1.52834 1.39977Z" fill="white" stroke="#CD2B1F"/>
</svg>
