<svg width="20" height="20" viewBox="0 0 20 20" fill="none" xmlns="http://www.w3.org/2000/svg">
<path d="M5.80022 0H14.1998C17.4007 0 20 2.59933 20 5.80022V14.1998C20 17.4007 17.4007 20 14.1998 20H5.80022C2.59933 20 0 17.4007 0 14.1998V5.80022C0 2.59933 2.59933 0 5.80022 0ZM5.5997 1.99777C3.60936 1.99777 1.99777 3.60936 1.99777 5.5997V14.4003C1.99777 16.3906 3.60936 18.0022 5.5997 18.0022H14.4003C16.3906 18.0022 18.0022 16.3906 18.0022 14.4003V5.5997C18.0022 3.60936 16.3906 1.99777 14.4003 1.99777H5.5997ZM15.2469 3.49796C15.9376 3.49796 16.4946 4.05496 16.4946 4.74564C16.4946 5.43632 15.9376 5.99332 15.2469 5.99332C14.5563 5.99332 13.9993 5.43632 13.9993 4.74564C13.9993 4.05496 14.5563 3.49796 15.2469 3.49796ZM10.0037 4.99814C12.7664 4.99814 15.0019 7.23357 15.0019 9.99629C15.0019 12.759 12.7664 14.9944 10.0037 14.9944C7.241 14.9944 5.00557 12.759 5.00557 9.99629C5.00557 7.23357 7.241 4.99814 10.0037 4.99814ZM10.0037 7.00334C8.34757 7.00334 7.00334 8.34757 7.00334 10.0037C7.00334 11.6599 8.34757 13.0041 10.0037 13.0041C11.6599 13.0041 13.0041 11.6599 13.0041 10.0037C13.0041 8.34757 11.6599 7.00334 10.0037 7.00334Z" fill="#C42D22"/>
</svg>
