<?xml version="1.0" encoding="UTF-8"?>
<svg id="_レイヤー_2" data-name="レイヤー 2" xmlns="http://www.w3.org/2000/svg" viewBox="0 0 581.05 174.46">
  <defs>
    <style>
      .cls-1 {
        fill: #cd2b1f;
      }

      .cls-1, .cls-2 {
        stroke-width: 0px;
      }

      .cls-2 {
        fill: #fff;
      }
    </style>
  </defs>
  <g id="_レイヤー_1-2" data-name="レイヤー 1">
    <g>
      <g>
        <g>
          <path class="cls-1" d="M568.29,105.98c-2.01,1.16-4.21,1.72-6.39,1.72-2.23-.01-4.43-.6-6.36-1.72,1.93-1.11,4.13-1.71,6.36-1.71s4.38.55,6.39,1.71Z"/>
          <path class="cls-1" d="M570,112.37c0,2.23-.59,4.43-1.7,6.37h0c-1.12-1.94-1.7-4.14-1.7-6.37,0-2.17.54-4.38,1.7-6.39,1.17,2.01,1.72,4.22,1.71,6.39Z"/>
          <path class="cls-1" d="M581.05,105.98c-1.94,1.12-4.14,1.71-6.38,1.72-2.17,0-4.36-.56-6.38-1.72,2.02-1.16,4.21-1.71,6.38-1.71s4.44.6,6.38,1.71Z"/>
          <path class="cls-1" d="M570,99.6c0,2.17-.54,4.37-1.71,6.38-1.16-2.01-1.71-4.21-1.7-6.38,0-2.24.58-4.44,1.7-6.38h0c1.11,1.94,1.7,4.14,1.7,6.38Z"/>
        </g>
        <path class="cls-1" d="M233.94,146.23c0-3.93.86-7.59,2.59-10.96,1.73-3.37,3.94-6.28,6.63-8.73,2.69-2.45,5.7-4.36,9.04-5.72,3.33-1.36,6.61-2.05,9.82-2.05s6.48.68,9.82,2.05c3.33,1.37,6.34,3.27,9.04,5.72,2.69,2.45,4.9,5.36,6.63,8.73,1.73,3.37,2.59,7.03,2.59,10.96s-.8,7.33-2.41,10.66c-1.61,3.33-3.72,6.25-6.33,8.73-2.61,2.49-5.6,4.46-8.98,5.9-3.37,1.45-6.83,2.17-10.36,2.17s-6.99-.72-10.36-2.17c-3.37-1.45-6.37-3.41-8.98-5.9-2.61-2.49-4.72-5.4-6.32-8.73-1.61-3.33-2.41-6.89-2.41-10.66ZM245.98,146.23c0,5.7.44,10.24,1.33,13.61.88,3.37,2.05,5.96,3.49,7.77,1.45,1.81,3.13,2.99,5.06,3.55,1.93.56,3.98.84,6.14.84s4.22-.28,6.14-.84c1.93-.56,3.61-1.75,5.06-3.55,1.45-1.81,2.61-4.4,3.49-7.77.88-3.37,1.33-7.91,1.33-13.61,0-4.82-.32-8.85-.96-12.11-.64-3.25-1.63-5.9-2.95-7.95s-2.99-3.51-5-4.4c-2.01-.88-4.38-1.33-7.11-1.33s-5.1.44-7.11,1.33c-2.01.88-3.67,2.35-5,4.4s-2.31,4.7-2.95,7.95c-.64,3.25-.96,7.29-.96,12.11Z"/>
        <path class="cls-1" d="M502.09,146.23c0-3.93.86-7.59,2.59-10.96,1.73-3.37,3.93-6.28,6.63-8.73,2.69-2.45,5.7-4.36,9.04-5.72,3.33-1.36,6.61-2.05,9.82-2.05s6.49.68,9.82,2.05c3.33,1.37,6.34,3.27,9.04,5.72,2.69,2.45,4.9,5.36,6.63,8.73,1.73,3.37,2.59,7.03,2.59,10.96s-.8,7.33-2.41,10.66c-1.61,3.33-3.72,6.25-6.33,8.73-2.61,2.49-5.6,4.46-8.98,5.9-3.37,1.45-6.83,2.17-10.36,2.17s-6.99-.72-10.36-2.17c-3.37-1.45-6.37-3.41-8.98-5.9-2.61-2.49-4.72-5.4-6.32-8.73-1.61-3.33-2.41-6.89-2.41-10.66ZM514.14,146.23c0,5.7.44,10.24,1.33,13.61.88,3.37,2.05,5.96,3.49,7.77,1.45,1.81,3.13,2.99,5.06,3.55,1.93.56,3.98.84,6.14.84s4.22-.28,6.14-.84c1.93-.56,3.61-1.75,5.06-3.55,1.45-1.81,2.61-4.4,3.49-7.77.88-3.37,1.33-7.91,1.33-13.61,0-4.82-.32-8.85-.96-12.11-.64-3.25-1.63-5.9-2.95-7.95s-2.99-3.51-5-4.4c-2.01-.88-4.38-1.33-7.11-1.33s-5.1.44-7.11,1.33c-2.01.88-3.67,2.35-5,4.4s-2.31,4.7-2.95,7.95c-.64,3.25-.96,7.29-.96,12.11Z"/>
        <path class="cls-1" d="M171.17,170.33h9.28v-83.49h-9.28v-1.69h19.64v57.59h1.33l23.97-20.72h-8.55v-1.69h18.67v1.69h-7.23l-18.79,16.14,26.62,32.17h5.18v1.69h-27.11v-1.69h8.55l-21.32-25.9h-1.33v25.9h6.63v1.69h-26.26v-1.69Z"/>
        <path class="cls-1" d="M296.21,170.33h9.28v-48.31h-9.28v-1.69h19.4v12.65h.24c1.69-4.82,4.12-8.35,7.29-10.6,3.17-2.25,7.01-3.37,11.5-3.37,4.02,0,7.57.88,10.66,2.65,3.09,1.77,5.12,4.7,6.08,8.79h.24c.56-1.45,1.32-2.85,2.29-4.22.96-1.37,2.17-2.59,3.61-3.67s3.15-1.95,5.12-2.59c1.97-.64,4.2-.96,6.69-.96,11.72,0,17.59,5.98,17.59,17.95v33.37h9.28v1.69h-28.91v-1.69h9.28v-40.96c0-2.73-.74-4.86-2.23-6.38-1.49-1.52-3.52-2.29-6.08-2.29-2.01,0-4.02.38-6.02,1.14-2.01.76-3.82,1.91-5.42,3.43-1.61,1.53-2.91,3.49-3.92,5.9-1,2.41-1.51,5.22-1.51,8.43v30.72h9.28v1.69h-28.91v-1.69h9.28v-39.27c0-3.53-.72-6.14-2.17-7.83s-3.37-2.53-5.78-2.53c-1.69,0-3.54.42-5.54,1.26-2.01.84-3.88,2.17-5.6,3.98-1.73,1.81-3.17,4.16-4.34,7.05s-1.75,6.43-1.75,10.6v26.75h9.28v1.69h-28.91v-1.69Z"/>
        <path class="cls-1" d="M456.19,170.69c-1.04.8-2.29,1.51-3.73,2.11s-3.21.9-5.3.9c-3.86,0-6.65-.82-8.37-2.47-1.73-1.65-2.91-3.96-3.55-6.93h-.24c-.32.72-.76,1.63-1.32,2.71-.56,1.08-1.43,2.13-2.59,3.13-1.17,1-2.71,1.85-4.64,2.53-1.93.68-4.38,1.02-7.35,1.02-3.37,0-6.06-.38-8.07-1.14s-3.57-1.71-4.7-2.83c-1.12-1.12-1.87-2.39-2.23-3.79-.36-1.4-.54-2.71-.54-3.92,0-2.81.56-5.06,1.69-6.75,1.12-1.69,2.59-3.03,4.4-4.04,1.81-1,3.81-1.83,6.02-2.47,2.21-.64,4.44-1.33,6.69-2.05,2.65-.88,4.84-1.65,6.56-2.29,1.73-.64,3.07-1.42,4.04-2.35.96-.92,1.62-2.09,1.99-3.49.36-1.4.54-3.31.54-5.72,0-1.93-.12-3.65-.36-5.18-.24-1.52-.68-2.83-1.33-3.92s-1.57-1.91-2.77-2.47c-1.21-.56-2.81-.84-4.82-.84-2.65,0-4.84.46-6.56,1.39-1.73.92-2.59,2.43-2.59,4.52,0,1.37.12,2.71.36,4.04.24,1.33.36,2.31.36,2.95,0,1.13-.4,2.07-1.21,2.83-.8.76-1.97,1.14-3.49,1.14-2.65,0-4.3-.48-4.94-1.45s-.96-2.21-.96-3.73c0-1.77.4-3.45,1.2-5.06.8-1.61,1.99-3.03,3.55-4.28,1.57-1.24,3.53-2.23,5.9-2.95,2.37-.72,5.08-1.08,8.13-1.08,3.69,0,6.79.46,9.28,1.39,2.49.92,4.5,2.17,6.02,3.73,1.52,1.57,2.61,3.33,3.25,5.3.64,1.97.96,4.04.96,6.2v30c0,2.33.36,3.9,1.08,4.7.72.8,1.77,1.21,3.13,1.21.88,0,1.81-.16,2.77-.48.96-.32,1.89-.8,2.77-1.45l.96,1.33ZM435.11,142.5h-.24c-.16,1.04-1.49,2.09-3.97,3.13l-9.04,3.61c-2.57,1.04-4.54,2.51-5.9,4.4-1.37,1.89-2.05,4.24-2.05,7.05,0,1.2.12,2.45.36,3.73.24,1.29.68,2.43,1.32,3.43.64,1,1.55,1.83,2.71,2.47,1.16.64,2.67.96,4.52.96,2.65,0,4.8-.56,6.45-1.69,1.65-1.12,2.89-2.53,3.73-4.22.84-1.69,1.4-3.51,1.69-5.48.28-1.97.42-3.75.42-5.36v-12.05Z"/>
        <path class="cls-1" d="M457.89,120.33h9.28v-15.54c.64.24,1.24.44,1.81.6.56.16,1.52.24,2.89.24,1.21,0,2.25-.14,3.13-.42.88-.28,1.72-.74,2.53-1.39v16.5h17.11v1.69h-17.11v39.39c0,2.25.22,4.08.66,5.48.44,1.41,1.03,2.49,1.75,3.25.72.76,1.51,1.26,2.35,1.51.84.24,1.67.36,2.47.36,2.81,0,5.08-1.02,6.81-3.07,1.73-2.05,2.83-4.4,3.31-7.05l1.69.6c-.24,1.04-.6,2.21-1.08,3.49-.48,1.29-1.23,2.51-2.23,3.67-1,1.17-2.31,2.13-3.91,2.89-1.61.76-3.62,1.14-6.02,1.14-6.02,0-10.22-1.17-12.59-3.49-2.37-2.33-3.55-5.62-3.55-9.88v-38.31h-9.28v-1.69Z"/>
      </g>
      <path class="cls-1" d="M21.49,47.34c-8.94-.67-14.96-3.85-17.94-11.73l1.63-1.15c3.94,4.81,7.31,6.06,15,6.06,6.15,0,14.04-1.15,20.29-2.88,1.15-.29,2.4-.77,4.04-.77,3.17,0,5.58,2.69,5.58,5.19,0,1.64-.95,3.37-3.31,3.66-2.36.28-9.91.07-11.2.08s-7.26.09-9.47.5c-6.91,1.67-23.69,14.89-24.24,28.05-.37,8.74,9.42,12.45,26.92,12.45,5.96,0,10.19-.48,13.46-.96,1.35-.19,2.31-.48,3.37-.77.87-.29,1.83-.58,2.88-.58h.29c4.33,0,7.37,4.41,7.37,7.1,0,1.73-.58,2.88-3.17,3.75-2.79.77-9.42,1.54-19.61,1.54-22.02,0-33.36-6.35-33.36-19.61,0-10.38,6.88-20.13,21.15-30.77l.34.87Z"/>
      <path class="cls-1" d="M125.17,35.43c2.8.78,5.83,2.24,8.07,4.26,2.02,1.79,4.26,4.48,4.26,6.95,0,1.68-1.16,4.83-4.18,5.16-3.03.22-6.89-1.81-12.2-1.35-20.51.24-37.9,13.94-37.97,27.18-.04,7.4,1.14,11.2,24.79,11.2,6.17,0,16.31-2.5,15.63-2.34-.68.16,4.6-1.12,4.6-1.12,0,0,2.58-.67,3.7-.67,5.38,0,8,3.85,8,6.65s-1.46,4.04-5.16,4.6c-5.04.67-13.34.9-20.62.9h-3.92c-18.49-.22-28.47-6.73-28.47-18.49,0-9.19,6.28-18.05,19.95-24.88-.34-2.02-.67-4.93-1.01-8.18-.34-5.72-1.01-13-1.57-23.87-.22-4.48-1.12-5.27-3.25-5.72-.9-.11-1.79-.22-2.69-.22h-1.12l-.45-1.68c1.57-1.46,4.26-2.69,6.39-2.69,2.58,0,4.93.78,8.18,3.59,3.03,2.69,3.7,4.15,3.7,5.38,0,1.12-.45,1.79-1.12,2.8-1.01,1.46-1.23,2.69-1.23,5.27,0,6.95.11,15.13.56,22.19,6.28-2.58,11.1-4.6,14.91-6.39,2.58-1.23,3.81-2.02,3.81-2.8,0-.67-.34-1.46-.78-2.13-.45-.56-1.01-1.23-1.91-2.02l1.12-1.57Z"/>
      <path class="cls-1" d="M76.93,145.58c.06-1.24.11-11.64.11-11.64l-.11,11.64Z"/>
      <path class="cls-1" d="M75.34,100.9l-.43-11.97v-33.14l.64-12.83c.21-6.63.43-11.12.86-15.82.21-3.2,1.07-5.76,2.98-8.54,0,0,.01-.02.02-.03,1.49-1.92,2.34-3.2,2.34-5.33,0-2.56-2.14-5.13-5.34-7.05-6.63-3.85-14.32-6.2-18.17-6.2-4.19,0-8.8,1.64-13.21,5.14-.16.12-.23.33-.18.52l.66,2.65c.06.25.3.42.56.38.93-.14,1.87-.14,2.98-.14,1.28,0,2.55,0,4.04.21.01,0,.02,0,.04,0,4.9.22,6.61,1.93,7.46,4.27,1.07,2.99,1.5,7.27,1.71,13.25.43,6.2.43,12.19.43,19.24v12.4c0,10.69.21,22.45.21,33.14l.21,12.18c.21,11.12.43,16.8.64,28.77l-.17,8.5c0,6.51-.12,12.14-.6,15.89-.94,7.34-4.8,13.39-11.21,15.65h0c-.58.2-.37,1.07.24.98,5.94-.91,11.09-2.81,15.37-5.96,5.99-4.49,9.3-13.37,9.51-21.5,0,0,.11-11.56.11-11.66s-1.5-20.2-1.71-33.02Z"/>
      <g>
        <path class="cls-1" d="M54.28,148.53v-.19c-.01-.12-.01-.22-.02-.33v-.02c0-.09-.01-.19-.01-.28v-.03c-.01-.14-.02-.27-.03-.42,0-.07-.01-.16-.02-.23,0-.05,0-.11-.01-.15-.01-.07-.01-.14-.02-.2-.01-.11-.02-.21-.03-.31h0c-.01-.11-.02-.21-.03-.32-.01-.05-.02-.12-.03-.18-.01-.11-.02-.21-.04-.32-.01-.11-.03-.2-.04-.31-.02-.08-.03-.18-.04-.26-.01-.07-.03-.15-.04-.22,0-.04-.01-.07-.02-.11-.02-.12-.04-.23-.06-.35-.03-.16-.06-.32-.1-.47-.03-.12-.05-.24-.09-.36-.02-.11-.05-.21-.07-.31-.02-.08-.04-.16-.05-.23-.65-2.49-1.65-4.83-2.98-6.95-.07-.13-.16-.25-.23-.38-.05-.08-.12-.17-.17-.25-.07-.12-.15-.23-.22-.35-.09-.11-.16-.22-.23-.33t-.01-.02c-.05-.06-.11-.14-.15-.2-.03-.04-.06-.08-.1-.14-.06-.07-.12-.16-.18-.24-.06-.07-.13-.16-.19-.24-.02-.04-.06-.07-.09-.12h-.01s-.01-.02-.01-.02c-.01-.02-.02-.03-.04-.04-.03-.04-.06-.08-.1-.13-.01-.02-.03-.04-.05-.06-.02-.04-.05-.07-.07-.11-.03-.04-.06-.07-.1-.12-.07-.09-.16-.18-.23-.27-.02-.02-.03-.04-.05-.07,0,0-.01,0-.01-.01-.54-.63-1.12-1.24-1.72-1.82-.1-.09-.2-.19-.3-.28-.01-.01-.02-.02-.03-.02-.02-.02-.03-.04-.05-.06-.07-.06-.15-.14-.22-.2-.03-.02-.06-.05-.09-.07-.05-.04-.1-.08-.15-.13-.07-.07-.15-.14-.23-.2-.05-.05-.11-.09-.16-.14-.07-.07-.16-.14-.23-.2-.01,0-.01-.01-.02-.01-.1-.08-.19-.16-.29-.24-.11-.08-.22-.17-.33-.25-.01-.01-.03-.02-.04-.03-.16-.12-.32-.24-.48-.36-.05-.04-.11-.08-.17-.13-.09-.06-.17-.13-.26-.18-.15-.11-.3-.21-.45-.31-.09-.06-.17-.12-.26-.17-.05-.03-.1-.06-.14-.09-.07-.04-.14-.08-.2-.13-.02-.02-.05-.03-.09-.05-.1-.06-.2-.13-.3-.19-.1-.05-.18-.11-.27-.16-.07-.04-.15-.08-.22-.13-1.95-1.12-4.06-1.99-6.29-2.57-.09-.02-.17-.04-.26-.06-.14-.03-.28-.07-.42-.11-.18-.04-.36-.07-.54-.12-.13-.03-.27-.05-.4-.08-.13-.02-.24-.04-.37-.06-.12-.02-.24-.04-.36-.06-.07-.01-.15-.02-.22-.03-.03-.01-.05-.01-.08-.02-.1-.01-.18-.02-.28-.04-.1-.01-.19-.02-.29-.03-.09-.01-.16-.02-.23-.03-.15-.01-.29-.03-.44-.04-.06-.01-.13-.02-.19-.02-.03,0-.06-.01-.1-.01-.09-.01-.16-.01-.24-.02-.11-.01-.22-.02-.33-.02-.05-.01-.1-.01-.15-.01h-.04c-.12-.01-.23-.02-.35-.02-.34-.02-.69-.03-1.04-.03h-.6c-.07.01-.15.01-.22.01-.12,0-.22.01-.33.01s-.22.01-.33.01c-.01,0-.03,0-.04.01-.12,0-.22.01-.34.01-.12.01-.22.02-.34.03-.09,0-.16.01-.23.02h-.04s-.09.01-.14.01c-.04.01-.08.01-.13.02-.09,0-.17.01-.26.02-.07.01-.16.02-.23.03-.37.04-.74.09-1.12.15-.12.02-.24.04-.36.06-.1.02-.19.03-.28.05-.06.01-.13.02-.19.04-.07.01-.14.02-.2.03-.06.02-.13.03-.19.04-.12.03-.23.05-.35.08-.1.02-.2.04-.3.06-.09.02-.17.04-.26.06-.11.03-.21.06-.33.08-2.05.55-4.02,1.35-5.84,2.37-.11.05-.2.11-.3.17-.17.09-.33.19-.5.28-.11.07-.22.14-.34.21,0,.01-.01.01-.02.02-.09.05-.17.11-.26.16-.13.07-.24.16-.36.24-.14.08-.27.18-.39.26-.02.02-.04.03-.05.04-.09.05-.17.12-.26.18-.06.04-.13.09-.19.14-.06.05-.13.09-.19.15-.05.04-.12.08-.17.13s-.11.08-.16.12c-.09.07-.18.14-.27.21h-.01s-.03.03-.04.05c-.09.06-.17.13-.26.19-.07.07-.16.14-.24.21-.07.06-.15.13-.21.19-.06.05-.14.11-.19.16-.79.7-1.53,1.42-2.22,2.2-.01.01-.01.02-.02.02-.03.04-.06.07-.1.11-.09.09-.16.19-.24.29-.06.07-.14.15-.2.23-.09.11-.17.21-.27.32-.06.08-.13.17-.19.25-.07.09-.16.2-.23.29-.12.17-.24.33-.36.48-.04.06-.09.13-.13.19-.07.11-.15.21-.22.32-.02.03-.04.06-.06.08-.04.07-.09.14-.14.21-.04.07-.09.14-.14.21-.06.09-.13.19-.18.29-1.09,1.7-1.96,3.52-2.6,5.46-.03.07-.05.15-.07.22-.03.08-.06.18-.09.26-.04.12-.07.23-.11.34-.03.12-.06.23-.1.35-.05.16-.1.32-.14.47-.02.09-.04.18-.06.27-.03.14-.06.27-.1.41-.03.13-.06.26-.1.39v.03c-.01.05-.02.09-.03.15-.01.02-.01.05-.01.07-.02.08-.04.18-.05.26-.02.09-.04.18-.05.27-.02.12-.04.24-.06.37-.01.03-.01.07-.02.11-.01.07-.02.14-.03.21-.01.06-.02.14-.03.21v.04c-.03.2-.05.4-.09.61-.01.16-.03.33-.05.5v.05c-.01.07-.01.16-.02.23,0,.07-.01.16-.02.23,0,.07-.01.16-.01.23-.01.07-.01.16-.01.23-.01.07-.01.15-.02.23v.13c0,.09-.01.18-.01.26,0,.07,0,.14-.01.2v1.06c0,.06,0,.14.01.21v.19c.01.11.01.21.01.33.01,0,.01.01.01.01,0,.09,0,.19.01.28v.03c.01.15.02.28.03.42,0,.08.01.16.02.24,0,.04,0,.09.01.15,0,.06.01.13.02.2.01.11.02.21.03.31.01.11.02.21.03.32.01.05.02.12.02.17.02.11.03.22.05.33.01.11.03.21.04.33.02.07.03.16.04.24.01.06.02.14.04.2,0,.05.01.11.02.16.02.11.04.2.06.3l.06.35h0s0,.01.01.02c.02.13.05.25.09.38.02.09.04.19.06.28.04.16.07.32.12.47.68,2.58,1.76,5,3.17,7.19.05.09.12.19.18.28.07.12.15.22.22.34.07.09.14.19.2.28.05.07.1.15.15.21.04.06.1.13.14.19.15.2.3.4.46.6.01.01.02.02.02.03.09.12.18.22.27.34.07.08.15.18.22.26.04.05.09.11.13.16.02.02.04.04.06.07.05.06.12.13.17.19.05.06.1.12.15.18.02.02.04.04.06.06.05.06.12.14.18.2.03.04.07.07.11.12.01.02.03.03.05.05h0c.52.57,1.07,1.11,1.64,1.61.06.06.13.12.2.17.04.05.1.09.15.14.07.07.16.14.24.21.03.02.06.05.1.08.05.04.11.08.16.13.1.07.19.15.29.23.06.05.14.11.21.17.06.05.13.09.2.15.02.02.04.04.06.05.07.05.14.11.2.15.17.13.34.25.51.38h.01c.06.05.13.09.19.14.04.03.09.06.13.09.06.03.12.07.17.12h.01c.1.06.19.13.29.19.11.07.22.15.34.22.12.06.22.14.34.2.12.07.22.14.34.21h.01s.05.03.09.05c1.37.8,2.83,1.46,4.35,1.99.07.03.15.05.22.07.09.03.17.06.27.09.04.01.09.03.13.04.1.03.2.06.31.09.07.03.15.05.23.07.09.03.18.05.28.08.15.04.3.08.45.13.09.02.16.04.23.05.07.02.16.04.24.06.09.02.18.05.28.07.09.02.18.04.28.06l.3.06c.13.02.27.05.4.07.12.03.24.05.37.07.12.02.23.04.36.06l.22.03s.05.01.09.01c.09.02.18.03.28.04s.19.03.28.04c.1.01.19.02.29.03.1.01.2.02.31.03.05.01.11.01.15.02.05,0,.1,0,.14.01.06,0,.14.01.2.02.06,0,.14.01.2.01.07.01.14.01.2.02.07,0,.14,0,.2.01.1,0,.19.01.28.01h.03c.1.01.19.01.3.02h.14c.06,0,.13.01.2.01h1.31s.05,0,.08-.01h.24c.11-.01.2-.01.31-.02h.06c.09,0,.18-.01.27-.01.09-.01.17-.01.24-.02.05,0,.12-.01.17-.01.01,0,.03,0,.04-.01.07,0,.14-.01.2-.01.03,0,.06-.01.1-.01.04,0,.09-.01.13-.01.07-.01.14-.01.21-.02.07-.01.14-.01.21-.02.11-.01.21-.03.32-.04.11-.01.21-.02.32-.04.11-.01.21-.03.32-.04.1-.02.2-.03.3-.05.11-.01.22-.03.33-.05.13-.02.26-.04.37-.07.14-.02.28-.05.4-.07h.01c.13-.03.27-.06.39-.09.1-.02.18-.04.28-.06.08-.02.17-.04.26-.06.09-.02.16-.04.24-.06.1-.02.19-.05.29-.07.05-.01.11-.03.16-.04.07-.02.15-.04.22-.06.07-.02.16-.04.23-.07.07-.02.16-.04.23-.06,1.43-.44,2.8-1,4.11-1.68.1-.05.19-.11.29-.16.06-.03.14-.07.2-.11.09-.04.16-.08.23-.13.07-.04.15-.08.23-.13.09-.05.17-.11.26-.15.12-.07.22-.14.34-.2.09-.05.17-.11.26-.16.06-.04.13-.08.19-.12.03-.03.07-.05.11-.07.06-.04.12-.07.18-.12.17-.12.34-.22.51-.34.1-.07.19-.14.29-.2.07-.05.14-.11.21-.16.08-.06.16-.12.24-.18.05-.04.11-.07.16-.12.02-.02.04-.03.05-.05.06-.04.12-.08.17-.13.04-.03.09-.05.12-.08.04-.03.07-.06.12-.09.05-.04.12-.08.17-.14.06-.04.12-.09.17-.14.03-.02.05-.04.07-.06.12-.08.22-.18.33-.27.03-.02.05-.04.07-.06.06-.05.13-.11.19-.16.01-.01.02-.02.03-.03,0,0,.01,0,.01-.01,1.12-.98,2.15-2.05,3.08-3.21.02-.03.04-.06.06-.09.03-.03.05-.06.08-.11.01,0,.01-.01.01-.01.07-.09.15-.19.22-.3.07-.08.14-.18.21-.27.06-.08.12-.16.17-.24.04-.05.09-.12.13-.18.06-.07.12-.16.18-.24.02-.04.04-.07.07-.12.06-.09.13-.19.19-.28.1-.15.19-.31.29-.45.04-.07.09-.14.13-.2.01-.03.03-.05.04-.08.03-.04.06-.09.09-.14.03-.04.05-.08.09-.14s.07-.12.11-.18h.01c.03-.07.07-.14.11-.2.05-.09.11-.19.16-.28.05-.08.1-.18.15-.27h0s.01-.02.01-.03c.06-.12.13-.23.19-.35.02-.05.05-.11.07-.16.04-.07.07-.15.12-.22.02-.05.05-.11.07-.16.03-.06.06-.14.1-.21.02-.04.04-.08.06-.13h0c.03-.06.06-.13.09-.19l.06-.12c.02-.05.04-.09.05-.14.02-.05.04-.09.06-.14.01-.01.01-.02.01-.03.06-.14.12-.27.18-.41.05-.13.11-.26.16-.4.04-.09.07-.19.11-.28.04-.09.07-.19.11-.28l.06-.16s.01-.04.02-.05c.01-.03.01-.05.02-.07.06-.19.14-.38.19-.57.04-.11.07-.21.11-.33.03-.09.06-.19.1-.29.03-.12.07-.24.11-.37.03-.13.06-.24.1-.37.03-.11.06-.22.1-.34.01-.04.02-.08.03-.13.02-.12.05-.22.07-.34.03-.13.05-.24.09-.36.02-.09.03-.19.05-.28.02-.08.04-.18.05-.26.02-.09.03-.18.05-.27.02-.12.04-.24.06-.36,0-.04.01-.08.02-.13.01-.07.02-.14.03-.2.01-.07.02-.14.03-.21v-.04c.03-.2.05-.41.07-.61.02-.17.04-.33.05-.5.01-.02.01-.04.01-.05.01-.08.01-.16.02-.23,0-.08.01-.16.02-.23,0-.08.01-.16.01-.23.01-.07.01-.16.01-.23.01-.07.01-.16.01-.23.01-.03.01-.05.01-.08v-.05c0-.08.01-.17.01-.26v-.25s.01-.04.01-.06v-.94c0-.07-.01-.15-.01-.21Z"/>
        <path class="cls-1" d="M35.16,151.17c-2.17,0-4.36-.55-6.38-1.71,1.17,2.01,1.72,4.21,1.71,6.38,0,2.23-.6,4.44-1.7,6.37h-.01c-1.12-1.94-1.7-4.14-1.7-6.37-.01-2.17.54-4.37,1.7-6.38-2.01,1.16-4.21,1.71-6.38,1.71-2.23-.01-4.44-.6-6.36-1.71,1.93-1.12,4.13-1.71,6.36-1.71s4.37.55,6.38,1.71c-1.16-2.01-1.71-4.21-1.7-6.38,0-2.23.59-4.44,1.7-6.37h.01c1.11,1.94,1.7,4.14,1.7,6.37.01,2.17-.54,4.37-1.71,6.38,2.02-1.16,4.21-1.71,6.38-1.71s4.44.6,6.37,1.71c-1.94,1.12-4.14,1.7-6.37,1.71Z"/>
        <g>
          <path class="cls-2" d="M28.77,149.46c-2.01,1.16-4.21,1.71-6.38,1.71-2.23-.01-4.44-.6-6.36-1.71,1.93-1.12,4.13-1.71,6.36-1.71s4.37.55,6.38,1.71Z"/>
          <path class="cls-2" d="M30.49,155.84c0,2.23-.6,4.44-1.7,6.37h-.01c-1.12-1.94-1.7-4.14-1.7-6.37-.01-2.17.54-4.37,1.7-6.38,1.17,2.01,1.72,4.21,1.71,6.38Z"/>
          <path class="cls-2" d="M41.53,149.46c-1.94,1.12-4.14,1.7-6.37,1.71-2.17,0-4.36-.55-6.38-1.71,2.02-1.16,4.21-1.71,6.38-1.71s4.44.6,6.37,1.71Z"/>
          <path class="cls-2" d="M30.49,143.07c.01,2.17-.54,4.37-1.71,6.38-1.16-2.01-1.71-4.21-1.7-6.38,0-2.23.59-4.44,1.7-6.37h.01c1.11,1.94,1.7,4.14,1.7,6.37Z"/>
        </g>
      </g>
      <path class="cls-1" d="M116.26,149.04c-15.97-11.48-27.01-17.15-33.85-19.59-.44-.16-.71.48-.29.68,6.83,3.34,17.6,12,25.08,36.36,1.85,6.02,8.34,7.97,11.94,7.97,5.27,0,8.87-4.08,8.87-9.83s-3.27-9.49-11.75-15.59Z"/>
    </g>
  </g>
</svg>