<?xml version="1.0" encoding="utf-8"?>
<!-- Generator: Adobe Illustrator 27.3.1, SVG Export Plug-In . SVG Version: 6.00 Build 0)  -->
<svg version="1.1" id="レイヤー_1" xmlns="http://www.w3.org/2000/svg" xmlns:xlink="http://www.w3.org/1999/xlink" x="0px"
	 y="0px" viewBox="0 0 283.5 283.5" style="enable-background:new 0 0 283.5 283.5;" xml:space="preserve">
<style type="text/css">
	.st0{fill:#FFFFFF;}
	.st1{clip-path:url(#SVGID_00000008141147851419221150000002741021918669243573_);}
	.st2{clip-path:url(#SVGID_00000165220208098667796290000006532079217633760428_);fill:#E3007F;}
	.st3{clip-path:url(#SVGID_00000052106374366498872070000007312398567419301807_);fill:#009FE8;}
	.st4{clip-path:url(#SVGID_00000151530307505974933530000012891331600480891315_);fill:#FFF000;}
	.st5{clip-path:url(#SVGID_00000028309445240189799030000005232740171103837361_);fill:#231815;}
	.st6{clip-path:url(#SVGID_00000108278706559519260040000002157714353301688704_);fill:#E50012;}
	.st7{clip-path:url(#SVGID_00000053544170575832387250000002143390948660228489_);fill:none;}
</style>
<rect x="0" y="0" class="st0" width="283.5" height="283.5"/>
<g>
	<g>
		<g>
			<defs>
				<rect id="SVGID_1_" x="0" y="0" width="283.5" height="283.5"/>
			</defs>
			<clipPath id="SVGID_00000039119400411417853570000014780187980906291081_">
				<use xlink:href="#SVGID_1_"  style="overflow:visible;"/>
			</clipPath>
			<g style="clip-path:url(#SVGID_00000039119400411417853570000014780187980906291081_);">
				<g>
					<g>
						<defs>
							<rect id="SVGID_00000031924609572699058240000016474466724012086414_" x="0" y="-101.2" width="283.5" height="485.9"/>
						</defs>
						<clipPath id="SVGID_00000089534785596668017270000012590092858367475120_">
							<use xlink:href="#SVGID_00000031924609572699058240000016474466724012086414_"  style="overflow:visible;"/>
						</clipPath>
						<path style="clip-path:url(#SVGID_00000089534785596668017270000012590092858367475120_);fill:#E3007F;" d="M182.3-30
							c0,0,171.6,16.9,191.6,66.9c20,50-71,86.7-125.5,91.7c-54.5,5-47.5,21.8-46.9,29.2c0.4,5.8,1.4,25.1,46.9,28.8
							c45.5,3.7,103.1,71.1,106.5,106.1c3.3,35-30.3,24.3-106.5,31c-40.6,3.6-67.2,3.5-83.2,2.7c-12-0.6-22.5-8.4-26.5-19.7
							c-12.8-36.1-36.6-115.2-3.2-122.9c43.3-10,67.3,93.1,84,71.4s-60.6-49.9-65.6-84.9s77.3-91.7,74.7-104.5
							c-2.4-11.7,26.3-31.9-20.4-36.5c-22.2-2.2-4.4,53.1-12.6,36.4C187.3,49,182.3-30,182.3-30z"/>
					</g>
				</g>
				<g>
					<g>
						<defs>
							<rect id="SVGID_00000176751270715048498700000017810710226790079616_" x="0" y="-101.2" width="283.5" height="485.9"/>
						</defs>
						<clipPath id="SVGID_00000041984741999167820250000017079465596100994437_">
							<use xlink:href="#SVGID_00000176751270715048498700000017810710226790079616_"  style="overflow:visible;"/>
						</clipPath>
						<path style="clip-path:url(#SVGID_00000041984741999167820250000017079465596100994437_);fill:#009FE8;" d="M158.7,180.1
							c0,0,71.7-176.9,19.8-220.7s-138.3-13-160.2,2.7S-82.8,59.4-47.3,115.8s146.7,69,153.9,60.3c7.1-8.7-5.7-41.2-10.8-50.2
							s-7-20.8-23.9-24.7c-17-4,17.3-75.3,28.1-64.7S118.7,48,107,83.7S127.3,168,158.7,180.1z"/>
					</g>
				</g>
				<g>
					<g>
						<defs>
							<rect id="SVGID_00000114758718521848825690000006206219787337257104_" x="0" y="-101.2" width="283.5" height="485.9"/>
						</defs>
						<clipPath id="SVGID_00000128468362464589587230000016488840254571745209_">
							<use xlink:href="#SVGID_00000114758718521848825690000006206219787337257104_"  style="overflow:visible;"/>
						</clipPath>
						<path style="clip-path:url(#SVGID_00000128468362464589587230000016488840254571745209_);fill:#FFF000;" d="M-6.9,377.1
							C-35.6,415.7-73,486.8-70,507.3s7.8,19.7,13.7,22.8s13.8,13.7,30.2-1.6C-9.7,513.3,60,410.4,77,388.6
							c17.1-21.9,122.4-163.3,96.8-181.8c-40.2-29-85.1,74.1-94.7,85.9c-9.6,11.7-6,37-1.7,9.8c4.3-27.2-7.6-87.8-6.1-104.2
							c2.4-25.5-38.5-60.3-52.8-11.5S-6.9,377.1-6.9,377.1z"/>
					</g>
				</g>
				<g>
					<g>
						<defs>
							<rect id="SVGID_00000026143916277786372200000008036027099913961652_" x="0" y="-101.2" width="283.5" height="485.9"/>
						</defs>
						<clipPath id="SVGID_00000124141042094399686170000017491718694696023985_">
							<use xlink:href="#SVGID_00000026143916277786372200000008036027099913961652_"  style="overflow:visible;"/>
						</clipPath>
						<path style="clip-path:url(#SVGID_00000124141042094399686170000017491718694696023985_);fill:#231815;" d="M70.8,214.7
							c0,0-29.1,53.5-24.1,99.5c6.2,56.8,27.4,9.9,31.3,3.3c3.9-6.6,62.3-107.6,80.1-114.8s56.7,89,56.7,89s4.8,18.6,31.1,10.6
							s17.5-34.1,17.5-34.1s-75.1-90.1-75.1-106.2c0-14.3,66.8-98.9,63.2-119.5s-14.2-23.2-23.9-25.5s-24.8,5.5-28.2,14.4
							s-21.9,97.3-38.2,106.6c-16.3,9.3-17.9,9.8-22.3,4.2c-4.3-5.7-8-107.8-13.3-117.5c-5.4-9.7-24.5-32.1-55.5-19.6
							S42.4,58.7,43.6,64.7C44.7,70.7,70.8,214.7,70.8,214.7z"/>
					</g>
				</g>
				<g>
					<g>
						<defs>
							<rect id="SVGID_00000002383310710482148920000006901375350523735711_" x="0" y="-101.2" width="283.5" height="485.9"/>
						</defs>
						<clipPath id="SVGID_00000009575197906636230520000015946868478993005984_">
							<use xlink:href="#SVGID_00000002383310710482148920000006901375350523735711_"  style="overflow:visible;"/>
						</clipPath>
						<path style="clip-path:url(#SVGID_00000009575197906636230520000015946868478993005984_);fill:#E50012;" d="M200.1,154.8"/>
					</g>
				</g>
			</g>
		</g>
	</g>
	<g>
		<g>
			<defs>
				<rect id="SVGID_00000010306976685734703930000008316630087171158412_" x="0" y="0" width="283.5" height="283.5"/>
			</defs>
			<clipPath id="SVGID_00000170243726816587411720000005444141497505985715_">
				<use xlink:href="#SVGID_00000010306976685734703930000008316630087171158412_"  style="overflow:visible;"/>
			</clipPath>
			
				<rect x="0" y="-101.2" style="clip-path:url(#SVGID_00000170243726816587411720000005444141497505985715_);fill:none;" width="283.5" height="485.9"/>
		</g>
	</g>
</g>
</svg>
