<?xml version="1.0" encoding="utf-8"?>
<!-- Generator: Adobe Illustrator 26.5.2, SVG Export Plug-In . SVG Version: 6.00 Build 0)  -->
<svg version="1.1" id="レイヤー_1" xmlns="http://www.w3.org/2000/svg" xmlns:xlink="http://www.w3.org/1999/xlink" x="0px"
	 y="0px" viewBox="0 0 283.5 283.5" style="enable-background:new 0 0 283.5 283.5;" xml:space="preserve">
<style type="text/css">
	.st0{fill:#FFFFFF;}
</style>
<rect y="0" class="st0" width="283.5" height="283.5"/>
<g>
	<g>
		<path d="M72.7,271.1h2V259h-2v-0.2h3.1c0.2,0,0.4,0,0.5,0c0.2,0,0.4,0,0.6,0s0.4,0,0.5,0c0.2,0,0.3,0,0.5,0c0.9,0,1.6,0.1,2.1,0.3
			c0.6,0.2,1,0.5,1.3,0.8s0.5,0.6,0.7,1c0.1,0.3,0.2,0.7,0.2,0.9c0,0.4-0.1,0.7-0.3,1.1c-0.2,0.3-0.4,0.6-0.7,0.9
			c-0.3,0.2-0.6,0.4-1,0.6s-0.8,0.3-1.2,0.3l0,0c0.4,0,0.9,0.1,1.3,0.3c0.4,0.1,0.8,0.4,1.2,0.6c0.4,0.3,0.7,0.6,0.9,1
			c0.2,0.4,0.3,0.8,0.3,1.3s-0.1,1-0.3,1.5c-0.2,0.4-0.5,0.8-0.9,1.1c-0.4,0.3-0.9,0.6-1.5,0.8c-0.6,0.2-1.3,0.3-2.1,0.3
			c-0.2,0-0.3,0-0.5,0s-0.3,0-0.5,0s-0.4,0-0.5,0c-0.2,0-0.4,0-0.6,0h-3.1V271.1z M76.4,264.4H78c0.3,0,0.6,0,0.9-0.1
			s0.5-0.2,0.7-0.4c0.2-0.2,0.3-0.5,0.5-0.8c0.1-0.4,0.2-0.8,0.2-1.3c0-0.6-0.1-1.1-0.2-1.5c-0.2-0.4-0.4-0.7-0.6-0.8
			c-0.3-0.2-0.5-0.3-0.8-0.4s-0.6-0.1-0.9-0.1c-0.2,0-0.4,0-0.6,0s-0.4,0-0.6,0v5.4H76.4z M76.4,271.1c0.1,0,0.3,0,0.5,0
			s0.4,0,0.7,0c0.6,0,1-0.1,1.4-0.2s0.7-0.3,1-0.6c0.3-0.3,0.4-0.6,0.6-1.1c0.1-0.4,0.2-1,0.2-1.6c0-0.9-0.2-1.7-0.6-2.2
			s-1-0.8-1.8-0.8h-1.9L76.4,271.1L76.4,271.1z"/>
		<path d="M86.5,266.9c0,0.1,0,0.2,0,0.4c0,0.1,0,0.3,0,0.5c0,0.4,0,0.8,0.1,1.2c0,0.4,0.2,0.8,0.3,1.2c0.2,0.3,0.4,0.6,0.7,0.8
			c0.3,0.2,0.7,0.3,1.2,0.3s0.9-0.1,1.3-0.2c0.3-0.2,0.6-0.3,0.8-0.6c0.2-0.2,0.3-0.4,0.4-0.7c0.1-0.2,0.2-0.4,0.2-0.5l0.3,0.1
			c0,0.1-0.1,0.3-0.2,0.6c-0.1,0.2-0.3,0.5-0.5,0.7s-0.5,0.5-0.9,0.6c-0.4,0.2-0.9,0.3-1.4,0.3c-0.6,0-1.1-0.1-1.6-0.3
			c-0.5-0.2-0.9-0.5-1.3-0.8c-0.4-0.4-0.6-0.8-0.8-1.3c-0.2-0.5-0.3-1-0.3-1.6c0-0.5,0.1-1,0.3-1.5c0.2-0.5,0.5-0.9,0.8-1.3
			c0.4-0.4,0.8-0.7,1.3-0.9c0.5-0.2,1-0.3,1.6-0.3c0.3,0,0.7,0.1,1.1,0.2s0.7,0.3,1.1,0.6c0.3,0.3,0.6,0.6,0.8,1.1
			c0.2,0.4,0.3,1,0.3,1.6h-5.6V266.9z M90.2,266.7c0-0.2,0-0.3,0-0.5s0-0.3,0-0.4c0-0.4,0-0.7-0.1-1s-0.2-0.5-0.3-0.6
			c-0.1-0.2-0.3-0.3-0.5-0.3c-0.2-0.1-0.4-0.1-0.6-0.1c-0.4,0-0.7,0.1-1,0.2c-0.3,0.2-0.5,0.4-0.6,0.6c-0.2,0.3-0.3,0.6-0.3,0.9
			c-0.1,0.4-0.1,0.7-0.2,1.1L90.2,266.7L90.2,266.7z"/>
		<path d="M101.2,271.1c-0.2,0.1-0.3,0.2-0.5,0.3c-0.2,0.1-0.5,0.1-0.8,0.1c-0.6,0-1-0.1-1.2-0.4c-0.3-0.2-0.4-0.6-0.5-1l0,0
			c0,0.1-0.1,0.2-0.2,0.4c-0.1,0.2-0.2,0.3-0.4,0.5c-0.2,0.1-0.4,0.3-0.7,0.4c-0.3,0.1-0.6,0.2-1.1,0.2s-0.9-0.1-1.2-0.2
			c-0.3-0.1-0.5-0.3-0.7-0.4c-0.2-0.2-0.3-0.4-0.3-0.6c-0.1-0.2-0.1-0.4-0.1-0.6c0-0.4,0.1-0.7,0.2-1c0.2-0.2,0.4-0.4,0.6-0.6
			c0.3-0.1,0.6-0.3,0.9-0.4s0.7-0.2,1-0.3c0.4-0.1,0.7-0.2,1-0.3c0.3-0.1,0.5-0.2,0.6-0.3c0.1-0.1,0.2-0.3,0.3-0.5
			c0.1-0.2,0.1-0.5,0.1-0.8s0-0.5-0.1-0.8s-0.1-0.4-0.2-0.6s-0.2-0.3-0.4-0.4c-0.2-0.1-0.4-0.1-0.7-0.1c-0.4,0-0.7,0.1-1,0.2
			s-0.4,0.4-0.4,0.7c0,0.2,0,0.4,0.1,0.6c0,0.2,0.1,0.3,0.1,0.4c0,0.2-0.1,0.3-0.2,0.4s-0.3,0.2-0.5,0.2c-0.4,0-0.6-0.1-0.7-0.2
			s-0.1-0.3-0.1-0.5c0-0.3,0.1-0.5,0.2-0.7s0.3-0.4,0.5-0.6s0.5-0.3,0.9-0.4c0.3-0.1,0.7-0.2,1.2-0.2s1,0.1,1.4,0.2s0.7,0.3,0.9,0.5
			c0.2,0.2,0.4,0.5,0.5,0.8s0.1,0.6,0.1,0.9v4.4c0,0.3,0.1,0.6,0.2,0.7s0.3,0.2,0.5,0.2c0.1,0,0.3,0,0.4-0.1c0.1,0,0.3-0.1,0.4-0.2
			L101.2,271.1z M98.1,267L98.1,267c-0.1,0.2-0.3,0.3-0.6,0.5l-1.3,0.5c-0.4,0.2-0.7,0.4-0.9,0.6c-0.2,0.3-0.3,0.6-0.3,1
			c0,0.2,0,0.4,0.1,0.5c0,0.2,0.1,0.4,0.2,0.5s0.2,0.3,0.4,0.4s0.4,0.1,0.7,0.1c0.4,0,0.7-0.1,0.9-0.2c0.2-0.2,0.4-0.4,0.5-0.6
			s0.2-0.5,0.2-0.8s0.1-0.6,0.1-0.8L98.1,267L98.1,267z"/>
		<path d="M111.4,271.3h-2.8v-1.8l0,0c-0.1,0.2-0.2,0.5-0.4,0.7c-0.1,0.2-0.3,0.5-0.5,0.7s-0.5,0.4-0.8,0.5s-0.6,0.2-1,0.2
			c-0.5,0-0.9-0.1-1.1-0.2c-0.3-0.1-0.5-0.2-0.7-0.3c-0.1-0.1-0.2-0.1-0.3-0.2c-0.1-0.1-0.2-0.2-0.3-0.4c-0.1-0.2-0.2-0.4-0.2-0.6
			c-0.1-0.2-0.1-0.5-0.1-0.9v-5h-1.4v-0.2h2.9v5.4c0,0.3,0,0.6,0.1,0.8c0,0.3,0.1,0.5,0.2,0.7s0.3,0.3,0.5,0.5
			c0.2,0.1,0.4,0.2,0.7,0.2c0.3,0,0.5-0.1,0.8-0.2c0.3-0.2,0.5-0.4,0.8-0.7s0.4-0.6,0.6-1s0.2-0.8,0.2-1.3V264h-1.3v-0.2h2.9v7.3
			h1.4v0.2H111.4z"/>
		<path d="M112.1,263.7h1.4v-2.3c0.1,0,0.2,0.1,0.3,0.1c0.1,0,0.2,0,0.4,0c0.2,0,0.3,0,0.5-0.1c0.1,0,0.3-0.1,0.4-0.2v2.4h2.5v0.2
			H115v5.8c0,0.3,0,0.6,0.1,0.8c0.1,0.2,0.2,0.4,0.3,0.5c0.1,0.1,0.2,0.2,0.3,0.2c0.1,0,0.2,0.1,0.4,0.1c0.4,0,0.7-0.2,1-0.5
			s0.4-0.6,0.5-1l0.2,0.1c0,0.2-0.1,0.3-0.2,0.5s-0.2,0.4-0.3,0.5c-0.1,0.2-0.3,0.3-0.6,0.4c-0.2,0.1-0.5,0.2-0.9,0.2
			c-0.9,0-1.5-0.2-1.8-0.5s-0.5-0.8-0.5-1.5V264h-1.4V263.7z"/>
		<path d="M117.9,263.7h4.3v0.2h-1.5l2.3,5.6l2.4-5.6H124v-0.2h2.7v0.2h-1l-2.9,6.8c-0.2,0.5-0.4,1-0.6,1.5s-0.4,1-0.6,1.5
			c-0.2,0.4-0.3,0.8-0.5,1.1c-0.2,0.3-0.3,0.6-0.5,0.8c-0.2,0.2-0.4,0.4-0.6,0.5s-0.5,0.2-0.7,0.2c-0.3,0-0.6-0.1-0.8-0.2
			c-0.2-0.1-0.4-0.2-0.5-0.4s-0.2-0.3-0.2-0.4c0-0.2-0.1-0.3-0.1-0.4c0-0.3,0.1-0.5,0.2-0.7c0.2-0.1,0.4-0.2,0.6-0.2
			c0.1,0,0.2,0,0.3,0c0.1,0,0.2,0,0.3,0.1c0.1,0,0.2,0.1,0.2,0.2c0.1,0.1,0.1,0.2,0.1,0.3c0,0.2,0,0.3-0.2,0.5
			c-0.1,0.1-0.2,0.3-0.2,0.5s0,0.3,0.1,0.3s0.2,0.1,0.3,0.1c0.2,0,0.4,0,0.5-0.1s0.3-0.2,0.5-0.4c0.2-0.2,0.3-0.5,0.5-0.8
			s0.3-0.7,0.5-1.2l0.8-2l-3.1-7.6h-1.2L117.9,263.7L117.9,263.7z"/>
		<path d="M135.9,269.7c0.2-0.4,0.4-0.8,0.5-1.2c0.1-0.4,0.1-0.8,0.1-1.2s0-0.7-0.1-1c0-0.2-0.1-0.4-0.2-0.6
			c-0.1-0.1-0.2-0.2-0.4-0.2s-0.4-0.1-0.6-0.1v-0.2h2.4v0.2c-0.2,0-0.4,0-0.5,0.1s-0.2,0.2-0.3,0.3c-0.1,0.1-0.1,0.3-0.1,0.5
			s0,0.4,0,0.7c0,0.3,0,0.7-0.1,0.9s-0.1,0.5-0.1,0.7s-0.1,0.4-0.2,0.6S136.1,269.6,135.9,269.7c0.3,0.5,0.5,0.8,0.7,1.1
			c0.2,0.2,0.4,0.4,0.6,0.4c0.1,0,0.2,0,0.3-0.1s0.1-0.2,0.2-0.3c0-0.1,0.1-0.2,0.1-0.4c0-0.1,0-0.3,0-0.4h0.2c0,0.4,0,0.7-0.1,0.9
			c-0.1,0.2-0.2,0.4-0.4,0.6c-0.1,0.1-0.3,0.2-0.5,0.3c-0.2,0.1-0.3,0.1-0.5,0.1s-0.3,0-0.5-0.1c-0.1,0-0.2-0.1-0.3-0.2
			s-0.2-0.2-0.3-0.3s-0.2-0.3-0.3-0.4c-0.1,0.1-0.2,0.2-0.4,0.3c-0.2,0.1-0.3,0.2-0.5,0.3c-0.2,0.1-0.4,0.2-0.6,0.2
			s-0.5,0.1-0.7,0.1c-0.5,0-1-0.1-1.4-0.3c-0.4-0.2-0.7-0.5-0.9-0.8s-0.4-0.6-0.5-0.9s-0.1-0.6-0.1-0.8c0-0.4,0.1-0.8,0.2-1.2
			c0.2-0.3,0.4-0.6,0.6-0.9s0.5-0.5,0.8-0.7s0.6-0.4,0.8-0.5c-0.1-0.2-0.2-0.4-0.3-0.7s-0.1-0.6-0.1-0.9s0.1-0.5,0.2-0.8
			c0.1-0.2,0.2-0.4,0.4-0.6s0.3-0.3,0.6-0.4c0.2-0.1,0.4-0.1,0.6-0.1c0.3,0,0.6,0.1,0.8,0.3c0.2,0.2,0.3,0.5,0.3,1
			c0,0.3,0,0.5-0.1,0.7s-0.2,0.4-0.3,0.5s-0.3,0.3-0.4,0.4c-0.2,0.1-0.3,0.2-0.4,0.3L135.9,269.7z M132.5,265.9
			c-0.4,0.2-0.8,0.5-1.1,0.8s-0.4,0.7-0.4,1.2c0,0.4,0.1,0.8,0.2,1.2c0.1,0.4,0.3,0.8,0.5,1.2c0.2,0.3,0.5,0.6,0.7,0.9
			c0.3,0.2,0.6,0.3,0.8,0.3c0.3,0,0.6-0.1,0.9-0.2c0.3-0.1,0.5-0.3,0.8-0.6L132.5,265.9z M133,263.6c0,0.2,0.1,0.5,0.2,0.8
			c0.1,0.3,0.3,0.6,0.4,0.9c0.1-0.1,0.3-0.2,0.4-0.3c0.1-0.1,0.3-0.2,0.4-0.3c0.1-0.1,0.2-0.3,0.3-0.4c0.1-0.2,0.1-0.4,0.1-0.6
			c0-0.3-0.1-0.5-0.2-0.8c-0.1-0.2-0.4-0.3-0.7-0.3c-0.2,0-0.4,0.1-0.6,0.3C133.1,263.1,133,263.3,133,263.6z"/>
		<path d="M140.7,271.1h1.6l4.8-12.7h0.4l4.8,12.7h1.6v0.2h-5.4v-0.2h2l-1.9-4.9h-4.1l-1.9,4.9h2v0.2h-3.8v-0.2H140.7z M146.4,260.8
			l-1.9,5.1h3.9L146.4,260.8z"/>
		<path d="M155,271.1h1.4V264H155v-0.2h2.8v1.9l0,0c0.1-0.2,0.2-0.3,0.3-0.6s0.3-0.5,0.6-0.7c0.2-0.2,0.5-0.4,0.9-0.6
			s0.8-0.2,1.3-0.2c0.8,0,1.4,0.2,1.9,0.6s0.7,1,0.7,1.8v5.2h1.4v0.2h-4.2v-0.2h1.4v-5.7c0-0.5-0.1-0.8-0.3-1.1
			c-0.2-0.3-0.6-0.4-1-0.4s-0.7,0.1-1.1,0.2c-0.3,0.2-0.6,0.4-0.9,0.7c-0.3,0.3-0.5,0.6-0.6,1s-0.2,0.8-0.2,1.3v4h1.4v0.2H155V271.1
			z"/>
		<path d="M166.1,270.2c0-0.3,0.1-0.6,0.2-0.8c0.1-0.2,0.3-0.4,0.4-0.6c0.2-0.2,0.4-0.3,0.5-0.4c0.2-0.1,0.4-0.2,0.5-0.3
			c-0.7-0.5-1-1.1-1-1.9c0-0.4,0.1-0.8,0.3-1.1c0.2-0.3,0.5-0.6,0.8-0.8c0.3-0.2,0.6-0.4,1-0.5s0.7-0.2,1.1-0.2c0.5,0,1,0.1,1.4,0.3
			c0.4,0.2,0.7,0.4,0.8,0.6c0.1-0.2,0.3-0.4,0.6-0.6s0.6-0.3,0.9-0.3c0.2,0,0.5,0.1,0.7,0.2s0.3,0.3,0.3,0.6c0,0.2-0.1,0.4-0.2,0.5
			c-0.1,0.1-0.3,0.2-0.4,0.2c-0.2,0-0.3,0-0.4-0.1c-0.1-0.1-0.1-0.2-0.2-0.3c-0.1-0.1-0.1-0.2-0.2-0.3c-0.1-0.1-0.1-0.1-0.3-0.1
			c-0.1,0-0.2,0-0.4,0.2c-0.1,0.1-0.2,0.2-0.3,0.3c0.1,0.1,0.2,0.3,0.4,0.6c0.2,0.3,0.2,0.6,0.2,1.1c0,0.4-0.1,0.7-0.3,1
			s-0.4,0.6-0.7,0.8c-0.3,0.2-0.6,0.4-1,0.5s-0.8,0.2-1.2,0.2s-0.8-0.1-1.1-0.2s-0.5-0.2-0.7-0.3c-0.1,0.1-0.3,0.1-0.4,0.2
			c-0.1,0.1-0.3,0.2-0.4,0.3c-0.1,0.1-0.2,0.2-0.3,0.4c-0.1,0.1-0.1,0.3-0.1,0.5s0,0.3,0.1,0.4s0.2,0.2,0.3,0.3
			c0.1,0.1,0.2,0.1,0.4,0.1c0.1,0,0.3,0,0.4,0h2.8c0.8,0,1.5,0.2,2,0.6s0.7,1,0.7,1.9c0,0.5-0.1,1-0.3,1.4s-0.5,0.8-0.9,1.1
			c-0.4,0.3-0.8,0.6-1.3,0.7c-0.5,0.2-1,0.3-1.5,0.3s-0.9-0.1-1.3-0.2c-0.4-0.1-0.7-0.3-1-0.4c-0.3-0.2-0.5-0.4-0.7-0.7
			c-0.2-0.3-0.2-0.5-0.2-0.9c0-0.3,0.1-0.6,0.2-0.8c0.1-0.3,0.3-0.5,0.5-0.7s0.4-0.4,0.7-0.5c0.2-0.1,0.5-0.3,0.7-0.4l0,0
			c-0.8,0-1.4-0.1-1.7-0.4C166.3,271.2,166.1,270.8,166.1,270.2z M168.8,271.8c-0.2,0.1-0.3,0.2-0.5,0.3c-0.2,0.1-0.3,0.2-0.4,0.4
			c-0.1,0.2-0.2,0.3-0.3,0.5s-0.1,0.5-0.1,0.8c0,0.4,0.1,0.8,0.2,1.1c0.1,0.3,0.3,0.5,0.6,0.7c0.2,0.2,0.5,0.3,0.8,0.4
			s0.6,0.1,0.8,0.1c0.4,0,0.8-0.1,1.2-0.2c0.3-0.1,0.6-0.3,0.9-0.5c0.3-0.2,0.4-0.5,0.6-0.8c0.1-0.3,0.2-0.6,0.2-0.9
			c0-0.7-0.2-1.1-0.5-1.4c-0.4-0.3-0.9-0.4-1.5-0.4h-2V271.8z M171.6,266.1c0-0.3,0-0.5-0.1-0.8s-0.1-0.5-0.2-0.8
			c-0.1-0.2-0.3-0.4-0.5-0.6c-0.2-0.1-0.5-0.2-0.9-0.2c-0.6,0-1.1,0.2-1.4,0.5c-0.3,0.4-0.5,1-0.5,1.8c0,0.4,0,0.7,0.1,1
			s0.2,0.5,0.3,0.7s0.3,0.4,0.6,0.5c0.2,0.1,0.5,0.2,0.9,0.2c0.6,0,1-0.2,1.3-0.6C171.5,267.5,171.6,266.9,171.6,266.1z"/>
		<path d="M177.1,266.9c0,0.1,0,0.2,0,0.4c0,0.1,0,0.3,0,0.5c0,0.4,0,0.8,0.1,1.2c0,0.4,0.2,0.8,0.3,1.2c0.2,0.3,0.4,0.6,0.7,0.8
			c0.3,0.2,0.7,0.3,1.2,0.3s0.9-0.1,1.3-0.2c0.3-0.2,0.6-0.3,0.8-0.6c0.2-0.2,0.3-0.4,0.4-0.7c0.1-0.2,0.2-0.4,0.2-0.5l0.3,0.1
			c0,0.1-0.1,0.3-0.2,0.6c-0.1,0.2-0.3,0.5-0.5,0.7s-0.5,0.5-0.9,0.6c-0.4,0.2-0.9,0.3-1.4,0.3c-0.6,0-1.1-0.1-1.6-0.3
			c-0.5-0.2-0.9-0.5-1.3-0.8c-0.4-0.4-0.6-0.8-0.8-1.3s-0.3-1-0.3-1.6c0-0.5,0.1-1,0.3-1.5s0.5-0.9,0.8-1.3c0.4-0.4,0.8-0.7,1.3-0.9
			c0.5-0.2,1-0.3,1.6-0.3c0.3,0,0.7,0.1,1.1,0.2s0.7,0.3,1.1,0.6c0.3,0.3,0.6,0.6,0.8,1.1c0.2,0.4,0.3,1,0.3,1.6h-5.6V266.9z
			 M180.7,266.7c0-0.2,0-0.3,0-0.5s0-0.3,0-0.4c0-0.4,0-0.7-0.1-1s-0.2-0.5-0.3-0.6s-0.3-0.3-0.5-0.3c-0.2-0.1-0.4-0.1-0.6-0.1
			c-0.4,0-0.7,0.1-1,0.2c-0.3,0.2-0.5,0.4-0.6,0.6c-0.2,0.3-0.3,0.6-0.3,0.9c-0.1,0.4-0.1,0.7-0.2,1.1L180.7,266.7L180.7,266.7z"/>
		<path d="M183.9,271.1h1.4v-12.3h-1.4v-0.2h2.9v12.5h1.4v0.2H184L183.9,271.1L183.9,271.1z"/>
		<path d="M189.1,271.1h1.4V264h-1.4v-0.2h2.9v7.3h1.4v0.2h-4.2L189.1,271.1L189.1,271.1z M190.2,259.6c0-0.3,0.1-0.5,0.3-0.7
			s0.4-0.3,0.7-0.3s0.5,0.1,0.7,0.3c0.2,0.2,0.3,0.4,0.3,0.7s-0.1,0.5-0.3,0.7s-0.4,0.3-0.7,0.3s-0.5-0.1-0.7-0.3
			C190.3,260.1,190.2,259.9,190.2,259.6z"/>
		<path d="M201.7,269.4c0,0.1-0.1,0.3-0.2,0.6c-0.1,0.2-0.3,0.5-0.5,0.7s-0.5,0.5-0.9,0.6c-0.4,0.2-0.9,0.3-1.4,0.3
			c-0.4,0-0.9-0.1-1.4-0.2s-0.9-0.4-1.3-0.7c-0.4-0.3-0.7-0.7-1-1.2s-0.4-1.1-0.4-1.9c0-0.6,0.1-1.1,0.3-1.6s0.5-0.9,0.9-1.3
			s0.8-0.7,1.3-0.9c0.5-0.2,1-0.3,1.6-0.3c0.3,0,0.6,0,1,0.1c0.3,0.1,0.6,0.2,0.9,0.4c0.3,0.2,0.5,0.4,0.7,0.6
			c0.2,0.3,0.3,0.6,0.3,0.9c0,0.2-0.1,0.5-0.2,0.6c-0.2,0.2-0.4,0.2-0.7,0.2c-0.2,0-0.4,0-0.6-0.1c-0.2-0.1-0.3-0.2-0.3-0.5
			c0-0.2,0-0.4,0.1-0.6s0.1-0.4,0.1-0.6c0-0.3-0.1-0.5-0.4-0.6c-0.3-0.1-0.6-0.2-0.9-0.2c-0.3,0-0.5,0-0.8,0.1s-0.5,0.2-0.8,0.5
			c-0.2,0.3-0.4,0.6-0.6,1.2c-0.1,0.5-0.2,1.2-0.2,2.1c0,0.5,0,1,0.1,1.4s0.2,0.8,0.4,1.2c0.2,0.3,0.4,0.6,0.7,0.8
			c0.3,0.2,0.7,0.3,1.2,0.3s0.9-0.1,1.3-0.2c0.3-0.2,0.6-0.3,0.8-0.6c0.2-0.2,0.3-0.4,0.4-0.7c0.1-0.2,0.2-0.4,0.2-0.5L201.7,269.4z
			"/>
		<path d="M210.8,271.1c-0.2,0.1-0.3,0.2-0.5,0.3c-0.2,0.1-0.5,0.1-0.8,0.1c-0.6,0-1-0.1-1.2-0.4c-0.3-0.2-0.4-0.6-0.5-1l0,0
			c0,0.1-0.1,0.2-0.2,0.4c-0.1,0.2-0.2,0.3-0.4,0.5c-0.2,0.1-0.4,0.3-0.7,0.4s-0.6,0.2-1.1,0.2s-0.9-0.1-1.2-0.2s-0.5-0.3-0.7-0.4
			c-0.2-0.2-0.3-0.4-0.3-0.6c-0.1-0.2-0.1-0.4-0.1-0.6c0-0.4,0.1-0.7,0.2-1c0.2-0.2,0.4-0.4,0.6-0.6c0.3-0.1,0.6-0.3,0.9-0.4
			c0.3-0.1,0.7-0.2,1-0.3c0.4-0.1,0.7-0.2,1-0.3c0.3-0.1,0.5-0.2,0.6-0.3c0.1-0.1,0.2-0.3,0.3-0.5s0.1-0.5,0.1-0.8s0-0.5-0.1-0.8
			s-0.1-0.4-0.2-0.6c-0.1-0.2-0.2-0.3-0.4-0.4s-0.4-0.1-0.7-0.1c-0.4,0-0.7,0.1-1,0.2s-0.4,0.4-0.4,0.7c0,0.2,0,0.4,0.1,0.6
			c0,0.2,0.1,0.3,0.1,0.4c0,0.2-0.1,0.3-0.2,0.4c-0.1,0.1-0.3,0.2-0.5,0.2c-0.4,0-0.6-0.1-0.7-0.2c-0.1-0.1-0.1-0.3-0.1-0.5
			c0-0.3,0.1-0.5,0.2-0.7c0.1-0.2,0.3-0.4,0.5-0.6s0.5-0.3,0.9-0.4c0.3-0.1,0.7-0.2,1.2-0.2s1,0.1,1.4,0.2s0.7,0.3,0.9,0.5
			s0.4,0.5,0.5,0.8s0.1,0.6,0.1,0.9v4.4c0,0.3,0.1,0.6,0.2,0.7c0.1,0.1,0.3,0.2,0.5,0.2c0.1,0,0.3,0,0.4-0.1c0.1,0,0.3-0.1,0.4-0.2
			L210.8,271.1z M207.7,267L207.7,267c-0.1,0.2-0.3,0.3-0.6,0.5l-1.3,0.5c-0.4,0.2-0.7,0.4-0.9,0.6c-0.2,0.3-0.3,0.6-0.3,1
			c0,0.2,0,0.4,0.1,0.5c0,0.2,0.1,0.4,0.2,0.5c0.1,0.1,0.2,0.3,0.4,0.4s0.4,0.1,0.7,0.1c0.4,0,0.7-0.1,0.9-0.2
			c0.2-0.2,0.4-0.4,0.5-0.6s0.2-0.5,0.2-0.8s0.1-0.6,0.1-0.8L207.7,267L207.7,267z"/>
	</g>
	<g>
		<path d="M61.5,111.4H78V9.6H61.5V7.5h26.1c1.5,0,3,0,4.5-0.1c1.5,0,3.1-0.1,4.7-0.2c1.6,0,3.1,0,4.6-0.1c1.5,0,2.9-0.1,4.3-0.1
			c7.2,0,13.2,0.9,17.9,2.6s8.3,3.9,11,6.4c2.7,2.5,4.5,5.3,5.5,8.2s1.5,5.6,1.5,8c0,3.3-0.7,6.3-2.2,9.1c-1.4,2.8-3.4,5.2-5.8,7.3
			c-2.4,2.1-5.2,3.8-8.4,5.1s-6.5,2.1-10,2.5v0.3c3.6,0.3,7.2,1.1,10.9,2.3c3.7,1.2,7.1,3,10.1,5.2c3,2.2,5.5,5,7.4,8.3
			s2.8,7,2.8,11.3c0,4.5-0.8,8.6-2.5,12.3c-1.7,3.7-4.2,6.9-7.6,9.6c-3.4,2.7-7.6,4.8-12.8,6.3s-11.2,2.3-18,2.3
			c-1.4,0-2.7,0-4.1-0.1c-1.3,0-2.7-0.1-4.2-0.2s-3-0.2-4.6-0.2s-3.3-0.1-5.1-0.1h-26V111.4z M93,55.6h13.7c2.8,0,5.3-0.3,7.6-1
			c2.3-0.7,4.2-1.9,5.9-3.7c1.6-1.7,2.9-4.1,3.8-7.1s1.3-6.8,1.3-11.3c0-5.2-0.7-9.3-2-12.4s-3.1-5.5-5.2-7.1s-4.5-2.6-7.1-3.1
			s-5.2-0.7-7.8-0.7c-1.8,0-3.6,0-5.4,0.1c-1.8,0-3.4,0.2-4.7,0.4v45.9H93z M93,111.4c1.2,0.1,2.5,0.2,3.9,0.4
			c1.4,0.2,3.5,0.2,6.2,0.2c4.7,0,8.7-0.5,12-1.3c3.3-0.9,6.1-2.5,8.2-4.7s3.7-5.2,4.7-8.9c1-3.7,1.5-8.3,1.5-13.8
			c0-7.9-1.7-14.2-5.1-18.8s-8.4-6.8-15-6.8H93V111.4z"/>
		<path d="M143.5,159.8c2.1-3.6,3.6-7.2,4.4-10.8c0.8-3.5,1.2-7.1,1.2-10.6c0-3.6-0.2-6.4-0.5-8.5c-0.3-2.1-0.9-3.7-1.7-4.8
			c-0.8-1.1-1.9-1.8-3.3-2.2c-1.4-0.3-3.1-0.5-5.2-0.5v-1.6h21.1v1.6c-1.9,0-3.5,0.3-4.7,0.8s-2.1,1.3-2.7,2.4
			c-0.6,1.1-1,2.5-1.2,4.3c-0.2,1.7-0.3,3.8-0.3,6.3c0,3-0.1,5.7-0.4,8.1c-0.3,2.4-0.7,4.5-1.2,6.5s-1.2,3.8-2,5.5s-1.7,3.5-2.7,5.2
			c1.9,3.6,3.6,6.3,5.1,8.4c1.5,2,3.2,3.1,5.1,3.1c1.2,0,2.1-0.3,2.8-1s1.2-1.5,1.6-2.6c0.4-1,0.6-2.2,0.8-3.4
			c0.1-1.2,0.2-2.4,0.2-3.6h1.6c0,3.1-0.4,5.7-1.2,7.7s-1.8,3.7-3.1,4.9c-1.2,1.3-2.6,2.1-4.2,2.7c-1.6,0.5-3,0.8-4.4,0.8
			c-1.6,0-2.9-0.2-4-0.5s-2.1-0.9-2.9-1.6c-0.9-0.7-1.7-1.6-2.4-2.6s-1.6-2.3-2.4-3.7c-0.9,0.9-2,1.8-3.3,2.8s-2.8,1.8-4.5,2.7
			c-1.7,0.8-3.5,1.5-5.5,2.1s-4.1,0.8-6.4,0.8c-4.7,0-8.6-0.9-11.8-2.7c-3.2-1.8-5.7-4-7.7-6.6s-3.4-5.2-4.2-8.1s-1.2-5.3-1.2-7.3
			c0-3.8,0.7-7.2,2-10.1c1.4-2.9,3.1-5.4,5.2-7.6c2.1-2.2,4.4-4.1,6.9-5.7c2.5-1.6,5-3.1,7.3-4.4c-0.8-1.6-1.6-3.5-2.4-5.7
			s-1.2-4.8-1.2-7.9c0-2.5,0.4-4.8,1.3-6.7c0.9-2,2-3.6,3.4-5.1c1.4-1.4,3-2.5,4.8-3.2s3.6-1.1,5.5-1.1c2.8,0,5.2,0.9,7.2,2.7
			c2,1.8,2.9,4.6,2.9,8.3c0,2.2-0.4,4.2-1.1,5.8c-0.7,1.7-1.6,3.1-2.7,4.4c-1.1,1.3-2.3,2.3-3.6,3.2c-1.3,0.9-2.6,1.7-3.8,2.3
			L143.5,159.8z M114.5,127.1c-3.8,2-6.9,4.3-9.2,6.9c-2.3,2.6-3.4,6.1-3.4,10.4c0,3.3,0.6,6.8,1.8,10.5c1.2,3.7,2.7,7,4.7,10
			c1.9,3,4.1,5.5,6.5,7.5s4.8,2.9,7.3,2.9c2.7,0,5.2-0.6,7.5-1.9c2.3-1.3,4.5-2.9,6.6-4.8L114.5,127.1z M118.5,106.7
			c0,1.9,0.5,4.2,1.6,6.9c1.1,2.7,2.3,5.3,3.6,8c1.3-0.7,2.5-1.5,3.7-2.3s2.3-1.8,3.2-2.9s1.7-2.4,2.3-3.9s0.9-3.2,0.9-5.2
			c0-2.5-0.6-4.7-1.8-6.7c-1.2-1.9-3.3-2.9-6.3-2.9c-1.9,0-3.6,0.9-5,2.6C119.2,102,118.5,104.1,118.5,106.7z"/>
		<path d="M111.6,237.1h13.1l40.1-106.4h3.6l40.4,106.4H222v2.1h-45.7v-2.1h16.5l-15.6-41.3h-34.5L127,237.1h16.5v2.1h-31.9V237.1z
			 M159.8,150.5l-16.3,43.2h32.7L159.8,150.5z"/>
	</g>
</g>
</svg>
