<svg width="1665" height="300" viewBox="0 0 1665 300" fill="none" xmlns="http://www.w3.org/2000/svg">
<rect width="832.4" height="300" fill="white"/>
<rect x="832.4" width="832.4" height="300" fill="#CD2B1F"/>
<path d="M106.731 25.4081C106.731 26.9121 106.567 28.2161 106.239 29.3201C105.919 30.4161 105.479 31.3241 104.919 32.0441C104.359 32.7641 103.695 33.3001 102.927 33.6521C102.167 34.0041 101.351 34.1801 100.479 34.1801C99.5992 34.1801 98.7792 34.0041 98.0192 33.6521C97.2672 33.3001 96.6112 32.7641 96.0512 32.0441C95.4912 31.3241 95.0512 30.4161 94.7312 29.3201C94.4112 28.2161 94.2513 26.9121 94.2513 25.4081C94.2513 23.9041 94.4112 22.6001 94.7312 21.4961C95.0512 20.3921 95.4912 19.4801 96.0512 18.7601C96.6112 18.0321 97.2672 17.4921 98.0192 17.1401C98.7792 16.7881 99.5992 16.6121 100.479 16.6121C101.351 16.6121 102.167 16.7881 102.927 17.1401C103.695 17.4921 104.359 18.0321 104.919 18.7601C105.479 19.4801 105.919 20.3921 106.239 21.4961C106.567 22.6001 106.731 23.9041 106.731 25.4081ZM104.511 25.4081C104.511 24.0961 104.399 22.9961 104.175 22.1081C103.959 21.2121 103.663 20.4921 103.287 19.9481C102.919 19.4041 102.491 19.0161 102.003 18.7841C101.515 18.5441 101.007 18.4241 100.479 18.4241C99.9512 18.4241 99.4433 18.5441 98.9553 18.7841C98.4673 19.0161 98.0392 19.4041 97.6712 19.9481C97.3032 20.4921 97.0072 21.2121 96.7832 22.1081C96.5672 22.9961 96.4593 24.0961 96.4593 25.4081C96.4593 26.7201 96.5672 27.8201 96.7832 28.7081C97.0072 29.5961 97.3032 30.3121 97.6712 30.8561C98.0392 31.4001 98.4673 31.7921 98.9553 32.0321C99.4433 32.2641 99.9512 32.3801 100.479 32.3801C101.007 32.3801 101.515 32.2641 102.003 32.0321C102.491 31.7921 102.919 31.4001 103.287 30.8561C103.663 30.3121 103.959 29.5961 104.175 28.7081C104.399 27.8201 104.511 26.7201 104.511 25.4081Z" fill="black"/>
<path d="M92.8094 25.4081C92.8094 26.9121 92.6454 28.2161 92.3174 29.3201C91.9974 30.4161 91.5574 31.3241 90.9974 32.0441C90.4374 32.7641 89.7734 33.3001 89.0054 33.6521C88.2454 34.0041 87.4294 34.1801 86.5574 34.1801C85.6774 34.1801 84.8574 34.0041 84.0974 33.6521C83.3454 33.3001 82.6894 32.7641 82.1294 32.0441C81.5694 31.3241 81.1294 30.4161 80.8094 29.3201C80.4894 28.2161 80.3294 26.9121 80.3294 25.4081C80.3294 23.9041 80.4894 22.6001 80.8094 21.4961C81.1294 20.3921 81.5694 19.4801 82.1294 18.7601C82.6894 18.0321 83.3454 17.4921 84.0974 17.1401C84.8574 16.7881 85.6774 16.6121 86.5574 16.6121C87.4294 16.6121 88.2454 16.7881 89.0054 17.1401C89.7734 17.4921 90.4374 18.0321 90.9974 18.7601C91.5574 19.4801 91.9974 20.3921 92.3174 21.4961C92.6454 22.6001 92.8094 23.9041 92.8094 25.4081ZM90.5894 25.4081C90.5894 24.0961 90.4774 22.9961 90.2534 22.1081C90.0374 21.2121 89.7414 20.4921 89.3654 19.9481C88.9974 19.4041 88.5694 19.0161 88.0814 18.7841C87.5934 18.5441 87.0854 18.4241 86.5574 18.4241C86.0294 18.4241 85.5214 18.5441 85.0334 18.7841C84.5454 19.0161 84.1174 19.4041 83.7494 19.9481C83.3814 20.4921 83.0854 21.2121 82.8614 22.1081C82.6454 22.9961 82.5374 24.0961 82.5374 25.4081C82.5374 26.7201 82.6454 27.8201 82.8614 28.7081C83.0854 29.5961 83.3814 30.3121 83.7494 30.8561C84.1174 31.4001 84.5454 31.7921 85.0334 32.0321C85.5214 32.2641 86.0294 32.3801 86.5574 32.3801C87.0854 32.3801 87.5934 32.2641 88.0814 32.0321C88.5694 31.7921 88.9974 31.4001 89.3654 30.8561C89.7414 30.3121 90.0374 29.5961 90.2534 28.7081C90.4774 27.8201 90.5894 26.7201 90.5894 25.4081Z" fill="black"/>
<path d="M78.8875 25.4081C78.8875 26.9121 78.7235 28.2161 78.3955 29.3201C78.0755 30.4161 77.6355 31.3241 77.0755 32.0441C76.5155 32.7641 75.8515 33.3001 75.0835 33.6521C74.3235 34.0041 73.5075 34.1801 72.6355 34.1801C71.7555 34.1801 70.9355 34.0041 70.1755 33.6521C69.4235 33.3001 68.7675 32.7641 68.2075 32.0441C67.6475 31.3241 67.2075 30.4161 66.8875 29.3201C66.5675 28.2161 66.4075 26.9121 66.4075 25.4081C66.4075 23.9041 66.5675 22.6001 66.8875 21.4961C67.2075 20.3921 67.6475 19.4801 68.2075 18.7601C68.7675 18.0321 69.4235 17.4921 70.1755 17.1401C70.9355 16.7881 71.7555 16.6121 72.6355 16.6121C73.5075 16.6121 74.3235 16.7881 75.0835 17.1401C75.8515 17.4921 76.5155 18.0321 77.0755 18.7601C77.6355 19.4801 78.0755 20.3921 78.3955 21.4961C78.7235 22.6001 78.8875 23.9041 78.8875 25.4081ZM76.6675 25.4081C76.6675 24.0961 76.5555 22.9961 76.3315 22.1081C76.1155 21.2121 75.8195 20.4921 75.4435 19.9481C75.0755 19.4041 74.6475 19.0161 74.1595 18.7841C73.6715 18.5441 73.1635 18.4241 72.6355 18.4241C72.1075 18.4241 71.5995 18.5441 71.1115 18.7841C70.6235 19.0161 70.1955 19.4041 69.8275 19.9481C69.4595 20.4921 69.1635 21.2121 68.9395 22.1081C68.7235 22.9961 68.6155 24.0961 68.6155 25.4081C68.6155 26.7201 68.7235 27.8201 68.9395 28.7081C69.1635 29.5961 69.4595 30.3121 69.8275 30.8561C70.1955 31.4001 70.6235 31.7921 71.1115 32.0321C71.5995 32.2641 72.1075 32.3801 72.6355 32.3801C73.1635 32.3801 73.6715 32.2641 74.1595 32.0321C74.6475 31.7921 75.0755 31.4001 75.4435 30.8561C75.8195 30.3121 76.1155 29.5961 76.3315 28.7081C76.5555 27.8201 76.6675 26.7201 76.6675 25.4081Z" fill="black"/>
<path d="M64.9656 25.4081C64.9656 26.9121 64.8016 28.2161 64.4736 29.3201C64.1536 30.4161 63.7136 31.3241 63.1536 32.0441C62.5936 32.7641 61.9296 33.3001 61.1616 33.6521C60.4016 34.0041 59.5856 34.1801 58.7136 34.1801C57.8336 34.1801 57.0136 34.0041 56.2536 33.6521C55.5016 33.3001 54.8456 32.7641 54.2856 32.0441C53.7256 31.3241 53.2856 30.4161 52.9656 29.3201C52.6456 28.2161 52.4856 26.9121 52.4856 25.4081C52.4856 23.9041 52.6456 22.6001 52.9656 21.4961C53.2856 20.3921 53.7256 19.4801 54.2856 18.7601C54.8456 18.0321 55.5016 17.4921 56.2536 17.1401C57.0136 16.7881 57.8336 16.6121 58.7136 16.6121C59.5856 16.6121 60.4016 16.7881 61.1616 17.1401C61.9296 17.4921 62.5936 18.0321 63.1536 18.7601C63.7136 19.4801 64.1536 20.3921 64.4736 21.4961C64.8016 22.6001 64.9656 23.9041 64.9656 25.4081ZM62.7456 25.4081C62.7456 24.0961 62.6336 22.9961 62.4096 22.1081C62.1936 21.2121 61.8976 20.4921 61.5216 19.9481C61.1536 19.4041 60.7256 19.0161 60.2376 18.7841C59.7496 18.5441 59.2416 18.4241 58.7136 18.4241C58.1856 18.4241 57.6776 18.5441 57.1896 18.7841C56.7016 19.0161 56.2736 19.4041 55.9056 19.9481C55.5376 20.4921 55.2416 21.2121 55.0176 22.1081C54.8016 22.9961 54.6936 24.0961 54.6936 25.4081C54.6936 26.7201 54.8016 27.8201 55.0176 28.7081C55.2416 29.5961 55.5376 30.3121 55.9056 30.8561C56.2736 31.4001 56.7016 31.7921 57.1896 32.0321C57.6776 32.2641 58.1856 32.3801 58.7136 32.3801C59.2416 32.3801 59.7496 32.2641 60.2376 32.0321C60.7256 31.7921 61.1536 31.4001 61.5216 30.8561C61.8976 30.3121 62.1936 29.5961 62.4096 28.7081C62.6336 27.8201 62.7456 26.7201 62.7456 25.4081Z" fill="black"/>
<path d="M51.0438 25.4081C51.0438 26.9121 50.8798 28.2161 50.5518 29.3201C50.2318 30.4161 49.7918 31.3241 49.2318 32.0441C48.6718 32.7641 48.0078 33.3001 47.2398 33.6521C46.4798 34.0041 45.6638 34.1801 44.7918 34.1801C43.9118 34.1801 43.0918 34.0041 42.3318 33.6521C41.5798 33.3001 40.9238 32.7641 40.3638 32.0441C39.8038 31.3241 39.3638 30.4161 39.0438 29.3201C38.7238 28.2161 38.5638 26.9121 38.5638 25.4081C38.5638 23.9041 38.7238 22.6001 39.0438 21.4961C39.3638 20.3921 39.8038 19.4801 40.3638 18.7601C40.9238 18.0321 41.5798 17.4921 42.3318 17.1401C43.0918 16.7881 43.9118 16.6121 44.7918 16.6121C45.6638 16.6121 46.4798 16.7881 47.2398 17.1401C48.0078 17.4921 48.6718 18.0321 49.2318 18.7601C49.7918 19.4801 50.2318 20.3921 50.5518 21.4961C50.8798 22.6001 51.0438 23.9041 51.0438 25.4081ZM48.8238 25.4081C48.8238 24.0961 48.7118 22.9961 48.4878 22.1081C48.2718 21.2121 47.9758 20.4921 47.5998 19.9481C47.2318 19.4041 46.8038 19.0161 46.3158 18.7841C45.8278 18.5441 45.3198 18.4241 44.7918 18.4241C44.2638 18.4241 43.7558 18.5441 43.2678 18.7841C42.7798 19.0161 42.3518 19.4041 41.9838 19.9481C41.6158 20.4921 41.3198 21.2121 41.0958 22.1081C40.8798 22.9961 40.7718 24.0961 40.7718 25.4081C40.7718 26.7201 40.8798 27.8201 41.0958 28.7081C41.3198 29.5961 41.6158 30.3121 41.9838 30.8561C42.3518 31.4001 42.7798 31.7921 43.2678 32.0321C43.7558 32.2641 44.2638 32.3801 44.7918 32.3801C45.3198 32.3801 45.8278 32.2641 46.3158 32.0321C46.8038 31.7921 47.2318 31.4001 47.5998 30.8561C47.9758 30.3121 48.2718 29.5961 48.4878 28.7081C48.7118 27.8201 48.8238 26.7201 48.8238 25.4081Z" fill="black"/>
<path d="M37.1219 25.4081C37.1219 26.9121 36.9579 28.2161 36.6299 29.3201C36.3099 30.4161 35.8699 31.3241 35.3099 32.0441C34.7499 32.7641 34.0859 33.3001 33.3179 33.6521C32.5579 34.0041 31.7419 34.1801 30.8699 34.1801C29.9899 34.1801 29.1699 34.0041 28.4099 33.6521C27.6579 33.3001 27.0019 32.7641 26.4419 32.0441C25.8819 31.3241 25.4419 30.4161 25.1219 29.3201C24.8019 28.2161 24.6419 26.9121 24.6419 25.4081C24.6419 23.9041 24.8019 22.6001 25.1219 21.4961C25.4419 20.3921 25.8819 19.4801 26.4419 18.7601C27.0019 18.0321 27.6579 17.4921 28.4099 17.1401C29.1699 16.7881 29.9899 16.6121 30.8699 16.6121C31.7419 16.6121 32.5579 16.7881 33.3179 17.1401C34.0859 17.4921 34.7499 18.0321 35.3099 18.7601C35.8699 19.4801 36.3099 20.3921 36.6299 21.4961C36.9579 22.6001 37.1219 23.9041 37.1219 25.4081ZM34.9019 25.4081C34.9019 24.0961 34.7899 22.9961 34.5659 22.1081C34.3499 21.2121 34.0539 20.4921 33.6779 19.9481C33.3099 19.4041 32.8819 19.0161 32.3939 18.7841C31.9059 18.5441 31.3979 18.4241 30.8699 18.4241C30.3419 18.4241 29.8339 18.5441 29.3459 18.7841C28.8579 19.0161 28.4299 19.4041 28.0619 19.9481C27.6939 20.4921 27.3979 21.2121 27.1739 22.1081C26.9579 22.9961 26.8499 24.0961 26.8499 25.4081C26.8499 26.7201 26.9579 27.8201 27.1739 28.7081C27.3979 29.5961 27.6939 30.3121 28.0619 30.8561C28.4299 31.4001 28.8579 31.7921 29.3459 32.0321C29.8339 32.2641 30.3419 32.3801 30.8699 32.3801C31.3979 32.3801 31.9059 32.2641 32.3939 32.0321C32.8819 31.7921 33.3099 31.4001 33.6779 30.8561C34.0539 30.3121 34.3499 29.5961 34.5659 28.7081C34.7899 27.8201 34.9019 26.7201 34.9019 25.4081Z" fill="black"/>
<path d="M19.48 28.924L18.472 34H17.5C17.316 34 17.16 33.932 17.032 33.796C16.904 33.66 16.84 33.484 16.84 33.268C16.84 33.236 16.84 33.208 16.84 33.184C16.848 33.152 16.856 33.116 16.864 33.076L17.716 28.924H14.752L13.9 33.184C13.836 33.48 13.712 33.692 13.528 33.82C13.352 33.94 13.148 34 12.916 34H11.968L12.988 28.924H11.236C11.052 28.924 10.908 28.88 10.804 28.792C10.7 28.696 10.648 28.536 10.648 28.312C10.648 28.272 10.648 28.228 10.648 28.18C10.656 28.132 10.664 28.084 10.672 28.036L10.768 27.352H13.216L13.996 23.44H11.212L11.368 22.552C11.408 22.32 11.5 22.148 11.644 22.036C11.788 21.924 12.016 21.868 12.328 21.868H14.224L15.088 17.572C15.136 17.332 15.244 17.144 15.412 17.008C15.588 16.872 15.796 16.804 16.036 16.804H16.996L15.988 21.868H18.952L19.96 16.804H20.908C21.108 16.804 21.272 16.864 21.4 16.984C21.536 17.104 21.604 17.26 21.604 17.452C21.604 17.516 21.6 17.568 21.592 17.608L20.716 21.868H23.26L23.104 22.768C23.064 23 22.968 23.172 22.816 23.284C22.672 23.388 22.448 23.44 22.144 23.44H20.488L19.708 27.352H21.856C22.048 27.352 22.196 27.4 22.3 27.496C22.404 27.584 22.456 27.744 22.456 27.976C22.456 28.016 22.452 28.06 22.444 28.108C22.444 28.148 22.44 28.192 22.432 28.24L22.324 28.924H19.48ZM14.98 27.352H17.944L18.724 23.44H15.76L14.98 27.352Z" fill="black"/>
<path d="M946.889 16.804V18.7H938.633V24.712H945.689V26.608H938.633V34H936.293V16.804H946.889Z" fill="white"/>
<path d="M923.727 32.3681H927.423V20.6441C927.423 20.2921 927.435 19.9361 927.459 19.5761L924.387 22.2041C924.307 22.2681 924.227 22.3161 924.147 22.3481C924.067 22.3721 923.991 22.3841 923.919 22.3841C923.799 22.3841 923.691 22.3601 923.595 22.3121C923.499 22.2561 923.427 22.1921 923.379 22.1201L922.707 21.1961L927.819 16.7681H929.559V32.3681H932.943V34.0001H923.727V32.3681Z" fill="white"/>
<path d="M906.832 34V16.804H912.316C913.372 16.804 914.28 16.908 915.04 17.116C915.808 17.324 916.436 17.62 916.924 18.004C917.42 18.388 917.784 18.86 918.016 19.42C918.256 19.972 918.376 20.596 918.376 21.292C918.376 21.716 918.308 22.124 918.172 22.516C918.044 22.908 917.844 23.272 917.572 23.608C917.308 23.944 916.972 24.244 916.564 24.508C916.164 24.772 915.692 24.988 915.148 25.156C916.404 25.404 917.352 25.856 917.992 26.512C918.632 27.168 918.952 28.032 918.952 29.104C918.952 29.832 918.816 30.496 918.544 31.096C918.28 31.696 917.888 32.212 917.368 32.644C916.856 33.076 916.224 33.412 915.472 33.652C914.728 33.884 913.876 34 912.916 34H906.832ZM909.16 26.164V32.152H912.88C913.544 32.152 914.112 32.076 914.584 31.924C915.064 31.772 915.456 31.56 915.76 31.288C916.072 31.008 916.3 30.68 916.444 30.304C916.588 29.92 916.66 29.5 916.66 29.044C916.66 28.156 916.344 27.456 915.712 26.944C915.088 26.424 914.14 26.164 912.868 26.164H909.16ZM909.16 24.508H912.232C912.888 24.508 913.456 24.436 913.936 24.292C914.416 24.148 914.812 23.948 915.124 23.692C915.444 23.436 915.68 23.128 915.832 22.768C915.984 22.4 916.06 22 916.06 21.568C916.06 20.56 915.756 19.82 915.148 19.348C914.54 18.876 913.596 18.64 912.316 18.64H909.16V24.508Z" fill="white"/>
<path d="M898.034 16.6121C898.762 16.6121 899.442 16.7201 900.074 16.9361C900.706 17.1521 901.25 17.4681 901.706 17.8841C902.17 18.2921 902.534 18.7921 902.798 19.3841C903.062 19.9761 903.194 20.6481 903.194 21.4001C903.194 22.0401 903.098 22.6321 902.906 23.1761C902.714 23.7201 902.454 24.2441 902.126 24.7481C901.798 25.2441 901.418 25.7281 900.986 26.2001C900.562 26.6641 900.11 27.1401 899.63 27.6281L895.106 32.2601C895.426 32.1721 895.75 32.1041 896.078 32.0561C896.406 32.0001 896.722 31.9721 897.026 31.9721H902.786C903.018 31.9721 903.202 32.0401 903.338 32.1761C903.474 32.3121 903.542 32.4881 903.542 32.7041V34.0001H892.07V33.2681C892.07 33.1161 892.098 32.9601 892.154 32.8001C892.218 32.6401 892.318 32.4921 892.454 32.3561L897.962 26.8241C898.418 26.3601 898.834 25.9161 899.21 25.4921C899.586 25.0601 899.906 24.6281 900.17 24.1961C900.442 23.7641 900.65 23.3281 900.794 22.8881C900.938 22.4401 901.01 21.9641 901.01 21.4601C901.01 20.9561 900.93 20.5161 900.77 20.1401C900.61 19.7561 900.39 19.4401 900.11 19.1921C899.83 18.9441 899.502 18.7601 899.126 18.6401C898.75 18.5121 898.346 18.4481 897.914 18.4481C897.482 18.4481 897.082 18.5121 896.714 18.6401C896.346 18.7681 896.018 18.9481 895.73 19.1801C895.45 19.4041 895.21 19.6721 895.01 19.9841C894.818 20.2961 894.682 20.6401 894.602 21.0161C894.538 21.2481 894.442 21.4161 894.314 21.5201C894.186 21.6241 894.018 21.6761 893.81 21.6761C893.77 21.6761 893.726 21.6761 893.678 21.6761C893.638 21.6681 893.59 21.6601 893.534 21.6521L892.418 21.4601C892.53 20.6761 892.746 19.9841 893.066 19.3841C893.386 18.7761 893.79 18.2681 894.278 17.8601C894.774 17.4521 895.338 17.1441 895.97 16.9361C896.61 16.7201 897.298 16.6121 898.034 16.6121Z" fill="white"/>
<path d="M889.744 25.408C889.744 26.696 889.54 27.868 889.132 28.924C888.724 29.98 888.148 30.884 887.404 31.636C886.66 32.388 885.768 32.972 884.728 33.388C883.688 33.796 882.536 34 881.272 34H874.84V16.804H881.272C882.536 16.804 883.688 17.012 884.728 17.428C885.768 17.836 886.66 18.42 887.404 19.18C888.148 19.932 888.724 20.836 889.132 21.892C889.54 22.948 889.744 24.12 889.744 25.408ZM887.356 25.408C887.356 24.352 887.212 23.408 886.924 22.576C886.636 21.744 886.228 21.04 885.7 20.464C885.172 19.888 884.532 19.448 883.78 19.144C883.028 18.84 882.192 18.688 881.272 18.688H877.18V32.116H881.272C882.192 32.116 883.028 31.964 883.78 31.66C884.532 31.356 885.172 30.92 885.7 30.352C886.228 29.776 886.636 29.072 886.924 28.24C887.212 27.408 887.356 26.464 887.356 25.408Z" fill="white"/>
<path d="M870.53 30.4481C870.658 30.4481 870.774 30.5001 870.878 30.6041L871.79 31.6001C871.086 32.4161 870.23 33.0521 869.222 33.5081C868.222 33.9641 867.014 34.1921 865.598 34.1921C864.358 34.1921 863.234 33.9801 862.226 33.5561C861.218 33.1241 860.358 32.5241 859.646 31.7561C858.934 30.9801 858.382 30.0521 857.99 28.9721C857.598 27.8921 857.402 26.7041 857.402 25.4081C857.402 24.1121 857.61 22.9241 858.026 21.8441C858.45 20.7641 859.042 19.8361 859.802 19.0601C860.562 18.2841 861.47 17.6841 862.526 17.2601C863.59 16.8281 864.762 16.6121 866.042 16.6121C867.306 16.6121 868.394 16.8081 869.306 17.2001C870.226 17.5921 871.042 18.1241 871.754 18.7961L870.998 19.8641C870.942 19.9441 870.878 20.0121 870.806 20.0681C870.734 20.1161 870.63 20.1401 870.494 20.1401C870.39 20.1401 870.278 20.1041 870.158 20.0321C870.046 19.9521 869.91 19.8561 869.75 19.7441C869.59 19.6321 869.402 19.5121 869.186 19.3841C868.97 19.2561 868.714 19.1361 868.418 19.0241C868.122 18.9121 867.778 18.8201 867.386 18.7481C866.994 18.6681 866.542 18.6281 866.03 18.6281C865.11 18.6281 864.266 18.7881 863.498 19.1081C862.738 19.4201 862.082 19.8681 861.53 20.4521C860.978 21.0361 860.546 21.7481 860.234 22.5881C859.93 23.4281 859.778 24.3681 859.778 25.4081C859.778 26.4801 859.93 27.4361 860.234 28.2761C860.546 29.1161 860.966 29.8281 861.494 30.4121C862.03 30.9881 862.662 31.4281 863.39 31.7321C864.118 32.0361 864.902 32.1881 865.742 32.1881C866.254 32.1881 866.714 32.1601 867.122 32.1041C867.53 32.0401 867.906 31.9441 868.25 31.8161C868.602 31.6881 868.926 31.5281 869.222 31.3361C869.526 31.1361 869.83 30.9001 870.134 30.6281C870.27 30.5081 870.402 30.4481 870.53 30.4481Z" fill="white"/>
<path d="M851.88 28.924L850.872 34H849.9C849.716 34 849.56 33.932 849.432 33.796C849.304 33.66 849.24 33.484 849.24 33.268C849.24 33.236 849.24 33.208 849.24 33.184C849.248 33.152 849.256 33.116 849.264 33.076L850.116 28.924H847.152L846.3 33.184C846.236 33.48 846.112 33.692 845.928 33.82C845.752 33.94 845.548 34 845.316 34H844.368L845.388 28.924H843.636C843.452 28.924 843.308 28.88 843.204 28.792C843.1 28.696 843.048 28.536 843.048 28.312C843.048 28.272 843.048 28.228 843.048 28.18C843.056 28.132 843.064 28.084 843.072 28.036L843.168 27.352H845.616L846.396 23.44H843.612L843.768 22.552C843.808 22.32 843.9 22.148 844.044 22.036C844.188 21.924 844.416 21.868 844.728 21.868H846.624L847.488 17.572C847.536 17.332 847.644 17.144 847.812 17.008C847.988 16.872 848.196 16.804 848.436 16.804H849.396L848.388 21.868H851.352L852.36 16.804H853.308C853.508 16.804 853.672 16.864 853.8 16.984C853.936 17.104 854.004 17.26 854.004 17.452C854.004 17.516 854 17.568 853.992 17.608L853.116 21.868H855.66L855.504 22.768C855.464 23 855.368 23.172 855.216 23.284C855.072 23.388 854.848 23.44 854.544 23.44H852.888L852.108 27.352H854.256C854.448 27.352 854.596 27.4 854.7 27.496C854.804 27.584 854.856 27.744 854.856 27.976C854.856 28.016 854.852 28.06 854.844 28.108C854.844 28.148 854.84 28.192 854.832 28.24L854.724 28.924H851.88ZM847.38 27.352H850.344L851.124 23.44H848.16L847.38 27.352Z" fill="white"/>
</svg>
