<?xml version="1.0" encoding="utf-8"?>
<!-- Generator: Adobe Illustrator 26.5.2, SVG Export Plug-In . SVG Version: 6.00 Build 0)  -->
<svg version="1.1" id="レイヤー_1" xmlns="http://www.w3.org/2000/svg" xmlns:xlink="http://www.w3.org/1999/xlink" x="0px"
	 y="0px" viewBox="0 0 841.9 595.3" style="enable-background:new 0 0 841.9 595.3;" xml:space="preserve">
<style type="text/css">
	.st0{fill:#FFFFFF;}
	.st1{clip-path:url(#SVGID_00000176009167173748639670000004851626612602706327_);fill:#E50012;}
	.st2{clip-path:url(#SVGID_00000153704108542010143090000016539557058474716343_);fill:#1D2087;}
	.st3{clip-path:url(#SVGID_00000064330647738138512260000015698482336144934025_);fill:#E50012;}
	.st4{clip-path:url(#SVGID_00000021095817863191689610000011483913641001803432_);fill:#1D2087;}
	.st5{fill:none;stroke:#000000;stroke-width:0.1417;stroke-miterlimit:10;}
</style>
<rect y="0" class="st0" width="841.9" height="595.3"/>
<g>
	<g>
		<defs>
			<rect id="SVGID_1_" x="255.6" y="14.2" width="330.7" height="566.9"/>
		</defs>
		<clipPath id="SVGID_00000129911706378165711240000011080671939207331983_">
			<use xlink:href="#SVGID_1_"  style="overflow:visible;"/>
		</clipPath>
		
			<circle style="clip-path:url(#SVGID_00000129911706378165711240000011080671939207331983_);fill:#E50012;" cx="272.2" cy="57.2" r="59.1"/>
	</g>
	<g>
		<defs>
			<rect id="SVGID_00000157997653884347568530000002819176913739944836_" x="255.6" y="14.2" width="330.7" height="566.9"/>
		</defs>
		<clipPath id="SVGID_00000116207234921650287240000012659167640031048087_">
			<use xlink:href="#SVGID_00000157997653884347568530000002819176913739944836_"  style="overflow:visible;"/>
		</clipPath>
		
			<circle style="clip-path:url(#SVGID_00000116207234921650287240000012659167640031048087_);fill:#1D2087;" cx="571.5" cy="57.2" r="59.1"/>
	</g>
	<g>
		<defs>
			<rect id="SVGID_00000093176599399885397310000012854367553374070946_" x="255.6" y="14.2" width="330.7" height="566.9"/>
		</defs>
		<clipPath id="SVGID_00000058578027618697453490000013247640528161854376_">
			<use xlink:href="#SVGID_00000093176599399885397310000012854367553374070946_"  style="overflow:visible;"/>
		</clipPath>
		<path style="clip-path:url(#SVGID_00000058578027618697453490000013247640528161854376_);fill:#E50012;" d="M268.1,433.4
			C268,433.4,268,433.5,268.1,433.4c-0.4,1.2-0.6,2.3-0.6,3.5c-0.1,16-0.7,162.8-0.8,210.6c0,5-1.3,10-3.7,14.4
			c-20.6,37-60.2,13.3-61.4-12.1V232.6c0-0.9-0.2-1.8-0.6-2.6c-2.5-4.7-7.5-4.6-9.3,0.2c-0.3,0.9-0.5,1.8-0.5,2.7v165.5
			c0,8.1-8,16.7-22.6,16.5s-20.3-10.4-20.3-16.5s0-177.7,0-220.9c0-41,49.4-49.5,52.8-49.5s71.1,0,71.1,0s57.4,0,60.8,0
			c12.2,0,35.4,3,45.1,33.9c3.8,12.1,4.8,14.7,6.9,22.3c14.7,51.6,46.4,208.6,46.4,214.4c0,6-0.9,16-15.5,16.1
			c-14.6,0.2-19.9-8.5-22.3-16.1c0,0-40.2-165.8-40.3-166.2s-0.3-1.5-0.5-2.2c-1.7-4.7-6.7-4.9-9.2-0.3c-0.5,0.8-0.7,1.8-0.7,2.8
			v417.2c-1.2,25.4-40.8,49.1-61.4,12.1c-2.5-4.4-3.7-9.4-3.7-14.4c-0.1-47.8-0.7-194.7-0.8-210.6c0-1.1-0.2-2.3-0.5-3.4v-0.1
			C275,429.4,269.4,429.4,268.1,433.4z"/>
	</g>
	<g>
		<defs>
			<rect id="SVGID_00000121969215487477606810000005620389275784543660_" x="255.6" y="14.2" width="330.7" height="566.9"/>
		</defs>
		<clipPath id="SVGID_00000111889021252321538320000006583894655471935902_">
			<use xlink:href="#SVGID_00000121969215487477606810000005620389275784543660_"  style="overflow:visible;"/>
		</clipPath>
		<path style="clip-path:url(#SVGID_00000111889021252321538320000006583894655471935902_);fill:#1D2087;" d="M696.4,179.6
			c0-40.7-49.7-51.3-53.1-51.3c-3.4,0-93.8-1.3-123.4-0.4c-13.4,0.4-43.2,18-52.7,55.3c-10.6,41.5-62.1,209.1-62.1,215.1
			s5.4,15.8,19.9,16c15.7,0.2,18.1-14.2,18.9-16.8c0.5-1.7,47.6-162.8,47.6-162.8c0-0.4,0.8-4.2,5-4.4c4.2-0.1,5.3,2.8,5.4,4
			s-54.4,231.9-54.4,231.9s-3.6,10.5,3.2,10.5l51.2-0.7v172.4c1.2,25.2,40.9,48.8,61.4,11.9c2.4-4.3,3.7-9.2,3.7-14.2
			c0-34.2,0.4-119.2,0.6-170.1h9.8c0.2,50.9,0.6,136,0.6,170.1c0,5,1.3,9.9,3.7,14.2c20.6,36.8,60.2,13.3,61.4-11.9V476.1h54.6
			c0,0,5.8,2.1,6.3-7.9c0.5-9.6-55.9-216.4-60.6-232.9c-0.2-0.8-0.2-1.6,0.2-2.4c0.5-1.1,1.4-2.4,2.8-3c2.4-0.9,6.2,0.6,6.6,1.8
			c0.3,0.9,43.6,165.8,44.6,170.7c2,4.8,8,16.6,22.6,16.4s20.3-10.4,20.3-16.4C740.6,396.5,696.4,222.4,696.4,179.6z"/>
	</g>
</g>
<rect x="255.6" y="14.2" class="st5" width="330.7" height="566.9"/>
</svg>
