<?xml version="1.0" encoding="utf-8"?>
<!-- Generator: Adobe Illustrator 26.5.2, SVG Export Plug-In . SVG Version: 6.00 Build 0)  -->
<svg version="1.1" id="レイヤー_1" xmlns="http://www.w3.org/2000/svg" xmlns:xlink="http://www.w3.org/1999/xlink" x="0px"
	 y="0px" viewBox="0 0 841.9 595.3" style="enable-background:new 0 0 841.9 595.3;" xml:space="preserve">
<style type="text/css">
	.st0{fill:#FFFFFF;}
	.st1{fill:#282828;}
	
		.st2{clip-path:url(#SVGID_00000116207822416491968980000005558032330553616279_);fill:#FFFFFF;stroke:#231815;stroke-width:0.1667;stroke-miterlimit:10;}
	
		.st3{clip-path:url(#SVGID_00000034050092864416813150000005721903946946601894_);fill:#FFFFFF;stroke:#231815;stroke-width:0.1667;stroke-miterlimit:10;}
	
		.st4{clip-path:url(#SVGID_00000096047533435503427830000003728758306299074482_);fill:#FFFFFF;stroke:#231815;stroke-width:0.1667;stroke-miterlimit:10;}
	
		.st5{clip-path:url(#SVGID_00000132090204685009477610000006684188818126495380_);fill:#FFFFFF;stroke:#231815;stroke-width:0.1667;stroke-miterlimit:10;}
	
		.st6{clip-path:url(#SVGID_00000045594834432472985900000009176970899274940322_);fill:#B4B4B5;stroke:#231815;stroke-width:0.1667;stroke-miterlimit:10;}
	.st7{clip-path:url(#SVGID_00000155844929379896618990000012078209054107058861_);}
	.st8{clip-path:url(#SVGID_00000013187221065971749540000007449395901522483615_);}
	.st9{fill:#B4B4B5;stroke:#231815;stroke-width:0.1667;stroke-miterlimit:10;}
	.st10{clip-path:url(#SVGID_00000071529421789014197590000016873302051072513925_);}
	.st11{fill:#FAED00;stroke:#231815;stroke-width:0.1667;stroke-miterlimit:10;}
	.st12{clip-path:url(#SVGID_00000104701694403123054550000013313785065097381038_);}
	.st13{clip-path:url(#SVGID_00000078025854416134274140000000989672211198271414_);}
	.st14{clip-path:url(#SVGID_00000101815902402154742170000007979056929028804015_);}
	.st15{clip-path:url(#SVGID_00000051366361938361828790000007924039840611754670_);}
	.st16{clip-path:url(#SVGID_00000149346742545739276560000014761568374679840419_);}
	.st17{clip-path:url(#SVGID_00000149352322942961965350000002593933977725410695_);}
	.st18{clip-path:url(#SVGID_00000056400840711061054240000000992153100001964677_);}
	.st19{clip-path:url(#SVGID_00000103258241317470284300000012025771884199217588_);}
	.st20{clip-path:url(#SVGID_00000049924763136431021410000004150271460482729116_);}
	.st21{clip-path:url(#SVGID_00000038390731082061436150000009894348950256141447_);}
	.st22{clip-path:url(#SVGID_00000090294084792356045040000003278971683507509396_);}
	.st23{clip-path:url(#SVGID_00000109001223825689251720000013768295061986747045_);}
	.st24{clip-path:url(#SVGID_00000026862198912997715740000003231129253573551773_);}
	.st25{clip-path:url(#SVGID_00000011748505424841294510000012891720455616888761_);}
	.st26{clip-path:url(#SVGID_00000131350917546963856780000006901153017366907801_);}
	.st27{clip-path:url(#SVGID_00000109751182325335724710000010606969697006794383_);}
	.st28{clip-path:url(#SVGID_00000073680226855281984530000008537612213420422021_);}
	.st29{clip-path:url(#SVGID_00000122698285676020792120000016888567085625965235_);}
	.st30{clip-path:url(#SVGID_00000016783242754933935970000016120905907911946678_);}
	.st31{clip-path:url(#SVGID_00000176760349296543264360000005917450410980266167_);}
	.st32{clip-path:url(#SVGID_00000008859189660776769050000011760744931504878007_);}
	.st33{clip-path:url(#SVGID_00000031186800259445585540000013140687170242982790_);}
	.st34{fill:none;stroke:#231815;stroke-width:0.1667;stroke-miterlimit:10;}
	
		.st35{clip-path:url(#SVGID_00000150785923772850224060000012324323912448056251_);fill:none;stroke:#231815;stroke-width:0.1667;stroke-miterlimit:10;}
	.st36{fill:none;stroke:#231815;stroke-width:0.1181;stroke-miterlimit:10;}
</style>
<rect class="st0" width="841.9" height="595.3"/>
<g>
	<rect x="255.6" y="14.2" class="st1" width="330.7" height="566.9"/>
	<g>
		<g>
			<defs>
				<rect id="SVGID_1_" x="255.6" y="14.2" width="330.7" height="566.9"/>
			</defs>
			<clipPath id="SVGID_00000104698581302434872880000001970090503175923130_">
				<use xlink:href="#SVGID_1_"  style="overflow:visible;"/>
			</clipPath>
			
				<rect x="214.3" y="67.3" style="clip-path:url(#SVGID_00000104698581302434872880000001970090503175923130_);fill:#FFFFFF;stroke:#231815;stroke-width:0.1667;stroke-miterlimit:10;" width="248" height="54.3"/>
		</g>
		<g>
			<defs>
				<rect id="SVGID_00000078734054133634021260000009034946652929227157_" x="255.6" y="14.2" width="330.7" height="566.9"/>
			</defs>
			<clipPath id="SVGID_00000034088895992794415590000017006333679010937496_">
				<use xlink:href="#SVGID_00000078734054133634021260000009034946652929227157_"  style="overflow:visible;"/>
			</clipPath>
			
				<rect x="214.3" y="-34.2" style="clip-path:url(#SVGID_00000034088895992794415590000017006333679010937496_);fill:#FFFFFF;stroke:#231815;stroke-width:0.1667;stroke-miterlimit:10;" width="248" height="54.3"/>
		</g>
		<g>
			<defs>
				<rect id="SVGID_00000155113567977195785910000008718010599262727587_" x="255.6" y="14.2" width="330.7" height="566.9"/>
			</defs>
			<clipPath id="SVGID_00000111871244111148401840000009963743704913846951_">
				<use xlink:href="#SVGID_00000155113567977195785910000008718010599262727587_"  style="overflow:visible;"/>
			</clipPath>
			
				<rect x="214.3" y="168.9" style="clip-path:url(#SVGID_00000111871244111148401840000009963743704913846951_);fill:#FFFFFF;stroke:#231815;stroke-width:0.1667;stroke-miterlimit:10;" width="248" height="54.3"/>
		</g>
		<g>
			<defs>
				<rect id="SVGID_00000020365875458155973320000009704111257812740233_" x="255.6" y="14.2" width="330.7" height="566.9"/>
			</defs>
			<clipPath id="SVGID_00000042730891204464838210000012286283607633346957_">
				<use xlink:href="#SVGID_00000020365875458155973320000009704111257812740233_"  style="overflow:visible;"/>
			</clipPath>
			
				<rect x="214.3" y="270.5" style="clip-path:url(#SVGID_00000042730891204464838210000012286283607633346957_);fill:#FFFFFF;stroke:#231815;stroke-width:0.1667;stroke-miterlimit:10;" width="248" height="54.3"/>
		</g>
		<g>
			<defs>
				<rect id="SVGID_00000008125309686162341420000007006174238630862758_" x="255.6" y="14.2" width="330.7" height="566.9"/>
			</defs>
			<clipPath id="SVGID_00000146498917235474684850000017796787257940571291_">
				<use xlink:href="#SVGID_00000008125309686162341420000007006174238630862758_"  style="overflow:visible;"/>
			</clipPath>
			
				<path style="clip-path:url(#SVGID_00000146498917235474684850000017796787257940571291_);fill:#B4B4B5;stroke:#231815;stroke-width:0.1667;stroke-miterlimit:10;" d="
				M241.4,669.7V357.9h108.7c20.2,0,40.4,2,60,6c19.1,3.9,37.9,9.7,55.9,17.3c17.6,7.5,34.7,16.7,50.6,27.4
				c15.8,10.6,30.6,22.9,44,36.3c13.5,13.5,25.7,28.3,36.3,44c10.8,15.9,20,32.9,27.4,50.6c7.6,18,13.4,36.8,17.3,55.9
				c4,19.6,6,39.8,6,60v14.2h-14.2h-392V669.7z"/>
		</g>
		<g>
			<defs>
				<rect id="SVGID_00000118362152268017605790000012393925668845719427_" x="255.6" y="14.2" width="330.7" height="566.9"/>
			</defs>
			<clipPath id="SVGID_00000158713898920793159260000012486128662357061792_">
				<use xlink:href="#SVGID_00000118362152268017605790000012393925668845719427_"  style="overflow:visible;"/>
			</clipPath>
			<g style="clip-path:url(#SVGID_00000158713898920793159260000012486128662357061792_);">
				<g>
					<defs>
						<path id="SVGID_00000043430105520977423180000003190549248728529065_" d="M633.5,655.5h-378V372H350
							C506.6,372,633.5,499,633.5,655.5L633.5,655.5z"/>
					</defs>
					<clipPath id="SVGID_00000014596490942103881180000007055650815882978967_">
						<use xlink:href="#SVGID_00000043430105520977423180000003190549248728529065_"  style="overflow:visible;"/>
					</clipPath>
					<g style="clip-path:url(#SVGID_00000014596490942103881180000007055650815882978967_);">
						<rect x="255.6" y="372" class="st9" width="47.2" height="47.2"/>
						<rect x="302.8" y="372" class="st9" width="47.2" height="47.2"/>
					</g>
				</g>
				<g>
					<defs>
						<path id="SVGID_00000088112964614364989660000014230901942568786570_" d="M633.5,655.5h-378V372H350
							C506.6,372,633.5,499,633.5,655.5L633.5,655.5z"/>
					</defs>
					<clipPath id="SVGID_00000151508807287919201550000012670956321325610640_">
						<use xlink:href="#SVGID_00000088112964614364989660000014230901942568786570_"  style="overflow:visible;"/>
					</clipPath>
					<g style="clip-path:url(#SVGID_00000151508807287919201550000012670956321325610640_);">
						<rect x="255.6" y="419.3" class="st11" width="47.2" height="47.2"/>
						<rect x="302.8" y="419.3" class="st11" width="47.2" height="47.2"/>
					</g>
				</g>
				<g>
					<defs>
						<path id="SVGID_00000052082673451954925780000006204619853289759124_" d="M633.5,655.5h-378V372H350
							C506.6,372,633.5,499,633.5,655.5L633.5,655.5z"/>
					</defs>
					<clipPath id="SVGID_00000090278018968720513370000015719569316018409624_">
						<use xlink:href="#SVGID_00000052082673451954925780000006204619853289759124_"  style="overflow:visible;"/>
					</clipPath>
					<g style="clip-path:url(#SVGID_00000090278018968720513370000015719569316018409624_);">
						<rect x="255.6" y="466.5" class="st11" width="47.2" height="47.2"/>
						<rect x="302.8" y="466.5" class="st11" width="47.2" height="47.2"/>
					</g>
				</g>
				<g>
					<defs>
						<path id="SVGID_00000090290581337472750670000004871412870446305926_" d="M633.5,655.5h-378V372H350
							C506.6,372,633.5,499,633.5,655.5L633.5,655.5z"/>
					</defs>
					<clipPath id="SVGID_00000090278316247991903690000012719415764961959076_">
						<use xlink:href="#SVGID_00000090290581337472750670000004871412870446305926_"  style="overflow:visible;"/>
					</clipPath>
					<g style="clip-path:url(#SVGID_00000090278316247991903690000012719415764961959076_);">
						<rect x="255.6" y="513.8" class="st11" width="47.2" height="47.2"/>
						<rect x="302.8" y="513.8" class="st11" width="47.2" height="47.2"/>
					</g>
				</g>
				<g>
					<defs>
						<path id="SVGID_00000044173891158907066290000001169094981793547401_" d="M633.5,655.5h-378V372H350
							C506.6,372,633.5,499,633.5,655.5L633.5,655.5z"/>
					</defs>
					<clipPath id="SVGID_00000074400908264826306010000000524077698623207583_">
						<use xlink:href="#SVGID_00000044173891158907066290000001169094981793547401_"  style="overflow:visible;"/>
					</clipPath>
					<g style="clip-path:url(#SVGID_00000074400908264826306010000000524077698623207583_);">
						<rect x="255.6" y="561" class="st11" width="47.2" height="47.2"/>
						<rect x="302.8" y="561" class="st11" width="47.2" height="47.2"/>
					</g>
				</g>
				<g>
					<defs>
						<path id="SVGID_00000181066011022032435150000014633630453746522047_" d="M633.5,655.5h-378V372H350
							C506.6,372,633.5,499,633.5,655.5L633.5,655.5z"/>
					</defs>
					<clipPath id="SVGID_00000026866536770259410550000005584405545986530446_">
						<use xlink:href="#SVGID_00000181066011022032435150000014633630453746522047_"  style="overflow:visible;"/>
					</clipPath>
					<g style="clip-path:url(#SVGID_00000026866536770259410550000005584405545986530446_);">
						<rect x="255.6" y="608.3" class="st11" width="47.2" height="47.2"/>
						<rect x="302.8" y="608.3" class="st11" width="47.2" height="47.2"/>
					</g>
				</g>
				<g>
					<defs>
						<path id="SVGID_00000060002898343686910210000004585181637739693976_" d="M633.5,655.5h-378V372H350
							C506.6,372,633.5,499,633.5,655.5L633.5,655.5z"/>
					</defs>
					<clipPath id="SVGID_00000005982250746916917460000008365035598359144123_">
						<use xlink:href="#SVGID_00000060002898343686910210000004585181637739693976_"  style="overflow:visible;"/>
					</clipPath>
					<g style="clip-path:url(#SVGID_00000005982250746916917460000008365035598359144123_);">
						<rect x="350.1" y="372" class="st9" width="47.2" height="47.2"/>
						<rect x="397.3" y="372" class="st9" width="47.2" height="47.2"/>
					</g>
				</g>
				<g>
					<defs>
						<path id="SVGID_00000095310956968773135420000006889567003468982712_" d="M633.5,655.5h-378V372H350
							C506.6,372,633.5,499,633.5,655.5L633.5,655.5z"/>
					</defs>
					<clipPath id="SVGID_00000134960381817973173160000010135657687488131230_">
						<use xlink:href="#SVGID_00000095310956968773135420000006889567003468982712_"  style="overflow:visible;"/>
					</clipPath>
					<g style="clip-path:url(#SVGID_00000134960381817973173160000010135657687488131230_);">
						<rect x="350.1" y="419.3" class="st11" width="47.2" height="47.2"/>
						<rect x="397.3" y="419.3" class="st11" width="47.2" height="47.2"/>
					</g>
				</g>
				<g>
					<defs>
						<path id="SVGID_00000178172388155710140160000002863028206762818463_" d="M633.5,655.5h-378V372H350
							C506.6,372,633.5,499,633.5,655.5L633.5,655.5z"/>
					</defs>
					<clipPath id="SVGID_00000052799210846651773530000016947611483284631471_">
						<use xlink:href="#SVGID_00000178172388155710140160000002863028206762818463_"  style="overflow:visible;"/>
					</clipPath>
					<g style="clip-path:url(#SVGID_00000052799210846651773530000016947611483284631471_);">
						<rect x="350.1" y="466.5" class="st9" width="47.2" height="47.2"/>
						<rect x="397.3" y="466.5" class="st9" width="47.2" height="47.2"/>
					</g>
				</g>
				<g>
					<defs>
						<path id="SVGID_00000164500757135772514690000009743400923163565952_" d="M633.5,655.5h-378V372H350
							C506.6,372,633.5,499,633.5,655.5L633.5,655.5z"/>
					</defs>
					<clipPath id="SVGID_00000100369663768742936710000016128607351454532537_">
						<use xlink:href="#SVGID_00000164500757135772514690000009743400923163565952_"  style="overflow:visible;"/>
					</clipPath>
					<g style="clip-path:url(#SVGID_00000100369663768742936710000016128607351454532537_);">
						<rect x="350.1" y="513.8" class="st9" width="47.2" height="47.2"/>
						<rect x="397.3" y="513.8" class="st9" width="47.2" height="47.2"/>
					</g>
				</g>
				<g>
					<defs>
						<path id="SVGID_00000142877638824045358170000005118588827043552952_" d="M633.5,655.5h-378V372H350
							C506.6,372,633.5,499,633.5,655.5L633.5,655.5z"/>
					</defs>
					<clipPath id="SVGID_00000026851778811721800710000012413234651075012228_">
						<use xlink:href="#SVGID_00000142877638824045358170000005118588827043552952_"  style="overflow:visible;"/>
					</clipPath>
					<g style="clip-path:url(#SVGID_00000026851778811721800710000012413234651075012228_);">
						<rect x="444.6" y="466.5" class="st9" width="47.2" height="47.2"/>
						<rect x="491.8" y="466.5" class="st9" width="47.2" height="47.2"/>
					</g>
				</g>
				<g>
					<defs>
						<path id="SVGID_00000137111680468992791820000005421102776664030851_" d="M633.5,655.5h-378V372H350
							C506.6,372,633.5,499,633.5,655.5L633.5,655.5z"/>
					</defs>
					<clipPath id="SVGID_00000046307140232440128000000016712663650647364492_">
						<use xlink:href="#SVGID_00000137111680468992791820000005421102776664030851_"  style="overflow:visible;"/>
					</clipPath>
					<g style="clip-path:url(#SVGID_00000046307140232440128000000016712663650647364492_);">
						<rect x="444.6" y="513.8" class="st9" width="47.2" height="47.2"/>
						<rect x="491.8" y="513.8" class="st9" width="47.2" height="47.2"/>
					</g>
				</g>
				<g>
					<defs>
						<path id="SVGID_00000181073317402948323320000000278939349334529416_" d="M633.5,655.5h-378V372H350
							C506.6,372,633.5,499,633.5,655.5L633.5,655.5z"/>
					</defs>
					<clipPath id="SVGID_00000150782128635729662600000012744079799906736778_">
						<use xlink:href="#SVGID_00000181073317402948323320000000278939349334529416_"  style="overflow:visible;"/>
					</clipPath>
					<g style="clip-path:url(#SVGID_00000150782128635729662600000012744079799906736778_);">
						<rect x="444.6" y="561" class="st9" width="47.2" height="47.2"/>
						<rect x="491.8" y="561" class="st9" width="47.2" height="47.2"/>
					</g>
				</g>
				<g>
					<defs>
						<path id="SVGID_00000078021085036168713470000010675829721401813933_" d="M633.5,655.5h-378V372H350
							C506.6,372,633.5,499,633.5,655.5L633.5,655.5z"/>
					</defs>
					<clipPath id="SVGID_00000105384471725881638110000012384150303822265015_">
						<use xlink:href="#SVGID_00000078021085036168713470000010675829721401813933_"  style="overflow:visible;"/>
					</clipPath>
					<g style="clip-path:url(#SVGID_00000105384471725881638110000012384150303822265015_);">
						<rect x="444.6" y="608.3" class="st9" width="47.2" height="47.2"/>
						<rect x="491.8" y="608.3" class="st9" width="47.2" height="47.2"/>
					</g>
				</g>
				<g>
					<defs>
						<path id="SVGID_00000108300657684025815790000015394842375046269368_" d="M633.5,655.5h-378V372H350
							C506.6,372,633.5,499,633.5,655.5L633.5,655.5z"/>
					</defs>
					<clipPath id="SVGID_00000114049019513683730190000009152338255964928169_">
						<use xlink:href="#SVGID_00000108300657684025815790000015394842375046269368_"  style="overflow:visible;"/>
					</clipPath>
					<g style="clip-path:url(#SVGID_00000114049019513683730190000009152338255964928169_);">
						<rect x="350.1" y="561" class="st9" width="47.2" height="47.2"/>
						<rect x="397.3" y="561" class="st9" width="47.2" height="47.2"/>
					</g>
				</g>
				<g>
					<defs>
						<path id="SVGID_00000012456381211250806360000015945236201783320980_" d="M633.5,655.5h-378V372H350
							C506.6,372,633.5,499,633.5,655.5L633.5,655.5z"/>
					</defs>
					<clipPath id="SVGID_00000118393783769391003550000001564967445856530078_">
						<use xlink:href="#SVGID_00000012456381211250806360000015945236201783320980_"  style="overflow:visible;"/>
					</clipPath>
					<g style="clip-path:url(#SVGID_00000118393783769391003550000001564967445856530078_);">
						<rect x="350.1" y="608.3" class="st9" width="47.2" height="47.2"/>
						<rect x="397.3" y="608.3" class="st9" width="47.2" height="47.2"/>
					</g>
				</g>
				<g>
					<defs>
						<path id="SVGID_00000069382343594892951820000011331808138726389655_" d="M633.5,655.5h-378V372H350
							C506.6,372,633.5,499,633.5,655.5L633.5,655.5z"/>
					</defs>
					<clipPath id="SVGID_00000000901899686180752280000003929793072909278389_">
						<use xlink:href="#SVGID_00000069382343594892951820000011331808138726389655_"  style="overflow:visible;"/>
					</clipPath>
					<g style="clip-path:url(#SVGID_00000000901899686180752280000003929793072909278389_);">
						<rect x="444.6" y="372" class="st9" width="47.2" height="47.2"/>
						<rect x="491.8" y="372" class="st9" width="47.2" height="47.2"/>
					</g>
				</g>
				<g>
					<defs>
						<path id="SVGID_00000121268802757817730140000000018516204595292598_" d="M633.5,655.5h-378V372H350
							C506.6,372,633.5,499,633.5,655.5L633.5,655.5z"/>
					</defs>
					<clipPath id="SVGID_00000113315536304845251020000009776678875500072615_">
						<use xlink:href="#SVGID_00000121268802757817730140000000018516204595292598_"  style="overflow:visible;"/>
					</clipPath>
					<g style="clip-path:url(#SVGID_00000113315536304845251020000009776678875500072615_);">
						<rect x="444.6" y="419.3" class="st9" width="47.2" height="47.2"/>
						<rect x="491.8" y="419.3" class="st9" width="47.2" height="47.2"/>
					</g>
				</g>
				<g>
					<defs>
						<path id="SVGID_00000074405203475255721930000003221814664039387785_" d="M633.5,655.5h-378V372H350
							C506.6,372,633.5,499,633.5,655.5L633.5,655.5z"/>
					</defs>
					<clipPath id="SVGID_00000067959201615183758320000000785596555195069354_">
						<use xlink:href="#SVGID_00000074405203475255721930000003221814664039387785_"  style="overflow:visible;"/>
					</clipPath>
					<g style="clip-path:url(#SVGID_00000067959201615183758320000000785596555195069354_);">
						<rect x="539.1" y="372" class="st9" width="47.2" height="47.2"/>
						<rect x="586.3" y="372" class="st9" width="47.2" height="47.2"/>
					</g>
				</g>
				<g>
					<defs>
						<path id="SVGID_00000034057605469497616510000000027292203365153965_" d="M633.5,655.5h-378V372H350
							C506.6,372,633.5,499,633.5,655.5L633.5,655.5z"/>
					</defs>
					<clipPath id="SVGID_00000059307432601771946070000011432884764999274402_">
						<use xlink:href="#SVGID_00000034057605469497616510000000027292203365153965_"  style="overflow:visible;"/>
					</clipPath>
					<g style="clip-path:url(#SVGID_00000059307432601771946070000011432884764999274402_);">
						<rect x="539.1" y="419.3" class="st9" width="47.2" height="47.2"/>
						<rect x="586.3" y="419.3" class="st9" width="47.2" height="47.2"/>
					</g>
				</g>
				<g>
					<defs>
						<path id="SVGID_00000005955734292024070550000017921068576084951174_" d="M633.5,655.5h-378V372H350
							C506.6,372,633.5,499,633.5,655.5L633.5,655.5z"/>
					</defs>
					<clipPath id="SVGID_00000085211939647415025940000003125806307292148140_">
						<use xlink:href="#SVGID_00000005955734292024070550000017921068576084951174_"  style="overflow:visible;"/>
					</clipPath>
					<g style="clip-path:url(#SVGID_00000085211939647415025940000003125806307292148140_);">
						<rect x="539.1" y="466.5" class="st9" width="47.2" height="47.2"/>
						<rect x="586.3" y="466.5" class="st9" width="47.2" height="47.2"/>
					</g>
				</g>
				<g>
					<defs>
						<path id="SVGID_00000078746508353407287800000012390383238491434126_" d="M633.5,655.5h-378V372H350
							C506.6,372,633.5,499,633.5,655.5L633.5,655.5z"/>
					</defs>
					<clipPath id="SVGID_00000146490590575056431310000006690457999392109471_">
						<use xlink:href="#SVGID_00000078746508353407287800000012390383238491434126_"  style="overflow:visible;"/>
					</clipPath>
					<g style="clip-path:url(#SVGID_00000146490590575056431310000006690457999392109471_);">
						<rect x="539.1" y="513.8" class="st9" width="47.2" height="47.2"/>
						<rect x="586.3" y="513.8" class="st9" width="47.2" height="47.2"/>
					</g>
				</g>
				<g>
					<defs>
						<path id="SVGID_00000093871755236885914040000002348546397870000288_" d="M633.5,655.5h-378V372H350
							C506.6,372,633.5,499,633.5,655.5L633.5,655.5z"/>
					</defs>
					<clipPath id="SVGID_00000078759190863614933690000016322661955218032061_">
						<use xlink:href="#SVGID_00000093871755236885914040000002348546397870000288_"  style="overflow:visible;"/>
					</clipPath>
					<g style="clip-path:url(#SVGID_00000078759190863614933690000016322661955218032061_);">
						<rect x="539.1" y="561" class="st9" width="47.2" height="47.2"/>
						<rect x="586.3" y="561" class="st9" width="47.2" height="47.2"/>
					</g>
				</g>
				<g>
					<defs>
						<path id="SVGID_00000114042275031805647000000000889900636751100339_" d="M633.5,655.5h-378V372H350
							C506.6,372,633.5,499,633.5,655.5L633.5,655.5z"/>
					</defs>
					<clipPath id="SVGID_00000015344738948514118310000017466375509121232575_">
						<use xlink:href="#SVGID_00000114042275031805647000000000889900636751100339_"  style="overflow:visible;"/>
					</clipPath>
					<g style="clip-path:url(#SVGID_00000015344738948514118310000017466375509121232575_);">
						<rect x="539.1" y="608.3" class="st9" width="47.2" height="47.2"/>
						<rect x="586.3" y="608.3" class="st9" width="47.2" height="47.2"/>
					</g>
				</g>
				<g>
					<path id="SVGID_00000134972677925448332750000017978497960861599665_" class="st34" d="M633.5,655.5h-378V372H350
						C506.6,372,633.5,499,633.5,655.5L633.5,655.5z"/>
				</g>
			</g>
		</g>
		<g>
			<defs>
				<rect id="SVGID_00000029754824987581826600000006691309196752332200_" x="255.6" y="14.2" width="330.7" height="566.9"/>
			</defs>
			<clipPath id="SVGID_00000085955234610105027320000006422972180182675103_">
				<use xlink:href="#SVGID_00000029754824987581826600000006691309196752332200_"  style="overflow:visible;"/>
			</clipPath>
			
				<path style="clip-path:url(#SVGID_00000085955234610105027320000006422972180182675103_);fill:none;stroke:#231815;stroke-width:0.1667;stroke-miterlimit:10;" d="
				M633.5,655.5h-378V372H350C506.6,372,633.5,499,633.5,655.5L633.5,655.5z"/>
		</g>
	</g>
	<rect x="255.6" y="14.2" class="st36" width="330.7" height="566.9"/>
</g>
</svg>
