<?xml version="1.0" encoding="utf-8"?>
<!-- Generator: Adobe Illustrator 26.5.2, SVG Export Plug-In . SVG Version: 6.00 Build 0)  -->
<svg version="1.1" id="レイヤー_1" xmlns="http://www.w3.org/2000/svg" xmlns:xlink="http://www.w3.org/1999/xlink" x="0px"
	 y="0px" viewBox="0 0 841.9 595.3" style="enable-background:new 0 0 841.9 595.3;" xml:space="preserve">
<style type="text/css">
	.st0{fill:#FFFFFF;}
	.st1{clip-path:url(#SVGID_00000037661084378151156000000006206996722875146126_);fill:#E4007F;}
	.st2{clip-path:url(#SVGID_00000080911027931944672940000003821610952764017297_);fill:#00A0E9;}
	.st3{clip-path:url(#SVGID_00000146496639951187012800000017374600683332861312_);fill:#FFF100;}
	.st4{clip-path:url(#SVGID_00000008861706485923045470000008579120875438889149_);fill:#231815;}
	.st5{fill:none;stroke:#231815;stroke-width:0.1417;stroke-miterlimit:10;}
</style>
<rect y="0" class="st0" width="841.9" height="595.3"/>
<g>
	<g>
		<g>
			<defs>
				<rect id="SVGID_1_" x="255.6" y="14.2" width="330.7" height="566.9"/>
			</defs>
			<clipPath id="SVGID_00000116224605443370823400000009026544108805705374_">
				<use xlink:href="#SVGID_1_"  style="overflow:visible;"/>
			</clipPath>
			<path style="clip-path:url(#SVGID_00000116224605443370823400000009026544108805705374_);fill:#E4007F;" d="M468.2,97.2
				c0,0,200.2,19.7,223.5,78s-82.8,101.1-146.4,107c-63.6,5.8-55.4,25.4-54.8,34c0.5,6.8,1.7,29.3,54.8,33.6
				c53.1,4.3,120.3,83,124.2,123.8s-35.3,28.3-124.2,36.1c-47.4,4.1-78.4,4.1-97.1,3.2c-14-0.7-26.2-9.8-30.9-23
				c-14.9-42.1-42.7-134.3-3.8-143.3c50.6-11.7,78.5,108.6,98,83.3c19.4-25.3-70.6-58.3-76.5-99.1s90.2-107,87.2-121.9
				c-2.8-13.7,30.7-37.3-23.8-42.6c-25.9-2.5-5.1,61.9-14.7,42.5C474.1,189.4,468.2,97.2,468.2,97.2"/>
		</g>
		<g>
			<defs>
				<rect id="SVGID_00000083792567715052176830000009062896146484044165_" x="255.6" y="14.2" width="330.7" height="566.9"/>
			</defs>
			<clipPath id="SVGID_00000086654061201282323590000001129788602487478445_">
				<use xlink:href="#SVGID_00000083792567715052176830000009062896146484044165_"  style="overflow:visible;"/>
			</clipPath>
			<path style="clip-path:url(#SVGID_00000086654061201282323590000001129788602487478445_);fill:#00A0E9;" d="M440.8,342.4
				c0,0,83.6-206.4,23.1-257.5c-60.6-51-161.4-15.1-186.9,3.3s-118,113.4-76.5,179.2s171.2,80.5,179.5,70.4
				c8.3-10.2-6.7-48.1-12.6-58.5s-8.1-24.2-27.9-28.9c-19.8-4.6,20.2-87.8,32.8-75.5c12.6,12.3,21.7,13.5,8.1,55.1
				S404.1,328.3,440.8,342.4"/>
		</g>
		<g>
			<defs>
				<rect id="SVGID_00000137854715943303567760000005258356818725711511_" x="255.6" y="14.2" width="330.7" height="566.9"/>
			</defs>
			<clipPath id="SVGID_00000156582547265970355430000000307287920269537667_">
				<use xlink:href="#SVGID_00000137854715943303567760000005258356818725711511_"  style="overflow:visible;"/>
			</clipPath>
			<path style="clip-path:url(#SVGID_00000156582547265970355430000000307287920269537667_);fill:#FFF100;" d="M247.5,572.2
				c-33.4,45.1-77.1,128.1-73.6,151.9c3.5,23.8,9.1,23,16,26.6c6.8,3.6,16.1,15.9,35.3-1.8c19.1-17.8,100.4-137.7,120.3-163.2
				s142.8-190.5,112.9-212.1c-46.8-33.8-99.3,86.5-110.4,100.2c-11.1,13.7-7,43.1-2,11.4s-8.9-102.4-7.1-121.6
				c2.7-29.8-44.9-70.4-61.6-13.4C260.6,407.1,247.5,572.2,247.5,572.2"/>
		</g>
		<g>
			<defs>
				<rect id="SVGID_00000053538102942872176600000011169690693878647981_" x="255.6" y="14.2" width="330.7" height="566.9"/>
			</defs>
			<clipPath id="SVGID_00000127734945568675521560000012126474352803797653_">
				<use xlink:href="#SVGID_00000053538102942872176600000011169690693878647981_"  style="overflow:visible;"/>
			</clipPath>
			<path style="clip-path:url(#SVGID_00000127734945568675521560000012126474352803797653_);fill:#231815;" d="M338.2,382.8
				c0,0-34,62.4-28.1,116.1c7.2,66.3,31.9,11.5,36.5,3.8c4.5-7.7,72.7-125.5,93.5-133.9c20.8-8.4,66.1,103.9,66.1,103.9
				s5.6,21.7,36.3,12.3c30.7-9.3,20.4-39.8,20.4-39.8s-87.6-105.1-87.6-123.9c0-16.6,78-115.4,73.7-139.4
				c-4.3-24-16.6-27.1-27.9-29.7c-11.3-2.7-29,6.5-32.9,16.8c-4,10.4-25.5,113.5-44.6,124.4s-20.9,11.4-26,4.8
				s-9.3-125.8-15.6-137.1c-6.3-11.3-28.6-37.5-64.7-22.8s-32.4,62.4-31,69.4C307.8,214.8,338.2,382.8,338.2,382.8"/>
		</g>
	</g>
	<g>
		<rect x="255.6" y="14.2" class="st5" width="330.7" height="566.9"/>
	</g>
</g>
</svg>
