<svg width="1665" height="300" viewBox="0 0 1665 300" fill="none" xmlns="http://www.w3.org/2000/svg">
<rect width="1497.6" height="300" fill="#171512"/>
<rect x="1498.4" width="166.4" height="300" fill="white"/>
<path d="M19.48 28.924L18.472 34H17.5C17.316 34 17.16 33.932 17.032 33.796C16.904 33.66 16.84 33.484 16.84 33.268C16.84 33.236 16.84 33.208 16.84 33.184C16.848 33.152 16.856 33.116 16.864 33.076L17.716 28.924H14.752L13.9 33.184C13.836 33.48 13.712 33.692 13.528 33.82C13.352 33.94 13.148 34 12.916 34H11.968L12.988 28.924H11.236C11.052 28.924 10.908 28.88 10.804 28.792C10.7 28.696 10.648 28.536 10.648 28.312C10.648 28.272 10.648 28.228 10.648 28.18C10.656 28.132 10.664 28.084 10.672 28.036L10.768 27.352H13.216L13.996 23.44H11.212L11.368 22.552C11.408 22.32 11.5 22.148 11.644 22.036C11.788 21.924 12.016 21.868 12.328 21.868H14.224L15.088 17.572C15.136 17.332 15.244 17.144 15.412 17.008C15.588 16.872 15.796 16.804 16.036 16.804H16.996L15.988 21.868H18.952L19.96 16.804H20.908C21.108 16.804 21.272 16.864 21.4 16.984C21.536 17.104 21.604 17.26 21.604 17.452C21.604 17.516 21.6 17.568 21.592 17.608L20.716 21.868H23.26L23.104 22.768C23.064 23 22.968 23.172 22.816 23.284C22.672 23.388 22.448 23.44 22.144 23.44H20.488L19.708 27.352H21.856C22.048 27.352 22.196 27.4 22.3 27.496C22.404 27.584 22.456 27.744 22.456 27.976C22.456 28.016 22.452 28.06 22.444 28.108C22.444 28.148 22.44 28.192 22.432 28.24L22.324 28.924H19.48ZM14.98 27.352H17.944L18.724 23.44H15.76L14.98 27.352ZM27.3659 32.368H31.0619V20.644C31.0619 20.292 31.0739 19.936 31.0979 19.576L28.0259 22.204C27.9459 22.268 27.8659 22.316 27.7859 22.348C27.7059 22.372 27.6299 22.384 27.5579 22.384C27.4379 22.384 27.3299 22.36 27.2339 22.312C27.1379 22.256 27.0659 22.192 27.0179 22.12L26.3459 21.196L31.4579 16.768H33.1979V32.368H36.5819V34H27.3659V32.368ZM50.8518 16.804V17.764C50.8518 18.036 50.8198 18.26 50.7558 18.436C50.6998 18.612 50.6398 18.76 50.5758 18.88L43.4598 33.244C43.3558 33.452 43.2118 33.632 43.0278 33.784C42.8438 33.928 42.5958 34 42.2838 34H40.7598L47.9838 19.816C48.0878 19.616 48.1918 19.432 48.2958 19.264C48.4078 19.096 48.5318 18.936 48.6678 18.784H39.6918C39.5558 18.784 39.4318 18.732 39.3198 18.628C39.2158 18.516 39.1638 18.392 39.1638 18.256V16.804H50.8518ZM55.2096 32.368H58.9056V20.644C58.9056 20.292 58.9176 19.936 58.9416 19.576L55.8696 22.204C55.7896 22.268 55.7096 22.316 55.6296 22.348C55.5496 22.372 55.4736 22.384 55.4016 22.384C55.2816 22.384 55.1736 22.36 55.0776 22.312C54.9816 22.256 54.9096 22.192 54.8616 22.12L54.1896 21.196L59.3016 16.768H61.0416V32.368H64.4256V34H55.2096V32.368ZM77.4235 17.74C77.4235 18.044 77.3275 18.296 77.1355 18.496C76.9435 18.688 76.6195 18.784 76.1635 18.784H70.7635L69.9715 23.296C70.8675 23.104 71.6955 23.008 72.4555 23.008C73.3515 23.008 74.1395 23.14 74.8195 23.404C75.5075 23.668 76.0835 24.032 76.5475 24.496C77.0115 24.96 77.3595 25.508 77.5915 26.14C77.8315 26.772 77.9515 27.46 77.9515 28.204C77.9515 29.116 77.7915 29.94 77.4715 30.676C77.1515 31.412 76.7115 32.044 76.1515 32.572C75.5995 33.092 74.9475 33.492 74.1955 33.772C73.4435 34.052 72.6315 34.192 71.7595 34.192C71.2555 34.192 70.7715 34.14 70.3075 34.036C69.8435 33.94 69.4115 33.808 69.0115 33.64C68.6115 33.472 68.2395 33.28 67.8955 33.064C67.5515 32.848 67.2475 32.62 66.9835 32.38L67.6315 31.468C67.7755 31.26 67.9675 31.156 68.2075 31.156C68.3595 31.156 68.5355 31.22 68.7355 31.348C68.9435 31.468 69.1915 31.604 69.4795 31.756C69.7675 31.908 70.1035 32.048 70.4875 32.176C70.8795 32.296 71.3435 32.356 71.8795 32.356C72.4795 32.356 73.0195 32.26 73.4995 32.068C73.9795 31.876 74.3875 31.604 74.7235 31.252C75.0675 30.892 75.3315 30.464 75.5155 29.968C75.6995 29.472 75.7915 28.916 75.7915 28.3C75.7915 27.764 75.7115 27.28 75.5515 26.848C75.3995 26.416 75.1635 26.048 74.8435 25.744C74.5315 25.44 74.1395 25.204 73.6675 25.036C73.1955 24.868 72.6435 24.784 72.0115 24.784C71.5795 24.784 71.1315 24.82 70.6675 24.892C70.2035 24.964 69.7235 25.08 69.2275 25.24L67.8835 24.844L69.2755 16.804H77.4235V17.74ZM83.0534 32.368H86.7494V20.644C86.7494 20.292 86.7614 19.936 86.7854 19.576L83.7134 22.204C83.6334 22.268 83.5534 22.316 83.4734 22.348C83.3934 22.372 83.3174 22.384 83.2454 22.384C83.1254 22.384 83.0174 22.36 82.9214 22.312C82.8254 22.256 82.7534 22.192 82.7054 22.12L82.0334 21.196L87.1454 16.768H88.8854V32.368H92.2694V34H83.0534V32.368ZM100.743 16.612C101.471 16.612 102.151 16.72 102.783 16.936C103.415 17.152 103.959 17.468 104.415 17.884C104.879 18.292 105.243 18.792 105.507 19.384C105.771 19.976 105.903 20.648 105.903 21.4C105.903 22.04 105.807 22.632 105.615 23.176C105.423 23.72 105.163 24.244 104.835 24.748C104.507 25.244 104.127 25.728 103.695 26.2C103.271 26.664 102.819 27.14 102.339 27.628L97.8153 32.26C98.1353 32.172 98.4593 32.104 98.7873 32.056C99.1153 32 99.4313 31.972 99.7353 31.972H105.495C105.727 31.972 105.911 32.04 106.047 32.176C106.183 32.312 106.251 32.488 106.251 32.704V34H94.7793V33.268C94.7793 33.116 94.8073 32.96 94.8633 32.8C94.9273 32.64 95.0273 32.492 95.1633 32.356L100.671 26.824C101.127 26.36 101.543 25.916 101.919 25.492C102.295 25.06 102.615 24.628 102.879 24.196C103.151 23.764 103.359 23.328 103.503 22.888C103.647 22.44 103.719 21.964 103.719 21.46C103.719 20.956 103.639 20.516 103.479 20.14C103.319 19.756 103.099 19.44 102.819 19.192C102.539 18.944 102.211 18.76 101.835 18.64C101.459 18.512 101.055 18.448 100.623 18.448C100.191 18.448 99.7913 18.512 99.4233 18.64C99.0553 18.768 98.7273 18.948 98.4393 19.18C98.1593 19.404 97.9193 19.672 97.7193 19.984C97.5273 20.296 97.3913 20.64 97.3113 21.016C97.2473 21.248 97.1513 21.416 97.0233 21.52C96.8953 21.624 96.7273 21.676 96.5193 21.676C96.4793 21.676 96.4353 21.676 96.3873 21.676C96.3473 21.668 96.2993 21.66 96.2433 21.652L95.1273 21.46C95.2393 20.676 95.4553 19.984 95.7753 19.384C96.0953 18.776 96.4993 18.268 96.9873 17.86C97.4833 17.452 98.0473 17.144 98.6793 16.936C99.3193 16.72 100.007 16.612 100.743 16.612Z" fill="white"/>
<path d="M1516.76 23.44H1513.8L1513.02 27.352H1515.98L1516.76 23.44ZM1521.3 21.868L1521.14 22.768C1521.1 23 1521 23.172 1520.85 23.284C1520.71 23.388 1520.48 23.44 1520.18 23.44H1518.52L1517.74 27.352H1519.89C1520.12 27.352 1520.29 27.42 1520.38 27.556C1520.49 27.684 1520.52 27.912 1520.47 28.24L1520.36 28.924H1517.52L1516.51 34H1515.54C1515.43 34 1515.34 33.976 1515.25 33.928C1515.16 33.88 1515.08 33.816 1515.02 33.736C1514.96 33.656 1514.92 33.56 1514.9 33.448C1514.88 33.336 1514.88 33.212 1514.9 33.076L1515.75 28.924H1512.79L1511.94 33.184C1511.89 33.48 1511.77 33.692 1511.59 33.82C1511.4 33.94 1511.2 34 1510.96 34H1510L1511.02 28.924H1509.27C1509.05 28.924 1508.88 28.86 1508.78 28.732C1508.68 28.596 1508.66 28.364 1508.71 28.036L1508.8 27.352H1511.25L1512.03 23.44H1509.25L1509.4 22.552C1509.44 22.32 1509.54 22.148 1509.68 22.036C1509.83 21.924 1510.06 21.868 1510.36 21.868H1512.26L1513.12 17.572C1513.17 17.332 1513.28 17.144 1513.45 17.008C1513.62 16.872 1513.83 16.804 1514.07 16.804H1515.03L1514.02 21.868H1516.99L1518 16.804H1518.94C1519.18 16.804 1519.36 16.88 1519.48 17.032C1519.62 17.184 1519.67 17.376 1519.63 17.608L1518.75 21.868H1521.3ZM1524.41 34V23.668L1523.06 23.512C1522.89 23.472 1522.75 23.412 1522.64 23.332C1522.54 23.244 1522.49 23.12 1522.49 22.96V22.084H1524.41V21.088C1524.41 20.392 1524.5 19.776 1524.69 19.24C1524.89 18.696 1525.17 18.24 1525.53 17.872C1525.9 17.496 1526.34 17.212 1526.85 17.02C1527.37 16.828 1527.94 16.732 1528.58 16.732C1529.13 16.732 1529.63 16.812 1530.08 16.972L1530.03 18.052C1530.02 18.244 1529.91 18.348 1529.71 18.364C1529.52 18.38 1529.26 18.388 1528.93 18.388C1528.56 18.388 1528.23 18.436 1527.92 18.532C1527.63 18.62 1527.37 18.772 1527.15 18.988C1526.94 19.204 1526.77 19.492 1526.65 19.852C1526.54 20.204 1526.48 20.64 1526.48 21.16V22.084H1531.97V20.776C1531.97 20.08 1532.06 19.464 1532.25 18.928C1532.45 18.384 1532.73 17.928 1533.09 17.56C1533.46 17.184 1533.9 16.9 1534.41 16.708C1534.93 16.516 1535.5 16.42 1536.14 16.42C1536.68 16.42 1537.18 16.5 1537.64 16.66L1537.59 17.728C1537.58 17.92 1537.47 18.024 1537.27 18.04C1537.08 18.056 1536.82 18.064 1536.49 18.064C1536.12 18.064 1535.79 18.112 1535.48 18.208C1535.19 18.304 1534.93 18.46 1534.71 18.676C1534.5 18.892 1534.33 19.176 1534.21 19.528C1534.1 19.88 1534.04 20.316 1534.04 20.836V22.084H1537.55V23.632H1534.11V34H1531.97V23.632H1526.55V34H1524.41ZM1540.37 34V23.668L1539.02 23.512C1538.85 23.472 1538.71 23.412 1538.6 23.332C1538.5 23.244 1538.45 23.12 1538.45 22.96V22.084H1540.37V21.088C1540.37 20.392 1540.46 19.776 1540.65 19.24C1540.85 18.696 1541.13 18.24 1541.49 17.872C1541.86 17.496 1542.3 17.212 1542.81 17.02C1543.33 16.828 1543.9 16.732 1544.54 16.732C1545.09 16.732 1545.59 16.812 1546.04 16.972L1545.99 18.052C1545.98 18.244 1545.87 18.348 1545.67 18.364C1545.48 18.38 1545.22 18.388 1544.89 18.388C1544.52 18.388 1544.19 18.436 1543.88 18.532C1543.59 18.62 1543.33 18.772 1543.11 18.988C1542.9 19.204 1542.73 19.492 1542.61 19.852C1542.5 20.204 1542.44 20.64 1542.44 21.16V22.084H1547.93V20.776C1547.93 20.08 1548.02 19.464 1548.21 18.928C1548.41 18.384 1548.69 17.928 1549.05 17.56C1549.42 17.184 1549.86 16.9 1550.37 16.708C1550.89 16.516 1551.46 16.42 1552.1 16.42C1552.64 16.42 1553.14 16.5 1553.6 16.66L1553.55 17.728C1553.54 17.92 1553.43 18.024 1553.23 18.04C1553.04 18.056 1552.78 18.064 1552.45 18.064C1552.08 18.064 1551.75 18.112 1551.44 18.208C1551.15 18.304 1550.89 18.46 1550.67 18.676C1550.46 18.892 1550.29 19.176 1550.17 19.528C1550.06 19.88 1550 20.316 1550 20.836V22.084H1553.51V23.632H1550.07V34H1547.93V23.632H1542.51V34H1540.37ZM1556.33 34V23.668L1554.98 23.512C1554.82 23.472 1554.68 23.412 1554.56 23.332C1554.46 23.244 1554.41 23.12 1554.41 22.96V22.084H1556.33V21.088C1556.33 20.392 1556.42 19.776 1556.62 19.24C1556.82 18.696 1557.1 18.24 1557.46 17.872C1557.82 17.496 1558.26 17.212 1558.78 17.02C1559.29 16.828 1559.86 16.732 1560.5 16.732C1561.05 16.732 1561.55 16.812 1562 16.972L1561.96 18.052C1561.94 18.244 1561.83 18.348 1561.63 18.364C1561.44 18.38 1561.18 18.388 1560.85 18.388C1560.48 18.388 1560.15 18.436 1559.84 18.532C1559.55 18.62 1559.29 18.772 1559.08 18.988C1558.86 19.204 1558.69 19.492 1558.57 19.852C1558.46 20.204 1558.4 20.64 1558.4 21.16V22.084H1563.89V20.776C1563.89 20.08 1563.98 19.464 1564.18 18.928C1564.38 18.384 1564.66 17.928 1565.02 17.56C1565.38 17.184 1565.82 16.9 1566.34 16.708C1566.85 16.516 1567.42 16.42 1568.06 16.42C1568.6 16.42 1569.1 16.5 1569.56 16.66L1569.52 17.728C1569.5 17.92 1569.39 18.024 1569.19 18.04C1569 18.056 1568.74 18.064 1568.41 18.064C1568.04 18.064 1567.71 18.112 1567.4 18.208C1567.11 18.304 1566.85 18.46 1566.64 18.676C1566.42 18.892 1566.25 19.176 1566.13 19.528C1566.02 19.88 1565.96 20.316 1565.96 20.836V22.084H1569.47V23.632H1566.04V34H1563.89V23.632H1558.48V34H1556.33Z" fill="#171512"/>
</svg>
