<?xml version="1.0" encoding="UTF-8"?>
<svg id="_レイヤー_1" data-name="レイヤー 1" xmlns="http://www.w3.org/2000/svg" version="1.1" viewBox="0 0 468.4 338.8">
  <defs>
    <style>
      .cls-1 {
        fill: #e60012;
      }

      .cls-1, .cls-2 {
        stroke-width: 0px;
      }

      .cls-3 {
        isolation: isolate;
      }

      .cls-2 {
        fill: #fff;
      }
    </style>
  </defs>
  <circle class="cls-1" cx="89.7" cy="89.7" r="89.7"/>
  <g id="SUMIBI_YAKITORI" data-name="SUMIBI YAKITORI" class="cls-3">
    <g class="cls-3">
      <path class="cls-2" d="M112.5,37.9c-1.9-2.5-4.1-2.7-5.2-2.7-3.4,0-4.4,2.1-4.4,3.7s.2,1.5,1,2.2c.8.7,1.8,1.1,3.8,1.8,2.5.9,4.8,1.7,6.5,3.2,1.4,1.3,2.7,3.5,2.7,6.7,0,6.2-4.5,10.5-11.1,10.5s-9.4-3.6-11-6l4.1-3.9c1.5,3.1,4.5,4.3,6.7,4.3s4.9-1.7,4.9-4.4-.4-2.1-1.2-2.9c-1.2-1.1-3.1-1.7-4.9-2.4-1.7-.6-3.7-1.3-5.3-2.8-1.1-.9-2.5-2.7-2.5-6,0-4.7,3.2-9.4,10.3-9.4s5.8.4,9.1,3.7l-3.3,4.3Z"/>
      <path class="cls-2" d="M128.6,30.6v20.1c0,2.4.8,3.9,1.5,4.8.9,1.1,2.6,2.2,5.1,2.2s4.2-1.1,5.1-2.2c.7-.8,1.5-2.3,1.5-4.8v-20.1h6.2v19.6c0,3-.5,6.1-2.4,8.5-2.3,3-6.3,4.6-10.5,4.6s-8.2-1.6-10.5-4.6c-1.9-2.4-2.4-5.5-2.4-8.5v-19.6h6.2Z"/>
      <path class="cls-2" d="M159.7,30.6h4.5l8.5,20.4,8.9-20.4h4.5l5.4,32h-6.3l-2.9-19.7-8.6,19.7h-2.1l-8.2-19.7-3.3,19.7h-6.3l6-32Z"/>
      <path class="cls-2" d="M203.4,30.6v32h-6.2V30.6h6.2Z"/>
      <path class="cls-2" d="M218.6,30.6c1.8,0,5.2,0,7.8,2,1.9,1.4,3,3.9,3,6.6,0,4.1-2.7,5.8-3.6,6.3,2.1.3,3.4,1.2,4.2,2,1.9,1.8,2.3,4.3,2.3,6s-.5,4.5-2.7,6.5c-2.4,2.1-5.3,2.6-8.1,2.6h-10.8V30.6h7.9ZM216.9,43.9h1.8c1,0,4.8,0,4.8-4.2s-2.3-4-4.8-4h-1.8v8.2ZM216.9,57.6h2.7c1.2,0,2.9,0,4.3-.9,1.5-.9,2-2.4,2-3.7s-.3-2.7-2.4-3.6c-1.3-.6-2.9-.6-4.3-.6h-2.3v8.8Z"/>
      <path class="cls-2" d="M244.3,30.6v32h-6.2V30.6h6.2Z"/>
      <path class="cls-2" d="M270,48l-11-17.4h7.4l6.9,11.1,6.9-11.1h7.4l-11.3,17.4v14.6h-6.2v-14.6Z"/>
      <path class="cls-2" d="M306,55.9h-12.9l-2.8,6.7h-6.8l13.8-32h4.9l13.4,32h-6.7l-2.8-6.7ZM304.2,50.8l-4.6-11.5-4.6,11.5h9.1Z"/>
      <path class="cls-2" d="M325.6,44.2l11.8-13.5h7.9l-13.5,14.8,14.3,17.2h-8.3l-11.4-14.4-.7.7v13.6h-6.2V30.6h6.2v13.5Z"/>
      <path class="cls-2" d="M356.1,30.6v32h-6.2V30.6h6.2Z"/>
      <path class="cls-2" d="M373.5,36v26.6h-6.2v-26.6h-7.2v-5.4h20.6v5.4h-7.2Z"/>
      <path class="cls-2" d="M415.9,46.7c0,9.7-7,16.7-17.1,16.7s-17.1-7-17.1-16.7,7-16.8,17.1-16.8,17.1,7,17.1,16.8ZM409.4,46.7c0-6.5-4.4-11.1-10.7-11.1s-10.7,4.6-10.7,11.1,4.4,11,10.7,11,10.7-4.6,10.7-11Z"/>
      <path class="cls-2" d="M430.9,30.6c4.4,0,6.7,1.2,8.2,2.4,2.4,2.1,3.2,4.8,3.2,7.2s-1.2,5.9-3.7,7.5c-.8.6-2,1.1-3.5,1.4l10,13.5h-7.8l-8.5-12.9h-.8v12.9h-6.2V30.6h9.3ZM427.9,45.4h1.8c1.2,0,6.1-.1,6.1-4.8s-4.9-4.8-6-4.8h-1.9v9.6Z"/>
      <path class="cls-2" d="M455.4,30.6v32h-6.2V30.6h6.2Z"/>
    </g>
  </g>
  <g id="Ryo" class="cls-3">
    <g class="cls-3">
      <path class="cls-2" d="M147.3,105.8c13.5,0,31.2,1,43.7,10.7,8.3,6.2,16.6,18.5,16.6,36.7s-7.3,30.2-15.1,37.4c-7.5,7-18.7,12.5-29.6,14.6l45,74.1h-32l-40.8-71h-4.7l-8.8,71h-26.5l21.3-173.4h30.9ZM133,185.4h8.3c9.4,0,22.1-1.8,30.2-8.3,6-4.7,10.7-13,10.7-22.4s-4.2-15.9-9.6-19.5c-4.7-3.1-12.2-4.9-23.7-4.9h-9.1l-6.8,55.1Z"/>
      <path class="cls-2" d="M260.7,259l-37.7-89.2h30.2l24.7,61.6,38.2-61.6h29.1l-107.9,169h-28.6l52-79.8Z"/>
      <path class="cls-2" d="M453.6,181.5c7,7.3,14.8,19.8,14.8,38s-2.9,30.7-19,46.3c-13.3,12.7-27.3,16.9-45,16.9s-27-2.6-39-14.8c-8.1-8.3-15.1-20.5-15.1-38.2s7.5-34.8,19-45.8c12-11.4,26.5-16.9,45.2-16.9s26.5,2.1,39,14.6ZM432,249.3c6.2-6.8,10.4-16.6,10.4-28.3s-1.3-15.3-8.6-22.9c-5.5-5.7-12.5-8.3-20.8-8.3s-19.8,4.4-24.7,9.1c-7.5,7-12,17.4-12,28.6s2.9,16.6,8.1,22.6c2.6,2.9,9.9,9.6,23.4,9.6s17.2-2.9,24.2-10.4Z"/>
    </g>
  </g>
</svg>