<svg width="1665" height="300" viewBox="0 0 1665 300" fill="none" xmlns="http://www.w3.org/2000/svg">
<rect width="1497.6" height="300" fill="black"/>
<rect x="1498.4" width="166.4" height="300" fill="white"/>
<path d="M18.76 23.44H15.796L15.016 27.352H17.98L18.76 23.44ZM23.296 21.868L23.14 22.768C23.1 23 23.004 23.172 22.852 23.284C22.708 23.388 22.484 23.44 22.18 23.44H20.524L19.744 27.352H21.892C22.124 27.352 22.288 27.42 22.384 27.556C22.488 27.684 22.516 27.912 22.468 28.24L22.36 28.924H19.516L18.508 34H17.536C17.432 34 17.336 33.976 17.248 33.928C17.16 33.88 17.084 33.816 17.02 33.736C16.964 33.656 16.924 33.56 16.9 33.448C16.876 33.336 16.876 33.212 16.9 33.076L17.752 28.924H14.788L13.936 33.184C13.888 33.48 13.772 33.692 13.588 33.82C13.404 33.94 13.196 34 12.964 34H12.004L13.024 28.924H11.272C11.048 28.924 10.884 28.86 10.78 28.732C10.684 28.596 10.66 28.364 10.708 28.036L10.804 27.352H13.252L14.032 23.44H11.248L11.404 22.552C11.444 22.32 11.536 22.148 11.68 22.036C11.832 21.924 12.06 21.868 12.364 21.868H14.26L15.124 17.572C15.172 17.332 15.28 17.144 15.448 17.008C15.624 16.872 15.832 16.804 16.072 16.804H17.032L16.024 21.868H18.988L19.996 16.804H20.944C21.176 16.804 21.356 16.88 21.484 17.032C21.62 17.184 21.668 17.376 21.628 17.608L20.752 21.868H23.296ZM37.1219 25.408C37.1219 26.912 36.9579 28.216 36.6299 29.32C36.3099 30.416 35.8699 31.324 35.3099 32.044C34.7499 32.764 34.0859 33.3 33.3179 33.652C32.5579 34.004 31.7419 34.18 30.8699 34.18C29.9899 34.18 29.1699 34.004 28.4099 33.652C27.6579 33.3 27.0019 32.764 26.4419 32.044C25.8819 31.324 25.4419 30.416 25.1219 29.32C24.8019 28.216 24.6419 26.912 24.6419 25.408C24.6419 23.904 24.8019 22.6 25.1219 21.496C25.4419 20.392 25.8819 19.48 26.4419 18.76C27.0019 18.032 27.6579 17.492 28.4099 17.14C29.1699 16.788 29.9899 16.612 30.8699 16.612C31.7419 16.612 32.5579 16.788 33.3179 17.14C34.0859 17.492 34.7499 18.032 35.3099 18.76C35.8699 19.48 36.3099 20.392 36.6299 21.496C36.9579 22.6 37.1219 23.904 37.1219 25.408ZM34.9019 25.408C34.9019 24.096 34.7899 22.996 34.5659 22.108C34.3499 21.212 34.0539 20.492 33.6779 19.948C33.3099 19.404 32.8819 19.016 32.3939 18.784C31.9059 18.544 31.3979 18.424 30.8699 18.424C30.3419 18.424 29.8339 18.544 29.3459 18.784C28.8579 19.016 28.4299 19.404 28.0619 19.948C27.6939 20.492 27.3979 21.212 27.1739 22.108C26.9579 22.996 26.8499 24.096 26.8499 25.408C26.8499 26.72 26.9579 27.82 27.1739 28.708C27.3979 29.596 27.6939 30.312 28.0619 30.856C28.4299 31.4 28.8579 31.792 29.3459 32.032C29.8339 32.264 30.3419 32.38 30.8699 32.38C31.3979 32.38 31.9059 32.264 32.3939 32.032C32.8819 31.792 33.3099 31.4 33.6779 30.856C34.0539 30.312 34.3499 29.596 34.5659 28.708C34.7899 27.82 34.9019 26.72 34.9019 25.408ZM51.0438 25.408C51.0438 26.912 50.8798 28.216 50.5518 29.32C50.2318 30.416 49.7918 31.324 49.2318 32.044C48.6718 32.764 48.0078 33.3 47.2398 33.652C46.4798 34.004 45.6638 34.18 44.7918 34.18C43.9118 34.18 43.0918 34.004 42.3318 33.652C41.5798 33.3 40.9238 32.764 40.3638 32.044C39.8038 31.324 39.3638 30.416 39.0438 29.32C38.7238 28.216 38.5638 26.912 38.5638 25.408C38.5638 23.904 38.7238 22.6 39.0438 21.496C39.3638 20.392 39.8038 19.48 40.3638 18.76C40.9238 18.032 41.5798 17.492 42.3318 17.14C43.0918 16.788 43.9118 16.612 44.7918 16.612C45.6638 16.612 46.4798 16.788 47.2398 17.14C48.0078 17.492 48.6718 18.032 49.2318 18.76C49.7918 19.48 50.2318 20.392 50.5518 21.496C50.8798 22.6 51.0438 23.904 51.0438 25.408ZM48.8238 25.408C48.8238 24.096 48.7118 22.996 48.4878 22.108C48.2718 21.212 47.9758 20.492 47.5998 19.948C47.2318 19.404 46.8038 19.016 46.3158 18.784C45.8278 18.544 45.3198 18.424 44.7918 18.424C44.2638 18.424 43.7558 18.544 43.2678 18.784C42.7798 19.016 42.3518 19.404 41.9838 19.948C41.6158 20.492 41.3198 21.212 41.0958 22.108C40.8798 22.996 40.7718 24.096 40.7718 25.408C40.7718 26.72 40.8798 27.82 41.0958 28.708C41.3198 29.596 41.6158 30.312 41.9838 30.856C42.3518 31.4 42.7798 31.792 43.2678 32.032C43.7558 32.264 44.2638 32.38 44.7918 32.38C45.3198 32.38 45.8278 32.264 46.3158 32.032C46.8038 31.792 47.2318 31.4 47.5998 30.856C47.9758 30.312 48.2718 29.596 48.4878 28.708C48.7118 27.82 48.8238 26.72 48.8238 25.408ZM64.9656 25.408C64.9656 26.912 64.8016 28.216 64.4736 29.32C64.1536 30.416 63.7136 31.324 63.1536 32.044C62.5936 32.764 61.9296 33.3 61.1616 33.652C60.4016 34.004 59.5856 34.18 58.7136 34.18C57.8336 34.18 57.0136 34.004 56.2536 33.652C55.5016 33.3 54.8456 32.764 54.2856 32.044C53.7256 31.324 53.2856 30.416 52.9656 29.32C52.6456 28.216 52.4856 26.912 52.4856 25.408C52.4856 23.904 52.6456 22.6 52.9656 21.496C53.2856 20.392 53.7256 19.48 54.2856 18.76C54.8456 18.032 55.5016 17.492 56.2536 17.14C57.0136 16.788 57.8336 16.612 58.7136 16.612C59.5856 16.612 60.4016 16.788 61.1616 17.14C61.9296 17.492 62.5936 18.032 63.1536 18.76C63.7136 19.48 64.1536 20.392 64.4736 21.496C64.8016 22.6 64.9656 23.904 64.9656 25.408ZM62.7456 25.408C62.7456 24.096 62.6336 22.996 62.4096 22.108C62.1936 21.212 61.8976 20.492 61.5216 19.948C61.1536 19.404 60.7256 19.016 60.2376 18.784C59.7496 18.544 59.2416 18.424 58.7136 18.424C58.1856 18.424 57.6776 18.544 57.1896 18.784C56.7016 19.016 56.2736 19.404 55.9056 19.948C55.5376 20.492 55.2416 21.212 55.0176 22.108C54.8016 22.996 54.6936 24.096 54.6936 25.408C54.6936 26.72 54.8016 27.82 55.0176 28.708C55.2416 29.596 55.5376 30.312 55.9056 30.856C56.2736 31.4 56.7016 31.792 57.1896 32.032C57.6776 32.264 58.1856 32.38 58.7136 32.38C59.2416 32.38 59.7496 32.264 60.2376 32.032C60.7256 31.792 61.1536 31.4 61.5216 30.856C61.8976 30.312 62.1936 29.596 62.4096 28.708C62.6336 27.82 62.7456 26.72 62.7456 25.408ZM78.8875 25.408C78.8875 26.912 78.7235 28.216 78.3955 29.32C78.0755 30.416 77.6355 31.324 77.0755 32.044C76.5155 32.764 75.8515 33.3 75.0835 33.652C74.3235 34.004 73.5075 34.18 72.6355 34.18C71.7555 34.18 70.9355 34.004 70.1755 33.652C69.4235 33.3 68.7675 32.764 68.2075 32.044C67.6475 31.324 67.2075 30.416 66.8875 29.32C66.5675 28.216 66.4075 26.912 66.4075 25.408C66.4075 23.904 66.5675 22.6 66.8875 21.496C67.2075 20.392 67.6475 19.48 68.2075 18.76C68.7675 18.032 69.4235 17.492 70.1755 17.14C70.9355 16.788 71.7555 16.612 72.6355 16.612C73.5075 16.612 74.3235 16.788 75.0835 17.14C75.8515 17.492 76.5155 18.032 77.0755 18.76C77.6355 19.48 78.0755 20.392 78.3955 21.496C78.7235 22.6 78.8875 23.904 78.8875 25.408ZM76.6675 25.408C76.6675 24.096 76.5555 22.996 76.3315 22.108C76.1155 21.212 75.8195 20.492 75.4435 19.948C75.0755 19.404 74.6475 19.016 74.1595 18.784C73.6715 18.544 73.1635 18.424 72.6355 18.424C72.1075 18.424 71.5995 18.544 71.1115 18.784C70.6235 19.016 70.1955 19.404 69.8275 19.948C69.4595 20.492 69.1635 21.212 68.9395 22.108C68.7235 22.996 68.6155 24.096 68.6155 25.408C68.6155 26.72 68.7235 27.82 68.9395 28.708C69.1635 29.596 69.4595 30.312 69.8275 30.856C70.1955 31.4 70.6235 31.792 71.1115 32.032C71.5995 32.264 72.1075 32.38 72.6355 32.38C73.1635 32.38 73.6715 32.264 74.1595 32.032C74.6475 31.792 75.0755 31.4 75.4435 30.856C75.8195 30.312 76.1155 29.596 76.3315 28.708C76.5555 27.82 76.6675 26.72 76.6675 25.408ZM92.8094 25.408C92.8094 26.912 92.6454 28.216 92.3174 29.32C91.9974 30.416 91.5574 31.324 90.9974 32.044C90.4374 32.764 89.7734 33.3 89.0054 33.652C88.2454 34.004 87.4294 34.18 86.5574 34.18C85.6774 34.18 84.8574 34.004 84.0974 33.652C83.3454 33.3 82.6894 32.764 82.1294 32.044C81.5694 31.324 81.1294 30.416 80.8094 29.32C80.4894 28.216 80.3294 26.912 80.3294 25.408C80.3294 23.904 80.4894 22.6 80.8094 21.496C81.1294 20.392 81.5694 19.48 82.1294 18.76C82.6894 18.032 83.3454 17.492 84.0974 17.14C84.8574 16.788 85.6774 16.612 86.5574 16.612C87.4294 16.612 88.2454 16.788 89.0054 17.14C89.7734 17.492 90.4374 18.032 90.9974 18.76C91.5574 19.48 91.9974 20.392 92.3174 21.496C92.6454 22.6 92.8094 23.904 92.8094 25.408ZM90.5894 25.408C90.5894 24.096 90.4774 22.996 90.2534 22.108C90.0374 21.212 89.7414 20.492 89.3654 19.948C88.9974 19.404 88.5694 19.016 88.0814 18.784C87.5934 18.544 87.0854 18.424 86.5574 18.424C86.0294 18.424 85.5214 18.544 85.0334 18.784C84.5454 19.016 84.1174 19.404 83.7494 19.948C83.3814 20.492 83.0854 21.212 82.8614 22.108C82.6454 22.996 82.5374 24.096 82.5374 25.408C82.5374 26.72 82.6454 27.82 82.8614 28.708C83.0854 29.596 83.3814 30.312 83.7494 30.856C84.1174 31.4 84.5454 31.792 85.0334 32.032C85.5214 32.264 86.0294 32.38 86.5574 32.38C87.0854 32.38 87.5934 32.264 88.0814 32.032C88.5694 31.792 88.9974 31.4 89.3654 30.856C89.7414 30.312 90.0374 29.596 90.2534 28.708C90.4774 27.82 90.5894 26.72 90.5894 25.408ZM106.731 25.408C106.731 26.912 106.567 28.216 106.239 29.32C105.919 30.416 105.479 31.324 104.919 32.044C104.359 32.764 103.695 33.3 102.927 33.652C102.167 34.004 101.351 34.18 100.479 34.18C99.5993 34.18 98.7793 34.004 98.0193 33.652C97.2673 33.3 96.6113 32.764 96.0513 32.044C95.4913 31.324 95.0513 30.416 94.7313 29.32C94.4113 28.216 94.2513 26.912 94.2513 25.408C94.2513 23.904 94.4113 22.6 94.7313 21.496C95.0513 20.392 95.4913 19.48 96.0513 18.76C96.6113 18.032 97.2673 17.492 98.0193 17.14C98.7793 16.788 99.5993 16.612 100.479 16.612C101.351 16.612 102.167 16.788 102.927 17.14C103.695 17.492 104.359 18.032 104.919 18.76C105.479 19.48 105.919 20.392 106.239 21.496C106.567 22.6 106.731 23.904 106.731 25.408ZM104.511 25.408C104.511 24.096 104.399 22.996 104.175 22.108C103.959 21.212 103.663 20.492 103.287 19.948C102.919 19.404 102.491 19.016 102.003 18.784C101.515 18.544 101.007 18.424 100.479 18.424C99.9513 18.424 99.4433 18.544 98.9553 18.784C98.4673 19.016 98.0393 19.404 97.6713 19.948C97.3033 20.492 97.0073 21.212 96.7833 22.108C96.5673 22.996 96.4593 24.096 96.4593 25.408C96.4593 26.72 96.5673 27.82 96.7833 28.708C97.0073 29.596 97.3033 30.312 97.6713 30.856C98.0393 31.4 98.4673 31.792 98.9553 32.032C99.4433 32.264 99.9513 32.38 100.479 32.38C101.007 32.38 101.515 32.264 102.003 32.032C102.491 31.792 102.919 31.4 103.287 30.856C103.663 30.312 103.959 29.596 104.175 28.708C104.399 27.82 104.511 26.72 104.511 25.408Z" fill="white"/>
<path d="M1516.76 23.44H1513.8L1513.02 27.352H1515.98L1516.76 23.44ZM1521.3 21.868L1521.14 22.768C1521.1 23 1521 23.172 1520.85 23.284C1520.71 23.388 1520.48 23.44 1520.18 23.44H1518.52L1517.74 27.352H1519.89C1520.12 27.352 1520.29 27.42 1520.38 27.556C1520.49 27.684 1520.52 27.912 1520.47 28.24L1520.36 28.924H1517.52L1516.51 34H1515.54C1515.43 34 1515.34 33.976 1515.25 33.928C1515.16 33.88 1515.08 33.816 1515.02 33.736C1514.96 33.656 1514.92 33.56 1514.9 33.448C1514.88 33.336 1514.88 33.212 1514.9 33.076L1515.75 28.924H1512.79L1511.94 33.184C1511.89 33.48 1511.77 33.692 1511.59 33.82C1511.4 33.94 1511.2 34 1510.96 34H1510L1511.02 28.924H1509.27C1509.05 28.924 1508.88 28.86 1508.78 28.732C1508.68 28.596 1508.66 28.364 1508.71 28.036L1508.8 27.352H1511.25L1512.03 23.44H1509.25L1509.4 22.552C1509.44 22.32 1509.54 22.148 1509.68 22.036C1509.83 21.924 1510.06 21.868 1510.36 21.868H1512.26L1513.12 17.572C1513.17 17.332 1513.28 17.144 1513.45 17.008C1513.62 16.872 1513.83 16.804 1514.07 16.804H1515.03L1514.02 21.868H1516.99L1518 16.804H1518.94C1519.18 16.804 1519.36 16.88 1519.48 17.032C1519.62 17.184 1519.67 17.376 1519.63 17.608L1518.75 21.868H1521.3ZM1524.41 34V23.668L1523.06 23.512C1522.89 23.472 1522.75 23.412 1522.64 23.332C1522.54 23.244 1522.49 23.12 1522.49 22.96V22.084H1524.41V21.088C1524.41 20.392 1524.5 19.776 1524.69 19.24C1524.89 18.696 1525.17 18.24 1525.53 17.872C1525.9 17.496 1526.34 17.212 1526.85 17.02C1527.37 16.828 1527.94 16.732 1528.58 16.732C1529.13 16.732 1529.63 16.812 1530.08 16.972L1530.03 18.052C1530.02 18.244 1529.91 18.348 1529.71 18.364C1529.52 18.38 1529.26 18.388 1528.93 18.388C1528.56 18.388 1528.23 18.436 1527.92 18.532C1527.63 18.62 1527.37 18.772 1527.15 18.988C1526.94 19.204 1526.77 19.492 1526.65 19.852C1526.54 20.204 1526.48 20.64 1526.48 21.16V22.084H1531.97V20.776C1531.97 20.08 1532.06 19.464 1532.25 18.928C1532.45 18.384 1532.73 17.928 1533.09 17.56C1533.46 17.184 1533.9 16.9 1534.41 16.708C1534.93 16.516 1535.5 16.42 1536.14 16.42C1536.68 16.42 1537.18 16.5 1537.64 16.66L1537.59 17.728C1537.58 17.92 1537.47 18.024 1537.27 18.04C1537.08 18.056 1536.82 18.064 1536.49 18.064C1536.12 18.064 1535.79 18.112 1535.48 18.208C1535.19 18.304 1534.93 18.46 1534.71 18.676C1534.5 18.892 1534.33 19.176 1534.21 19.528C1534.1 19.88 1534.04 20.316 1534.04 20.836V22.084H1537.55V23.632H1534.11V34H1531.97V23.632H1526.55V34H1524.41ZM1540.37 34V23.668L1539.02 23.512C1538.85 23.472 1538.71 23.412 1538.6 23.332C1538.5 23.244 1538.45 23.12 1538.45 22.96V22.084H1540.37V21.088C1540.37 20.392 1540.46 19.776 1540.65 19.24C1540.85 18.696 1541.13 18.24 1541.49 17.872C1541.86 17.496 1542.3 17.212 1542.81 17.02C1543.33 16.828 1543.9 16.732 1544.54 16.732C1545.09 16.732 1545.59 16.812 1546.04 16.972L1545.99 18.052C1545.98 18.244 1545.87 18.348 1545.67 18.364C1545.48 18.38 1545.22 18.388 1544.89 18.388C1544.52 18.388 1544.19 18.436 1543.88 18.532C1543.59 18.62 1543.33 18.772 1543.11 18.988C1542.9 19.204 1542.73 19.492 1542.61 19.852C1542.5 20.204 1542.44 20.64 1542.44 21.16V22.084H1547.93V20.776C1547.93 20.08 1548.02 19.464 1548.21 18.928C1548.41 18.384 1548.69 17.928 1549.05 17.56C1549.42 17.184 1549.86 16.9 1550.37 16.708C1550.89 16.516 1551.46 16.42 1552.1 16.42C1552.64 16.42 1553.14 16.5 1553.6 16.66L1553.55 17.728C1553.54 17.92 1553.43 18.024 1553.23 18.04C1553.04 18.056 1552.78 18.064 1552.45 18.064C1552.08 18.064 1551.75 18.112 1551.44 18.208C1551.15 18.304 1550.89 18.46 1550.67 18.676C1550.46 18.892 1550.29 19.176 1550.17 19.528C1550.06 19.88 1550 20.316 1550 20.836V22.084H1553.51V23.632H1550.07V34H1547.93V23.632H1542.51V34H1540.37ZM1556.33 34V23.668L1554.98 23.512C1554.82 23.472 1554.68 23.412 1554.56 23.332C1554.46 23.244 1554.41 23.12 1554.41 22.96V22.084H1556.33V21.088C1556.33 20.392 1556.42 19.776 1556.62 19.24C1556.82 18.696 1557.1 18.24 1557.46 17.872C1557.82 17.496 1558.26 17.212 1558.78 17.02C1559.29 16.828 1559.86 16.732 1560.5 16.732C1561.05 16.732 1561.55 16.812 1562 16.972L1561.96 18.052C1561.94 18.244 1561.83 18.348 1561.63 18.364C1561.44 18.38 1561.18 18.388 1560.85 18.388C1560.48 18.388 1560.15 18.436 1559.84 18.532C1559.55 18.62 1559.29 18.772 1559.08 18.988C1558.86 19.204 1558.69 19.492 1558.57 19.852C1558.46 20.204 1558.4 20.64 1558.4 21.16V22.084H1563.89V20.776C1563.89 20.08 1563.98 19.464 1564.18 18.928C1564.38 18.384 1564.66 17.928 1565.02 17.56C1565.38 17.184 1565.82 16.9 1566.34 16.708C1566.85 16.516 1567.42 16.42 1568.06 16.42C1568.6 16.42 1569.1 16.5 1569.56 16.66L1569.52 17.728C1569.5 17.92 1569.39 18.024 1569.19 18.04C1569 18.056 1568.74 18.064 1568.41 18.064C1568.04 18.064 1567.71 18.112 1567.4 18.208C1567.11 18.304 1566.85 18.46 1566.64 18.676C1566.42 18.892 1566.25 19.176 1566.13 19.528C1566.02 19.88 1565.96 20.316 1565.96 20.836V22.084H1569.47V23.632H1566.04V34H1563.89V23.632H1558.48V34H1556.33Z" fill="black"/>
</svg>
