<?xml version="1.0" encoding="utf-8"?>
<!-- Generator: Adobe Illustrator 27.3.1, SVG Export Plug-In . SVG Version: 6.00 Build 0)  -->
<svg version="1.1" id="レイヤー_1" xmlns="http://www.w3.org/2000/svg" xmlns:xlink="http://www.w3.org/1999/xlink" x="0px"
	 y="0px" viewBox="0 0 283.5 283.5" style="enable-background:new 0 0 283.5 283.5;" xml:space="preserve">
<style type="text/css">
	.st0{fill:#F3F2EA;}
</style>
<path class="st0" d="M85.2,7.1h113.1c43.1,0,78.1,35,78.1,78.1v113.1c0,43.1-35,78.1-78.1,78.1H85.2c-43.1,0-78.1-35-78.1-78.1V85.2
	C7.1,42.1,42.1,7.1,85.2,7.1 M82.5,34C55.7,34,34,55.7,34,82.5l0,0V201c0,26.8,21.7,48.5,48.5,48.5H201c26.8,0,48.5-21.7,48.5-48.5
	l0,0V82.5c0-26.8-21.7-48.5-48.5-48.5H82.5 M212.4,54.2c9.3,0,16.8,7.5,16.8,16.8s-7.5,16.8-16.8,16.8s-16.8-7.5-16.8-16.8
	S203.1,54.2,212.4,54.2 M141.8,74.4c37.2,0,67.3,30.1,67.3,67.3S179,209,141.8,209s-67.3-30.1-67.3-67.3S104.6,74.4,141.8,74.4
	 M141.8,101.4c-22.3,0-40.4,18.1-40.4,40.4s18.1,40.4,40.4,40.4s40.4-18.1,40.4-40.4S164.1,101.4,141.8,101.4z"/>
</svg>
