<?xml version="1.0" encoding="utf-8"?>
<!-- Generator: Adobe Illustrator 27.3.1, SVG Export Plug-In . SVG Version: 6.00 Build 0)  -->
<svg version="1.1" id="レイヤー_1" xmlns="http://www.w3.org/2000/svg" xmlns:xlink="http://www.w3.org/1999/xlink" x="0px"
	 y="0px" viewBox="0 0 283.5 283.5" style="enable-background:new 0 0 283.5 283.5;" xml:space="preserve">
<style type="text/css">
	.st0{fill:#FFFFFF;}
</style>
<g>
	<path class="st0" d="M221.5,7.1L209,55.4H13.9l36.3,126h126.3L172,199H59.1v18.6h127.3l49.5-191.9h33.7V7.1H221.5z M158.1,162.8
		v-35.6h32.4l-9.2,35.6H158.1z M204.2,73.9l-8.9,34.7h-37.2V73.9C158.1,73.9,204.2,73.9,204.2,73.9z M139.5,127.2v35.6h-36.6v-35.6
		H139.5z M139.5,73.9v34.7h-36.6V73.9C102.9,73.9,139.5,73.9,139.5,73.9z M84.3,73.9v34.7H48.6l-10-34.7
		C38.6,73.9,84.3,73.9,84.3,73.9z M84.3,127.2v35.6H64.2l-10.3-35.6H84.3z"/>
	<path class="st0" d="M76.8,225.4c-13.8,0-25,11.2-25,25s11.2,25,25,25s25-11.2,25-25C101.8,236.6,90.6,225.4,76.8,225.4z
		 M76.8,256.8c-3.5,0-6.4-2.9-6.4-6.4c0-3.5,2.9-6.4,6.4-6.4c3.5,0,6.4,2.9,6.4,6.4C83.2,253.9,80.3,256.8,76.8,256.8z"/>
	<path class="st0" d="M164.7,226.4c-13.8,0-25,11.2-25,25c0,13.8,11.2,25,25,25c13.8,0,25-11.2,25-25
		C189.6,237.6,178.4,226.4,164.7,226.4z M164.7,257.8c-3.5,0-6.4-2.9-6.4-6.4c0-3.5,2.9-6.4,6.4-6.4c3.5,0,6.4,2.9,6.4,6.4
		C171.1,254.9,168.2,257.8,164.7,257.8z"/>
</g>
</svg>
