<?xml version="1.0" encoding="utf-8"?>
<!-- Generator: Adobe Illustrator 26.5.2, SVG Export Plug-In . SVG Version: 6.00 Build 0)  -->
<svg version="1.1" id="レイヤー_1" xmlns="http://www.w3.org/2000/svg" xmlns:xlink="http://www.w3.org/1999/xlink" x="0px"
	 y="0px" viewBox="0 0 283.5 283.5" style="enable-background:new 0 0 283.5 283.5;" xml:space="preserve">
<style type="text/css">
	.st0{fill:none;stroke:#F3F2EA;stroke-width:2.2992;stroke-miterlimit:10;}
	.st1{fill:none;stroke:#F3F2EA;stroke-width:1.6222;stroke-miterlimit:10;}
</style>
<g>
	<path class="st0" d="M276.4,122.8c0-59.9-60.3-108.5-134.6-108.5S7.1,62.9,7.1,122.8c0,53.7,47.9,98.6,112.6,107.1
		c4.4,1,10.4,2.9,11.8,6.7c1.3,3.4,0.8,8.6,0.5,12.2c0,0-1.6,9.4-1.9,11.5c-0.6,3.4-2.8,13.3,11.7,7.1c14.4-6,77.5-45.4,105.8-77.7
		C267,168.3,276.4,146.8,276.4,122.8z"/>
	<path class="st1" d="M113.5,94.4h-9.4c-1.5,0-2.6,1.1-2.6,2.8v60c0,1.5,1.1,2.8,2.6,2.8h9.4c1.5,0,2.6-1.1,2.6-2.8V97
		C116.1,95.5,115,94.4,113.5,94.4z"/>
	<path class="st1" d="M178.9,94.4H169c-1.5,0-2.8,1.1-2.8,2.8v35.7l-28.1-37.3c0-0.2-0.2-0.2-0.2-0.3l0,0l-0.2-0.2l0,0l-0.2-0.2l0,0
		c0,0-0.2,0-0.2-0.2c0,0,0,0-0.2,0c0,0-0.2,0-0.2-0.2c0,0,0,0-0.2,0h-0.2c0,0,0,0-0.2,0h-0.2c0,0,0,0-0.2,0h-0.2c0,0,0,0-0.2,0h-0.2
		h-0.2c0,0,0,0-0.2,0h-9.9c-1.5,0-2.8,1.1-2.8,2.8v59.9c0,1.5,1.3,2.8,2.8,2.8h9.9c1.5,0,2.8-1.1,2.8-2.8v-35.7l28.1,37.3
		c0.2,0.3,0.5,0.5,0.6,0.6l0,0c0,0,0.2,0,0.2,0.2l0,0h0.2h0.2l0,0h0.2l0,0c0.2,0,0.5,0.2,0.6,0.2h9.9c1.5,0,2.8-1.1,2.8-2.8V96.8
		C181.7,95.5,180.4,94.4,178.9,94.4z"/>
	<path class="st1" d="M91.6,144.8H65.5V97.1c0-1.5-1.1-2.8-2.6-2.8h-9.6c-1.5,0-2.6,1.1-2.6,2.8v60c0,0.6,0.3,1.5,0.8,1.8l0,0l0,0
		c0.5,0.5,1.1,0.8,1.8,0.8h38.3c1.5,0,2.6-1.1,2.6-2.8v-9.7C94.2,146,93.1,144.8,91.6,144.8z"/>
	<path class="st1" d="M230,109.5c1.5,0,2.6-1.1,2.6-2.8V97c0-1.5-1.1-2.8-2.6-2.8h-38.3c-0.6,0-1.3,0.3-1.8,0.8l0,0l0,0
		c-0.5,0.5-0.8,1.1-0.8,1.8v60.3c0,0.6,0.3,1.5,0.8,1.8l0,0l0,0c0.5,0.5,1.1,0.8,1.8,0.8H230c1.5,0,2.6-1.1,2.6-2.8v-9.7
		c0-1.5-1.1-2.8-2.6-2.8h-26.1v-10.2H230c1.5,0,2.6-1.1,2.6-2.8v-9.7c0-1.5-1.1-2.8-2.6-2.8h-26.1v-10.2H230V109.5z"/>
</g>
</svg>
