<svg id="serch" xmlns="http://www.w3.org/2000/svg" width="22" height="22.049" viewBox="0 0 22 22.049">
  <path id="パス_5" data-name="パス 5" d="M15.954,9.388a6.566,6.566,0,1,1-6.566,6.566,6.571,6.571,0,0,1,6.566-6.566m0-2.388a8.954,8.954,0,1,0,8.954,8.954A8.959,8.959,0,0,0,15.954,7Z" transform="translate(-7 -7)" fill="#fff"/>
  <path id="パス_6" data-name="パス 6" d="M176.6,178.656l-6.8-6.8a1.011,1.011,0,0,1,0-1.434l.025-.025a1.011,1.011,0,0,1,1.434,0l6.8,6.8a1.011,1.011,0,0,1,0,1.434l-.025.025A1.011,1.011,0,0,1,176.6,178.656Z" transform="translate(-156.354 -156.905)" fill="#fff"/>
</svg>
