<svg width="513" height="385" viewBox="0 0 513 385" fill="none" xmlns="http://www.w3.org/2000/svg">
<rect width="513" height="385" fill="white"/>
<g clip-path="url(#clip0_481_103)">
<path d="M496.152 208.595C494.415 209.598 492.514 210.082 490.63 210.082C488.702 210.073 486.801 209.563 485.133 208.595C486.801 207.636 488.702 207.117 490.63 207.117C492.557 207.117 494.415 207.593 496.152 208.595Z" fill="#CD2B1F"/>
<path d="M497.626 214.117C497.626 216.045 497.116 217.946 496.157 219.623C495.189 217.946 494.688 216.045 494.688 214.117C494.688 212.242 495.154 210.332 496.157 208.595C497.168 210.332 497.643 212.242 497.635 214.117H497.626Z" fill="#CD2B1F"/>
<path d="M507.176 208.595C505.5 209.563 503.598 210.073 501.662 210.082C499.787 210.082 497.894 209.598 496.148 208.595C497.894 207.593 499.787 207.117 501.662 207.117C503.538 207.117 505.5 207.636 507.176 208.595Z" fill="#CD2B1F"/>
<path d="M497.627 203.081C497.627 204.957 497.16 206.858 496.149 208.596C495.146 206.858 494.671 204.957 494.68 203.081C494.68 201.145 495.181 199.244 496.149 197.567C497.108 199.244 497.618 201.145 497.618 203.081H497.627Z" fill="#CD2B1F"/>
<path d="M207.188 243.382C207.188 239.985 207.931 236.822 209.426 233.91C210.921 230.997 212.831 228.482 215.156 226.365C217.481 224.247 220.082 222.597 222.969 221.421C225.847 220.246 228.682 219.649 231.456 219.649C234.23 219.649 237.056 220.237 239.943 221.421C242.821 222.605 245.422 224.247 247.756 226.365C250.081 228.482 251.991 230.997 253.486 233.91C254.981 236.822 255.724 239.985 255.724 243.382C255.724 246.779 255.033 249.717 253.642 252.595C252.25 255.473 250.427 257.997 248.171 260.14C245.915 262.292 243.331 263.995 240.41 265.239C237.497 266.492 234.507 267.115 231.456 267.115C228.405 267.115 225.415 266.492 222.502 265.239C219.59 263.986 216.997 262.292 214.741 260.14C212.485 257.988 210.662 255.473 209.279 252.595C207.888 249.717 207.196 246.64 207.196 243.382H207.188ZM217.593 243.382C217.593 248.308 217.973 252.232 218.743 255.145C219.503 258.057 220.514 260.296 221.759 261.86C223.012 263.424 224.464 264.444 226.132 264.928C227.8 265.412 229.572 265.654 231.439 265.654C233.305 265.654 235.086 265.412 236.745 264.928C238.413 264.444 239.865 263.416 241.118 261.86C242.372 260.296 243.374 258.057 244.135 255.145C244.895 252.232 245.284 248.308 245.284 243.382C245.284 239.216 245.008 235.733 244.454 232.916C243.901 230.107 243.046 227.817 241.905 226.045C240.764 224.273 239.321 223.011 237.584 222.242C235.846 221.482 233.798 221.093 231.439 221.093C229.079 221.093 227.031 221.473 225.294 222.242C223.557 223.003 222.122 224.273 220.972 226.045C219.823 227.817 218.976 230.107 218.423 232.916C217.87 235.725 217.593 239.216 217.593 243.382Z" fill="#CD2B1F"/>
<path d="M438.938 243.382C438.938 239.985 439.681 236.822 441.176 233.91C442.671 230.997 444.572 228.482 446.906 226.365C449.231 224.247 451.832 222.597 454.719 221.421C457.597 220.246 460.432 219.649 463.206 219.649C465.98 219.649 468.815 220.237 471.693 221.421C474.571 222.605 477.172 224.247 479.506 226.365C481.831 228.482 483.741 230.997 485.236 233.91C486.731 236.822 487.474 239.985 487.474 243.382C487.474 246.779 486.783 249.717 485.392 252.595C484 255.473 482.177 257.997 479.921 260.14C477.665 262.292 475.081 263.995 472.16 265.239C469.247 266.492 466.257 267.115 463.206 267.115C460.155 267.115 457.165 266.492 454.252 265.239C451.34 263.986 448.747 262.292 446.491 260.14C444.235 257.988 442.412 255.473 441.029 252.595C439.638 249.717 438.946 246.64 438.946 243.382H438.938ZM449.352 243.382C449.352 248.308 449.732 252.232 450.501 255.145C451.262 258.057 452.273 260.296 453.518 261.86C454.771 263.424 456.223 264.444 457.891 264.928C459.559 265.412 461.33 265.654 463.197 265.654C465.064 265.654 466.844 265.412 468.504 264.928C470.172 264.444 471.624 263.416 472.877 261.86C474.13 260.296 475.133 258.057 475.893 255.145C476.654 252.232 477.043 248.308 477.043 243.382C477.043 239.216 476.766 235.733 476.213 232.916C475.66 230.107 474.804 227.817 473.664 226.045C472.523 224.273 471.079 223.011 469.342 222.242C467.605 221.482 465.557 221.093 463.197 221.093C460.838 221.093 458.79 221.473 457.052 222.242C455.315 223.003 453.881 224.273 452.731 226.045C451.582 227.817 450.735 230.107 450.182 232.916C449.628 235.725 449.352 239.216 449.352 243.382Z" fill="#CD2B1F"/>
<path d="M152.938 264.209H160.958V192.052H152.938V190.592H169.912V240.364H171.061L191.777 222.457H184.388V220.996H200.524V222.457H194.275L178.036 236.406L201.042 264.209H205.519V265.67H182.089V264.209H189.478L171.052 241.825H169.903V264.209H175.633V265.67H152.938V264.209Z" fill="#CD2B1F"/>
<path d="M261 264.21H269.02V222.458H261V220.997H277.767V231.93H277.974C279.435 227.764 281.535 224.714 284.275 222.769C287.014 220.824 290.333 219.856 294.214 219.856C297.688 219.856 300.756 220.617 303.427 222.147C306.097 223.676 307.852 226.209 308.681 229.744H308.889C309.373 228.49 310.03 227.28 310.868 226.096C311.698 224.912 312.743 223.858 313.988 222.925C315.232 221.991 316.71 221.239 318.413 220.686C320.115 220.133 322.043 219.856 324.195 219.856C334.324 219.856 339.397 225.025 339.397 235.37V264.21H347.417V265.671H322.432V264.21H330.452V228.81C330.452 226.451 329.812 224.61 328.525 223.296C327.237 221.983 325.483 221.317 323.27 221.317C321.533 221.317 319.796 221.645 318.067 222.302C316.33 222.959 314.766 223.953 313.383 225.267C311.991 226.589 310.868 228.283 309.995 230.366C309.131 232.449 308.69 234.877 308.69 237.652V264.202H316.71V265.662H291.725V264.202H299.745V230.262C299.745 227.211 299.123 224.956 297.869 223.495C296.616 222.034 294.957 221.308 292.874 221.308C291.413 221.308 289.814 221.671 288.086 222.397C286.349 223.123 284.733 224.273 283.246 225.837C281.751 227.401 280.506 229.432 279.495 231.93C278.484 234.428 277.983 237.487 277.983 241.091V264.21H286.003V265.671H261.017V264.21H261Z" fill="#CD2B1F"/>
<path d="M399.267 264.522C398.368 265.213 397.288 265.827 396.044 266.345C394.799 266.864 393.269 267.123 391.463 267.123C388.127 267.123 385.716 266.414 384.229 264.988C382.734 263.562 381.714 261.566 381.161 258.999H380.954C380.677 259.621 380.297 260.408 379.813 261.341C379.329 262.275 378.577 263.182 377.574 264.046C376.563 264.911 375.232 265.645 373.564 266.233C371.896 266.821 369.779 267.114 367.212 267.114C364.299 267.114 361.974 266.786 360.237 266.129C358.5 265.472 357.152 264.651 356.175 263.683C355.207 262.715 354.559 261.618 354.248 260.408C353.937 259.198 353.781 258.066 353.781 257.02C353.781 254.591 354.265 252.647 355.242 251.186C356.21 249.726 357.48 248.567 359.045 247.695C360.609 246.83 362.337 246.113 364.247 245.56C366.157 245.007 368.085 244.41 370.029 243.788C372.32 243.028 374.212 242.362 375.699 241.809C377.194 241.256 378.352 240.582 379.191 239.778C380.02 238.983 380.591 237.972 380.91 236.762C381.222 235.552 381.377 233.901 381.377 231.818C381.377 230.15 381.273 228.664 381.066 227.341C380.859 226.028 380.478 224.895 379.916 223.953C379.355 223.011 378.56 222.303 377.523 221.819C376.477 221.335 375.094 221.093 373.357 221.093C371.066 221.093 369.174 221.49 367.687 222.294C366.192 223.089 365.449 224.394 365.449 226.2C365.449 227.384 365.553 228.543 365.76 229.692C365.967 230.841 366.071 231.688 366.071 232.242C366.071 233.218 365.725 234.031 365.025 234.687C364.334 235.344 363.323 235.673 362.009 235.673C359.719 235.673 358.293 235.258 357.74 234.419C357.186 233.581 356.91 232.509 356.91 231.196C356.91 229.666 357.256 228.214 357.947 226.823C358.638 225.431 359.667 224.204 361.015 223.124C362.372 222.052 364.066 221.196 366.114 220.574C368.163 219.952 370.505 219.641 373.141 219.641C376.33 219.641 379.009 220.038 381.161 220.842C383.313 221.637 385.05 222.717 386.364 224.066C387.678 225.423 388.62 226.944 389.173 228.646C389.726 230.349 390.002 232.138 390.002 234.005V259.932C390.002 261.946 390.314 263.303 390.936 263.995C391.558 264.686 392.466 265.04 393.641 265.04C394.402 265.04 395.205 264.902 396.035 264.625C396.865 264.349 397.668 263.934 398.429 263.372L399.259 264.522H399.267ZM381.049 240.158H380.841C380.703 241.057 379.554 241.964 377.41 242.863L369.597 245.983C367.376 246.882 365.673 248.153 364.498 249.786C363.314 251.42 362.726 253.451 362.726 255.879C362.726 256.916 362.83 257.997 363.037 259.103C363.245 260.218 363.625 261.203 364.178 262.067C364.731 262.931 365.518 263.649 366.52 264.202C367.523 264.755 368.828 265.032 370.427 265.032C372.717 265.032 374.575 264.548 376.001 263.571C377.427 262.603 378.499 261.384 379.225 259.924C379.951 258.463 380.435 256.89 380.686 255.188C380.928 253.485 381.049 251.947 381.049 250.555V240.141V240.158Z" fill="#CD2B1F"/>
<path d="M400.734 220.996H408.755V207.566C409.308 207.773 409.826 207.946 410.319 208.084C410.803 208.223 411.633 208.292 412.817 208.292C413.862 208.292 414.761 208.171 415.522 207.929C416.282 207.687 417.008 207.289 417.708 206.728V220.988H432.496V222.448H417.708V256.492C417.708 258.436 417.899 260.018 418.279 261.228C418.659 262.446 419.169 263.38 419.791 264.037C420.414 264.694 421.096 265.126 421.822 265.342C422.548 265.549 423.266 265.653 423.957 265.653C426.386 265.653 428.348 264.771 429.843 263C431.338 261.228 432.289 259.197 432.703 256.907L434.164 257.425C433.957 258.324 433.645 259.335 433.231 260.441C432.816 261.556 432.168 262.611 431.303 263.613C430.439 264.624 429.307 265.454 427.924 266.111C426.533 266.768 424.795 267.096 422.721 267.096C417.518 267.096 413.888 266.085 411.84 264.08C409.792 262.066 408.772 259.223 408.772 255.541V222.431H400.752V220.971L400.734 220.996Z" fill="#CD2B1F"/>
<path d="M23.5713 157.914C15.8448 157.335 10.642 154.587 8.06647 147.776L9.47521 146.782C12.8804 150.939 15.7929 152.02 22.4391 152.02C27.7543 152.02 34.5733 151.026 39.975 149.531C40.9689 149.28 42.0492 148.865 43.4666 148.865C46.2063 148.865 48.2892 151.19 48.2892 153.351C48.2892 154.768 47.4681 156.263 45.4284 156.514C43.3888 156.756 36.8636 156.574 35.7487 156.583C34.6338 156.592 29.4742 156.661 27.5642 157.015C21.5921 158.458 7.08985 169.884 6.61451 181.258C6.29473 188.811 14.7558 192.018 29.8804 192.018C35.0314 192.018 38.6872 191.603 41.5133 191.188C42.6801 191.024 43.5098 190.773 44.4259 190.522C45.1778 190.272 46.0075 190.021 46.915 190.021H47.1656C50.9079 190.021 53.5352 193.833 53.5352 196.157C53.5352 197.653 53.0339 198.647 50.7955 199.398C48.3842 200.064 42.6542 200.729 33.8473 200.729C14.8163 200.729 5.01562 195.241 5.01562 183.781C5.01562 174.81 10.9617 166.384 23.2947 157.188L23.5886 157.94L23.5713 157.914Z" fill="#CD2B1F"/>
<path d="M113.179 147.621C115.599 148.295 118.217 149.556 120.153 151.302C121.899 152.849 123.835 155.174 123.835 157.309C123.835 158.761 122.832 161.483 120.222 161.768C117.604 161.959 114.268 160.204 109.678 160.602C91.9524 160.809 76.923 172.65 76.8626 184.092C76.828 190.488 77.8478 193.772 98.2874 193.772C103.62 193.772 112.384 191.611 111.796 191.75C111.208 191.888 115.771 190.782 115.771 190.782C115.771 190.782 118.001 190.203 118.969 190.203C123.619 190.203 125.883 193.53 125.883 195.95C125.883 198.37 124.621 199.442 121.424 199.926C117.068 200.505 109.894 200.703 103.603 200.703H100.215C84.2347 200.513 75.6094 194.887 75.6094 184.723C75.6094 176.781 81.0369 169.123 92.8512 163.22C92.5574 161.475 92.2722 158.96 91.9783 156.151C91.6845 151.207 91.1056 144.915 90.6216 135.521C90.4314 131.649 89.6536 130.966 87.8127 130.577C87.0349 130.482 86.2657 130.387 85.4879 130.387H84.5199L84.131 128.935C85.4879 127.673 87.8127 126.61 89.6536 126.61C91.8832 126.61 93.9142 127.284 96.7231 129.713C99.3418 132.038 99.9209 133.3 99.9209 134.363C99.9209 135.331 99.5319 135.91 98.9529 136.783C98.08 138.045 97.8899 139.108 97.8899 141.337C97.8899 147.344 97.9849 154.414 98.3738 160.515C103.801 158.286 107.967 156.54 111.26 154.993C113.49 153.93 114.553 153.247 114.553 152.573C114.553 151.994 114.259 151.311 113.879 150.732C113.49 150.248 113.006 149.669 112.228 148.986L113.196 147.629L113.179 147.621Z" fill="#CD2B1F"/>
<path d="M71.4844 242.819C71.5362 241.747 71.5794 232.759 71.5794 232.759L71.4844 242.819Z" fill="#CD2B1F"/>
<path d="M70.1151 204.204L69.7434 193.859V165.217L70.2966 154.128C70.4781 148.398 70.6682 144.518 71.0398 140.456C71.2213 137.69 71.9646 135.478 73.6153 133.075C73.6153 133.075 73.624 133.058 73.6326 133.049C74.9204 131.39 75.655 130.284 75.655 128.443C75.655 126.23 73.8055 124.009 71.0398 122.35C65.3098 119.022 58.6636 116.991 55.3362 116.991C51.715 116.991 47.7307 118.409 43.9193 121.434C43.781 121.537 43.7205 121.719 43.7637 121.883L44.3342 124.173C44.386 124.389 44.5934 124.536 44.8181 124.502C45.6219 124.381 46.4343 124.381 47.3936 124.381C48.4999 124.381 49.5975 124.381 50.8853 124.562C50.8939 124.562 50.9025 124.562 50.9198 124.562C55.1547 124.752 56.6326 126.23 57.3672 128.253C58.292 130.837 58.6636 134.536 58.8451 139.704C59.2167 145.062 59.2167 150.239 59.2167 156.332V167.049C59.2167 176.288 59.3982 186.452 59.3982 195.691L59.5797 206.217C59.7612 215.828 59.9514 220.737 60.1329 231.082L59.9859 238.428C59.9859 244.055 59.8822 248.92 59.4674 252.161C58.655 258.505 55.3189 263.734 49.779 265.687C49.2777 265.86 49.4592 266.612 49.9864 266.534C55.1201 265.748 59.5711 264.106 63.2701 261.383C68.447 257.503 71.3078 249.828 71.4892 242.802C71.4892 242.802 71.5843 232.811 71.5843 232.724C71.5843 232.638 70.2879 215.266 70.1064 204.186L70.1151 204.204Z" fill="#CD2B1F"/>
<path d="M51.9082 245.369V245.204C51.8996 245.101 51.8996 245.014 51.891 244.919V244.902C51.891 244.824 51.8823 244.738 51.8823 244.66V244.634C51.8737 244.513 51.865 244.401 51.8564 244.271C51.8564 244.21 51.8477 244.133 51.8391 244.072C51.8391 244.029 51.8391 243.977 51.8305 243.943C51.8218 243.882 51.8218 243.822 51.8132 243.77C51.8045 243.675 51.7959 243.588 51.7872 243.502C51.7786 243.407 51.77 243.32 51.7613 243.225C51.7527 243.182 51.744 243.121 51.7354 243.07C51.7267 242.975 51.7181 242.888 51.7008 242.793C51.6922 242.698 51.6749 242.62 51.6663 242.525C51.649 242.456 51.6403 242.37 51.6317 242.3C51.623 242.24 51.6058 242.171 51.5971 242.11C51.5971 242.076 51.5885 242.05 51.5798 242.015C51.5625 241.911 51.5453 241.816 51.528 241.713C51.502 241.574 51.4761 241.436 51.4415 241.307C51.4156 241.203 51.3983 241.099 51.3638 240.995C51.3465 240.9 51.3205 240.814 51.3033 240.727C51.286 240.658 51.2687 240.589 51.26 240.529C50.6983 238.377 49.834 236.354 48.6846 234.522C48.6241 234.41 48.5463 234.306 48.4858 234.194C48.4426 234.125 48.3821 234.047 48.3388 233.978C48.2783 233.874 48.2092 233.779 48.1487 233.675C48.0709 233.58 48.0104 233.485 47.9499 233.39C47.9499 233.39 47.9471 233.385 47.9413 233.373C47.8981 233.321 47.8462 233.252 47.8116 233.2C47.7857 233.165 47.7598 233.131 47.7252 233.079C47.6734 233.018 47.6215 232.94 47.5697 232.871C47.5178 232.811 47.4573 232.733 47.4054 232.664C47.3882 232.629 47.3536 232.603 47.3277 232.56H47.319L47.3104 232.543C47.3017 232.526 47.2931 232.517 47.2758 232.508C47.2499 232.474 47.2239 232.439 47.1894 232.396C47.1807 232.379 47.1634 232.361 47.1462 232.344C47.1289 232.31 47.103 232.284 47.0857 232.249C47.0597 232.214 47.0338 232.189 46.9992 232.145C46.9387 232.068 46.861 231.99 46.8005 231.912C46.7832 231.895 46.7745 231.877 46.7572 231.851C46.7572 231.851 46.7486 231.852 46.7486 231.843C46.2819 231.298 45.7806 230.771 45.2621 230.27C45.1757 230.192 45.0892 230.106 45.0028 230.028C44.9942 230.019 44.9855 230.011 44.9769 230.011C44.9596 229.993 44.9509 229.976 44.9337 229.959C44.8732 229.907 44.804 229.838 44.7435 229.786C44.7176 229.769 44.6917 229.743 44.6657 229.725C44.6225 229.691 44.5793 229.656 44.5361 229.613C44.4756 229.553 44.4065 229.492 44.3373 229.44C44.2941 229.397 44.2422 229.362 44.199 229.319C44.1385 229.259 44.0608 229.198 44.0003 229.146C43.9916 229.146 43.9916 229.138 43.983 229.138C43.8965 229.069 43.8188 228.999 43.7323 228.93C43.6373 228.861 43.5422 228.783 43.4471 228.714C43.4385 228.706 43.4212 228.697 43.4126 228.688C43.2743 228.585 43.136 228.481 42.9977 228.377C42.9545 228.343 42.9026 228.308 42.8508 228.265C42.773 228.213 42.7039 228.152 42.6261 228.109C42.4964 228.014 42.3668 227.928 42.2372 227.841C42.1594 227.789 42.0902 227.738 42.0125 227.694C41.9692 227.668 41.926 227.643 41.8915 227.617C41.831 227.582 41.7705 227.547 41.7186 227.504C41.7013 227.487 41.6754 227.478 41.6408 227.461C41.5544 227.409 41.468 227.349 41.3815 227.297C41.2951 227.254 41.226 227.202 41.1482 227.159C41.0877 227.124 41.0186 227.089 40.9581 227.046C39.2727 226.078 37.4492 225.326 35.5219 224.825C35.4441 224.808 35.3749 224.79 35.2971 224.773C35.1761 224.747 35.0552 224.713 34.9342 224.678C34.7786 224.644 34.623 224.618 34.4675 224.574C34.3551 224.548 34.2341 224.531 34.1217 224.505C34.0094 224.488 33.9143 224.471 33.802 224.453C33.6983 224.436 33.5945 224.419 33.4908 224.402C33.4303 224.393 33.3612 224.384 33.3007 224.376C33.2748 224.367 33.2575 224.367 33.2316 224.358C33.1451 224.35 33.076 224.341 32.9896 224.324C32.9031 224.315 32.8254 224.306 32.7389 224.298C32.6611 224.289 32.6006 224.281 32.5402 224.272C32.4105 224.263 32.2895 224.246 32.1599 224.237C32.108 224.229 32.0475 224.22 31.9957 224.22C31.9697 224.22 31.9438 224.211 31.9092 224.211C31.8315 224.203 31.771 224.203 31.7018 224.194C31.6067 224.185 31.5117 224.177 31.4166 224.177C31.3734 224.168 31.3302 224.168 31.287 224.168H31.2524C31.1487 224.16 31.0536 224.151 30.9499 224.151C30.6561 224.134 30.3536 224.125 30.0511 224.125H29.5325C29.472 224.134 29.4029 224.134 29.3424 224.134C29.2387 224.134 29.1522 224.142 29.0572 224.142C28.9621 224.142 28.867 224.151 28.772 224.151C28.7633 224.151 28.746 224.151 28.7374 224.16C28.6337 224.16 28.5473 224.168 28.4436 224.168C28.3398 224.177 28.2534 224.185 28.1497 224.194C28.0719 224.194 28.0114 224.203 27.9509 224.211H27.9164C27.9164 224.211 27.8386 224.22 27.7954 224.22C27.7608 224.229 27.7262 224.229 27.683 224.237C27.6052 224.237 27.5361 224.246 27.4583 224.255C27.3978 224.263 27.32 224.272 27.2595 224.281C26.9397 224.315 26.62 224.358 26.2915 224.41C26.1878 224.427 26.0841 224.445 25.9804 224.462C25.894 224.479 25.8162 224.488 25.7384 224.505C25.6866 224.514 25.6261 224.523 25.5742 224.54C25.5137 224.548 25.4532 224.557 25.4014 224.566C25.3495 224.583 25.289 224.592 25.2371 224.6C25.1334 224.626 25.0384 224.644 24.9347 224.669C24.8482 224.687 24.7618 224.704 24.6754 224.721C24.5976 224.739 24.5284 224.756 24.4507 224.773C24.3556 224.799 24.2692 224.825 24.1655 224.842C22.3937 225.318 20.6911 226.009 19.1182 226.891C19.0231 226.934 18.9453 226.986 18.8589 227.038C18.712 227.115 18.5737 227.202 18.4268 227.28C18.3317 227.34 18.2366 227.401 18.1329 227.461C18.1329 227.47 18.1243 227.47 18.1156 227.478C18.0378 227.522 17.9687 227.573 17.8909 227.617C17.7786 227.677 17.6835 227.755 17.5798 227.824C17.4588 227.893 17.3464 227.98 17.2427 228.049C17.2254 228.066 17.2082 228.075 17.1995 228.083C17.1217 228.127 17.0526 228.187 16.9748 228.239C16.923 228.273 16.8625 228.317 16.8106 228.36C16.7587 228.403 16.6982 228.438 16.6464 228.49C16.6032 228.524 16.5427 228.559 16.4995 228.602C16.4562 228.645 16.4044 228.671 16.3612 228.706C16.2834 228.766 16.2056 228.827 16.1278 228.887H16.1192C16.1192 228.887 16.0933 228.913 16.0846 228.93C16.0068 228.982 15.9377 229.043 15.8599 229.095C15.7994 229.155 15.7216 229.216 15.6525 229.276C15.592 229.328 15.5228 229.388 15.471 229.44C15.4191 229.483 15.35 229.535 15.3068 229.578C14.624 230.183 13.9845 230.806 13.3882 231.48C13.3795 231.489 13.3795 231.497 13.3709 231.497C13.3449 231.532 13.319 231.558 13.2844 231.592C13.2067 231.67 13.1462 231.756 13.077 231.843C13.0252 231.903 12.956 231.972 12.9042 232.042C12.8264 232.137 12.7572 232.223 12.6708 232.318C12.619 232.387 12.5585 232.465 12.5066 232.534C12.4461 232.612 12.3683 232.707 12.3078 232.785C12.2041 232.932 12.1004 233.07 11.9967 233.2C11.9621 233.252 11.9189 233.312 11.8843 233.364C11.8238 233.459 11.7547 233.545 11.6942 233.641C11.6769 233.666 11.6596 233.692 11.6423 233.71C11.6078 233.77 11.5646 233.831 11.5214 233.891C11.4868 233.952 11.4436 234.012 11.4004 234.073C11.3485 234.15 11.288 234.237 11.2448 234.323C10.3027 235.793 9.55084 237.365 8.99771 239.042C8.97178 239.103 8.9545 239.172 8.93721 239.232C8.91128 239.301 8.88536 239.388 8.85943 239.457C8.82486 239.561 8.79893 239.656 8.76436 239.751C8.73843 239.855 8.7125 239.95 8.67793 240.053C8.63472 240.192 8.59151 240.33 8.55694 240.46C8.53965 240.537 8.52237 240.615 8.50508 240.693C8.47915 240.814 8.45323 240.926 8.41865 241.047C8.39273 241.16 8.3668 241.272 8.33223 241.384V241.41C8.32359 241.453 8.31494 241.488 8.3063 241.54C8.29766 241.557 8.29766 241.583 8.29766 241.6C8.28037 241.67 8.26309 241.756 8.25444 241.825C8.23716 241.903 8.21987 241.981 8.21123 242.058C8.19395 242.162 8.17666 242.266 8.15938 242.378C8.15073 242.404 8.15073 242.439 8.14209 242.473C8.13345 242.534 8.12481 242.594 8.11616 242.655C8.10752 242.707 8.09888 242.776 8.09024 242.836V242.871C8.06431 243.044 8.04702 243.217 8.01245 243.398C8.00381 243.536 7.98652 243.683 7.96924 243.83V243.873C7.9606 243.934 7.9606 244.012 7.95195 244.072C7.95195 244.133 7.94331 244.21 7.93467 244.271C7.93467 244.331 7.92603 244.409 7.92603 244.47C7.91738 244.53 7.91738 244.608 7.91738 244.668C7.90874 244.729 7.90874 244.798 7.9001 244.867V244.98C7.9001 245.057 7.89146 245.135 7.89146 245.204C7.89146 245.265 7.89146 245.325 7.88281 245.377V246.293C7.88281 246.345 7.88281 246.414 7.89146 246.475V246.639C7.9001 246.734 7.9001 246.821 7.9001 246.924C7.90874 246.924 7.90874 246.933 7.90874 246.933C7.90874 247.011 7.90874 247.097 7.91738 247.175V247.201C7.92603 247.33 7.93467 247.443 7.94331 247.564C7.94331 247.633 7.95195 247.702 7.9606 247.771C7.9606 247.806 7.9606 247.849 7.96924 247.901C7.96924 247.953 7.97788 248.013 7.98652 248.074C7.99517 248.169 8.00381 248.255 8.01245 248.342C8.02109 248.437 8.02974 248.523 8.03838 248.618C8.04702 248.661 8.05566 248.722 8.05566 248.765C8.07295 248.86 8.08159 248.955 8.09888 249.05C8.10752 249.145 8.12481 249.232 8.13345 249.336C8.15073 249.396 8.15938 249.474 8.16802 249.543C8.17666 249.595 8.1853 249.664 8.20259 249.716C8.20259 249.759 8.21123 249.811 8.21987 249.854C8.23716 249.949 8.25444 250.027 8.27173 250.113L8.32359 250.416C8.32359 250.416 8.32359 250.424 8.33223 250.433C8.34951 250.545 8.37544 250.649 8.41001 250.762C8.4273 250.839 8.44458 250.926 8.46187 251.004C8.49644 251.142 8.52237 251.28 8.56558 251.41C9.15328 253.64 10.0867 255.731 11.3053 257.624C11.3485 257.702 11.409 257.788 11.4609 257.866C11.5214 257.969 11.5905 258.056 11.651 258.16C11.7115 258.237 11.772 258.324 11.8238 258.402C11.8671 258.462 11.9103 258.531 11.9535 258.583C11.9881 258.635 12.0399 258.695 12.0745 258.747C12.2041 258.92 12.3338 259.093 12.472 259.266C12.4807 259.275 12.4893 259.283 12.4893 259.292C12.5671 259.396 12.6449 259.482 12.7227 259.586C12.7832 259.655 12.8523 259.741 12.9128 259.81C12.9474 259.854 12.9906 259.905 13.0252 259.949C13.0425 259.966 13.0597 259.983 13.077 260.009C13.1202 260.061 13.1807 260.121 13.2239 260.173C13.2672 260.225 13.3104 260.277 13.3536 260.329C13.3709 260.346 13.3882 260.363 13.4054 260.381C13.4487 260.433 13.5092 260.502 13.561 260.554C13.5869 260.588 13.6215 260.614 13.656 260.657C13.6647 260.675 13.682 260.683 13.6993 260.701C14.1487 261.193 14.624 261.66 15.1166 262.092C15.1685 262.144 15.229 262.196 15.2895 262.239C15.3241 262.282 15.3759 262.317 15.4191 262.36C15.4796 262.42 15.5574 262.481 15.6266 262.541C15.6525 262.559 15.6784 262.585 15.713 262.611C15.7562 262.645 15.8081 262.68 15.8513 262.723C15.9377 262.783 16.0155 262.853 16.1019 262.922C16.1538 262.965 16.2229 263.017 16.2834 263.069C16.3353 263.112 16.3958 263.146 16.4562 263.198C16.4735 263.216 16.4908 263.233 16.5081 263.241C16.5686 263.285 16.6291 263.337 16.681 263.371C16.8279 263.483 16.9748 263.587 17.1217 263.7H17.1304C17.1822 263.743 17.2427 263.777 17.2946 263.821C17.3292 263.846 17.3724 263.872 17.4069 263.898C17.4588 263.924 17.5106 263.959 17.5539 264.002H17.5625C17.6489 264.054 17.7267 264.114 17.8131 264.166C17.9082 264.227 18.0033 264.296 18.107 264.356C18.2107 264.408 18.2971 264.477 18.4008 264.529C18.5045 264.59 18.591 264.65 18.6947 264.711H18.7033C18.7033 264.711 18.7465 264.737 18.7811 264.754C19.9651 265.445 21.227 266.016 22.5406 266.474C22.6011 266.5 22.6703 266.517 22.7308 266.534C22.8086 266.56 22.8777 266.586 22.9641 266.612C22.9987 266.621 23.0419 266.638 23.0765 266.647C23.1629 266.673 23.2493 266.699 23.3444 266.724C23.4049 266.75 23.4741 266.768 23.5432 266.785C23.621 266.811 23.6988 266.828 23.7852 266.854C23.9148 266.889 24.0445 266.923 24.1741 266.966C24.2519 266.984 24.3124 267.001 24.3729 267.01C24.4334 267.027 24.5112 267.044 24.5803 267.062C24.6581 267.079 24.7359 267.105 24.8223 267.122C24.9001 267.139 24.9779 267.157 25.0643 267.174L25.3236 267.226C25.4359 267.243 25.5569 267.269 25.6693 267.286C25.773 267.312 25.8767 267.329 25.9891 267.347C26.0928 267.364 26.1878 267.381 26.3002 267.399L26.4903 267.424C26.4903 267.424 26.5335 267.433 26.5681 267.433C26.6459 267.45 26.7237 267.459 26.8101 267.468C26.8965 267.476 26.9743 267.494 27.0521 267.502C27.1385 267.511 27.2163 267.52 27.3027 267.528C27.3892 267.537 27.4756 267.545 27.5706 267.554C27.6139 267.563 27.6657 267.563 27.7003 267.571C27.7435 267.571 27.7867 267.571 27.8213 267.58C27.8731 267.58 27.9423 267.589 27.9941 267.597C28.046 267.597 28.1151 267.606 28.167 267.606C28.2275 267.615 28.288 267.615 28.3398 267.623C28.4003 267.623 28.4608 267.623 28.5127 267.632C28.5991 267.632 28.6769 267.641 28.7547 267.641H28.7806C28.867 267.649 28.9448 267.649 29.0399 267.658H29.1609C29.2127 267.658 29.2732 267.666 29.3337 267.666H30.4659C30.4659 267.666 30.5091 267.666 30.5351 267.658H30.7425C30.8376 267.649 30.9153 267.649 31.0104 267.641H31.0623C31.14 267.641 31.2178 267.632 31.2956 267.632C31.3734 267.623 31.4425 267.623 31.503 267.615C31.5462 267.615 31.6067 267.606 31.65 267.606C31.6586 267.606 31.6759 267.606 31.6845 267.597C31.745 267.597 31.8055 267.589 31.8574 267.589C31.8833 267.589 31.9092 267.58 31.9438 267.58C31.9784 267.58 32.0216 267.571 32.0562 267.571C32.1167 267.563 32.1772 267.563 32.2377 267.554C32.2982 267.545 32.3587 267.545 32.4192 267.537C32.5142 267.528 32.6006 267.511 32.6957 267.502C32.7908 267.494 32.8772 267.485 32.9723 267.468C33.0674 267.459 33.1538 267.442 33.2488 267.433C33.3353 267.416 33.4217 267.407 33.5081 267.39C33.6032 267.381 33.6983 267.364 33.7933 267.347C33.9057 267.329 34.018 267.312 34.1131 267.286C34.2341 267.269 34.3551 267.243 34.4588 267.226H34.4675C34.5798 267.2 34.7008 267.174 34.8045 267.148C34.8909 267.131 34.9601 267.113 35.0465 267.096C35.1156 267.079 35.1934 267.062 35.2712 267.044C35.349 267.027 35.4095 267.01 35.4786 266.992C35.5651 266.975 35.6428 266.949 35.7293 266.932C35.7725 266.923 35.8243 266.906 35.8676 266.897C35.9281 266.88 35.9972 266.863 36.0577 266.845C36.1182 266.828 36.196 266.811 36.2565 266.785C36.317 266.768 36.3948 266.75 36.4553 266.733C37.6911 266.353 38.8752 265.869 40.0074 265.281C40.0938 265.238 40.1716 265.186 40.258 265.143C40.3099 265.117 40.379 265.082 40.4309 265.048C40.5086 265.013 40.5691 264.979 40.6296 264.935C40.6901 264.901 40.7593 264.866 40.8284 264.823C40.9062 264.78 40.9753 264.728 41.0531 264.693C41.1568 264.633 41.2433 264.572 41.347 264.521C41.4248 264.477 41.4939 264.426 41.5717 264.382C41.6235 264.348 41.684 264.313 41.7359 264.279C41.7618 264.253 41.7964 264.235 41.831 264.218C41.8828 264.184 41.9347 264.158 41.9865 264.114C42.1335 264.011 42.2804 263.924 42.4273 263.821C42.5137 263.76 42.5915 263.7 42.6779 263.648C42.7384 263.604 42.7989 263.553 42.8594 263.509C42.9286 263.458 42.9977 263.406 43.0669 263.354C43.1101 263.319 43.1619 263.293 43.2051 263.25C43.2224 263.233 43.2397 263.224 43.2483 263.207C43.3002 263.172 43.3521 263.138 43.3953 263.095C43.4298 263.069 43.4731 263.051 43.499 263.025C43.5336 262.999 43.5595 262.974 43.6027 262.948C43.6459 262.913 43.7064 262.878 43.7496 262.827C43.8015 262.792 43.8533 262.749 43.8965 262.706C43.9225 262.688 43.9398 262.671 43.957 262.654C44.0608 262.585 44.1472 262.498 44.2422 262.42C44.2682 262.403 44.2855 262.386 44.3027 262.369C44.3546 262.325 44.4151 262.273 44.467 262.23C44.4756 262.222 44.4842 262.213 44.4929 262.204C44.4929 262.204 44.5015 262.204 44.5015 262.196C45.4695 261.349 46.3597 260.424 47.1634 259.421C47.1807 259.396 47.198 259.37 47.2153 259.344C47.2412 259.318 47.2585 259.292 47.2844 259.249C47.2931 259.249 47.2931 259.24 47.2931 259.24C47.3536 259.162 47.4227 259.076 47.4832 258.981C47.5437 258.912 47.6042 258.825 47.6647 258.747C47.7166 258.678 47.7684 258.609 47.8116 258.54C47.8462 258.497 47.8894 258.436 47.924 258.384C47.9759 258.324 48.0277 258.246 48.0796 258.177C48.0969 258.142 48.1141 258.116 48.1401 258.073C48.1919 257.995 48.2524 257.909 48.3043 257.831C48.3907 257.702 48.4685 257.563 48.5549 257.442C48.5895 257.382 48.6327 257.321 48.6673 257.269C48.6759 257.243 48.6932 257.226 48.7018 257.2C48.7278 257.166 48.7537 257.123 48.7796 257.079C48.8055 257.045 48.8228 257.01 48.8574 256.958C48.892 256.906 48.9179 256.855 48.9525 256.803H48.9611C48.987 256.742 49.0216 256.682 49.0562 256.63C49.0994 256.552 49.1513 256.466 49.1945 256.388C49.2377 256.319 49.2809 256.232 49.3241 256.155C49.3241 256.155 49.3327 256.137 49.3327 256.129C49.3846 256.025 49.4451 255.93 49.497 255.826C49.5142 255.783 49.5402 255.731 49.5575 255.688C49.592 255.627 49.618 255.558 49.6612 255.498C49.6784 255.454 49.7044 255.403 49.7217 255.359C49.7476 255.308 49.7735 255.238 49.8081 255.178C49.8254 255.143 49.8427 255.109 49.8599 255.066C49.8859 255.014 49.9118 254.953 49.9377 254.901L49.9896 254.798C50.0069 254.754 50.0242 254.72 50.0328 254.677C50.0501 254.633 50.0674 254.599 50.0847 254.556C50.0933 254.547 50.0933 254.538 50.0933 254.53C50.1451 254.409 50.197 254.296 50.2489 254.175C50.2921 254.063 50.3439 253.951 50.3871 253.83C50.4217 253.752 50.4476 253.665 50.4822 253.588C50.5168 253.51 50.5427 253.423 50.5773 253.346L50.6291 253.207C50.6291 253.207 50.6378 253.173 50.6464 253.164C50.6551 253.138 50.6551 253.121 50.6637 253.104C50.7156 252.939 50.7847 252.775 50.8279 252.611C50.8625 252.516 50.8884 252.43 50.923 252.326C50.9489 252.248 50.9748 252.162 51.0094 252.075C51.0353 251.971 51.0699 251.868 51.1045 251.755C51.1304 251.643 51.1563 251.548 51.1909 251.436C51.2168 251.341 51.2428 251.246 51.2773 251.142C51.286 251.107 51.2946 251.073 51.3033 251.029C51.3205 250.926 51.3465 250.839 51.3638 250.736C51.3897 250.623 51.407 250.528 51.4415 250.424C51.4588 250.347 51.4675 250.26 51.4848 250.182C51.502 250.113 51.5193 250.027 51.528 249.958C51.5453 249.88 51.5539 249.802 51.5712 249.724C51.5885 249.621 51.6058 249.517 51.623 249.413C51.623 249.379 51.6317 249.344 51.6403 249.301C51.649 249.24 51.6576 249.18 51.6663 249.128C51.6749 249.068 51.6835 249.007 51.6922 248.947V248.912C51.7181 248.739 51.7354 248.558 51.7527 248.385C51.77 248.238 51.7872 248.1 51.7959 247.953C51.8045 247.935 51.8045 247.918 51.8045 247.909C51.8132 247.84 51.8132 247.771 51.8218 247.711C51.8218 247.642 51.8305 247.572 51.8391 247.512C51.8391 247.443 51.8477 247.374 51.8477 247.313C51.8564 247.253 51.8564 247.175 51.8564 247.114C51.865 247.054 51.865 246.976 51.865 246.916C51.8737 246.89 51.8737 246.872 51.8737 246.846V246.803C51.8737 246.734 51.8823 246.656 51.8823 246.579V246.362C51.8823 246.362 51.891 246.328 51.891 246.311V245.498C51.891 245.438 51.8823 245.369 51.8823 245.317L51.9082 245.369Z" fill="#CD2B1F"/>
<path d="M35.384 247.651C33.5086 247.651 31.6159 247.175 29.8701 246.173C30.8812 247.91 31.3566 249.811 31.3479 251.687C31.3479 253.614 30.8294 255.524 29.8787 257.192H29.8701C28.9021 255.515 28.4008 253.614 28.4008 251.687C28.3922 249.811 28.8675 247.91 29.8701 246.173C28.1329 247.175 26.2315 247.651 24.3561 247.651C22.4288 247.642 20.5188 247.132 18.8594 246.173C20.5274 245.205 22.4288 244.695 24.3561 244.695C26.2834 244.695 28.1329 245.17 29.8701 246.173C28.8675 244.435 28.3922 242.534 28.4008 240.659C28.4008 238.731 28.9107 236.821 29.8701 235.153H29.8787C30.838 236.83 31.3479 238.731 31.3479 240.659C31.3566 242.534 30.8812 244.435 29.8701 246.173C31.6159 245.17 33.5086 244.695 35.384 244.695C37.2595 244.695 39.2214 245.213 40.8894 246.173C39.2127 247.141 37.3113 247.642 35.384 247.651Z" fill="#CD2B1F"/>
<path d="M29.8623 246.172C28.1251 247.175 26.2237 247.65 24.3483 247.65C22.421 247.641 20.5109 247.132 18.8516 246.172C20.5196 245.204 22.421 244.694 24.3483 244.694C26.2756 244.694 28.1251 245.17 29.8623 246.172Z" fill="white"/>
<path d="M31.3535 251.687C31.3535 253.614 30.8349 255.524 29.8843 257.192H29.8756C28.9076 255.516 28.4064 253.614 28.4064 251.687C28.3977 249.811 28.8731 247.91 29.8756 246.173C30.8868 247.91 31.3621 249.811 31.3535 251.687Z" fill="white"/>
<path d="M40.8943 246.172C39.2177 247.14 37.3163 247.641 35.389 247.65C33.5135 247.65 31.6208 247.175 29.875 246.172C31.6208 245.17 33.5135 244.694 35.389 244.694C37.2644 244.694 39.2263 245.213 40.8943 246.172Z" fill="white"/>
<path d="M31.3535 240.65C31.3621 242.525 30.8868 244.427 29.8756 246.164C28.8731 244.427 28.3977 242.525 28.4064 240.65C28.4064 238.723 28.9163 236.813 29.8756 235.145H29.8843C30.8436 236.821 31.3535 238.723 31.3535 240.65Z" fill="white"/>
<path d="M105.476 245.809C91.674 235.888 82.1325 230.987 76.2209 228.878C75.8407 228.74 75.6073 229.293 75.9703 229.466C81.8732 232.353 91.1813 239.837 97.6461 260.891C99.245 266.094 104.854 267.779 107.965 267.779C112.52 267.779 115.631 264.253 115.631 259.283C115.631 254.314 112.805 251.081 105.476 245.809Z" fill="#CD2B1F"/>
</g>
<defs>
<clipPath id="clip0_481_103">
<rect width="503" height="151.246" fill="white" transform="translate(5 117)"/>
</clipPath>
</defs>
</svg>
