<svg xmlns="http://www.w3.org/2000/svg" width="499.635" height="48.088" viewBox="0 0 499.635 48.088">
  <g id="グループ_110" data-name="グループ 110" transform="translate(-69.5 129)">
    <g id="グループ_102" data-name="グループ 102" transform="translate(0 -0.099)">
      <path id="パス_60" data-name="パス 60" d="M5.3-10.5h.787a2.045,2.045,0,0,0,.787-.131,1.333,1.333,0,0,0,.538-.419L12.4-17.363a1.81,1.81,0,0,1,.656-.556,2.1,2.1,0,0,1,.869-.156h2.9l-6.088,7.513a5.509,5.509,0,0,1-.55.587,2.511,2.511,0,0,1-.563.387,2.484,2.484,0,0,1,.744.425,3.925,3.925,0,0,1,.644.7L17.288,0H14.313a1.846,1.846,0,0,1-.894-.169,1.4,1.4,0,0,1-.494-.494L7.813-7.338a1.515,1.515,0,0,0-.562-.469,2.184,2.184,0,0,0-.888-.144H5.3V0H1.938V-18.087H5.3Zm19.488-2.525a7.028,7.028,0,0,1,2.606.463,5.62,5.62,0,0,1,1.994,1.313,5.81,5.81,0,0,1,1.275,2.075,7.893,7.893,0,0,1,.45,2.737,7.932,7.932,0,0,1-.45,2.75A5.938,5.938,0,0,1,29.388-1.6,5.539,5.539,0,0,1,27.394-.275a7.028,7.028,0,0,1-2.606.463,7.077,7.077,0,0,1-2.612-.463A5.589,5.589,0,0,1,20.169-1.6a5.964,5.964,0,0,1-1.288-2.088,7.833,7.833,0,0,1-.456-2.75,7.8,7.8,0,0,1,.456-2.737,5.835,5.835,0,0,1,1.288-2.075,5.671,5.671,0,0,1,2.006-1.312A7.077,7.077,0,0,1,24.788-13.025Zm0,10.838a2.716,2.716,0,0,0,2.369-1.075,5.39,5.39,0,0,0,.769-3.15,5.452,5.452,0,0,0-.769-3.163,2.7,2.7,0,0,0-2.369-1.087,2.741,2.741,0,0,0-2.4,1.094,5.423,5.423,0,0,0-.775,3.156,5.361,5.361,0,0,0,.775,3.144A2.753,2.753,0,0,0,24.788-2.188ZM34.275,0V-18.575h3.087v7.138a6.534,6.534,0,0,1,1.65-1.15,4.782,4.782,0,0,1,2.112-.437,4.6,4.6,0,0,1,1.863.356,3.68,3.68,0,0,1,1.356,1,4.4,4.4,0,0,1,.825,1.538,6.534,6.534,0,0,1,.281,1.969V0H42.362V-8.163a2.739,2.739,0,0,0-.544-1.819,2.015,2.015,0,0,0-1.631-.644,3.215,3.215,0,0,0-1.5.362,5.376,5.376,0,0,0-1.325.988V0Zm18.25-12.825V0H49.438V-12.825Zm.463-3.737a1.759,1.759,0,0,1-.163.75,2.061,2.061,0,0,1-.431.613,2.061,2.061,0,0,1-.631.419,1.937,1.937,0,0,1-.775.156,1.862,1.862,0,0,1-.756-.156,2,2,0,0,1-.619-.419,2.025,2.025,0,0,1-.419-.613,1.819,1.819,0,0,1-.156-.75,1.937,1.937,0,0,1,.156-.775,1.984,1.984,0,0,1,.419-.625,2,2,0,0,1,.619-.419,1.862,1.862,0,0,1,.756-.156,1.937,1.937,0,0,1,.775.156,2.061,2.061,0,0,1,.631.419,2.016,2.016,0,0,1,.431.625A1.873,1.873,0,0,1,52.988-16.562ZM61.2-13.05a6.824,6.824,0,0,1,1.55.169,5.281,5.281,0,0,1,1.325.494h3.688v1.15a.638.638,0,0,1-.15.45.891.891,0,0,1-.512.225l-1.15.212a3.973,3.973,0,0,1,.194.688,4.087,4.087,0,0,1,.069.762,3.815,3.815,0,0,1-.381,1.719,3.852,3.852,0,0,1-1.05,1.306,4.875,4.875,0,0,1-1.587.831A6.514,6.514,0,0,1,61.2-4.75a7.185,7.185,0,0,1-1.413-.137q-.6.365-.6.818a.6.6,0,0,0,.356.573,2.9,2.9,0,0,0,.938.258,10.313,10.313,0,0,0,1.319.076q.737,0,1.513.063a11.874,11.874,0,0,1,1.513.219,4.43,4.43,0,0,1,1.319.5,2.644,2.644,0,0,1,.938.922,2.838,2.838,0,0,1,.356,1.5,3.537,3.537,0,0,1-.419,1.655,4.444,4.444,0,0,1-1.213,1.43,6.327,6.327,0,0,1-1.944,1.01,8.3,8.3,0,0,1-2.625.383A10.106,10.106,0,0,1,58.7,4.231a5.924,5.924,0,0,1-1.781-.75A3.252,3.252,0,0,1,55.863,2.4a2.535,2.535,0,0,1-.35-1.275,2.181,2.181,0,0,1,.55-1.513,3.768,3.768,0,0,1,1.525-.975,2.127,2.127,0,0,1-.762-.7A2.037,2.037,0,0,1,56.538-3.2a1.908,1.908,0,0,1,.1-.594,2.372,2.372,0,0,1,.306-.606,2.986,2.986,0,0,1,.519-.569A3.58,3.58,0,0,1,58.2-5.45a4.046,4.046,0,0,1-1.531-1.4,3.739,3.739,0,0,1-.556-2.05,3.815,3.815,0,0,1,.381-1.719,3.852,3.852,0,0,1,1.063-1.312,4.846,4.846,0,0,1,1.613-.831A6.857,6.857,0,0,1,61.2-13.05ZM64.588.538a.883.883,0,0,0-.225-.625,1.474,1.474,0,0,0-.612-.377,4.445,4.445,0,0,0-.906-.2,9.025,9.025,0,0,0-1.1-.064h-1.2A5.116,5.116,0,0,1,59.35-.863a2.792,2.792,0,0,0-.844.681,1.4,1.4,0,0,0-.319.906,1.246,1.246,0,0,0,.169.631,1.408,1.408,0,0,0,.537.506,3.193,3.193,0,0,0,.956.331,7.394,7.394,0,0,0,1.438.119,7.186,7.186,0,0,0,1.487-.134,3.53,3.53,0,0,0,1.031-.37,1.573,1.573,0,0,0,.594-.562A1.394,1.394,0,0,0,64.588.538ZM61.2-6.725a2.9,2.9,0,0,0,1-.156,1.962,1.962,0,0,0,.706-.431,1.777,1.777,0,0,0,.425-.662,2.426,2.426,0,0,0,.144-.85,2.01,2.01,0,0,0-.569-1.506,2.35,2.35,0,0,0-1.706-.556,2.35,2.35,0,0,0-1.706.556,2.01,2.01,0,0,0-.569,1.506,2.389,2.389,0,0,0,.144.838,1.836,1.836,0,0,0,.425.669,1.91,1.91,0,0,0,.713.437A2.91,2.91,0,0,0,61.2-6.725ZM80.5,0H79.113a1.494,1.494,0,0,1-.687-.131.845.845,0,0,1-.375-.531l-.275-.913a10.589,10.589,0,0,1-.956.769,5.806,5.806,0,0,1-.969.556,4.941,4.941,0,0,1-1.062.338A6.392,6.392,0,0,1,73.538.2a4.91,4.91,0,0,1-1.5-.219,3.23,3.23,0,0,1-1.181-.658,2.99,2.99,0,0,1-.769-1.091,3.882,3.882,0,0,1-.275-1.517,3,3,0,0,1,.381-1.436A3.594,3.594,0,0,1,71.463-6a8.1,8.1,0,0,1,2.363-.947,15.09,15.09,0,0,1,3.662-.376v-.756A2.866,2.866,0,0,0,76.944-10a1.985,1.985,0,0,0-1.581-.623,3.827,3.827,0,0,0-1.25.175,4.836,4.836,0,0,0-.869.394q-.369.219-.681.394a1.383,1.383,0,0,1-.687.175.893.893,0,0,1-.537-.162,1.279,1.279,0,0,1-.362-.4l-.562-.988a7.626,7.626,0,0,1,5.337-2.025,5.157,5.157,0,0,1,2.006.369,4.265,4.265,0,0,1,1.494,1.025,4.387,4.387,0,0,1,.931,1.569,6.028,6.028,0,0,1,.319,2Zm-6-1.925a4.159,4.159,0,0,0,.875-.086,3.35,3.35,0,0,0,.756-.258,4.03,4.03,0,0,0,.688-.425,6.208,6.208,0,0,0,.669-.6V-5.438a12.536,12.536,0,0,0-2.256.17,5.961,5.961,0,0,0-1.456.434,1.875,1.875,0,0,0-.781.617,1.372,1.372,0,0,0-.231.768,1.355,1.355,0,0,0,.481,1.171A2.075,2.075,0,0,0,74.5-1.925Zm17.4-8.4a.824.824,0,0,1-.263.281.68.68,0,0,1-.35.081,1.1,1.1,0,0,1-.481-.125q-.256-.125-.594-.281a5.438,5.438,0,0,0-.769-.281,3.682,3.682,0,0,0-1.019-.125,2.374,2.374,0,0,0-1.437.387,1.2,1.2,0,0,0-.525,1.012.966.966,0,0,0,.269.694,2.417,2.417,0,0,0,.713.494,6.973,6.973,0,0,0,1.006.381q.563.169,1.15.369t1.15.456a4.01,4.01,0,0,1,1.006.65,3.019,3.019,0,0,1,.713.944,2.994,2.994,0,0,1,.269,1.325A4.257,4.257,0,0,1,92.4-2.356a3.751,3.751,0,0,1-.987,1.35,4.628,4.628,0,0,1-1.606.888A6.93,6.93,0,0,1,87.613.2,6.983,6.983,0,0,1,86.319.081,7.637,7.637,0,0,1,85.106-.25a6.709,6.709,0,0,1-1.075-.5,5.218,5.218,0,0,1-.869-.625l.713-1.175a1.008,1.008,0,0,1,.325-.325.911.911,0,0,1,.475-.113,1,1,0,0,1,.544.163q.256.163.594.35a5.307,5.307,0,0,0,.794.35,3.493,3.493,0,0,0,1.156.162,3,3,0,0,0,.944-.131,2,2,0,0,0,.65-.344,1.291,1.291,0,0,0,.375-.494,1.48,1.48,0,0,0,.119-.581,1.037,1.037,0,0,0-.269-.737,2.352,2.352,0,0,0-.713-.5,6.881,6.881,0,0,0-1.012-.381Q87.288-5.3,86.694-5.5a10.753,10.753,0,0,1-1.162-.469,3.962,3.962,0,0,1-1.013-.681,3.083,3.083,0,0,1-.713-1.013,3.533,3.533,0,0,1-.269-1.45,3.694,3.694,0,0,1,.313-1.5,3.518,3.518,0,0,1,.919-1.244,4.563,4.563,0,0,1,1.513-.85,6.3,6.3,0,0,1,2.094-.319,6.409,6.409,0,0,1,2.412.437,5.449,5.449,0,0,1,1.813,1.15ZM95.963,0V-18.575H99.05v7.138a6.534,6.534,0,0,1,1.65-1.15,4.782,4.782,0,0,1,2.113-.437,4.6,4.6,0,0,1,1.863.356,3.68,3.68,0,0,1,1.356,1,4.4,4.4,0,0,1,.825,1.538,6.534,6.534,0,0,1,.281,1.969V0H104.05V-8.163a2.739,2.739,0,0,0-.544-1.819,2.015,2.015,0,0,0-1.631-.644,3.215,3.215,0,0,0-1.5.362,5.376,5.376,0,0,0-1.325.988V0Zm18.25-12.825V0h-3.088V-12.825Zm.463-3.737a1.759,1.759,0,0,1-.162.75,2.061,2.061,0,0,1-.431.613,2.061,2.061,0,0,1-.631.419,1.937,1.937,0,0,1-.775.156,1.862,1.862,0,0,1-.756-.156,2,2,0,0,1-.619-.419,2.025,2.025,0,0,1-.419-.613,1.819,1.819,0,0,1-.156-.75,1.937,1.937,0,0,1,.156-.775,1.984,1.984,0,0,1,.419-.625,2,2,0,0,1,.619-.419,1.862,1.862,0,0,1,.756-.156,1.937,1.937,0,0,1,.775.156,2.061,2.061,0,0,1,.631.419,2.017,2.017,0,0,1,.431.625A1.873,1.873,0,0,1,114.675-16.562Zm22.263-1.513v2.763H131.5V0h-3.362V-15.312h-5.463v-2.763Zm5.637,5.05a7.028,7.028,0,0,1,2.606.463,5.62,5.62,0,0,1,1.994,1.313,5.81,5.81,0,0,1,1.275,2.075,7.893,7.893,0,0,1,.45,2.737,7.932,7.932,0,0,1-.45,2.75A5.938,5.938,0,0,1,147.175-1.6a5.539,5.539,0,0,1-1.994,1.325,7.028,7.028,0,0,1-2.606.463,7.077,7.077,0,0,1-2.613-.463A5.588,5.588,0,0,1,137.956-1.6a5.964,5.964,0,0,1-1.288-2.088,7.833,7.833,0,0,1-.456-2.75,7.8,7.8,0,0,1,.456-2.737,5.835,5.835,0,0,1,1.288-2.075,5.67,5.67,0,0,1,2.006-1.312A7.077,7.077,0,0,1,142.575-13.025Zm0,10.838a2.716,2.716,0,0,0,2.369-1.075,5.39,5.39,0,0,0,.769-3.15,5.452,5.452,0,0,0-.769-3.163,2.7,2.7,0,0,0-2.369-1.087,2.741,2.741,0,0,0-2.4,1.094,5.423,5.423,0,0,0-.775,3.156,5.361,5.361,0,0,0,.775,3.144A2.753,2.753,0,0,0,142.575-2.188ZM152.063,0V-12.825h1.888a.759.759,0,0,1,.787.563l.2.95a7.3,7.3,0,0,1,.706-.687,4.537,4.537,0,0,1,.788-.538,4.265,4.265,0,0,1,.9-.356,4.007,4.007,0,0,1,1.056-.131,2.994,2.994,0,0,1,1.994.656,3.952,3.952,0,0,1,1.169,1.744,3.913,3.913,0,0,1,.75-1.094,4.1,4.1,0,0,1,.988-.744,4.544,4.544,0,0,1,1.144-.425,5.494,5.494,0,0,1,1.219-.138,5.121,5.121,0,0,1,1.887.325,3.621,3.621,0,0,1,1.387.95,4.187,4.187,0,0,1,.856,1.525,6.642,6.642,0,0,1,.294,2.063V0h-3.088V-8.163a2.743,2.743,0,0,0-.537-1.844,1.973,1.973,0,0,0-1.575-.619,2.351,2.351,0,0,0-.881.162,2.1,2.1,0,0,0-.713.469,2.14,2.14,0,0,0-.481.769,2.99,2.99,0,0,0-.175,1.063V0h-3.1V-8.163a2.793,2.793,0,0,0-.519-1.875,1.935,1.935,0,0,0-1.531-.587,2.472,2.472,0,0,0-1.244.331,4.189,4.189,0,0,0-1.081.906V0Zm27.275-13.025a7.028,7.028,0,0,1,2.606.463,5.62,5.62,0,0,1,1.994,1.313,5.81,5.81,0,0,1,1.275,2.075,7.893,7.893,0,0,1,.45,2.737,7.932,7.932,0,0,1-.45,2.75A5.938,5.938,0,0,1,183.938-1.6a5.539,5.539,0,0,1-1.994,1.325,7.028,7.028,0,0,1-2.606.463,7.077,7.077,0,0,1-2.613-.463A5.588,5.588,0,0,1,174.719-1.6a5.964,5.964,0,0,1-1.288-2.088,7.833,7.833,0,0,1-.456-2.75,7.8,7.8,0,0,1,.456-2.737,5.835,5.835,0,0,1,1.288-2.075,5.67,5.67,0,0,1,2.006-1.312A7.077,7.077,0,0,1,179.338-13.025Zm0,10.838a2.716,2.716,0,0,0,2.369-1.075,5.39,5.39,0,0,0,.769-3.15,5.452,5.452,0,0,0-.769-3.163,2.7,2.7,0,0,0-2.369-1.087,2.741,2.741,0,0,0-2.4,1.094,5.423,5.423,0,0,0-.775,3.156,5.361,5.361,0,0,0,.775,3.144A2.753,2.753,0,0,0,179.338-2.188ZM188.825,0V-12.825h1.813a.972.972,0,0,1,.663.175,1.006,1.006,0,0,1,.25.6l.188,1.55a6.093,6.093,0,0,1,1.613-1.875,3.393,3.393,0,0,1,2.075-.687,2.682,2.682,0,0,1,1.575.438l-.4,2.312a.477.477,0,0,1-.163.319.55.55,0,0,1-.337.094,2.1,2.1,0,0,1-.512-.087,3.43,3.43,0,0,0-.863-.088,2.618,2.618,0,0,0-1.65.531,4.09,4.09,0,0,0-1.162,1.556V0Zm16.438-13.025a7.028,7.028,0,0,1,2.606.463,5.62,5.62,0,0,1,1.994,1.313,5.81,5.81,0,0,1,1.275,2.075,7.893,7.893,0,0,1,.45,2.737,7.932,7.932,0,0,1-.45,2.75A5.938,5.938,0,0,1,209.863-1.6a5.539,5.539,0,0,1-1.994,1.325,7.028,7.028,0,0,1-2.606.463,7.077,7.077,0,0,1-2.613-.463A5.588,5.588,0,0,1,200.644-1.6a5.964,5.964,0,0,1-1.288-2.088,7.833,7.833,0,0,1-.456-2.75,7.8,7.8,0,0,1,.456-2.737,5.835,5.835,0,0,1,1.288-2.075,5.67,5.67,0,0,1,2.006-1.312A7.077,7.077,0,0,1,205.262-13.025Zm0,10.838a2.716,2.716,0,0,0,2.369-1.075,5.39,5.39,0,0,0,.769-3.15,5.452,5.452,0,0,0-.769-3.163,2.7,2.7,0,0,0-2.369-1.087,2.741,2.741,0,0,0-2.4,1.094,5.423,5.423,0,0,0-.775,3.156,5.361,5.361,0,0,0,.775,3.144A2.753,2.753,0,0,0,205.262-2.188Zm12.313-10.638v8.15a2.739,2.739,0,0,0,.544,1.819,2.015,2.015,0,0,0,1.631.644,3.261,3.261,0,0,0,1.5-.356,5.243,5.243,0,0,0,1.325-.981v-9.275h3.087V0h-1.887a.759.759,0,0,1-.788-.562l-.212-1.025a8.942,8.942,0,0,1-.825.731,4.977,4.977,0,0,1-.906.563,5.083,5.083,0,0,1-1.038.363A5.189,5.189,0,0,1,218.812.2a4.553,4.553,0,0,1-1.856-.356A3.718,3.718,0,0,1,215.6-1.163a4.406,4.406,0,0,1-.831-1.544,6.534,6.534,0,0,1-.281-1.969v-8.15Z" transform="translate(67.563 -85.326)" fill="#111"/>
      <path id="パス_59" data-name="パス 59" d="M4.24-5.09V0H1.55V-14.46H6.26a8.252,8.252,0,0,1,2.51.34,4.831,4.831,0,0,1,1.75.95,3.721,3.721,0,0,1,1.02,1.46,5.1,5.1,0,0,1,.33,1.86,5.138,5.138,0,0,1-.35,1.925A4,4,0,0,1,10.47-6.42a4.887,4.887,0,0,1-1.75.98,7.792,7.792,0,0,1-2.46.35Zm0-2.1H6.26a4.053,4.053,0,0,0,1.29-.185,2.4,2.4,0,0,0,.91-.53A2.173,2.173,0,0,0,9-8.745a3.215,3.215,0,0,0,.18-1.1A2.916,2.916,0,0,0,9-10.9a2.076,2.076,0,0,0-.54-.8,2.4,2.4,0,0,0-.91-.505,4.267,4.267,0,0,0-1.29-.175H4.24ZM18.5-10.42a5.623,5.623,0,0,1,2.085.37A4.5,4.5,0,0,1,22.18-9,4.648,4.648,0,0,1,23.2-7.34a6.314,6.314,0,0,1,.36,2.19,6.345,6.345,0,0,1-.36,2.2,4.751,4.751,0,0,1-1.02,1.67A4.431,4.431,0,0,1,20.585-.22,5.623,5.623,0,0,1,18.5.15a5.662,5.662,0,0,1-2.09-.37,4.471,4.471,0,0,1-1.6-1.06,4.771,4.771,0,0,1-1.03-1.67,6.267,6.267,0,0,1-.365-2.2,6.236,6.236,0,0,1,.365-2.19A4.668,4.668,0,0,1,14.805-9a4.537,4.537,0,0,1,1.6-1.05A5.662,5.662,0,0,1,18.5-10.42Zm0,8.67a2.172,2.172,0,0,0,1.9-.86,4.312,4.312,0,0,0,.615-2.52A4.361,4.361,0,0,0,20.4-7.66a2.163,2.163,0,0,0-1.9-.87,2.193,2.193,0,0,0-1.92.875,4.338,4.338,0,0,0-.62,2.525,4.289,4.289,0,0,0,.62,2.515A2.2,2.2,0,0,0,18.5-1.75ZM26.09,0V-10.26h1.45a.777.777,0,0,1,.53.14.805.805,0,0,1,.2.48l.15,1.24a4.875,4.875,0,0,1,1.29-1.5,2.715,2.715,0,0,1,1.66-.55,2.145,2.145,0,0,1,1.26.35l-.32,1.85A.382.382,0,0,1,32.18-8a.44.44,0,0,1-.27.075,1.684,1.684,0,0,1-.41-.07,2.744,2.744,0,0,0-.69-.07,2.1,2.1,0,0,0-1.32.425,3.272,3.272,0,0,0-.93,1.245V0ZM38.23.16A2.7,2.7,0,0,1,36.18-.6a2.9,2.9,0,0,1-.72-2.085V-8.41H34.42a.5.5,0,0,1-.345-.13.5.5,0,0,1-.145-.39v-.98l1.65-.27.52-2.8a.5.5,0,0,1,.185-.31.587.587,0,0,1,.365-.11h1.28v3.23h2.7v1.76h-2.7v5.56a1.09,1.09,0,0,0,.24.75.814.814,0,0,0,.64.27,1.162,1.162,0,0,0,.385-.055A2.119,2.119,0,0,0,39.465-2q.115-.06.205-.115a.343.343,0,0,1,.18-.055.283.283,0,0,1,.18.055.834.834,0,0,1,.15.165l.74,1.2a3.739,3.739,0,0,1-1.24.68A4.615,4.615,0,0,1,38.23.16ZM43.64,0V-8.4l-.89-.14a.946.946,0,0,1-.465-.2.523.523,0,0,1-.175-.42v-1.01h1.53v-.76a4.437,4.437,0,0,1,.265-1.58,3.286,3.286,0,0,1,.76-1.19,3.3,3.3,0,0,1,1.205-.75,4.629,4.629,0,0,1,1.6-.26,4.418,4.418,0,0,1,1.32.19l-.05,1.24a.359.359,0,0,1-.27.36,2.16,2.16,0,0,1-.58.07,2.962,2.962,0,0,0-.785.095,1.321,1.321,0,0,0-.585.33,1.5,1.5,0,0,0-.365.62,3.13,3.13,0,0,0-.125.955v.68H48.7v1.76H46.11V0ZM55.19-10.42a5.623,5.623,0,0,1,2.085.37A4.5,4.5,0,0,1,58.87-9a4.648,4.648,0,0,1,1.02,1.66,6.314,6.314,0,0,1,.36,2.19,6.345,6.345,0,0,1-.36,2.2,4.751,4.751,0,0,1-1.02,1.67,4.431,4.431,0,0,1-1.6,1.06A5.623,5.623,0,0,1,55.19.15,5.662,5.662,0,0,1,53.1-.22a4.471,4.471,0,0,1-1.6-1.06,4.771,4.771,0,0,1-1.03-1.67,6.267,6.267,0,0,1-.365-2.2,6.236,6.236,0,0,1,.365-2.19A4.668,4.668,0,0,1,51.5-9a4.536,4.536,0,0,1,1.6-1.05A5.662,5.662,0,0,1,55.19-10.42Zm0,8.67a2.172,2.172,0,0,0,1.9-.86A4.312,4.312,0,0,0,57.7-5.13a4.361,4.361,0,0,0-.615-2.53,2.163,2.163,0,0,0-1.9-.87,2.193,2.193,0,0,0-1.92.875,4.338,4.338,0,0,0-.62,2.525,4.289,4.289,0,0,0,.62,2.515A2.2,2.2,0,0,0,55.19-1.75ZM65.41-14.86V0H62.94V-14.86Zm6.02,4.6V0H68.96V-10.26Zm.37-2.99a1.407,1.407,0,0,1-.13.6,1.649,1.649,0,0,1-.345.49,1.649,1.649,0,0,1-.5.335,1.55,1.55,0,0,1-.62.125,1.49,1.49,0,0,1-.605-.125,1.6,1.6,0,0,1-.495-.335,1.62,1.62,0,0,1-.335-.49,1.455,1.455,0,0,1-.125-.6,1.549,1.549,0,0,1,.125-.62,1.587,1.587,0,0,1,.335-.5,1.6,1.6,0,0,1,.495-.335,1.49,1.49,0,0,1,.605-.125,1.55,1.55,0,0,1,.62.125,1.649,1.649,0,0,1,.5.335,1.613,1.613,0,0,1,.345.5A1.5,1.5,0,0,1,71.8-13.25Zm7.4,2.83a5.623,5.623,0,0,1,2.085.37A4.5,4.5,0,0,1,82.88-9,4.648,4.648,0,0,1,83.9-7.34a6.314,6.314,0,0,1,.36,2.19,6.345,6.345,0,0,1-.36,2.2,4.751,4.751,0,0,1-1.02,1.67A4.431,4.431,0,0,1,81.285-.22,5.623,5.623,0,0,1,79.2.15a5.662,5.662,0,0,1-2.09-.37A4.471,4.471,0,0,1,75.5-1.28a4.771,4.771,0,0,1-1.03-1.67,6.267,6.267,0,0,1-.365-2.2,6.236,6.236,0,0,1,.365-2.19A4.668,4.668,0,0,1,75.5-9a4.537,4.537,0,0,1,1.605-1.05A5.662,5.662,0,0,1,79.2-10.42Zm0,8.67a2.172,2.172,0,0,0,1.9-.86,4.312,4.312,0,0,0,.615-2.52A4.361,4.361,0,0,0,81.1-7.66a2.163,2.163,0,0,0-1.9-.87,2.193,2.193,0,0,0-1.92.875,4.338,4.338,0,0,0-.62,2.525,4.289,4.289,0,0,0,.62,2.515A2.2,2.2,0,0,0,79.2-1.75Z" transform="translate(67.95 -114.041)" fill="#111"/>
    </g>
    <line id="線_20" data-name="線 20" y2="47.41" transform="translate(313.452 -128.5)" fill="none" stroke="#707070" stroke-width="1"/>
    <path id="パス_61" data-name="パス 61" d="M3.434,17H1.785V4.819H3.434Zm13.9,0a.386.386,0,0,1-.408-.315l-.136-1.045a4.533,4.533,0,0,1-1.262,1.075,3.234,3.234,0,0,1-1.628.4,3.108,3.108,0,0,1-1.343-.285A2.785,2.785,0,0,1,11.526,16a3.988,3.988,0,0,1-.655-1.377,7.089,7.089,0,0,1-.229-1.9,5.941,5.941,0,0,1,.255-1.772,4.319,4.319,0,0,1,.735-1.424,3.372,3.372,0,0,1,2.733-1.292,3.116,3.116,0,0,1,1.351.268,3.241,3.241,0,0,1,1,.752V4.479h1.513V17ZM14.4,15.895a2.437,2.437,0,0,0,1.3-.34,3.737,3.737,0,0,0,1.024-.961V10.429a2.394,2.394,0,0,0-.914-.786,2.637,2.637,0,0,0-1.1-.225,2.179,2.179,0,0,0-1.853.859,4.01,4.01,0,0,0-.646,2.448,6.225,6.225,0,0,0,.144,1.441,2.772,2.772,0,0,0,.425.986,1.67,1.67,0,0,0,.688.565A2.313,2.313,0,0,0,14.4,15.895ZM24.948,8.253a3.844,3.844,0,0,1,1.428.259,3.205,3.205,0,0,1,1.131.748,3.41,3.41,0,0,1,.744,1.207,4.663,4.663,0,0,1,.268,1.636.987.987,0,0,1-.076.476.318.318,0,0,1-.289.119H22.423a4.754,4.754,0,0,0,.221,1.42,2.9,2.9,0,0,0,.561,1.007,2.248,2.248,0,0,0,.85.6,2.919,2.919,0,0,0,1.1.2,3.242,3.242,0,0,0,.982-.132,4.671,4.671,0,0,0,.71-.285,5.414,5.414,0,0,0,.5-.285.659.659,0,0,1,.344-.132.333.333,0,0,1,.289.144l.425.553a2.874,2.874,0,0,1-.672.591,4.181,4.181,0,0,1-.837.412,5.318,5.318,0,0,1-.922.242,5.633,5.633,0,0,1-.944.081,4.378,4.378,0,0,1-1.645-.3,3.61,3.61,0,0,1-1.3-.884,4.055,4.055,0,0,1-.854-1.441,5.859,5.859,0,0,1-.306-1.972,5.017,5.017,0,0,1,.276-1.683A3.967,3.967,0,0,1,22,9.482a3.659,3.659,0,0,1,1.266-.9A4.158,4.158,0,0,1,24.948,8.253Zm.034,1.113A2.323,2.323,0,0,0,23.256,10a2.981,2.981,0,0,0-.782,1.755h4.684a3.064,3.064,0,0,0-.145-.965,2.15,2.15,0,0,0-.425-.756,1.9,1.9,0,0,0-.684-.493A2.308,2.308,0,0,0,24.982,9.367Zm11.161.442a.335.335,0,0,1-.315.187.592.592,0,0,1-.289-.093q-.162-.093-.4-.208a3.712,3.712,0,0,0-.557-.213,2.656,2.656,0,0,0-.765-.1,2.258,2.258,0,0,0-.689.1,1.653,1.653,0,0,0-.523.268,1.184,1.184,0,0,0-.332.4,1.061,1.061,0,0,0-.115.489.814.814,0,0,0,.191.552,1.662,1.662,0,0,0,.506.382,4.409,4.409,0,0,0,.714.285q.4.123.82.264t.82.31a2.977,2.977,0,0,1,.714.425,1.944,1.944,0,0,1,.506.625,1.912,1.912,0,0,1,.191.888,2.813,2.813,0,0,1-.213,1.1,2.4,2.4,0,0,1-.629.875,3.033,3.033,0,0,1-1.02.582,4.191,4.191,0,0,1-1.394.212,4.348,4.348,0,0,1-1.632-.293A4.135,4.135,0,0,1,30.5,16.09l.357-.578a.519.519,0,0,1,.161-.17.454.454,0,0,1,.247-.059.57.57,0,0,1,.323.119q.17.119.412.263a3.172,3.172,0,0,0,.587.264,2.673,2.673,0,0,0,.863.119,2.365,2.365,0,0,0,.773-.115,1.625,1.625,0,0,0,.552-.31,1.229,1.229,0,0,0,.327-.451,1.4,1.4,0,0,0,.106-.544.9.9,0,0,0-.191-.591,1.614,1.614,0,0,0-.506-.4,4.121,4.121,0,0,0-.718-.289q-.4-.123-.825-.259t-.825-.31a2.9,2.9,0,0,1-.718-.438,1.983,1.983,0,0,1-.506-.65,2.1,2.1,0,0,1-.191-.939,2.291,2.291,0,0,1,.2-.948,2.324,2.324,0,0,1,.595-.8,2.93,2.93,0,0,1,.96-.548,3.844,3.844,0,0,1,1.3-.2,4.113,4.113,0,0,1,1.526.268,3.611,3.611,0,0,1,1.169.735Zm4.9-1.42V17H39.525V8.389Zm.34-2.7a.963.963,0,0,1-.089.412,1.187,1.187,0,0,1-.238.34,1.106,1.106,0,0,1-.344.234,1.033,1.033,0,0,1-.417.085,1,1,0,0,1-.412-.085A1.133,1.133,0,0,1,39.3,6.1a1,1,0,0,1-.085-.412,1.064,1.064,0,0,1,.085-.421,1.092,1.092,0,0,1,.234-.348,1.121,1.121,0,0,1,.34-.234A1,1,0,0,1,40.29,4.6a1.033,1.033,0,0,1,.417.085,1.106,1.106,0,0,1,.344.234,1.153,1.153,0,0,1,.238.348A1.02,1.02,0,0,1,41.378,5.686Zm5.993,2.558a4.283,4.283,0,0,1,1.05.123,3.3,3.3,0,0,1,.888.361h2.338V9.29q0,.281-.357.357l-.977.136a2.618,2.618,0,0,1,.289,1.232,2.649,2.649,0,0,1-.242,1.143,2.593,2.593,0,0,1-.672.88,3.014,3.014,0,0,1-1.02.561,4.105,4.105,0,0,1-1.3.2,4.356,4.356,0,0,1-1.139-.144,1.448,1.448,0,0,0-.412.378.7.7,0,0,0-.14.4.537.537,0,0,0,.246.479,1.716,1.716,0,0,0,.654.233,5.492,5.492,0,0,0,.927.07h1.058a5.882,5.882,0,0,1,1.058.095,3.21,3.21,0,0,1,.927.31,1.73,1.73,0,0,1,.654.594,1.769,1.769,0,0,1,.247.981,2.3,2.3,0,0,1-.276,1.084,2.924,2.924,0,0,1-.795.934,4.077,4.077,0,0,1-1.266.654,5.417,5.417,0,0,1-1.692.245,6.52,6.52,0,0,1-1.653-.187,3.864,3.864,0,0,1-1.177-.5,2.187,2.187,0,0,1-.7-.727,1.728,1.728,0,0,1-.234-.864,1.56,1.56,0,0,1,.4-1.085,2.769,2.769,0,0,1,1.109-.71,1.521,1.521,0,0,1-.582-.454,1.222,1.222,0,0,1-.217-.76,1.194,1.194,0,0,1,.068-.386,1.517,1.517,0,0,1,.208-.395,2.225,2.225,0,0,1,.82-.687,2.679,2.679,0,0,1-1-.948,2.6,2.6,0,0,1-.361-1.381,2.649,2.649,0,0,1,.242-1.143A2.528,2.528,0,0,1,45.025,9a3.091,3.091,0,0,1,1.033-.557A4.214,4.214,0,0,1,47.371,8.245Zm2.686,9.192a.763.763,0,0,0-.179-.529,1.15,1.15,0,0,0-.485-.308,3.457,3.457,0,0,0-.705-.16,6.522,6.522,0,0,0-.841-.052h-.9a3.282,3.282,0,0,1-.875-.115,2.485,2.485,0,0,0-.786.562,1.137,1.137,0,0,0-.3.792,1.043,1.043,0,0,0,.149.541,1.268,1.268,0,0,0,.455.434,2.661,2.661,0,0,0,.769.289A4.926,4.926,0,0,0,47.447,19a4.857,4.857,0,0,0,1.1-.113,2.721,2.721,0,0,0,.82-.321,1.557,1.557,0,0,0,.514-.494A1.172,1.172,0,0,0,50.057,17.437Zm-2.686-4.644a2.382,2.382,0,0,0,.812-.128,1.641,1.641,0,0,0,.591-.357,1.46,1.46,0,0,0,.357-.548,1.991,1.991,0,0,0,.119-.7,1.675,1.675,0,0,0-.48-1.258,2.312,2.312,0,0,0-2.788,0,1.675,1.675,0,0,0-.48,1.258,1.929,1.929,0,0,0,.123.7,1.505,1.505,0,0,0,.361.548,1.647,1.647,0,0,0,.586.357A2.318,2.318,0,0,0,47.371,12.792ZM53.924,17V8.389h.9a.386.386,0,0,1,.408.314l.119.935a4.839,4.839,0,0,1,1.254-1,3.261,3.261,0,0,1,1.6-.382,3.109,3.109,0,0,1,1.245.234,2.409,2.409,0,0,1,.9.663,2.928,2.928,0,0,1,.548,1.033,4.494,4.494,0,0,1,.187,1.335V17H59.577V11.517A2.318,2.318,0,0,0,59.13,10a1.668,1.668,0,0,0-1.364-.54,2.543,2.543,0,0,0-1.254.323,4.129,4.129,0,0,0-1.075.875V17Zm20.587,0H73.84a.8.8,0,0,1-.357-.068.376.376,0,0,1-.178-.289l-.17-.8q-.34.306-.663.548a3.8,3.8,0,0,1-.68.408,3.524,3.524,0,0,1-.761.251,4.363,4.363,0,0,1-.9.085A3.052,3.052,0,0,1,69.194,17a2.139,2.139,0,0,1-.761-.422,2.01,2.01,0,0,1-.514-.712,2.5,2.5,0,0,1-.191-1.019,1.906,1.906,0,0,1,.281-.985,2.468,2.468,0,0,1,.905-.84,5.884,5.884,0,0,1,1.636-.6,11.135,11.135,0,0,1,2.473-.235V11.5a2.343,2.343,0,0,0-.429-1.527,1.556,1.556,0,0,0-1.271-.518,2.694,2.694,0,0,0-.931.14,3.523,3.523,0,0,0-.654.314q-.276.174-.476.314a.687.687,0,0,1-.4.14.453.453,0,0,1-.268-.081.615.615,0,0,1-.183-.2L68.145,9.6a4.917,4.917,0,0,1,1.538-1.028,4.75,4.75,0,0,1,1.827-.34,3.261,3.261,0,0,1,1.284.238,2.632,2.632,0,0,1,.944.663,2.808,2.808,0,0,1,.578,1.029,4.284,4.284,0,0,1,.2,1.326Zm-3.927-.927a3.089,3.089,0,0,0,.731-.081,2.885,2.885,0,0,0,.625-.229A3.31,3.31,0,0,0,72.5,15.4a4.86,4.86,0,0,0,.523-.485V13.141a10.145,10.145,0,0,0-1.776.133,4.963,4.963,0,0,0-1.19.346,1.658,1.658,0,0,0-.667.5,1.089,1.089,0,0,0-.208.65,1.441,1.441,0,0,0,.111.59,1.118,1.118,0,0,0,.3.406,1.172,1.172,0,0,0,.442.231A2.01,2.01,0,0,0,70.584,16.073ZM77.571,17V8.389h.9a.386.386,0,0,1,.408.314L79,9.639a4.839,4.839,0,0,1,1.254-1,3.261,3.261,0,0,1,1.6-.382,3.109,3.109,0,0,1,1.245.234,2.409,2.409,0,0,1,.9.663,2.928,2.928,0,0,1,.548,1.033,4.494,4.494,0,0,1,.187,1.335V17H83.224V11.517A2.318,2.318,0,0,0,82.777,10a1.668,1.668,0,0,0-1.364-.54,2.543,2.543,0,0,0-1.254.323,4.129,4.129,0,0,0-1.075.875V17Zm16.278,0a.386.386,0,0,1-.408-.315L93.3,15.64a4.533,4.533,0,0,1-1.262,1.075,3.234,3.234,0,0,1-1.628.4,3.108,3.108,0,0,1-1.343-.285A2.785,2.785,0,0,1,88.043,16a3.988,3.988,0,0,1-.655-1.377,7.089,7.089,0,0,1-.229-1.9,5.941,5.941,0,0,1,.255-1.772,4.32,4.32,0,0,1,.735-1.424,3.372,3.372,0,0,1,2.733-1.292,3.116,3.116,0,0,1,1.352.268,3.241,3.241,0,0,1,1,.752V4.479H94.75V17Zm-2.932-1.105a2.437,2.437,0,0,0,1.3-.34,3.737,3.737,0,0,0,1.024-.961V10.429a2.394,2.394,0,0,0-.914-.786,2.637,2.637,0,0,0-1.1-.225,2.179,2.179,0,0,0-1.853.859,4.01,4.01,0,0,0-.646,2.448,6.225,6.225,0,0,0,.145,1.441,2.772,2.772,0,0,0,.425.986,1.67,1.67,0,0,0,.688.565A2.313,2.313,0,0,0,90.916,15.895ZM102.153,17V4.479h1.521V9.63a4.4,4.4,0,0,1,1.228-1,3.254,3.254,0,0,1,1.585-.378,3.169,3.169,0,0,1,1.352.28,2.73,2.73,0,0,1,1.028.837,4.038,4.038,0,0,1,.655,1.377,7.042,7.042,0,0,1,.229,1.891,5.941,5.941,0,0,1-.255,1.772,4.27,4.27,0,0,1-.735,1.42,3.4,3.4,0,0,1-2.733,1.288,2.879,2.879,0,0,1-1.415-.323,3.219,3.219,0,0,1-1.016-.9l-.076.782a.364.364,0,0,1-.391.323ZM106,9.46a2.437,2.437,0,0,0-1.3.34,3.737,3.737,0,0,0-1.024.961v4.165a2.371,2.371,0,0,0,.905.791,2.616,2.616,0,0,0,1.109.229,2.179,2.179,0,0,0,1.853-.859,4.01,4.01,0,0,0,.646-2.448,6.108,6.108,0,0,0-.149-1.445,2.826,2.826,0,0,0-.429-.99,1.67,1.67,0,0,0-.688-.565A2.29,2.29,0,0,0,106,9.46Zm7.684-1.071V13.88a2.285,2.285,0,0,0,.451,1.513,1.677,1.677,0,0,0,1.36.536,2.605,2.605,0,0,0,1.249-.314,3.886,3.886,0,0,0,1.079-.875V8.389h1.513V17h-.9a.386.386,0,0,1-.408-.315l-.119-.926a4.737,4.737,0,0,1-1.258,1,3.3,3.3,0,0,1-1.6.378A3.109,3.109,0,0,1,113.8,16.9a2.469,2.469,0,0,1-.905-.659,2.8,2.8,0,0,1-.548-1.028,4.592,4.592,0,0,1-.183-1.335V8.389Zm10.591,0V17h-1.513V8.389Zm.34-2.7a.963.963,0,0,1-.089.412,1.187,1.187,0,0,1-.238.34,1.106,1.106,0,0,1-.344.234,1.033,1.033,0,0,1-.416.085,1,1,0,0,1-.412-.085,1.133,1.133,0,0,1-.574-.574,1,1,0,0,1-.085-.412,1.064,1.064,0,0,1,.085-.421,1.092,1.092,0,0,1,.234-.348,1.121,1.121,0,0,1,.34-.234,1,1,0,0,1,.412-.085,1.033,1.033,0,0,1,.416.085,1.106,1.106,0,0,1,.344.234,1.153,1.153,0,0,1,.238.348A1.02,1.02,0,0,1,124.61,5.686Zm4.777-1.207V17h-1.513V4.479ZM138.882,17a.386.386,0,0,1-.408-.315l-.136-1.045a4.533,4.533,0,0,1-1.262,1.075,3.234,3.234,0,0,1-1.628.4,3.108,3.108,0,0,1-1.343-.285A2.785,2.785,0,0,1,133.076,16a3.988,3.988,0,0,1-.654-1.377,7.089,7.089,0,0,1-.23-1.9,5.941,5.941,0,0,1,.255-1.772,4.319,4.319,0,0,1,.735-1.424,3.372,3.372,0,0,1,2.733-1.292,3.116,3.116,0,0,1,1.351.268,3.24,3.24,0,0,1,1,.752V4.479h1.513V17Zm-2.932-1.105a2.437,2.437,0,0,0,1.3-.34,3.736,3.736,0,0,0,1.024-.961V10.429a2.394,2.394,0,0,0-.914-.786,2.637,2.637,0,0,0-1.1-.225,2.179,2.179,0,0,0-1.853.859,4.01,4.01,0,0,0-.646,2.448,6.225,6.225,0,0,0,.145,1.441,2.772,2.772,0,0,0,.425.986,1.67,1.67,0,0,0,.689.565A2.312,2.312,0,0,0,135.949,15.895Zm10.064-7.505h1.19a.481.481,0,0,1,.306.093.468.468,0,0,1,.161.221l1.649,5.542q.068.306.127.591t.1.574q.068-.289.153-.574t.178-.591L151.7,8.67a.449.449,0,0,1,.149-.212.415.415,0,0,1,.268-.085h.654a.447.447,0,0,1,.281.085.438.438,0,0,1,.153.212l1.777,5.576q.093.3.166.586t.14.57q.043-.281.111-.587t.145-.569L157.225,8.7a.441.441,0,0,1,.161-.225.454.454,0,0,1,.281-.089h1.139L156.018,17h-1.2q-.221,0-.306-.289l-1.9-5.84a3.28,3.28,0,0,1-.11-.4q-.043-.2-.085-.4-.043.2-.085.4a3.2,3.2,0,0,1-.11.4l-1.93,5.831a.354.354,0,0,1-.348.289H148.8Zm16.592,0V17h-1.513V8.389Zm.34-2.7a.963.963,0,0,1-.089.412,1.187,1.187,0,0,1-.238.34,1.106,1.106,0,0,1-.344.234,1.033,1.033,0,0,1-.417.085,1,1,0,0,1-.412-.085,1.133,1.133,0,0,1-.574-.574,1,1,0,0,1-.085-.412,1.063,1.063,0,0,1,.085-.421,1.092,1.092,0,0,1,.234-.348,1.121,1.121,0,0,1,.34-.234,1,1,0,0,1,.412-.085,1.033,1.033,0,0,1,.417.085,1.106,1.106,0,0,1,.344.234,1.153,1.153,0,0,1,.238.348A1.02,1.02,0,0,1,162.945,5.686Zm5.7,11.45a2.076,2.076,0,0,1-1.568-.569,2.273,2.273,0,0,1-.548-1.641V9.656H165.5a.339.339,0,0,1-.23-.081.314.314,0,0,1-.094-.251v-.6l1.411-.179.348-2.661a.322.322,0,0,1,.111-.208.351.351,0,0,1,.238-.081h.765V8.559h2.465v1.1h-2.465v5.168a1.1,1.1,0,0,0,.264.808.92.92,0,0,0,.68.263,1.2,1.2,0,0,0,.412-.064,1.769,1.769,0,0,0,.3-.14q.128-.076.217-.14a.284.284,0,0,1,.157-.064.26.26,0,0,1,.212.145l.442.722a2.819,2.819,0,0,1-.943.574A3.2,3.2,0,0,1,168.649,17.136Zm4.5-.136V4.479h1.513V9.545a4.646,4.646,0,0,1,1.224-.939,3.278,3.278,0,0,1,1.547-.353,3.109,3.109,0,0,1,1.245.234,2.409,2.409,0,0,1,.9.663,2.928,2.928,0,0,1,.548,1.033,4.494,4.494,0,0,1,.187,1.335V17H178.8V11.517A2.318,2.318,0,0,0,178.351,10a1.668,1.668,0,0,0-1.364-.54,2.543,2.543,0,0,0-1.254.323,4.129,4.129,0,0,0-1.075.875V17ZM1.241,45.715V34.189h.9a.386.386,0,0,1,.408.314l.128,1.02A4.6,4.6,0,0,1,3.94,34.444a3.224,3.224,0,0,1,1.636-.408,3.108,3.108,0,0,1,1.343.285,2.769,2.769,0,0,1,1.029.841A4.036,4.036,0,0,1,8.6,36.544a7.089,7.089,0,0,1,.229,1.9,5.941,5.941,0,0,1-.255,1.772,4.316,4.316,0,0,1-.731,1.419,3.414,3.414,0,0,1-1.169.944,3.457,3.457,0,0,1-1.56.344,3.21,3.21,0,0,1-1.364-.264,3.074,3.074,0,0,1-1-.748v3.808ZM5.075,35.26a2.437,2.437,0,0,0-1.3.34,3.737,3.737,0,0,0-1.024.96v4.165a2.433,2.433,0,0,0,.914.791,2.616,2.616,0,0,0,1.109.229,2.17,2.17,0,0,0,1.845-.858,4.01,4.01,0,0,0,.646-2.448,6.108,6.108,0,0,0-.149-1.445A2.826,2.826,0,0,0,6.69,36,1.67,1.67,0,0,0,6,35.439,2.29,2.29,0,0,0,5.075,35.26ZM12.7,34.189v5.491a2.285,2.285,0,0,0,.451,1.513,1.677,1.677,0,0,0,1.36.535,2.605,2.605,0,0,0,1.249-.315,3.886,3.886,0,0,0,1.08-.875V34.189h1.513V42.8h-.9a.386.386,0,0,1-.408-.314l-.119-.927a4.737,4.737,0,0,1-1.258,1,3.3,3.3,0,0,1-1.6.378,3.109,3.109,0,0,1-1.245-.234,2.469,2.469,0,0,1-.905-.659,2.8,2.8,0,0,1-.548-1.028,4.592,4.592,0,0,1-.183-1.334V34.189ZM21.607,42.8V34.189h.867a.479.479,0,0,1,.34.093.573.573,0,0,1,.128.323l.1,1.343a3.939,3.939,0,0,1,1.092-1.407,2.574,2.574,0,0,1,2.172-.425,2.252,2.252,0,0,1,.535.225l-.2,1.131a.256.256,0,0,1-.264.213,1.322,1.322,0,0,1-.365-.081,2.305,2.305,0,0,0-.688-.081,1.95,1.95,0,0,0-1.322.459,3.446,3.446,0,0,0-.888,1.334V42.8Zm7.616,2.916V34.189h.9a.386.386,0,0,1,.408.314l.128,1.02a4.6,4.6,0,0,1,1.262-1.079,3.224,3.224,0,0,1,1.636-.408,3.108,3.108,0,0,1,1.343.285,2.769,2.769,0,0,1,1.029.841,4.036,4.036,0,0,1,.654,1.381,7.09,7.09,0,0,1,.229,1.9,5.941,5.941,0,0,1-.255,1.772,4.316,4.316,0,0,1-.731,1.419,3.414,3.414,0,0,1-1.169.944,3.457,3.457,0,0,1-1.56.344,3.21,3.21,0,0,1-1.364-.264,3.074,3.074,0,0,1-1-.748v3.808ZM33.057,35.26a2.437,2.437,0,0,0-1.3.34,3.737,3.737,0,0,0-1.024.96v4.165a2.433,2.433,0,0,0,.914.791,2.616,2.616,0,0,0,1.109.229,2.17,2.17,0,0,0,1.845-.858,4.01,4.01,0,0,0,.646-2.448,6.108,6.108,0,0,0-.149-1.445,2.826,2.826,0,0,0-.429-.99,1.67,1.67,0,0,0-.688-.565A2.29,2.29,0,0,0,33.057,35.26Zm9.8-1.207a4.423,4.423,0,0,1,1.7.315,3.593,3.593,0,0,1,1.292.892,3.951,3.951,0,0,1,.816,1.4,6.048,6.048,0,0,1,0,3.668,3.957,3.957,0,0,1-.816,1.394,3.549,3.549,0,0,1-1.292.888,4.836,4.836,0,0,1-3.409,0,3.589,3.589,0,0,1-1.3-.888,3.974,3.974,0,0,1-.825-1.394,5.963,5.963,0,0,1,0-3.668,3.968,3.968,0,0,1,.825-1.4,3.635,3.635,0,0,1,1.3-.892A4.423,4.423,0,0,1,42.857,34.053Zm0,7.684a2.21,2.21,0,0,0,1.9-.854A3.955,3.955,0,0,0,45.39,38.5a3.992,3.992,0,0,0-.629-2.4,2.206,2.206,0,0,0-1.9-.858,2.642,2.642,0,0,0-1.122.221,2.1,2.1,0,0,0-.795.637,2.832,2.832,0,0,0-.476,1.024,6.052,6.052,0,0,0,0,2.741,2.789,2.789,0,0,0,.476,1.016,2.116,2.116,0,0,0,.795.633A2.642,2.642,0,0,0,42.857,41.737Zm11.662-6.128a.335.335,0,0,1-.315.187.592.592,0,0,1-.289-.093q-.162-.093-.4-.208a3.713,3.713,0,0,0-.557-.212,2.656,2.656,0,0,0-.765-.1,2.258,2.258,0,0,0-.689.1,1.653,1.653,0,0,0-.523.268,1.184,1.184,0,0,0-.332.4,1.061,1.061,0,0,0-.115.489.814.814,0,0,0,.191.553,1.662,1.662,0,0,0,.506.382,4.409,4.409,0,0,0,.714.285q.4.123.82.264t.82.31a2.976,2.976,0,0,1,.714.425,1.944,1.944,0,0,1,.506.625,1.912,1.912,0,0,1,.191.888,2.813,2.813,0,0,1-.213,1.1,2.4,2.4,0,0,1-.629.875,3.033,3.033,0,0,1-1.02.582,4.191,4.191,0,0,1-1.394.213,4.348,4.348,0,0,1-1.632-.293,4.135,4.135,0,0,1-1.241-.752l.357-.578a.519.519,0,0,1,.162-.17.454.454,0,0,1,.246-.059.57.57,0,0,1,.323.119q.17.119.412.264a3.172,3.172,0,0,0,.587.264,2.673,2.673,0,0,0,.863.119,2.365,2.365,0,0,0,.773-.115,1.625,1.625,0,0,0,.552-.31,1.229,1.229,0,0,0,.327-.451,1.4,1.4,0,0,0,.106-.544.9.9,0,0,0-.191-.591,1.614,1.614,0,0,0-.506-.4,4.121,4.121,0,0,0-.718-.289q-.4-.123-.825-.259t-.825-.31a2.9,2.9,0,0,1-.718-.438,1.983,1.983,0,0,1-.506-.65,2.1,2.1,0,0,1-.191-.939,2.291,2.291,0,0,1,.2-.948,2.324,2.324,0,0,1,.6-.8,2.93,2.93,0,0,1,.96-.548,3.844,3.844,0,0,1,1.3-.2,4.113,4.113,0,0,1,1.526.268,3.611,3.611,0,0,1,1.169.735Zm6.622-1.556a3.844,3.844,0,0,1,1.428.259,3.205,3.205,0,0,1,1.131.748,3.41,3.41,0,0,1,.744,1.207,4.663,4.663,0,0,1,.268,1.636.987.987,0,0,1-.076.476.318.318,0,0,1-.289.119H58.616a4.754,4.754,0,0,0,.221,1.419,2.9,2.9,0,0,0,.561,1.007,2.248,2.248,0,0,0,.85.6,2.919,2.919,0,0,0,1.1.2,3.242,3.242,0,0,0,.982-.132,4.671,4.671,0,0,0,.71-.285,5.414,5.414,0,0,0,.5-.285.659.659,0,0,1,.344-.132.333.333,0,0,1,.289.145l.425.552a2.874,2.874,0,0,1-.671.591,4.181,4.181,0,0,1-.837.412,5.318,5.318,0,0,1-.922.242,5.633,5.633,0,0,1-.944.081,4.378,4.378,0,0,1-1.645-.3,3.61,3.61,0,0,1-1.3-.884,4.055,4.055,0,0,1-.854-1.441,5.859,5.859,0,0,1-.306-1.972,5.017,5.017,0,0,1,.276-1.683,3.967,3.967,0,0,1,.795-1.356,3.659,3.659,0,0,1,1.266-.9A4.158,4.158,0,0,1,61.141,34.053Zm.034,1.114a2.323,2.323,0,0,0-1.725.633,2.981,2.981,0,0,0-.782,1.755h4.684a3.064,3.064,0,0,0-.145-.965,2.15,2.15,0,0,0-.425-.757,1.9,1.9,0,0,0-.684-.493A2.308,2.308,0,0,0,61.175,35.167Zm5.789,6.587a.956.956,0,0,1,.072-.37.934.934,0,0,1,.2-.306.957.957,0,0,1,.319-.208,1.14,1.14,0,0,1,.863.017.909.909,0,0,1,.331.259,1.172,1.172,0,0,1,.2.383A1.569,1.569,0,0,1,69.02,42a3.066,3.066,0,0,1-.111.795,4.244,4.244,0,0,1-.314.816,4.674,4.674,0,0,1-.506.786,4.872,4.872,0,0,1-.684.706l-.255-.247a.315.315,0,0,1-.11-.238.337.337,0,0,1,.119-.229q.085-.094.217-.251a4.132,4.132,0,0,0,.268-.361,3.39,3.39,0,0,0,.251-.451,2.158,2.158,0,0,0,.166-.527h-.11a1,1,0,0,1-.4-.076.916.916,0,0,1-.31-.217.988.988,0,0,1-.2-.331A1.182,1.182,0,0,1,66.963,41.754ZM75.82,42.8V34.189h.9a.386.386,0,0,1,.408.314l.119.935a4.839,4.839,0,0,1,1.254-1,3.261,3.261,0,0,1,1.6-.382,3.109,3.109,0,0,1,1.245.234,2.409,2.409,0,0,1,.9.663,2.928,2.928,0,0,1,.548,1.033,4.494,4.494,0,0,1,.187,1.334V42.8H81.473V37.317a2.318,2.318,0,0,0-.446-1.517,1.668,1.668,0,0,0-1.364-.54,2.543,2.543,0,0,0-1.254.323,4.129,4.129,0,0,0-1.075.875V42.8Zm13.7-8.747a4.423,4.423,0,0,1,1.7.315,3.593,3.593,0,0,1,1.292.892,3.951,3.951,0,0,1,.816,1.4,6.048,6.048,0,0,1,0,3.668,3.957,3.957,0,0,1-.816,1.394,3.549,3.549,0,0,1-1.292.888,4.836,4.836,0,0,1-3.409,0,3.589,3.589,0,0,1-1.3-.888,3.974,3.974,0,0,1-.825-1.394,5.963,5.963,0,0,1,0-3.668,3.968,3.968,0,0,1,.825-1.4,3.635,3.635,0,0,1,1.3-.892A4.423,4.423,0,0,1,89.522,34.053Zm0,7.684a2.21,2.21,0,0,0,1.9-.854,3.955,3.955,0,0,0,.629-2.384,3.992,3.992,0,0,0-.629-2.4,2.206,2.206,0,0,0-1.9-.858,2.642,2.642,0,0,0-1.122.221,2.1,2.1,0,0,0-.795.637,2.832,2.832,0,0,0-.476,1.024,6.052,6.052,0,0,0,0,2.741,2.789,2.789,0,0,0,.476,1.016,2.117,2.117,0,0,0,.795.633A2.642,2.642,0,0,0,89.522,41.737Zm9.342,1.2a2.076,2.076,0,0,1-1.568-.569,2.273,2.273,0,0,1-.548-1.641v-5.27H95.71a.339.339,0,0,1-.229-.081.314.314,0,0,1-.093-.251v-.6l1.411-.179.348-2.66a.322.322,0,0,1,.111-.208.351.351,0,0,1,.238-.081h.765v2.966h2.465v1.1H98.26v5.168a1.1,1.1,0,0,0,.263.807.92.92,0,0,0,.68.264,1.2,1.2,0,0,0,.412-.064,1.769,1.769,0,0,0,.3-.14q.127-.076.217-.14a.284.284,0,0,1,.157-.064.26.26,0,0,1,.212.145l.442.722a2.819,2.819,0,0,1-.943.574A3.2,3.2,0,0,1,98.864,42.936Zm10.226-8.747v9.249a3.294,3.294,0,0,1-.136.965,2.067,2.067,0,0,1-.429.778,2.018,2.018,0,0,1-.757.523,2.9,2.9,0,0,1-1.109.191,2.811,2.811,0,0,1-.51-.042,2.776,2.776,0,0,1-.459-.128l.068-.816a.174.174,0,0,1,.076-.14.441.441,0,0,1,.187-.03h.331a1.223,1.223,0,0,0,.944-.31,1.464,1.464,0,0,0,.281-1V34.189Zm.34-2.7a.963.963,0,0,1-.089.412,1.187,1.187,0,0,1-.238.34,1.106,1.106,0,0,1-.344.234,1.033,1.033,0,0,1-.416.085,1,1,0,0,1-.412-.085,1.133,1.133,0,0,1-.574-.574,1,1,0,0,1-.085-.412,1.064,1.064,0,0,1,.085-.421,1.092,1.092,0,0,1,.234-.348,1.121,1.121,0,0,1,.34-.234,1,1,0,0,1,.412-.085,1.033,1.033,0,0,1,.416.085,1.106,1.106,0,0,1,.344.234,1.153,1.153,0,0,1,.238.348A1.02,1.02,0,0,1,109.429,31.486Zm4.369,2.7v5.491a2.285,2.285,0,0,0,.451,1.513,1.677,1.677,0,0,0,1.36.535,2.605,2.605,0,0,0,1.249-.315,3.886,3.886,0,0,0,1.079-.875V34.189h1.513V42.8h-.9a.386.386,0,0,1-.408-.314l-.119-.927a4.737,4.737,0,0,1-1.258,1,3.3,3.3,0,0,1-1.6.378,3.109,3.109,0,0,1-1.245-.234,2.469,2.469,0,0,1-.905-.659,2.8,2.8,0,0,1-.548-1.028,4.592,4.592,0,0,1-.183-1.334V34.189Zm13.838,1.42a.335.335,0,0,1-.314.187.592.592,0,0,1-.289-.093q-.161-.093-.4-.208a3.713,3.713,0,0,0-.557-.212,2.656,2.656,0,0,0-.765-.1,2.258,2.258,0,0,0-.688.1,1.653,1.653,0,0,0-.523.268,1.184,1.184,0,0,0-.332.4,1.061,1.061,0,0,0-.115.489.814.814,0,0,0,.191.553,1.662,1.662,0,0,0,.506.382,4.409,4.409,0,0,0,.714.285q.4.123.82.264t.82.31a2.976,2.976,0,0,1,.714.425,1.944,1.944,0,0,1,.506.625,1.912,1.912,0,0,1,.191.888,2.813,2.813,0,0,1-.212,1.1,2.4,2.4,0,0,1-.629.875,3.033,3.033,0,0,1-1.02.582,4.191,4.191,0,0,1-1.394.213,4.348,4.348,0,0,1-1.632-.293,4.135,4.135,0,0,1-1.241-.752l.357-.578a.519.519,0,0,1,.161-.17.454.454,0,0,1,.246-.059.57.57,0,0,1,.323.119q.17.119.412.264a3.172,3.172,0,0,0,.586.264,2.673,2.673,0,0,0,.863.119,2.365,2.365,0,0,0,.773-.115,1.625,1.625,0,0,0,.552-.31,1.229,1.229,0,0,0,.327-.451,1.4,1.4,0,0,0,.106-.544.9.9,0,0,0-.191-.591,1.614,1.614,0,0,0-.506-.4,4.121,4.121,0,0,0-.718-.289q-.4-.123-.824-.259t-.825-.31a2.9,2.9,0,0,1-.718-.438,1.983,1.983,0,0,1-.506-.65,2.1,2.1,0,0,1-.191-.939,2.291,2.291,0,0,1,.2-.948,2.324,2.324,0,0,1,.6-.8,2.93,2.93,0,0,1,.96-.548,3.844,3.844,0,0,1,1.3-.2,4.113,4.113,0,0,1,1.526.268,3.611,3.611,0,0,1,1.169.735Zm5.822,7.327a2.076,2.076,0,0,1-1.568-.569,2.273,2.273,0,0,1-.548-1.641v-5.27h-1.037a.339.339,0,0,1-.23-.081.314.314,0,0,1-.094-.251v-.6l1.411-.179.348-2.66a.322.322,0,0,1,.111-.208.351.351,0,0,1,.238-.081h.765v2.966h2.465v1.1h-2.465v5.168a1.1,1.1,0,0,0,.264.807.92.92,0,0,0,.68.264,1.2,1.2,0,0,0,.412-.064,1.769,1.769,0,0,0,.3-.14q.128-.076.217-.14a.284.284,0,0,1,.157-.064.26.26,0,0,1,.212.145l.442.722a2.819,2.819,0,0,1-.943.574A3.2,3.2,0,0,1,133.459,42.936Zm14.867-.136h-.672a.8.8,0,0,1-.357-.068.376.376,0,0,1-.178-.289l-.17-.8q-.34.306-.663.548a3.8,3.8,0,0,1-.68.408,3.523,3.523,0,0,1-.761.251,4.363,4.363,0,0,1-.9.085,3.052,3.052,0,0,1-.939-.141,2.139,2.139,0,0,1-.761-.422,2.01,2.01,0,0,1-.514-.712,2.5,2.5,0,0,1-.191-1.019,1.906,1.906,0,0,1,.281-.985,2.468,2.468,0,0,1,.905-.84,5.885,5.885,0,0,1,1.636-.6,11.135,11.135,0,0,1,2.473-.235V37.3a2.343,2.343,0,0,0-.429-1.527,1.556,1.556,0,0,0-1.271-.518,2.694,2.694,0,0,0-.931.14,3.523,3.523,0,0,0-.654.314q-.276.174-.476.314a.687.687,0,0,1-.4.14.453.453,0,0,1-.268-.081.615.615,0,0,1-.183-.2l-.272-.485a4.917,4.917,0,0,1,1.538-1.028,4.75,4.75,0,0,1,1.827-.34,3.261,3.261,0,0,1,1.284.238,2.632,2.632,0,0,1,.943.663,2.808,2.808,0,0,1,.578,1.028,4.284,4.284,0,0,1,.2,1.326Zm-3.927-.926a3.089,3.089,0,0,0,.731-.081,2.885,2.885,0,0,0,.625-.229,3.31,3.31,0,0,0,.561-.361,4.861,4.861,0,0,0,.523-.485V38.941a10.144,10.144,0,0,0-1.777.133,4.963,4.963,0,0,0-1.19.346,1.658,1.658,0,0,0-.667.5,1.089,1.089,0,0,0-.208.65,1.441,1.441,0,0,0,.11.59,1.118,1.118,0,0,0,.3.406,1.172,1.172,0,0,0,.442.231A2.01,2.01,0,0,0,144.4,41.874Zm6.987,3.842V34.189h.9a.386.386,0,0,1,.408.314l.128,1.02a4.6,4.6,0,0,1,1.262-1.079,3.224,3.224,0,0,1,1.636-.408,3.108,3.108,0,0,1,1.343.285,2.769,2.769,0,0,1,1.028.841,4.035,4.035,0,0,1,.655,1.381,7.089,7.089,0,0,1,.229,1.9,5.941,5.941,0,0,1-.255,1.772,4.316,4.316,0,0,1-.731,1.419,3.414,3.414,0,0,1-1.169.944,3.457,3.457,0,0,1-1.56.344,3.21,3.21,0,0,1-1.364-.264,3.074,3.074,0,0,1-1-.748v3.808Zm3.833-10.455a2.437,2.437,0,0,0-1.3.34,3.736,3.736,0,0,0-1.024.96v4.165a2.433,2.433,0,0,0,.914.791,2.616,2.616,0,0,0,1.109.229,2.171,2.171,0,0,0,1.845-.858,4.01,4.01,0,0,0,.646-2.448,6.108,6.108,0,0,0-.149-1.445,2.826,2.826,0,0,0-.429-.99,1.67,1.67,0,0,0-.688-.565A2.29,2.29,0,0,0,155.219,35.26Zm6.316,10.455V34.189h.9a.386.386,0,0,1,.408.314l.128,1.02a4.6,4.6,0,0,1,1.262-1.079,3.224,3.224,0,0,1,1.636-.408,3.108,3.108,0,0,1,1.343.285,2.769,2.769,0,0,1,1.028.841,4.035,4.035,0,0,1,.655,1.381,7.089,7.089,0,0,1,.229,1.9,5.941,5.941,0,0,1-.255,1.772,4.316,4.316,0,0,1-.731,1.419,3.414,3.414,0,0,1-1.169.944,3.457,3.457,0,0,1-1.56.344,3.21,3.21,0,0,1-1.364-.264,3.074,3.074,0,0,1-1-.748v3.808Zm3.833-10.455a2.437,2.437,0,0,0-1.3.34,3.736,3.736,0,0,0-1.024.96v4.165a2.433,2.433,0,0,0,.914.791,2.616,2.616,0,0,0,1.109.229,2.171,2.171,0,0,0,1.844-.858,4.01,4.01,0,0,0,.646-2.448,6.108,6.108,0,0,0-.149-1.445,2.826,2.826,0,0,0-.429-.99,1.67,1.67,0,0,0-.688-.565A2.29,2.29,0,0,0,165.368,35.26Zm9.724-1.207a3.844,3.844,0,0,1,1.428.259,3.205,3.205,0,0,1,1.13.748,3.41,3.41,0,0,1,.744,1.207,4.663,4.663,0,0,1,.268,1.636.987.987,0,0,1-.076.476.318.318,0,0,1-.289.119h-5.729a4.754,4.754,0,0,0,.221,1.419,2.9,2.9,0,0,0,.561,1.007,2.248,2.248,0,0,0,.85.6,2.919,2.919,0,0,0,1.1.2,3.242,3.242,0,0,0,.982-.132,4.671,4.671,0,0,0,.71-.285,5.414,5.414,0,0,0,.5-.285.659.659,0,0,1,.344-.132.333.333,0,0,1,.289.145l.425.552a2.874,2.874,0,0,1-.671.591,4.181,4.181,0,0,1-.837.412,5.318,5.318,0,0,1-.922.242,5.633,5.633,0,0,1-.943.081,4.378,4.378,0,0,1-1.645-.3,3.61,3.61,0,0,1-1.3-.884,4.055,4.055,0,0,1-.854-1.441,5.859,5.859,0,0,1-.306-1.972,5.017,5.017,0,0,1,.276-1.683,3.967,3.967,0,0,1,.795-1.356,3.659,3.659,0,0,1,1.267-.9A4.157,4.157,0,0,1,175.092,34.053Zm.034,1.114a2.323,2.323,0,0,0-1.726.633,2.981,2.981,0,0,0-.782,1.755H177.3a3.064,3.064,0,0,0-.145-.965,2.15,2.15,0,0,0-.425-.757,1.9,1.9,0,0,0-.684-.493A2.308,2.308,0,0,0,175.126,35.167ZM187.68,42.8h-.672a.8.8,0,0,1-.357-.068.376.376,0,0,1-.178-.289l-.17-.8q-.34.306-.663.548a3.8,3.8,0,0,1-.68.408,3.523,3.523,0,0,1-.761.251,4.363,4.363,0,0,1-.9.085,3.052,3.052,0,0,1-.939-.141,2.139,2.139,0,0,1-.761-.422,2.01,2.01,0,0,1-.514-.712,2.5,2.5,0,0,1-.191-1.019,1.906,1.906,0,0,1,.281-.985,2.468,2.468,0,0,1,.905-.84,5.885,5.885,0,0,1,1.636-.6,11.135,11.135,0,0,1,2.473-.235V37.3a2.343,2.343,0,0,0-.429-1.527,1.556,1.556,0,0,0-1.271-.518,2.694,2.694,0,0,0-.931.14,3.523,3.523,0,0,0-.654.314q-.276.174-.476.314a.687.687,0,0,1-.4.14.453.453,0,0,1-.268-.081.615.615,0,0,1-.183-.2l-.272-.485a4.917,4.917,0,0,1,1.538-1.028,4.75,4.75,0,0,1,1.827-.34,3.261,3.261,0,0,1,1.284.238,2.632,2.632,0,0,1,.943.663,2.808,2.808,0,0,1,.578,1.028,4.284,4.284,0,0,1,.2,1.326Zm-3.927-.926a3.089,3.089,0,0,0,.731-.081,2.885,2.885,0,0,0,.625-.229,3.31,3.31,0,0,0,.561-.361,4.861,4.861,0,0,0,.523-.485V38.941a10.144,10.144,0,0,0-1.777.133,4.963,4.963,0,0,0-1.19.346,1.658,1.658,0,0,0-.667.5,1.089,1.089,0,0,0-.208.65,1.441,1.441,0,0,0,.11.59,1.118,1.118,0,0,0,.3.406,1.172,1.172,0,0,0,.442.231A2.01,2.01,0,0,0,183.753,41.874Zm6.987.926V34.189h.867a.479.479,0,0,1,.34.093.573.573,0,0,1,.128.323l.1,1.343a3.939,3.939,0,0,1,1.092-1.407,2.574,2.574,0,0,1,2.172-.425,2.252,2.252,0,0,1,.536.225l-.2,1.131a.256.256,0,0,1-.263.213,1.322,1.322,0,0,1-.366-.081,2.305,2.305,0,0,0-.688-.081,1.95,1.95,0,0,0-1.322.459,3.446,3.446,0,0,0-.888,1.334V42.8Zm13.617,0h-.672a.8.8,0,0,1-.357-.068.376.376,0,0,1-.178-.289l-.17-.8q-.34.306-.663.548a3.8,3.8,0,0,1-.68.408,3.523,3.523,0,0,1-.761.251,4.363,4.363,0,0,1-.9.085,3.052,3.052,0,0,1-.939-.141,2.139,2.139,0,0,1-.761-.422,2.01,2.01,0,0,1-.514-.712,2.5,2.5,0,0,1-.191-1.019,1.906,1.906,0,0,1,.281-.985,2.468,2.468,0,0,1,.905-.84,5.885,5.885,0,0,1,1.636-.6,11.135,11.135,0,0,1,2.473-.235V37.3a2.343,2.343,0,0,0-.429-1.527,1.556,1.556,0,0,0-1.271-.518,2.694,2.694,0,0,0-.931.14,3.523,3.523,0,0,0-.654.314q-.276.174-.476.314a.687.687,0,0,1-.4.14.453.453,0,0,1-.268-.081.615.615,0,0,1-.183-.2l-.272-.485a4.917,4.917,0,0,1,1.538-1.028,4.75,4.75,0,0,1,1.827-.34,3.261,3.261,0,0,1,1.284.238,2.632,2.632,0,0,1,.943.663,2.808,2.808,0,0,1,.578,1.028,4.284,4.284,0,0,1,.2,1.326Zm-3.927-.926a3.089,3.089,0,0,0,.731-.081,2.885,2.885,0,0,0,.625-.229,3.31,3.31,0,0,0,.561-.361,4.861,4.861,0,0,0,.523-.485V38.941a10.144,10.144,0,0,0-1.777.133,4.963,4.963,0,0,0-1.19.346,1.658,1.658,0,0,0-.667.5,1.089,1.089,0,0,0-.208.65,1.441,1.441,0,0,0,.11.59,1.118,1.118,0,0,0,.3.406,1.172,1.172,0,0,0,.442.231A2.01,2.01,0,0,0,200.43,41.874Zm6.987.926V34.189h.9a.386.386,0,0,1,.408.314l.119.935a4.839,4.839,0,0,1,1.254-1,3.261,3.261,0,0,1,1.6-.382,3.109,3.109,0,0,1,1.245.234,2.409,2.409,0,0,1,.9.663,2.928,2.928,0,0,1,.548,1.033,4.494,4.494,0,0,1,.187,1.334V42.8H213.07V37.317a2.318,2.318,0,0,0-.446-1.517,1.668,1.668,0,0,0-1.364-.54,2.543,2.543,0,0,0-1.254.323,4.129,4.129,0,0,0-1.075.875V42.8Zm16.09-7.081a.675.675,0,0,1-.136.145.321.321,0,0,1-.2.051.486.486,0,0,1-.276-.106,4.027,4.027,0,0,0-.378-.234,3.167,3.167,0,0,0-.557-.234,2.954,2.954,0,0,0-1.917.119,2.16,2.16,0,0,0-.812.65,2.943,2.943,0,0,0-.493,1.028,5.1,5.1,0,0,0-.166,1.351,4.938,4.938,0,0,0,.179,1.39,3.011,3.011,0,0,0,.5,1.02,2.14,2.14,0,0,0,.786.629,2.428,2.428,0,0,0,1.041.217,2.662,2.662,0,0,0,.91-.132,2.771,2.771,0,0,0,.6-.293,4.362,4.362,0,0,0,.391-.293.471.471,0,0,1,.306-.132.32.32,0,0,1,.289.145l.425.552a3.271,3.271,0,0,1-1.4,1.007,4.973,4.973,0,0,1-1.777.319,3.761,3.761,0,0,1-1.5-.3,3.421,3.421,0,0,1-1.2-.863,4.094,4.094,0,0,1-.8-1.39,5.587,5.587,0,0,1-.293-1.879,5.668,5.668,0,0,1,.268-1.776,4.025,4.025,0,0,1,.782-1.407,3.544,3.544,0,0,1,1.271-.922,4.283,4.283,0,0,1,1.734-.332,4.09,4.09,0,0,1,1.6.293,3.825,3.825,0,0,1,1.233.829Zm6.239-1.666a3.844,3.844,0,0,1,1.428.259,3.205,3.205,0,0,1,1.13.748,3.41,3.41,0,0,1,.744,1.207,4.663,4.663,0,0,1,.268,1.636.987.987,0,0,1-.076.476.318.318,0,0,1-.289.119h-5.729a4.754,4.754,0,0,0,.221,1.419A2.9,2.9,0,0,0,228,40.926a2.248,2.248,0,0,0,.85.6,2.919,2.919,0,0,0,1.1.2,3.242,3.242,0,0,0,.982-.132,4.671,4.671,0,0,0,.71-.285,5.414,5.414,0,0,0,.5-.285.659.659,0,0,1,.344-.132.333.333,0,0,1,.289.145l.425.552a2.874,2.874,0,0,1-.671.591,4.181,4.181,0,0,1-.837.412,5.318,5.318,0,0,1-.922.242,5.633,5.633,0,0,1-.943.081,4.378,4.378,0,0,1-1.645-.3,3.61,3.61,0,0,1-1.3-.884,4.055,4.055,0,0,1-.854-1.441,5.859,5.859,0,0,1-.306-1.972A5.017,5.017,0,0,1,226,36.637a3.967,3.967,0,0,1,.795-1.356,3.659,3.659,0,0,1,1.267-.9A4.157,4.157,0,0,1,229.747,34.053Zm.034,1.114a2.323,2.323,0,0,0-1.726.633,2.981,2.981,0,0,0-.782,1.755h4.684a3.064,3.064,0,0,0-.145-.965,2.15,2.15,0,0,0-.425-.757,1.9,1.9,0,0,0-.684-.493A2.308,2.308,0,0,0,229.781,35.167Zm5.738,6.7a1.08,1.08,0,0,1,.081-.417,1.068,1.068,0,0,1,.221-.34,1.059,1.059,0,0,1,1.169-.229,1.09,1.09,0,0,1,.34.229,1.033,1.033,0,0,1,.225.34,1.125,1.125,0,0,1,0,.837,1.045,1.045,0,0,1-.225.336,1.033,1.033,0,0,1-.34.225,1.115,1.115,0,0,1-.833,0,.987.987,0,0,1-.336-.225,1.065,1.065,0,0,1-.3-.757Z" transform="translate(331.5 -130.143)" fill="#111"/>
  </g>
</svg>
