<svg xmlns="http://www.w3.org/2000/svg" width="194.677" height="79.026" viewBox="0 0 194.677 79.026">
  <g id="グループ_107" data-name="グループ 107" transform="translate(-17.022 -97.322)">
    <path id="パス_65" data-name="パス 65" d="M3.18-3.818V0H1.163V-10.845H4.7a6.189,6.189,0,0,1,1.883.255,3.623,3.623,0,0,1,1.313.712,2.79,2.79,0,0,1,.765,1.1A3.823,3.823,0,0,1,8.9-7.388,3.854,3.854,0,0,1,8.64-5.944a3,3,0,0,1-.787,1.129A3.665,3.665,0,0,1,6.54-4.08,5.844,5.844,0,0,1,4.7-3.818Zm0-1.575H4.7a3.039,3.039,0,0,0,.968-.139,1.8,1.8,0,0,0,.682-.4,1.63,1.63,0,0,0,.405-.63,2.411,2.411,0,0,0,.135-.829,2.187,2.187,0,0,0-.135-.787,1.557,1.557,0,0,0-.405-.6,1.8,1.8,0,0,0-.682-.379A3.2,3.2,0,0,0,4.7-9.285H3.18ZM14.325-7.815a4.217,4.217,0,0,1,1.564.278,3.372,3.372,0,0,1,1.2.787,3.486,3.486,0,0,1,.765,1.245,4.736,4.736,0,0,1,.27,1.642,4.759,4.759,0,0,1-.27,1.65A3.563,3.563,0,0,1,17.085-.96a3.323,3.323,0,0,1-1.2.8,4.217,4.217,0,0,1-1.564.278,4.246,4.246,0,0,1-1.568-.278,3.353,3.353,0,0,1-1.2-.8,3.579,3.579,0,0,1-.773-1.253,4.7,4.7,0,0,1-.274-1.65,4.677,4.677,0,0,1,.274-1.642,3.5,3.5,0,0,1,.773-1.245,3.4,3.4,0,0,1,1.2-.787A4.246,4.246,0,0,1,14.325-7.815Zm0,6.5a1.629,1.629,0,0,0,1.421-.645,3.234,3.234,0,0,0,.461-1.89,3.271,3.271,0,0,0-.461-1.9A1.622,1.622,0,0,0,14.325-6.4a1.645,1.645,0,0,0-1.44.656,3.254,3.254,0,0,0-.465,1.894,3.217,3.217,0,0,0,.465,1.886A1.652,1.652,0,0,0,14.325-1.313ZM20.467,0V-7.7h1.087a.583.583,0,0,1,.4.1.6.6,0,0,1,.15.36l.113.93a3.656,3.656,0,0,1,.967-1.125,2.036,2.036,0,0,1,1.245-.412,1.609,1.609,0,0,1,.945.263l-.24,1.387a.286.286,0,0,1-.1.191.33.33,0,0,1-.2.056,1.263,1.263,0,0,1-.308-.052,2.058,2.058,0,0,0-.517-.053,1.571,1.571,0,0,0-.99.319,2.454,2.454,0,0,0-.7.934V0Zm9.555.12a2.024,2.024,0,0,1-1.538-.566,2.173,2.173,0,0,1-.54-1.564v-4.3h-.78a.375.375,0,0,1-.259-.1A.373.373,0,0,1,26.8-6.7v-.735l1.238-.2.39-2.1a.371.371,0,0,1,.139-.233.44.44,0,0,1,.274-.082h.96v2.422h2.025v1.32H29.8v4.17a.817.817,0,0,0,.18.563.611.611,0,0,0,.48.2.872.872,0,0,0,.289-.041,1.589,1.589,0,0,0,.2-.086q.086-.045.154-.086a.257.257,0,0,1,.135-.041.212.212,0,0,1,.135.041.626.626,0,0,1,.113.124l.555.9a2.8,2.8,0,0,1-.93.51A3.462,3.462,0,0,1,30.022.12ZM34.53,0V-6.3l-.667-.105a.71.71,0,0,1-.349-.15.393.393,0,0,1-.131-.315v-.758H34.53V-8.2a3.328,3.328,0,0,1,.2-1.185,2.464,2.464,0,0,1,.57-.892,2.474,2.474,0,0,1,.9-.562,3.472,3.472,0,0,1,1.2-.195,3.313,3.313,0,0,1,.99.142l-.037.93a.27.27,0,0,1-.2.27,1.62,1.62,0,0,1-.435.052,2.222,2.222,0,0,0-.589.071.991.991,0,0,0-.439.248,1.122,1.122,0,0,0-.274.465,2.348,2.348,0,0,0-.094.716v.51h2v1.32H36.382V0Zm9.113-7.815a4.217,4.217,0,0,1,1.564.278,3.372,3.372,0,0,1,1.2.787,3.486,3.486,0,0,1,.765,1.245,4.736,4.736,0,0,1,.27,1.642,4.759,4.759,0,0,1-.27,1.65A3.563,3.563,0,0,1,46.4-.96a3.323,3.323,0,0,1-1.2.8,4.217,4.217,0,0,1-1.564.278,4.246,4.246,0,0,1-1.568-.278,3.353,3.353,0,0,1-1.2-.8A3.578,3.578,0,0,1,40.1-2.213a4.7,4.7,0,0,1-.274-1.65A4.677,4.677,0,0,1,40.1-5.505a3.5,3.5,0,0,1,.772-1.245,3.4,3.4,0,0,1,1.2-.787A4.246,4.246,0,0,1,43.643-7.815Zm0,6.5a1.629,1.629,0,0,0,1.421-.645,3.234,3.234,0,0,0,.461-1.89,3.271,3.271,0,0,0-.461-1.9A1.622,1.622,0,0,0,43.643-6.4a1.645,1.645,0,0,0-1.44.656,3.254,3.254,0,0,0-.465,1.894A3.217,3.217,0,0,0,42.2-1.961,1.652,1.652,0,0,0,43.643-1.313Zm8.115-9.833V0H49.9V-11.145ZM56.722-7.7V0H54.87V-7.7ZM57-9.937a1.056,1.056,0,0,1-.1.45,1.237,1.237,0,0,1-.259.368,1.237,1.237,0,0,1-.379.251,1.162,1.162,0,0,1-.465.094,1.117,1.117,0,0,1-.454-.094,1.2,1.2,0,0,1-.371-.251,1.215,1.215,0,0,1-.251-.368,1.091,1.091,0,0,1-.094-.45,1.162,1.162,0,0,1,.094-.465,1.19,1.19,0,0,1,.251-.375,1.2,1.2,0,0,1,.371-.251,1.117,1.117,0,0,1,.454-.094,1.162,1.162,0,0,1,.465.094,1.237,1.237,0,0,1,.379.251,1.21,1.21,0,0,1,.259.375A1.124,1.124,0,0,1,57-9.937Zm6,2.122a4.217,4.217,0,0,1,1.564.278,3.372,3.372,0,0,1,1.2.787,3.486,3.486,0,0,1,.765,1.245,4.736,4.736,0,0,1,.27,1.642,4.759,4.759,0,0,1-.27,1.65A3.563,3.563,0,0,1,65.76-.96a3.323,3.323,0,0,1-1.2.8A4.217,4.217,0,0,1,63,.113a4.246,4.246,0,0,1-1.568-.278,3.353,3.353,0,0,1-1.2-.8,3.578,3.578,0,0,1-.772-1.253,4.7,4.7,0,0,1-.274-1.65,4.677,4.677,0,0,1,.274-1.642,3.5,3.5,0,0,1,.772-1.245,3.4,3.4,0,0,1,1.2-.787A4.246,4.246,0,0,1,63-7.815Zm0,6.5a1.629,1.629,0,0,0,1.421-.645,3.234,3.234,0,0,0,.461-1.89,3.271,3.271,0,0,0-.461-1.9A1.622,1.622,0,0,0,63-6.4a1.645,1.645,0,0,0-1.44.656,3.254,3.254,0,0,0-.465,1.894,3.217,3.217,0,0,0,.465,1.886A1.652,1.652,0,0,0,63-1.313Z" transform="translate(16 108.467)" fill="#111"/>
    <path id="パス_66" data-name="パス 66" d="M3.6-7.14H4.14a1.391,1.391,0,0,0,.536-.089.906.906,0,0,0,.366-.285l3.391-4.293a1.231,1.231,0,0,1,.446-.378,1.431,1.431,0,0,1,.591-.106h1.972L7.3-7.183a3.746,3.746,0,0,1-.374.4,1.707,1.707,0,0,1-.383.264,1.689,1.689,0,0,1,.506.289,2.669,2.669,0,0,1,.438.476L11.755,0H9.733a1.255,1.255,0,0,1-.608-.115.952.952,0,0,1-.336-.336L5.313-4.99a1.03,1.03,0,0,0-.382-.319,1.485,1.485,0,0,0-.6-.1H3.6V0H1.317V-12.3H3.6ZM16.856-8.857a4.779,4.779,0,0,1,1.772.315,3.821,3.821,0,0,1,1.356.892,3.951,3.951,0,0,1,.867,1.411,5.367,5.367,0,0,1,.306,1.861,5.394,5.394,0,0,1-.306,1.87,4.038,4.038,0,0,1-.867,1.42,3.766,3.766,0,0,1-1.356.9,4.779,4.779,0,0,1-1.772.315,4.813,4.813,0,0,1-1.776-.315,3.8,3.8,0,0,1-1.364-.9,4.056,4.056,0,0,1-.876-1.42,5.327,5.327,0,0,1-.31-1.87,5.3,5.3,0,0,1,.31-1.861,3.968,3.968,0,0,1,.876-1.411,3.856,3.856,0,0,1,1.364-.892A4.813,4.813,0,0,1,16.856-8.857Zm0,7.37a1.847,1.847,0,0,0,1.611-.731,3.665,3.665,0,0,0,.523-2.142,3.707,3.707,0,0,0-.523-2.15,1.838,1.838,0,0,0-1.611-.74,1.864,1.864,0,0,0-1.632.744A3.687,3.687,0,0,0,14.7-4.361a3.646,3.646,0,0,0,.527,2.138A1.872,1.872,0,0,0,16.856-1.488ZM23.307,0V-12.631h2.1v4.854a4.443,4.443,0,0,1,1.122-.782,3.251,3.251,0,0,1,1.437-.3,3.127,3.127,0,0,1,1.267.242,2.5,2.5,0,0,1,.922.68,2.989,2.989,0,0,1,.561,1.046,4.443,4.443,0,0,1,.191,1.339V0h-2.1V-5.551a1.863,1.863,0,0,0-.37-1.237,1.371,1.371,0,0,0-1.109-.438,2.186,2.186,0,0,0-1.02.247,3.655,3.655,0,0,0-.9.672V0Zm12.41-8.721V0h-2.1V-8.721Zm.314-2.542a1.2,1.2,0,0,1-.111.51,1.4,1.4,0,0,1-.293.417,1.4,1.4,0,0,1-.429.285,1.317,1.317,0,0,1-.527.106,1.266,1.266,0,0,1-.514-.106,1.362,1.362,0,0,1-.421-.285,1.377,1.377,0,0,1-.285-.417,1.237,1.237,0,0,1-.106-.51,1.317,1.317,0,0,1,.106-.527,1.349,1.349,0,0,1,.285-.425,1.362,1.362,0,0,1,.421-.285,1.266,1.266,0,0,1,.514-.106,1.317,1.317,0,0,1,.527.106,1.4,1.4,0,0,1,.429.285,1.371,1.371,0,0,1,.293.425A1.274,1.274,0,0,1,36.032-11.263Zm5.584,2.389a4.64,4.64,0,0,1,1.054.115,3.591,3.591,0,0,1,.9.336h2.507v.782a.434.434,0,0,1-.1.306.606.606,0,0,1-.348.153l-.782.144a2.7,2.7,0,0,1,.132.468,2.779,2.779,0,0,1,.047.519,2.594,2.594,0,0,1-.259,1.169A2.62,2.62,0,0,1,44.051-4a3.315,3.315,0,0,1-1.079.565,4.43,4.43,0,0,1-1.356.2,4.886,4.886,0,0,1-.96-.093q-.408.248-.408.556a.41.41,0,0,0,.242.39,1.97,1.97,0,0,0,.638.176,7.013,7.013,0,0,0,.9.051q.5,0,1.028.043a8.074,8.074,0,0,1,1.028.149,3.012,3.012,0,0,1,.9.337,1.8,1.8,0,0,1,.637.627A1.93,1.93,0,0,1,45.858.024a2.4,2.4,0,0,1-.285,1.126,3.022,3.022,0,0,1-.825.972,4.3,4.3,0,0,1-1.322.687,5.647,5.647,0,0,1-1.785.26,6.872,6.872,0,0,1-1.726-.191,4.028,4.028,0,0,1-1.211-.51,2.212,2.212,0,0,1-.718-.735,1.724,1.724,0,0,1-.238-.867,1.483,1.483,0,0,1,.374-1.029A2.562,2.562,0,0,1,39.16-.927a1.446,1.446,0,0,1-.518-.476,1.385,1.385,0,0,1-.2-.774,1.3,1.3,0,0,1,.068-.4,1.613,1.613,0,0,1,.208-.412,2.03,2.03,0,0,1,.353-.387,2.434,2.434,0,0,1,.5-.327,2.751,2.751,0,0,1-1.041-.952,2.542,2.542,0,0,1-.378-1.394,2.594,2.594,0,0,1,.259-1.169,2.619,2.619,0,0,1,.722-.892,3.3,3.3,0,0,1,1.1-.565A4.663,4.663,0,0,1,41.616-8.874Zm2.3,9.24a.6.6,0,0,0-.153-.425,1,1,0,0,0-.417-.256,3.023,3.023,0,0,0-.616-.135,6.137,6.137,0,0,0-.748-.043H41.17a3.479,3.479,0,0,1-.812-.094,1.9,1.9,0,0,0-.574.463.952.952,0,0,0-.217.616.848.848,0,0,0,.115.429.958.958,0,0,0,.366.344,2.171,2.171,0,0,0,.65.225,5.028,5.028,0,0,0,.978.081,4.886,4.886,0,0,0,1.011-.091,2.4,2.4,0,0,0,.7-.252,1.07,1.07,0,0,0,.4-.382A.948.948,0,0,0,43.92.366Zm-2.3-4.939a1.97,1.97,0,0,0,.68-.106,1.334,1.334,0,0,0,.48-.293,1.208,1.208,0,0,0,.289-.451,1.65,1.65,0,0,0,.1-.578,1.367,1.367,0,0,0-.387-1.024,1.6,1.6,0,0,0-1.16-.378,1.6,1.6,0,0,0-1.16.378A1.367,1.367,0,0,0,40.069-6a1.625,1.625,0,0,0,.1.569,1.248,1.248,0,0,0,.289.455,1.3,1.3,0,0,0,.484.3A1.979,1.979,0,0,0,41.616-4.573ZM54.74,0H53.8a1.016,1.016,0,0,1-.467-.089.574.574,0,0,1-.255-.361l-.187-.62a7.2,7.2,0,0,1-.65.523,3.948,3.948,0,0,1-.659.378,3.36,3.36,0,0,1-.722.23,4.347,4.347,0,0,1-.85.077,3.339,3.339,0,0,1-1.02-.149,2.2,2.2,0,0,1-.8-.448A2.033,2.033,0,0,1,47.66-1.2a2.64,2.64,0,0,1-.187-1.032,2.041,2.041,0,0,1,.259-.977,2.444,2.444,0,0,1,.863-.87A5.508,5.508,0,0,1,50.2-4.725a10.261,10.261,0,0,1,2.491-.256v-.514a1.949,1.949,0,0,0-.37-1.306,1.35,1.35,0,0,0-1.075-.424,2.6,2.6,0,0,0-.85.119,3.288,3.288,0,0,0-.591.268q-.251.149-.463.268a.94.94,0,0,1-.468.119.607.607,0,0,1-.365-.11.87.87,0,0,1-.247-.272l-.382-.672a5.186,5.186,0,0,1,3.63-1.377,3.507,3.507,0,0,1,1.364.251,2.9,2.9,0,0,1,1.016.7,2.983,2.983,0,0,1,.633,1.067,4.1,4.1,0,0,1,.217,1.36ZM50.66-1.309a2.828,2.828,0,0,0,.6-.059,2.278,2.278,0,0,0,.514-.176,2.741,2.741,0,0,0,.467-.289,4.222,4.222,0,0,0,.455-.406V-3.7a8.525,8.525,0,0,0-1.534.116,4.054,4.054,0,0,0-.99.3,1.275,1.275,0,0,0-.531.419.933.933,0,0,0-.157.522.921.921,0,0,0,.327.8A1.411,1.411,0,0,0,50.66-1.309ZM62.492-7.021a.56.56,0,0,1-.179.191.462.462,0,0,1-.238.055.75.75,0,0,1-.327-.085q-.174-.085-.4-.191a3.7,3.7,0,0,0-.523-.191,2.5,2.5,0,0,0-.693-.085,1.614,1.614,0,0,0-.978.264.817.817,0,0,0-.357.688.657.657,0,0,0,.183.472,1.643,1.643,0,0,0,.485.336,4.742,4.742,0,0,0,.684.259q.383.115.782.251t.782.31a2.727,2.727,0,0,1,.684.442,2.053,2.053,0,0,1,.484.642,2.036,2.036,0,0,1,.183.9,2.894,2.894,0,0,1-.229,1.16,2.551,2.551,0,0,1-.672.918,3.147,3.147,0,0,1-1.092.6,4.712,4.712,0,0,1-1.492.217A4.749,4.749,0,0,1,58.7.055a5.193,5.193,0,0,1-.825-.225,4.563,4.563,0,0,1-.731-.34,3.548,3.548,0,0,1-.591-.425l.485-.8a.685.685,0,0,1,.221-.221.619.619,0,0,1,.323-.077.679.679,0,0,1,.37.11q.174.111.4.238a3.609,3.609,0,0,0,.54.238,2.375,2.375,0,0,0,.786.11,2.04,2.04,0,0,0,.642-.089,1.358,1.358,0,0,0,.442-.234.877.877,0,0,0,.255-.336,1.007,1.007,0,0,0,.081-.4.705.705,0,0,0-.183-.5,1.6,1.6,0,0,0-.484-.34,4.68,4.68,0,0,0-.688-.259q-.387-.115-.791-.251a7.312,7.312,0,0,1-.791-.319,2.694,2.694,0,0,1-.688-.463,2.1,2.1,0,0,1-.485-.689,2.4,2.4,0,0,1-.183-.986,2.512,2.512,0,0,1,.213-1.02,2.392,2.392,0,0,1,.625-.846,3.1,3.1,0,0,1,1.028-.578A4.284,4.284,0,0,1,60.1-8.857a4.358,4.358,0,0,1,1.64.3,3.705,3.705,0,0,1,1.233.782ZM65.255,0V-12.631h2.1v4.854a4.443,4.443,0,0,1,1.122-.782,3.251,3.251,0,0,1,1.437-.3,3.127,3.127,0,0,1,1.267.242,2.5,2.5,0,0,1,.922.68,2.989,2.989,0,0,1,.561,1.046,4.443,4.443,0,0,1,.191,1.339V0h-2.1V-5.551a1.863,1.863,0,0,0-.37-1.237,1.371,1.371,0,0,0-1.109-.438,2.186,2.186,0,0,0-1.02.247,3.656,3.656,0,0,0-.9.672V0Zm12.41-8.721V0h-2.1V-8.721Zm.314-2.542a1.2,1.2,0,0,1-.11.51,1.4,1.4,0,0,1-.293.417,1.4,1.4,0,0,1-.429.285,1.317,1.317,0,0,1-.527.106,1.266,1.266,0,0,1-.514-.106,1.362,1.362,0,0,1-.421-.285,1.377,1.377,0,0,1-.285-.417,1.237,1.237,0,0,1-.106-.51,1.317,1.317,0,0,1,.106-.527,1.349,1.349,0,0,1,.285-.425A1.362,1.362,0,0,1,76.1-12.5a1.266,1.266,0,0,1,.514-.106,1.317,1.317,0,0,1,.527.106,1.4,1.4,0,0,1,.429.285,1.371,1.371,0,0,1,.293.425A1.274,1.274,0,0,1,77.979-11.263Zm15.139-1.028v1.878h-3.7V0H87.134V-10.413H83.419v-1.878Zm3.833,3.434a4.779,4.779,0,0,1,1.772.315,3.821,3.821,0,0,1,1.356.892,3.951,3.951,0,0,1,.867,1.411,5.367,5.367,0,0,1,.306,1.861,5.394,5.394,0,0,1-.306,1.87,4.038,4.038,0,0,1-.867,1.42,3.766,3.766,0,0,1-1.356.9,4.779,4.779,0,0,1-1.772.315,4.813,4.813,0,0,1-1.777-.315,3.8,3.8,0,0,1-1.364-.9,4.056,4.056,0,0,1-.875-1.42,5.327,5.327,0,0,1-.31-1.87,5.3,5.3,0,0,1,.31-1.861A3.968,3.968,0,0,1,93.81-7.65a3.856,3.856,0,0,1,1.364-.892A4.813,4.813,0,0,1,96.951-8.857Zm0,7.37a1.847,1.847,0,0,0,1.611-.731,3.665,3.665,0,0,0,.523-2.142,3.707,3.707,0,0,0-.523-2.15,1.838,1.838,0,0,0-1.611-.74,1.864,1.864,0,0,0-1.632.744,3.687,3.687,0,0,0-.527,2.146,3.646,3.646,0,0,0,.527,2.138A1.872,1.872,0,0,0,96.951-1.488ZM103.4,0V-8.721h1.284a.516.516,0,0,1,.535.382l.136.646a4.966,4.966,0,0,1,.48-.467,3.085,3.085,0,0,1,.535-.366,2.9,2.9,0,0,1,.612-.242,2.725,2.725,0,0,1,.718-.089,2.036,2.036,0,0,1,1.356.446,2.687,2.687,0,0,1,.795,1.186,2.661,2.661,0,0,1,.51-.744,2.788,2.788,0,0,1,.671-.506,3.09,3.09,0,0,1,.778-.289,3.736,3.736,0,0,1,.829-.094,3.482,3.482,0,0,1,1.284.221,2.462,2.462,0,0,1,.943.646,2.847,2.847,0,0,1,.582,1.037,4.517,4.517,0,0,1,.2,1.4V0h-2.1V-5.551a1.865,1.865,0,0,0-.366-1.254,1.342,1.342,0,0,0-1.071-.421,1.6,1.6,0,0,0-.6.111,1.428,1.428,0,0,0-.485.319,1.455,1.455,0,0,0-.327.523,2.033,2.033,0,0,0-.119.722V0h-2.108V-5.551a1.9,1.9,0,0,0-.353-1.275,1.316,1.316,0,0,0-1.041-.4,1.681,1.681,0,0,0-.846.225,2.849,2.849,0,0,0-.735.616V0ZM121.95-8.857a4.779,4.779,0,0,1,1.772.315,3.821,3.821,0,0,1,1.356.892,3.951,3.951,0,0,1,.867,1.411,5.367,5.367,0,0,1,.306,1.861,5.394,5.394,0,0,1-.306,1.87,4.038,4.038,0,0,1-.867,1.42,3.766,3.766,0,0,1-1.356.9,4.779,4.779,0,0,1-1.772.315,4.813,4.813,0,0,1-1.777-.315,3.8,3.8,0,0,1-1.364-.9,4.056,4.056,0,0,1-.875-1.42,5.327,5.327,0,0,1-.31-1.87,5.3,5.3,0,0,1,.31-1.861,3.968,3.968,0,0,1,.875-1.411,3.856,3.856,0,0,1,1.364-.892A4.813,4.813,0,0,1,121.95-8.857Zm0,7.37a1.847,1.847,0,0,0,1.611-.731,3.665,3.665,0,0,0,.523-2.142,3.707,3.707,0,0,0-.523-2.15,1.838,1.838,0,0,0-1.611-.74,1.864,1.864,0,0,0-1.632.744,3.687,3.687,0,0,0-.527,2.146,3.646,3.646,0,0,0,.527,2.138A1.872,1.872,0,0,0,121.95-1.488ZM128.4,0V-8.721h1.233a.661.661,0,0,1,.45.119.684.684,0,0,1,.17.408l.127,1.054a4.144,4.144,0,0,1,1.1-1.275,2.307,2.307,0,0,1,1.411-.467,1.824,1.824,0,0,1,1.071.3l-.272,1.572a.325.325,0,0,1-.11.217.374.374,0,0,1-.23.064A1.431,1.431,0,0,1,133-6.792a2.332,2.332,0,0,0-.587-.06,1.781,1.781,0,0,0-1.122.361,2.782,2.782,0,0,0-.79,1.058V0Zm11.178-8.857a4.779,4.779,0,0,1,1.772.315,3.821,3.821,0,0,1,1.356.892,3.951,3.951,0,0,1,.867,1.411,5.367,5.367,0,0,1,.306,1.861,5.394,5.394,0,0,1-.306,1.87,4.038,4.038,0,0,1-.867,1.42,3.767,3.767,0,0,1-1.356.9,4.779,4.779,0,0,1-1.772.315A4.813,4.813,0,0,1,137.8-.187a3.8,3.8,0,0,1-1.364-.9,4.056,4.056,0,0,1-.876-1.42,5.327,5.327,0,0,1-.31-1.87,5.3,5.3,0,0,1,.31-1.861,3.968,3.968,0,0,1,.876-1.411,3.856,3.856,0,0,1,1.364-.892A4.813,4.813,0,0,1,139.579-8.857Zm0,7.37a1.847,1.847,0,0,0,1.611-.731,3.665,3.665,0,0,0,.523-2.142,3.707,3.707,0,0,0-.523-2.15,1.838,1.838,0,0,0-1.611-.74,1.864,1.864,0,0,0-1.632.744,3.687,3.687,0,0,0-.527,2.146,3.646,3.646,0,0,0,.527,2.138A1.872,1.872,0,0,0,139.579-1.488Zm8.372-7.234v5.542a1.863,1.863,0,0,0,.37,1.237,1.371,1.371,0,0,0,1.109.438,2.217,2.217,0,0,0,1.02-.242,3.565,3.565,0,0,0,.9-.667V-8.721h2.1V0h-1.283a.516.516,0,0,1-.536-.383l-.145-.7a6.076,6.076,0,0,1-.561.5,3.384,3.384,0,0,1-.616.383,3.456,3.456,0,0,1-.706.247,3.528,3.528,0,0,1-.812.089,3.1,3.1,0,0,1-1.262-.242,2.528,2.528,0,0,1-.922-.684,3,3,0,0,1-.565-1.05,4.443,4.443,0,0,1-.191-1.339V-8.721Z" transform="translate(16 128.467)" fill="#111"/>
    <path id="パス_67" data-name="パス 67" d="M2.828,14H1.47V3.969H2.828Zm11.445,0a.318.318,0,0,1-.336-.259l-.112-.861a3.733,3.733,0,0,1-1.04.885,2.663,2.663,0,0,1-1.34.332,2.56,2.56,0,0,1-1.106-.234,2.293,2.293,0,0,1-.847-.689,3.284,3.284,0,0,1-.539-1.134,5.838,5.838,0,0,1-.189-1.561,4.893,4.893,0,0,1,.21-1.46A3.557,3.557,0,0,1,9.58,7.847,2.777,2.777,0,0,1,11.83,6.783,2.566,2.566,0,0,1,12.943,7a2.669,2.669,0,0,1,.826.619V3.689h1.246V14Zm-2.415-.91a2.007,2.007,0,0,0,1.068-.28,3.077,3.077,0,0,0,.844-.791V8.589a1.971,1.971,0,0,0-.753-.648,2.172,2.172,0,0,0-.906-.185,1.8,1.8,0,0,0-1.526.707,3.3,3.3,0,0,0-.532,2.016,5.126,5.126,0,0,0,.119,1.186,2.283,2.283,0,0,0,.35.812,1.375,1.375,0,0,0,.567.465A1.9,1.9,0,0,0,11.858,13.09ZM20.545,6.8a3.165,3.165,0,0,1,1.176.213,2.64,2.64,0,0,1,.931.616,2.808,2.808,0,0,1,.612.994,3.84,3.84,0,0,1,.221,1.348.813.813,0,0,1-.063.392.262.262,0,0,1-.238.1H18.466a3.915,3.915,0,0,0,.182,1.169,2.39,2.39,0,0,0,.462.83,1.851,1.851,0,0,0,.7.5,2.4,2.4,0,0,0,.91.165,2.67,2.67,0,0,0,.809-.109,3.846,3.846,0,0,0,.584-.234,4.458,4.458,0,0,0,.41-.234.543.543,0,0,1,.284-.108.274.274,0,0,1,.238.119l.35.455a2.367,2.367,0,0,1-.553.487,3.443,3.443,0,0,1-.689.339,4.379,4.379,0,0,1-.76.2,4.639,4.639,0,0,1-.777.066,3.606,3.606,0,0,1-1.354-.248,2.973,2.973,0,0,1-1.071-.728,3.34,3.34,0,0,1-.7-1.187,4.825,4.825,0,0,1-.252-1.624,4.132,4.132,0,0,1,.228-1.386,3.267,3.267,0,0,1,.654-1.116,3.013,3.013,0,0,1,1.043-.742A3.424,3.424,0,0,1,20.545,6.8Zm.028.917a1.913,1.913,0,0,0-1.421.522,2.455,2.455,0,0,0-.644,1.445h3.857a2.523,2.523,0,0,0-.119-.795,1.77,1.77,0,0,0-.35-.623,1.567,1.567,0,0,0-.563-.406A1.9,1.9,0,0,0,20.573,7.714Zm9.191.364a.276.276,0,0,1-.259.154.487.487,0,0,1-.238-.077q-.133-.077-.325-.172a3.057,3.057,0,0,0-.458-.175,2.187,2.187,0,0,0-.63-.081,1.859,1.859,0,0,0-.567.081,1.362,1.362,0,0,0-.431.22.975.975,0,0,0-.273.326.874.874,0,0,0-.094.4.671.671,0,0,0,.158.455,1.369,1.369,0,0,0,.417.315,3.631,3.631,0,0,0,.588.234q.329.1.675.217t.676.255a2.451,2.451,0,0,1,.588.35,1.6,1.6,0,0,1,.417.514,1.575,1.575,0,0,1,.158.732,2.316,2.316,0,0,1-.175.906,1.978,1.978,0,0,1-.518.721,2.5,2.5,0,0,1-.84.479,3.451,3.451,0,0,1-1.148.175,3.581,3.581,0,0,1-1.344-.242,3.406,3.406,0,0,1-1.022-.62l.294-.476a.427.427,0,0,1,.133-.14.373.373,0,0,1,.2-.049.469.469,0,0,1,.266.1q.14.1.34.217a2.612,2.612,0,0,0,.483.217,2.2,2.2,0,0,0,.711.1,1.948,1.948,0,0,0,.637-.094,1.338,1.338,0,0,0,.455-.255,1.012,1.012,0,0,0,.27-.371,1.153,1.153,0,0,0,.087-.448.743.743,0,0,0-.158-.486,1.329,1.329,0,0,0-.416-.329,3.394,3.394,0,0,0-.592-.238q-.332-.1-.679-.214t-.679-.255a2.387,2.387,0,0,1-.591-.361,1.633,1.633,0,0,1-.417-.535,1.732,1.732,0,0,1-.158-.774,1.887,1.887,0,0,1,.168-.781,1.914,1.914,0,0,1,.49-.658,2.413,2.413,0,0,1,.791-.451A3.165,3.165,0,0,1,27.825,6.8a3.387,3.387,0,0,1,1.257.22,2.974,2.974,0,0,1,.962.606ZM33.8,6.909V14H32.55V6.909Zm.28-2.226a.793.793,0,0,1-.073.34.977.977,0,0,1-.2.28.911.911,0,0,1-.284.193.851.851,0,0,1-.343.07.826.826,0,0,1-.34-.07.933.933,0,0,1-.472-.472.826.826,0,0,1-.07-.34.876.876,0,0,1,.07-.347.9.9,0,0,1,.193-.287.923.923,0,0,1,.28-.193.826.826,0,0,1,.34-.07.851.851,0,0,1,.343.07.911.911,0,0,1,.284.193.949.949,0,0,1,.2.287A.84.84,0,0,1,34.076,4.683ZM39.011,6.79a3.527,3.527,0,0,1,.865.1,2.719,2.719,0,0,1,.731.3h1.925v.462q0,.231-.294.294l-.805.112a2.156,2.156,0,0,1,.238,1.015,2.182,2.182,0,0,1-.2.942,2.136,2.136,0,0,1-.553.724,2.482,2.482,0,0,1-.84.462,3.381,3.381,0,0,1-1.068.161,3.587,3.587,0,0,1-.938-.119,1.192,1.192,0,0,0-.34.311.572.572,0,0,0-.116.326.442.442,0,0,0,.2.394,1.413,1.413,0,0,0,.539.192,4.523,4.523,0,0,0,.763.058h.872a4.844,4.844,0,0,1,.871.078,2.644,2.644,0,0,1,.763.255,1.424,1.424,0,0,1,.539.489,1.457,1.457,0,0,1,.2.808,1.894,1.894,0,0,1-.228.893,2.408,2.408,0,0,1-.654.769,3.358,3.358,0,0,1-1.043.539,4.461,4.461,0,0,1-1.393.2,5.369,5.369,0,0,1-1.361-.154,3.183,3.183,0,0,1-.97-.413,1.8,1.8,0,0,1-.577-.6,1.423,1.423,0,0,1-.193-.711,1.285,1.285,0,0,1,.333-.893A2.28,2.28,0,0,1,37.2,13.2a1.252,1.252,0,0,1-.479-.374,1.006,1.006,0,0,1-.179-.626.983.983,0,0,1,.056-.318,1.249,1.249,0,0,1,.172-.325,1.832,1.832,0,0,1,.675-.566,2.207,2.207,0,0,1-.822-.781,2.137,2.137,0,0,1-.3-1.137,2.182,2.182,0,0,1,.2-.941,2.082,2.082,0,0,1,.556-.721,2.545,2.545,0,0,1,.85-.459A3.47,3.47,0,0,1,39.011,6.79Zm2.212,7.57a.628.628,0,0,0-.147-.435.947.947,0,0,0-.4-.253,2.847,2.847,0,0,0-.581-.132A5.372,5.372,0,0,0,39.4,13.5h-.742a2.7,2.7,0,0,1-.721-.095,2.047,2.047,0,0,0-.648.463.936.936,0,0,0-.248.652.859.859,0,0,0,.122.445,1.045,1.045,0,0,0,.375.358,2.191,2.191,0,0,0,.633.238,4.056,4.056,0,0,0,.9.088,4,4,0,0,0,.9-.093,2.241,2.241,0,0,0,.675-.264,1.282,1.282,0,0,0,.424-.407A.965.965,0,0,0,41.223,14.36Zm-2.212-3.825a1.961,1.961,0,0,0,.668-.105,1.351,1.351,0,0,0,.486-.294,1.2,1.2,0,0,0,.294-.451,1.639,1.639,0,0,0,.1-.578,1.379,1.379,0,0,0-.4-1.036,1.9,1.9,0,0,0-2.3,0,1.379,1.379,0,0,0-.4,1.036,1.589,1.589,0,0,0,.1.578,1.24,1.24,0,0,0,.3.451,1.356,1.356,0,0,0,.483.294A1.909,1.909,0,0,0,39.011,10.535ZM44.408,14V6.909h.742a.318.318,0,0,1,.336.259l.1.77a3.985,3.985,0,0,1,1.033-.826A2.685,2.685,0,0,1,47.936,6.8a2.56,2.56,0,0,1,1.026.193,1.984,1.984,0,0,1,.742.546,2.411,2.411,0,0,1,.451.851,3.7,3.7,0,0,1,.154,1.1V14H49.063V9.485A1.909,1.909,0,0,0,48.7,8.236a1.374,1.374,0,0,0-1.124-.445,2.094,2.094,0,0,0-1.033.266,3.4,3.4,0,0,0-.885.721V14Zm16.954,0h-.553a.66.66,0,0,1-.294-.056.31.31,0,0,1-.147-.238l-.14-.658q-.28.252-.546.451a3.125,3.125,0,0,1-.56.336,2.9,2.9,0,0,1-.627.207,3.593,3.593,0,0,1-.738.07A2.513,2.513,0,0,1,56.984,14a1.761,1.761,0,0,1-.627-.348,1.655,1.655,0,0,1-.424-.587,2.056,2.056,0,0,1-.157-.839,1.57,1.57,0,0,1,.231-.811,2.033,2.033,0,0,1,.745-.692,4.846,4.846,0,0,1,1.347-.5,9.17,9.17,0,0,1,2.037-.193V9.474a1.929,1.929,0,0,0-.354-1.257,1.281,1.281,0,0,0-1.047-.426,2.219,2.219,0,0,0-.766.115,2.9,2.9,0,0,0-.539.259q-.228.144-.392.259a.565.565,0,0,1-.326.116.373.373,0,0,1-.221-.067.507.507,0,0,1-.151-.164l-.224-.4a4.049,4.049,0,0,1,1.267-.847,3.912,3.912,0,0,1,1.5-.28,2.685,2.685,0,0,1,1.057.2,2.168,2.168,0,0,1,.777.546,2.312,2.312,0,0,1,.476.847,3.528,3.528,0,0,1,.161,1.092Zm-3.234-.763a2.544,2.544,0,0,0,.6-.066,2.376,2.376,0,0,0,.514-.189,2.726,2.726,0,0,0,.462-.3,4,4,0,0,0,.431-.4V10.822a8.355,8.355,0,0,0-1.463.109,4.087,4.087,0,0,0-.98.285,1.366,1.366,0,0,0-.549.415.9.9,0,0,0-.172.535,1.187,1.187,0,0,0,.091.486.92.92,0,0,0,.245.334.965.965,0,0,0,.364.19A1.655,1.655,0,0,0,58.128,13.237ZM63.882,14V6.909h.742a.318.318,0,0,1,.336.259l.1.77a3.985,3.985,0,0,1,1.033-.826A2.685,2.685,0,0,1,67.41,6.8a2.56,2.56,0,0,1,1.025.193,1.984,1.984,0,0,1,.742.546,2.411,2.411,0,0,1,.451.851,3.7,3.7,0,0,1,.154,1.1V14H68.537V9.485a1.909,1.909,0,0,0-.368-1.249,1.374,1.374,0,0,0-1.123-.445,2.094,2.094,0,0,0-1.033.266,3.4,3.4,0,0,0-.885.721V14Zm13.4,0a.318.318,0,0,1-.336-.259l-.112-.861a3.733,3.733,0,0,1-1.04.885,2.663,2.663,0,0,1-1.34.332,2.56,2.56,0,0,1-1.106-.234,2.293,2.293,0,0,1-.847-.689,3.284,3.284,0,0,1-.539-1.134,5.838,5.838,0,0,1-.189-1.561,4.893,4.893,0,0,1,.21-1.46,3.557,3.557,0,0,1,.606-1.173,2.777,2.777,0,0,1,2.25-1.064A2.566,2.566,0,0,1,75.957,7a2.669,2.669,0,0,1,.826.619V3.689h1.246V14Zm-2.415-.91a2.007,2.007,0,0,0,1.067-.28,3.077,3.077,0,0,0,.844-.791V8.589a1.971,1.971,0,0,0-.753-.648,2.172,2.172,0,0,0-.907-.185,1.8,1.8,0,0,0-1.526.707,3.3,3.3,0,0,0-.532,2.016,5.126,5.126,0,0,0,.119,1.186,2.283,2.283,0,0,0,.35.812,1.375,1.375,0,0,0,.567.465A1.9,1.9,0,0,0,74.872,13.09Zm9.254.91V3.689h1.253V7.931a3.623,3.623,0,0,1,1.011-.823A2.68,2.68,0,0,1,87.7,6.8a2.609,2.609,0,0,1,1.113.231,2.249,2.249,0,0,1,.847.689A3.326,3.326,0,0,1,90.2,8.851a5.8,5.8,0,0,1,.189,1.558,4.893,4.893,0,0,1-.21,1.459,3.517,3.517,0,0,1-.605,1.169,2.8,2.8,0,0,1-2.25,1.06,2.371,2.371,0,0,1-1.166-.266,2.651,2.651,0,0,1-.837-.742l-.063.644a.3.3,0,0,1-.322.266ZM87.29,7.791a2.007,2.007,0,0,0-1.067.28,3.077,3.077,0,0,0-.843.791v3.43a1.953,1.953,0,0,0,.745.651,2.154,2.154,0,0,0,.913.189,1.8,1.8,0,0,0,1.526-.707,3.3,3.3,0,0,0,.532-2.016,5.03,5.03,0,0,0-.123-1.19A2.327,2.327,0,0,0,88.62,8.4a1.375,1.375,0,0,0-.567-.465A1.886,1.886,0,0,0,87.29,7.791Zm6.328-.882v4.522a1.882,1.882,0,0,0,.371,1.246,1.381,1.381,0,0,0,1.12.441,2.145,2.145,0,0,0,1.029-.259,3.2,3.2,0,0,0,.889-.721V6.909h1.246V14h-.742a.318.318,0,0,1-.336-.259l-.1-.763a3.9,3.9,0,0,1-1.036.823,2.715,2.715,0,0,1-1.316.312,2.56,2.56,0,0,1-1.025-.193,2.033,2.033,0,0,1-.745-.543,2.3,2.3,0,0,1-.451-.847,3.781,3.781,0,0,1-.15-1.1V6.909Zm8.722,0V14h-1.246V6.909Zm.28-2.226a.793.793,0,0,1-.074.34.978.978,0,0,1-.2.28.911.911,0,0,1-.284.193.851.851,0,0,1-.343.07.826.826,0,0,1-.34-.07.933.933,0,0,1-.472-.472.826.826,0,0,1-.07-.34.876.876,0,0,1,.07-.347.9.9,0,0,1,.192-.287.923.923,0,0,1,.28-.193.826.826,0,0,1,.34-.07.851.851,0,0,1,.343.07.911.911,0,0,1,.284.193.949.949,0,0,1,.2.287A.84.84,0,0,1,102.62,4.683Zm3.934-.994V14h-1.246V3.689ZM114.373,14a.318.318,0,0,1-.336-.259l-.112-.861a3.733,3.733,0,0,1-1.04.885,2.663,2.663,0,0,1-1.34.332,2.56,2.56,0,0,1-1.106-.234,2.293,2.293,0,0,1-.847-.689,3.284,3.284,0,0,1-.539-1.134,5.838,5.838,0,0,1-.189-1.561,4.893,4.893,0,0,1,.21-1.46,3.557,3.557,0,0,1,.606-1.173,2.777,2.777,0,0,1,2.25-1.064,2.566,2.566,0,0,1,1.113.22,2.669,2.669,0,0,1,.826.619V3.689h1.246V14Zm-2.415-.91a2.007,2.007,0,0,0,1.067-.28,3.077,3.077,0,0,0,.844-.791V8.589a1.971,1.971,0,0,0-.753-.648,2.172,2.172,0,0,0-.907-.185,1.8,1.8,0,0,0-1.526.707,3.3,3.3,0,0,0-.532,2.016,5.126,5.126,0,0,0,.119,1.186,2.283,2.283,0,0,0,.35.812,1.375,1.375,0,0,0,.567.465A1.9,1.9,0,0,0,111.958,13.09Zm8.288-6.181h.98a.4.4,0,0,1,.252.077.385.385,0,0,1,.133.182l1.358,4.564q.056.252.105.486t.084.472q.056-.238.126-.472t.147-.486l1.5-4.592a.37.37,0,0,1,.123-.175.342.342,0,0,1,.22-.07h.539a.368.368,0,0,1,.231.07.361.361,0,0,1,.126.175l1.463,4.592q.077.245.136.483t.116.469q.035-.231.091-.483t.119-.469l1.386-4.564a.363.363,0,0,1,.133-.185.374.374,0,0,1,.231-.073h.938L128.485,14H127.5q-.182,0-.252-.238l-1.568-4.809a2.7,2.7,0,0,1-.091-.326q-.035-.164-.07-.325-.035.161-.07.329a2.64,2.64,0,0,1-.091.329l-1.589,4.8a.292.292,0,0,1-.287.238h-.938Zm13.664,0V14h-1.246V6.909Zm.28-2.226a.793.793,0,0,1-.074.34.977.977,0,0,1-.2.28.91.91,0,0,1-.284.193.851.851,0,0,1-.343.07.826.826,0,0,1-.34-.07.933.933,0,0,1-.473-.472.826.826,0,0,1-.07-.34.876.876,0,0,1,.07-.347.9.9,0,0,1,.193-.287.923.923,0,0,1,.28-.193.826.826,0,0,1,.34-.07.851.851,0,0,1,.343.07.91.91,0,0,1,.284.193.949.949,0,0,1,.2.287A.84.84,0,0,1,134.19,4.683Zm4.7,9.429a1.709,1.709,0,0,1-1.292-.469,1.872,1.872,0,0,1-.452-1.351V7.952h-.854a.279.279,0,0,1-.189-.067.258.258,0,0,1-.077-.207v-.5l1.162-.147.287-2.191a.265.265,0,0,1,.091-.172.289.289,0,0,1,.2-.066h.63V7.049h2.03v.9h-2.03v4.256a.905.905,0,0,0,.217.665.758.758,0,0,0,.56.217.988.988,0,0,0,.339-.052,1.457,1.457,0,0,0,.249-.116q.1-.063.178-.116a.234.234,0,0,1,.13-.052.215.215,0,0,1,.175.119l.364.6a2.322,2.322,0,0,1-.777.472A2.638,2.638,0,0,1,138.887,14.112Zm3.7-.112V3.689h1.246V7.861a3.826,3.826,0,0,1,1.008-.773,2.7,2.7,0,0,1,1.274-.29,2.56,2.56,0,0,1,1.025.193,1.984,1.984,0,0,1,.742.546,2.411,2.411,0,0,1,.451.851,3.7,3.7,0,0,1,.154,1.1V14h-1.246V9.485a1.909,1.909,0,0,0-.368-1.249,1.374,1.374,0,0,0-1.123-.445,2.094,2.094,0,0,0-1.033.266,3.4,3.4,0,0,0-.885.721V14ZM1.022,36.2V26.709h.742a.318.318,0,0,1,.336.259l.105.84a3.786,3.786,0,0,1,1.039-.889,2.655,2.655,0,0,1,1.347-.336,2.56,2.56,0,0,1,1.106.234,2.28,2.28,0,0,1,.847.693,3.323,3.323,0,0,1,.539,1.138,5.838,5.838,0,0,1,.189,1.561,4.893,4.893,0,0,1-.21,1.459,3.554,3.554,0,0,1-.6,1.169,2.811,2.811,0,0,1-.963.777,2.847,2.847,0,0,1-1.285.284,2.644,2.644,0,0,1-1.124-.217,2.532,2.532,0,0,1-.822-.616V36.2Zm3.157-8.61a2.007,2.007,0,0,0-1.067.28,3.077,3.077,0,0,0-.844.791v3.43a2,2,0,0,0,.753.651,2.154,2.154,0,0,0,.914.189,1.787,1.787,0,0,0,1.519-.707,3.3,3.3,0,0,0,.532-2.016,5.03,5.03,0,0,0-.122-1.19,2.327,2.327,0,0,0-.353-.816,1.375,1.375,0,0,0-.567-.465A1.886,1.886,0,0,0,4.179,27.591Zm6.279-.882v4.522a1.882,1.882,0,0,0,.371,1.246,1.381,1.381,0,0,0,1.12.441,2.145,2.145,0,0,0,1.029-.259,3.2,3.2,0,0,0,.889-.721V26.709h1.246V33.8h-.742a.318.318,0,0,1-.336-.259l-.1-.763A3.9,3.9,0,0,1,12.9,33.6a2.715,2.715,0,0,1-1.316.312,2.56,2.56,0,0,1-1.026-.193,2.033,2.033,0,0,1-.745-.542,2.3,2.3,0,0,1-.451-.847,3.781,3.781,0,0,1-.151-1.1V26.709ZM17.794,33.8V26.709h.714a.394.394,0,0,1,.28.077.472.472,0,0,1,.1.266l.084,1.106a3.243,3.243,0,0,1,.9-1.159,2.119,2.119,0,0,1,1.789-.35,1.854,1.854,0,0,1,.441.185l-.161.931a.21.21,0,0,1-.217.175,1.089,1.089,0,0,1-.3-.066,1.9,1.9,0,0,0-.567-.066,1.606,1.606,0,0,0-1.089.378,2.838,2.838,0,0,0-.732,1.1V33.8Zm6.272,2.4V26.709h.742a.318.318,0,0,1,.336.259l.1.84a3.786,3.786,0,0,1,1.039-.889,2.655,2.655,0,0,1,1.347-.336,2.56,2.56,0,0,1,1.106.234,2.28,2.28,0,0,1,.847.693,3.323,3.323,0,0,1,.539,1.138,5.838,5.838,0,0,1,.189,1.561,4.893,4.893,0,0,1-.21,1.459,3.554,3.554,0,0,1-.6,1.169,2.811,2.811,0,0,1-.962.777,2.847,2.847,0,0,1-1.285.284,2.644,2.644,0,0,1-1.124-.217,2.532,2.532,0,0,1-.823-.616V36.2Zm3.157-8.61a2.007,2.007,0,0,0-1.068.28,3.077,3.077,0,0,0-.844.791v3.43a2,2,0,0,0,.753.651,2.154,2.154,0,0,0,.913.189,1.787,1.787,0,0,0,1.519-.707,3.3,3.3,0,0,0,.532-2.016,5.03,5.03,0,0,0-.123-1.19,2.327,2.327,0,0,0-.353-.816,1.375,1.375,0,0,0-.567-.465A1.886,1.886,0,0,0,27.223,27.591Zm8.071-.994a3.642,3.642,0,0,1,1.4.259,2.959,2.959,0,0,1,1.064.735,3.254,3.254,0,0,1,.672,1.151,4.98,4.98,0,0,1,0,3.021,3.259,3.259,0,0,1-.672,1.148,2.922,2.922,0,0,1-1.064.731,3.983,3.983,0,0,1-2.807,0,2.956,2.956,0,0,1-1.068-.731,3.273,3.273,0,0,1-.679-1.148,4.911,4.911,0,0,1,0-3.021,3.267,3.267,0,0,1,.679-1.151,2.993,2.993,0,0,1,1.068-.735A3.642,3.642,0,0,1,35.294,26.6Zm0,6.328a1.82,1.82,0,0,0,1.568-.7,3.257,3.257,0,0,0,.518-1.964,3.287,3.287,0,0,0-.518-1.974,1.817,1.817,0,0,0-1.568-.707,2.176,2.176,0,0,0-.924.182,1.729,1.729,0,0,0-.654.525,2.332,2.332,0,0,0-.392.844,4.984,4.984,0,0,0,0,2.257,2.3,2.3,0,0,0,.392.837,1.743,1.743,0,0,0,.654.521A2.176,2.176,0,0,0,35.294,32.925Zm9.6-5.047a.276.276,0,0,1-.259.154.487.487,0,0,1-.238-.077q-.133-.077-.326-.171a3.057,3.057,0,0,0-.458-.175,2.187,2.187,0,0,0-.63-.08,1.859,1.859,0,0,0-.567.08,1.362,1.362,0,0,0-.431.22.975.975,0,0,0-.273.326.874.874,0,0,0-.095.4.671.671,0,0,0,.158.455,1.369,1.369,0,0,0,.417.315,3.631,3.631,0,0,0,.588.234q.329.1.676.217t.675.255a2.451,2.451,0,0,1,.588.35,1.6,1.6,0,0,1,.417.514,1.575,1.575,0,0,1,.157.732,2.317,2.317,0,0,1-.175.906,1.978,1.978,0,0,1-.518.721,2.5,2.5,0,0,1-.84.479,3.451,3.451,0,0,1-1.148.175,3.581,3.581,0,0,1-1.344-.242,3.405,3.405,0,0,1-1.022-.619l.294-.476a.427.427,0,0,1,.133-.14.374.374,0,0,1,.2-.049.469.469,0,0,1,.266.1q.14.1.339.217a2.612,2.612,0,0,0,.483.217,2.2,2.2,0,0,0,.71.1,1.948,1.948,0,0,0,.637-.095,1.338,1.338,0,0,0,.455-.255,1.012,1.012,0,0,0,.27-.371,1.153,1.153,0,0,0,.088-.448.743.743,0,0,0-.158-.487,1.329,1.329,0,0,0-.417-.329,3.394,3.394,0,0,0-.591-.238q-.333-.1-.679-.213t-.679-.256a2.387,2.387,0,0,1-.592-.361,1.633,1.633,0,0,1-.417-.535,1.732,1.732,0,0,1-.157-.774,1.887,1.887,0,0,1,.168-.781,1.914,1.914,0,0,1,.49-.658,2.413,2.413,0,0,1,.791-.451,3.166,3.166,0,0,1,1.071-.168,3.388,3.388,0,0,1,1.257.22,2.974,2.974,0,0,1,.962.605ZM50.351,26.6a3.165,3.165,0,0,1,1.176.213,2.64,2.64,0,0,1,.931.616,2.808,2.808,0,0,1,.612.994,3.84,3.84,0,0,1,.221,1.348.813.813,0,0,1-.063.392.262.262,0,0,1-.238.1H48.272a3.915,3.915,0,0,0,.182,1.169,2.39,2.39,0,0,0,.462.83,1.851,1.851,0,0,0,.7.5,2.4,2.4,0,0,0,.91.165,2.67,2.67,0,0,0,.808-.109,3.846,3.846,0,0,0,.584-.234,4.46,4.46,0,0,0,.41-.235.543.543,0,0,1,.284-.109.274.274,0,0,1,.238.119l.35.455a2.367,2.367,0,0,1-.553.486,3.443,3.443,0,0,1-.689.34,4.38,4.38,0,0,1-.76.2,4.639,4.639,0,0,1-.777.066,3.606,3.606,0,0,1-1.354-.249A2.973,2.973,0,0,1,48,32.921a3.34,3.34,0,0,1-.7-1.186,4.825,4.825,0,0,1-.252-1.624,4.132,4.132,0,0,1,.227-1.386,3.267,3.267,0,0,1,.655-1.116,3.013,3.013,0,0,1,1.043-.742A3.424,3.424,0,0,1,50.351,26.6Zm.028.917a1.913,1.913,0,0,0-1.421.521,2.455,2.455,0,0,0-.644,1.445h3.857a2.523,2.523,0,0,0-.119-.795,1.77,1.77,0,0,0-.35-.623,1.567,1.567,0,0,0-.563-.406A1.9,1.9,0,0,0,50.379,27.514Zm4.767,5.425a.787.787,0,0,1,.059-.3.77.77,0,0,1,.168-.252.788.788,0,0,1,.262-.172.939.939,0,0,1,.711.014.748.748,0,0,1,.273.214.965.965,0,0,1,.165.315,1.292,1.292,0,0,1,.056.389,2.525,2.525,0,0,1-.091.654,3.5,3.5,0,0,1-.259.672,3.849,3.849,0,0,1-.417.648,4.012,4.012,0,0,1-.563.581l-.21-.2a.259.259,0,0,1-.091-.2.277.277,0,0,1,.1-.189q.07-.077.179-.207a3.405,3.405,0,0,0,.22-.3,2.791,2.791,0,0,0,.207-.371,1.777,1.777,0,0,0,.137-.434h-.091a.827.827,0,0,1-.329-.063.754.754,0,0,1-.255-.179.814.814,0,0,1-.168-.273A.973.973,0,0,1,55.146,32.939Zm7.294.861V26.709h.742a.318.318,0,0,1,.336.259l.1.77a3.985,3.985,0,0,1,1.033-.826,2.685,2.685,0,0,1,1.32-.315,2.56,2.56,0,0,1,1.025.192,1.984,1.984,0,0,1,.742.546,2.411,2.411,0,0,1,.451.851,3.7,3.7,0,0,1,.154,1.1V33.8H67.1V29.285a1.909,1.909,0,0,0-.368-1.25,1.374,1.374,0,0,0-1.124-.444,2.094,2.094,0,0,0-1.032.266,3.4,3.4,0,0,0-.886.721V33.8Zm11.284-7.2a3.642,3.642,0,0,1,1.4.259,2.959,2.959,0,0,1,1.064.735,3.254,3.254,0,0,1,.672,1.151,4.981,4.981,0,0,1,0,3.021,3.259,3.259,0,0,1-.672,1.148,2.922,2.922,0,0,1-1.064.731,3.983,3.983,0,0,1-2.807,0,2.955,2.955,0,0,1-1.068-.731,3.273,3.273,0,0,1-.679-1.148,4.911,4.911,0,0,1,0-3.021,3.267,3.267,0,0,1,.679-1.151,2.993,2.993,0,0,1,1.068-.735A3.642,3.642,0,0,1,73.724,26.6Zm0,6.328a1.82,1.82,0,0,0,1.568-.7,3.257,3.257,0,0,0,.518-1.964,3.287,3.287,0,0,0-.518-1.974,1.817,1.817,0,0,0-1.568-.707,2.176,2.176,0,0,0-.924.182,1.73,1.73,0,0,0-.655.525,2.332,2.332,0,0,0-.392.844,4.984,4.984,0,0,0,0,2.257,2.3,2.3,0,0,0,.392.837,1.743,1.743,0,0,0,.655.521A2.176,2.176,0,0,0,73.724,32.925Zm7.693.987a1.709,1.709,0,0,1-1.291-.469,1.872,1.872,0,0,1-.451-1.351v-4.34H78.82a.279.279,0,0,1-.189-.066.258.258,0,0,1-.077-.207v-.5l1.162-.147L80,24.644a.265.265,0,0,1,.091-.171.289.289,0,0,1,.2-.067h.63v2.443h2.03v.9H80.92v4.256a.905.905,0,0,0,.217.665.758.758,0,0,0,.56.217.988.988,0,0,0,.339-.053,1.457,1.457,0,0,0,.249-.115q.1-.063.178-.116a.234.234,0,0,1,.13-.052.215.215,0,0,1,.175.119l.364.595a2.321,2.321,0,0,1-.777.472A2.638,2.638,0,0,1,81.417,33.912Zm8.421-7.2v7.617a2.713,2.713,0,0,1-.112.794,1.7,1.7,0,0,1-.354.641,1.662,1.662,0,0,1-.623.431,2.389,2.389,0,0,1-.913.158,2.315,2.315,0,0,1-.42-.035,2.286,2.286,0,0,1-.378-.1l.056-.672a.143.143,0,0,1,.063-.116.363.363,0,0,1,.154-.024h.273a1.008,1.008,0,0,0,.777-.255,1.206,1.206,0,0,0,.231-.822v-7.61Zm.28-2.225a.793.793,0,0,1-.074.34.978.978,0,0,1-.2.28.911.911,0,0,1-.284.192.851.851,0,0,1-.343.07.826.826,0,0,1-.34-.07.933.933,0,0,1-.472-.472.826.826,0,0,1-.07-.34.876.876,0,0,1,.07-.347.9.9,0,0,1,.192-.287.923.923,0,0,1,.28-.193.826.826,0,0,1,.34-.07.851.851,0,0,1,.343.07.911.911,0,0,1,.284.193.949.949,0,0,1,.2.287A.84.84,0,0,1,90.118,24.483Zm3.6,2.226v4.522a1.882,1.882,0,0,0,.371,1.246,1.381,1.381,0,0,0,1.12.441,2.145,2.145,0,0,0,1.029-.259,3.2,3.2,0,0,0,.889-.721V26.709h1.246V33.8h-.742a.318.318,0,0,1-.336-.259l-.1-.763a3.9,3.9,0,0,1-1.036.822,2.715,2.715,0,0,1-1.316.312,2.56,2.56,0,0,1-1.025-.193,2.033,2.033,0,0,1-.745-.542,2.3,2.3,0,0,1-.451-.847,3.781,3.781,0,0,1-.15-1.1V26.709Zm11.4,1.169a.276.276,0,0,1-.259.154.487.487,0,0,1-.238-.077q-.133-.077-.326-.171a3.057,3.057,0,0,0-.458-.175,2.187,2.187,0,0,0-.63-.08,1.859,1.859,0,0,0-.567.08,1.362,1.362,0,0,0-.431.22.975.975,0,0,0-.273.326.874.874,0,0,0-.094.4.671.671,0,0,0,.158.455,1.369,1.369,0,0,0,.416.315,3.631,3.631,0,0,0,.588.234q.329.1.675.217t.675.255a2.451,2.451,0,0,1,.588.35,1.6,1.6,0,0,1,.417.514,1.575,1.575,0,0,1,.158.732,2.316,2.316,0,0,1-.175.906,1.978,1.978,0,0,1-.518.721,2.5,2.5,0,0,1-.84.479,3.451,3.451,0,0,1-1.148.175,3.581,3.581,0,0,1-1.344-.242,3.405,3.405,0,0,1-1.022-.619l.294-.476a.427.427,0,0,1,.133-.14.374.374,0,0,1,.2-.049.469.469,0,0,1,.266.1q.14.1.34.217a2.613,2.613,0,0,0,.483.217,2.2,2.2,0,0,0,.711.1,1.948,1.948,0,0,0,.637-.095,1.338,1.338,0,0,0,.455-.255,1.012,1.012,0,0,0,.27-.371,1.153,1.153,0,0,0,.087-.448.743.743,0,0,0-.157-.487,1.329,1.329,0,0,0-.417-.329,3.394,3.394,0,0,0-.591-.238q-.332-.1-.679-.213t-.679-.256a2.387,2.387,0,0,1-.591-.361,1.633,1.633,0,0,1-.416-.535,1.732,1.732,0,0,1-.158-.774,1.887,1.887,0,0,1,.168-.781,1.914,1.914,0,0,1,.49-.658,2.413,2.413,0,0,1,.791-.451,3.165,3.165,0,0,1,1.071-.168,3.387,3.387,0,0,1,1.257.22,2.974,2.974,0,0,1,.963.605Zm4.795,6.034a1.709,1.709,0,0,1-1.291-.469,1.872,1.872,0,0,1-.451-1.351v-4.34h-.854a.279.279,0,0,1-.189-.066.258.258,0,0,1-.077-.207v-.5l1.162-.147.287-2.191a.265.265,0,0,1,.091-.171.289.289,0,0,1,.2-.067h.63v2.443h2.03v.9h-2.03v4.256a.905.905,0,0,0,.217.665.758.758,0,0,0,.56.217.989.989,0,0,0,.34-.053,1.457,1.457,0,0,0,.249-.115q.1-.063.178-.116a.234.234,0,0,1,.13-.052.215.215,0,0,1,.175.119l.364.595a2.321,2.321,0,0,1-.777.472A2.638,2.638,0,0,1,109.907,33.912ZM122.15,33.8H121.6a.66.66,0,0,1-.294-.056.31.31,0,0,1-.147-.238l-.14-.658q-.28.252-.546.451a3.125,3.125,0,0,1-.56.336,2.9,2.9,0,0,1-.626.207,3.593,3.593,0,0,1-.739.07,2.513,2.513,0,0,1-.773-.116,1.761,1.761,0,0,1-.627-.348,1.656,1.656,0,0,1-.424-.587,2.056,2.056,0,0,1-.158-.839,1.57,1.57,0,0,1,.231-.811,2.033,2.033,0,0,1,.745-.692,4.846,4.846,0,0,1,1.348-.5,9.17,9.17,0,0,1,2.037-.193v-.557a1.929,1.929,0,0,0-.354-1.257,1.281,1.281,0,0,0-1.046-.426,2.219,2.219,0,0,0-.767.115,2.9,2.9,0,0,0-.539.259q-.227.144-.392.259a.565.565,0,0,1-.326.116.373.373,0,0,1-.22-.067.507.507,0,0,1-.151-.164l-.224-.4a4.049,4.049,0,0,1,1.267-.847,3.912,3.912,0,0,1,1.505-.28,2.685,2.685,0,0,1,1.057.2,2.168,2.168,0,0,1,.777.546,2.312,2.312,0,0,1,.476.847,3.527,3.527,0,0,1,.161,1.092Zm-3.234-.763a2.544,2.544,0,0,0,.6-.066,2.376,2.376,0,0,0,.515-.189,2.726,2.726,0,0,0,.462-.3,4,4,0,0,0,.43-.4V30.622a8.354,8.354,0,0,0-1.463.109,4.088,4.088,0,0,0-.98.285,1.366,1.366,0,0,0-.549.415.9.9,0,0,0-.171.535,1.187,1.187,0,0,0,.091.486.921.921,0,0,0,.245.334.965.965,0,0,0,.364.19A1.655,1.655,0,0,0,118.916,33.037ZM124.67,36.2V26.709h.742a.318.318,0,0,1,.336.259l.105.84a3.786,3.786,0,0,1,1.039-.889,2.655,2.655,0,0,1,1.347-.336,2.56,2.56,0,0,1,1.106.234,2.28,2.28,0,0,1,.847.693,3.323,3.323,0,0,1,.539,1.138,5.839,5.839,0,0,1,.189,1.561,4.893,4.893,0,0,1-.21,1.459,3.554,3.554,0,0,1-.6,1.169,2.811,2.811,0,0,1-.962.777,2.847,2.847,0,0,1-1.285.284,2.644,2.644,0,0,1-1.123-.217,2.532,2.532,0,0,1-.823-.616V36.2Zm3.157-8.61a2.007,2.007,0,0,0-1.067.28,3.077,3.077,0,0,0-.844.791v3.43a2,2,0,0,0,.753.651,2.154,2.154,0,0,0,.913.189,1.787,1.787,0,0,0,1.519-.707,3.3,3.3,0,0,0,.532-2.016,5.03,5.03,0,0,0-.122-1.19,2.327,2.327,0,0,0-.354-.816,1.375,1.375,0,0,0-.567-.465A1.886,1.886,0,0,0,127.827,27.591Zm5.2,8.61V26.709h.742a.318.318,0,0,1,.336.259l.1.84a3.786,3.786,0,0,1,1.04-.889,2.655,2.655,0,0,1,1.347-.336,2.56,2.56,0,0,1,1.106.234,2.28,2.28,0,0,1,.847.693,3.323,3.323,0,0,1,.539,1.138,5.839,5.839,0,0,1,.189,1.561,4.893,4.893,0,0,1-.21,1.459,3.554,3.554,0,0,1-.6,1.169,2.811,2.811,0,0,1-.962.777,2.847,2.847,0,0,1-1.285.284,2.644,2.644,0,0,1-1.124-.217,2.532,2.532,0,0,1-.822-.616V36.2Zm3.157-8.61a2.007,2.007,0,0,0-1.068.28,3.077,3.077,0,0,0-.843.791v3.43a2,2,0,0,0,.752.651,2.154,2.154,0,0,0,.914.189,1.787,1.787,0,0,0,1.519-.707,3.3,3.3,0,0,0,.532-2.016,5.03,5.03,0,0,0-.122-1.19,2.327,2.327,0,0,0-.354-.816,1.375,1.375,0,0,0-.567-.465A1.886,1.886,0,0,0,136.185,27.591Zm8.008-.994a3.165,3.165,0,0,1,1.176.213,2.64,2.64,0,0,1,.931.616,2.808,2.808,0,0,1,.613.994,3.841,3.841,0,0,1,.22,1.348.812.812,0,0,1-.063.392.262.262,0,0,1-.238.1h-4.718a3.914,3.914,0,0,0,.182,1.169,2.39,2.39,0,0,0,.462.83,1.851,1.851,0,0,0,.7.5,2.4,2.4,0,0,0,.91.165,2.67,2.67,0,0,0,.809-.109,3.847,3.847,0,0,0,.585-.234,4.46,4.46,0,0,0,.41-.235.543.543,0,0,1,.283-.109.274.274,0,0,1,.238.119l.35.455a2.366,2.366,0,0,1-.553.486,3.443,3.443,0,0,1-.689.34,4.38,4.38,0,0,1-.76.2,4.639,4.639,0,0,1-.777.066,3.606,3.606,0,0,1-1.355-.249,2.973,2.973,0,0,1-1.071-.728,3.34,3.34,0,0,1-.7-1.186,4.825,4.825,0,0,1-.252-1.624,4.132,4.132,0,0,1,.227-1.386,3.267,3.267,0,0,1,.654-1.116,3.013,3.013,0,0,1,1.043-.742A3.424,3.424,0,0,1,144.193,26.6Zm.028.917a1.913,1.913,0,0,0-1.421.521,2.455,2.455,0,0,0-.644,1.445h3.857a2.523,2.523,0,0,0-.119-.795,1.77,1.77,0,0,0-.35-.623,1.567,1.567,0,0,0-.564-.406A1.9,1.9,0,0,0,144.221,27.514ZM154.56,33.8h-.553a.66.66,0,0,1-.294-.056.31.31,0,0,1-.147-.238l-.14-.658q-.28.252-.546.451a3.125,3.125,0,0,1-.56.336,2.9,2.9,0,0,1-.627.207,3.593,3.593,0,0,1-.738.07,2.513,2.513,0,0,1-.773-.116,1.761,1.761,0,0,1-.626-.348,1.655,1.655,0,0,1-.424-.587,2.056,2.056,0,0,1-.158-.839,1.57,1.57,0,0,1,.231-.811,2.033,2.033,0,0,1,.745-.692,4.846,4.846,0,0,1,1.348-.5,9.17,9.17,0,0,1,2.037-.193v-.557a1.929,1.929,0,0,0-.354-1.257,1.282,1.282,0,0,0-1.047-.426,2.218,2.218,0,0,0-.766.115,2.9,2.9,0,0,0-.539.259q-.227.144-.392.259a.565.565,0,0,1-.326.116.373.373,0,0,1-.221-.067.507.507,0,0,1-.15-.164l-.224-.4a4.049,4.049,0,0,1,1.267-.847,3.912,3.912,0,0,1,1.505-.28,2.685,2.685,0,0,1,1.057.2,2.168,2.168,0,0,1,.777.546,2.312,2.312,0,0,1,.476.847,3.528,3.528,0,0,1,.161,1.092Zm-3.234-.763a2.544,2.544,0,0,0,.6-.066,2.376,2.376,0,0,0,.514-.189,2.726,2.726,0,0,0,.462-.3,4,4,0,0,0,.431-.4V30.622a8.354,8.354,0,0,0-1.463.109,4.088,4.088,0,0,0-.98.285,1.366,1.366,0,0,0-.549.415.9.9,0,0,0-.171.535,1.187,1.187,0,0,0,.091.486.92.92,0,0,0,.245.334.965.965,0,0,0,.364.19A1.655,1.655,0,0,0,151.326,33.037Zm5.754.763V26.709h.714a.394.394,0,0,1,.28.077.472.472,0,0,1,.1.266l.084,1.106a3.243,3.243,0,0,1,.9-1.159,2.119,2.119,0,0,1,1.788-.35,1.854,1.854,0,0,1,.441.185l-.161.931a.21.21,0,0,1-.217.175,1.089,1.089,0,0,1-.3-.066,1.9,1.9,0,0,0-.567-.066,1.606,1.606,0,0,0-1.089.378,2.838,2.838,0,0,0-.731,1.1V33.8Zm11.214,0h-.553a.66.66,0,0,1-.294-.056.31.31,0,0,1-.147-.238l-.14-.658q-.28.252-.546.451a3.125,3.125,0,0,1-.56.336,2.9,2.9,0,0,1-.627.207,3.593,3.593,0,0,1-.738.07,2.513,2.513,0,0,1-.773-.116,1.761,1.761,0,0,1-.626-.348,1.655,1.655,0,0,1-.424-.587,2.056,2.056,0,0,1-.158-.839,1.57,1.57,0,0,1,.231-.811,2.033,2.033,0,0,1,.745-.692,4.846,4.846,0,0,1,1.348-.5,9.17,9.17,0,0,1,2.037-.193v-.557a1.929,1.929,0,0,0-.354-1.257,1.282,1.282,0,0,0-1.047-.426,2.218,2.218,0,0,0-.766.115,2.9,2.9,0,0,0-.539.259q-.227.144-.392.259a.565.565,0,0,1-.326.116.373.373,0,0,1-.221-.067.507.507,0,0,1-.15-.164l-.224-.4a4.049,4.049,0,0,1,1.267-.847,3.912,3.912,0,0,1,1.505-.28,2.685,2.685,0,0,1,1.057.2,2.168,2.168,0,0,1,.777.546,2.312,2.312,0,0,1,.476.847,3.528,3.528,0,0,1,.161,1.092Zm-3.234-.763a2.544,2.544,0,0,0,.6-.066,2.376,2.376,0,0,0,.514-.189,2.726,2.726,0,0,0,.462-.3,4,4,0,0,0,.431-.4V30.622a8.354,8.354,0,0,0-1.463.109,4.088,4.088,0,0,0-.98.285,1.366,1.366,0,0,0-.549.415.9.9,0,0,0-.171.535,1.187,1.187,0,0,0,.091.486.92.92,0,0,0,.245.334.965.965,0,0,0,.364.19A1.655,1.655,0,0,0,165.06,33.037Zm5.754.763V26.709h.742a.318.318,0,0,1,.336.259l.1.77a3.986,3.986,0,0,1,1.033-.826,2.685,2.685,0,0,1,1.32-.315,2.561,2.561,0,0,1,1.025.192,1.984,1.984,0,0,1,.742.546,2.411,2.411,0,0,1,.451.851,3.7,3.7,0,0,1,.154,1.1V33.8h-1.246V29.285a1.909,1.909,0,0,0-.368-1.25,1.374,1.374,0,0,0-1.123-.444,2.094,2.094,0,0,0-1.033.266,3.4,3.4,0,0,0-.885.721V33.8Zm13.251-5.831a.556.556,0,0,1-.112.119.265.265,0,0,1-.161.042.4.4,0,0,1-.227-.087,3.319,3.319,0,0,0-.312-.193,2.607,2.607,0,0,0-.458-.192,2.432,2.432,0,0,0-1.579.1,1.778,1.778,0,0,0-.668.535,2.423,2.423,0,0,0-.406.847A4.2,4.2,0,0,0,180,30.251a4.066,4.066,0,0,0,.147,1.145,2.48,2.48,0,0,0,.413.84,1.762,1.762,0,0,0,.648.518,2,2,0,0,0,.857.179,2.192,2.192,0,0,0,.749-.109,2.282,2.282,0,0,0,.49-.241,3.593,3.593,0,0,0,.322-.242.388.388,0,0,1,.252-.109.263.263,0,0,1,.238.119l.35.455a2.694,2.694,0,0,1-1.155.829,4.1,4.1,0,0,1-1.463.263,3.1,3.1,0,0,1-1.236-.245,2.817,2.817,0,0,1-.99-.71,3.371,3.371,0,0,1-.661-1.145,4.6,4.6,0,0,1-.242-1.547,4.668,4.668,0,0,1,.22-1.463,3.315,3.315,0,0,1,.644-1.158,2.919,2.919,0,0,1,1.046-.76,3.527,3.527,0,0,1,1.428-.273,3.368,3.368,0,0,1,1.316.241,3.15,3.15,0,0,1,1.015.683ZM189.2,26.6a3.165,3.165,0,0,1,1.176.213,2.64,2.64,0,0,1,.931.616,2.808,2.808,0,0,1,.612.994,3.84,3.84,0,0,1,.221,1.348.812.812,0,0,1-.063.392.262.262,0,0,1-.238.1h-4.718a3.914,3.914,0,0,0,.182,1.169,2.39,2.39,0,0,0,.462.83,1.851,1.851,0,0,0,.7.5,2.4,2.4,0,0,0,.91.165,2.67,2.67,0,0,0,.809-.109,3.846,3.846,0,0,0,.585-.234,4.46,4.46,0,0,0,.41-.235.543.543,0,0,1,.283-.109.274.274,0,0,1,.238.119l.35.455a2.366,2.366,0,0,1-.553.486,3.443,3.443,0,0,1-.689.34,4.38,4.38,0,0,1-.76.2,4.639,4.639,0,0,1-.777.066,3.606,3.606,0,0,1-1.355-.249,2.973,2.973,0,0,1-1.071-.728,3.34,3.34,0,0,1-.7-1.186,4.825,4.825,0,0,1-.252-1.624,4.132,4.132,0,0,1,.227-1.386,3.267,3.267,0,0,1,.654-1.116,3.013,3.013,0,0,1,1.043-.742A3.424,3.424,0,0,1,189.2,26.6Zm.028.917a1.913,1.913,0,0,0-1.421.521,2.455,2.455,0,0,0-.644,1.445h3.857a2.523,2.523,0,0,0-.119-.795,1.77,1.77,0,0,0-.35-.623,1.566,1.566,0,0,0-.563-.406A1.9,1.9,0,0,0,189.231,27.514Zm4.725,5.516a.89.89,0,0,1,.066-.343.879.879,0,0,1,.182-.28.872.872,0,0,1,.962-.189.9.9,0,0,1,.28.189.851.851,0,0,1,.186.28.927.927,0,0,1,0,.689.86.86,0,0,1-.186.277.85.85,0,0,1-.28.186.918.918,0,0,1-.686,0,.812.812,0,0,1-.277-.186.877.877,0,0,1-.249-.623Z" transform="translate(16 140)" fill="#111"/>
  </g>
</svg>
