<svg width="1665" height="300" viewBox="0 0 1665 300" fill="none" xmlns="http://www.w3.org/2000/svg">
<rect width="665.6" height="300" fill="#223041"/>
<rect x="666" width="665.6" height="300" fill="#F3F2EA"/>
<rect x="1331.4" width="166.4" height="300" fill="white"/>
<rect x="1497.8" width="166.4" height="300" fill="black"/>
<path d="M18.76 23.44H15.796L15.016 27.352H17.98L18.76 23.44ZM23.296 21.868L23.14 22.768C23.1 23 23.004 23.172 22.852 23.284C22.708 23.388 22.484 23.44 22.18 23.44H20.524L19.744 27.352H21.892C22.124 27.352 22.288 27.42 22.384 27.556C22.488 27.684 22.516 27.912 22.468 28.24L22.36 28.924H19.516L18.508 34H17.536C17.432 34 17.336 33.976 17.248 33.928C17.16 33.88 17.084 33.816 17.02 33.736C16.964 33.656 16.924 33.56 16.9 33.448C16.876 33.336 16.876 33.212 16.9 33.076L17.752 28.924H14.788L13.936 33.184C13.888 33.48 13.772 33.692 13.588 33.82C13.404 33.94 13.196 34 12.964 34H12.004L13.024 28.924H11.272C11.048 28.924 10.884 28.86 10.78 28.732C10.684 28.596 10.66 28.364 10.708 28.036L10.804 27.352H13.252L14.032 23.44H11.248L11.404 22.552C11.444 22.32 11.536 22.148 11.68 22.036C11.832 21.924 12.06 21.868 12.364 21.868H14.26L15.124 17.572C15.172 17.332 15.28 17.144 15.448 17.008C15.624 16.872 15.832 16.804 16.072 16.804H17.032L16.024 21.868H18.988L19.996 16.804H20.944C21.176 16.804 21.356 16.88 21.484 17.032C21.62 17.184 21.668 17.376 21.628 17.608L20.752 21.868H23.296ZM35.7659 31.972C35.9979 31.972 36.1819 32.04 36.3179 32.176C36.4539 32.312 36.5219 32.488 36.5219 32.704V34H25.0499V33.268C25.0499 33.116 25.0819 32.96 25.1459 32.8C25.2099 32.64 25.3099 32.492 25.4459 32.356L30.9539 26.824C31.4099 26.36 31.8259 25.916 32.2019 25.492C32.5779 25.06 32.8979 24.628 33.1619 24.196C33.4259 23.764 33.6299 23.328 33.7739 22.888C33.9179 22.44 33.9899 21.964 33.9899 21.46C33.9899 20.956 33.9099 20.516 33.7499 20.14C33.5899 19.756 33.3699 19.44 33.0899 19.192C32.8179 18.944 32.4939 18.76 32.1179 18.64C31.7419 18.512 31.3379 18.448 30.9059 18.448C30.4659 18.448 30.0619 18.512 29.6939 18.64C29.3259 18.768 28.9979 18.948 28.7099 19.18C28.4299 19.404 28.1939 19.672 28.0019 19.984C27.8099 20.296 27.6739 20.64 27.5939 21.016C27.4979 21.296 27.3659 21.484 27.1979 21.58C27.0379 21.668 26.8099 21.692 26.5139 21.652L25.3979 21.46C25.5099 20.676 25.7259 19.984 26.0459 19.384C26.3739 18.776 26.7819 18.268 27.2699 17.86C27.7659 17.452 28.3299 17.144 28.9619 16.936C29.5939 16.72 30.2779 16.612 31.0139 16.612C31.7419 16.612 32.4219 16.72 33.0539 16.936C33.6859 17.152 34.2339 17.468 34.6979 17.884C35.1619 18.292 35.5259 18.792 35.7899 19.384C36.0539 19.976 36.1859 20.648 36.1859 21.4C36.1859 22.04 36.0899 22.636 35.8979 23.188C35.7059 23.732 35.4459 24.252 35.1179 24.748C34.7899 25.244 34.4099 25.728 33.9779 26.2C33.5539 26.672 33.1019 27.148 32.6219 27.628L28.0859 32.26C28.4059 32.172 28.7299 32.104 29.0579 32.056C29.3859 32 29.7019 31.972 30.0059 31.972H35.7659ZM49.6878 31.972C49.9198 31.972 50.1038 32.04 50.2397 32.176C50.3758 32.312 50.4438 32.488 50.4438 32.704V34H38.9718V33.268C38.9718 33.116 39.0038 32.96 39.0678 32.8C39.1318 32.64 39.2318 32.492 39.3678 32.356L44.8758 26.824C45.3318 26.36 45.7478 25.916 46.1238 25.492C46.4998 25.06 46.8198 24.628 47.0838 24.196C47.3478 23.764 47.5518 23.328 47.6958 22.888C47.8398 22.44 47.9118 21.964 47.9118 21.46C47.9118 20.956 47.8318 20.516 47.6718 20.14C47.5118 19.756 47.2918 19.44 47.0118 19.192C46.7398 18.944 46.4158 18.76 46.0398 18.64C45.6638 18.512 45.2598 18.448 44.8278 18.448C44.3878 18.448 43.9838 18.512 43.6158 18.64C43.2478 18.768 42.9198 18.948 42.6318 19.18C42.3518 19.404 42.1158 19.672 41.9238 19.984C41.7318 20.296 41.5958 20.64 41.5158 21.016C41.4198 21.296 41.2878 21.484 41.1198 21.58C40.9598 21.668 40.7318 21.692 40.4358 21.652L39.3198 21.46C39.4318 20.676 39.6478 19.984 39.9678 19.384C40.2958 18.776 40.7038 18.268 41.1918 17.86C41.6878 17.452 42.2518 17.144 42.8838 16.936C43.5158 16.72 44.1998 16.612 44.9358 16.612C45.6638 16.612 46.3438 16.72 46.9758 16.936C47.6078 17.152 48.1558 17.468 48.6198 17.884C49.0838 18.292 49.4478 18.792 49.7118 19.384C49.9758 19.976 50.1078 20.648 50.1078 21.4C50.1078 22.04 50.0118 22.636 49.8198 23.188C49.6278 23.732 49.3678 24.252 49.0398 24.748C48.7118 25.244 48.3318 25.728 47.8998 26.2C47.4758 26.672 47.0238 27.148 46.5438 27.628L42.0078 32.26C42.3278 32.172 42.6518 32.104 42.9798 32.056C43.3078 32 43.6238 31.972 43.9278 31.972H49.6878ZM53.3256 21.46C53.4376 20.676 53.6536 19.984 53.9736 19.384C54.2936 18.776 54.6976 18.268 55.1856 17.86C55.6816 17.452 56.2456 17.144 56.8776 16.936C57.5176 16.72 58.2056 16.612 58.9416 16.612C59.6696 16.612 60.3416 16.716 60.9576 16.924C61.5736 17.132 62.1016 17.428 62.5416 17.812C62.9896 18.196 63.3376 18.66 63.5856 19.204C63.8336 19.748 63.9576 20.352 63.9576 21.016C63.9576 21.56 63.8856 22.048 63.7416 22.48C63.6056 22.904 63.4056 23.276 63.1416 23.596C62.8856 23.916 62.5736 24.188 62.2056 24.412C61.8376 24.636 61.4256 24.82 60.9696 24.964C62.0896 25.252 62.9296 25.748 63.4896 26.452C64.0576 27.148 64.3416 28.02 64.3416 29.068C64.3416 29.86 64.1896 30.572 63.8856 31.204C63.5896 31.836 63.1816 32.376 62.6616 32.824C62.1416 33.264 61.5336 33.604 60.8376 33.844C60.1496 34.076 59.4096 34.192 58.6176 34.192C57.7056 34.192 56.9256 34.08 56.2776 33.856C55.6296 33.624 55.0816 33.308 54.6336 32.908C54.1856 32.508 53.8176 32.036 53.5296 31.492C53.2416 30.94 52.9976 30.344 52.7976 29.704L53.7216 29.32C53.9616 29.216 54.1936 29.188 54.4176 29.236C54.6496 29.284 54.8176 29.416 54.9216 29.632C55.0256 29.856 55.1536 30.124 55.3056 30.436C55.4656 30.748 55.6816 31.048 55.9536 31.336C56.2256 31.624 56.5696 31.868 56.9856 32.068C57.4096 32.268 57.9456 32.368 58.5936 32.368C59.1936 32.368 59.7176 32.272 60.1656 32.08C60.6216 31.88 60.9976 31.624 61.2936 31.312C61.5976 31 61.8256 30.652 61.9776 30.268C62.1296 29.884 62.2056 29.504 62.2056 29.128C62.2056 28.664 62.1456 28.24 62.0256 27.856C61.9056 27.472 61.6816 27.14 61.3536 26.86C61.0256 26.58 60.5736 26.36 59.9976 26.2C59.4296 26.04 58.6976 25.96 57.8016 25.96V24.412C58.5376 24.404 59.1616 24.324 59.6736 24.172C60.1936 24.02 60.6136 23.812 60.9336 23.548C61.2616 23.284 61.4976 22.968 61.6416 22.6C61.7936 22.232 61.8696 21.824 61.8696 21.376C61.8696 20.88 61.7896 20.448 61.6296 20.08C61.4776 19.712 61.2656 19.408 60.9936 19.168C60.7216 18.928 60.3976 18.748 60.0216 18.628C59.6536 18.508 59.2536 18.448 58.8216 18.448C58.3896 18.448 57.9856 18.512 57.6096 18.64C57.2416 18.768 56.9136 18.948 56.6256 19.18C56.3456 19.404 56.1096 19.672 55.9176 19.984C55.7256 20.296 55.5896 20.64 55.5096 21.016C55.4056 21.296 55.2736 21.484 55.1136 21.58C54.9616 21.668 54.7376 21.692 54.4416 21.652L53.3256 21.46ZM78.8875 25.408C78.8875 26.912 78.7235 28.216 78.3955 29.32C78.0755 30.416 77.6355 31.324 77.0755 32.044C76.5155 32.764 75.8515 33.3 75.0835 33.652C74.3235 34.004 73.5075 34.18 72.6355 34.18C71.7555 34.18 70.9355 34.004 70.1755 33.652C69.4235 33.3 68.7675 32.764 68.2075 32.044C67.6475 31.324 67.2075 30.416 66.8875 29.32C66.5675 28.216 66.4075 26.912 66.4075 25.408C66.4075 23.904 66.5675 22.6 66.8875 21.496C67.2075 20.392 67.6475 19.48 68.2075 18.76C68.7675 18.032 69.4235 17.492 70.1755 17.14C70.9355 16.788 71.7555 16.612 72.6355 16.612C73.5075 16.612 74.3235 16.788 75.0835 17.14C75.8515 17.492 76.5155 18.032 77.0755 18.76C77.6355 19.48 78.0755 20.392 78.3955 21.496C78.7235 22.6 78.8875 23.904 78.8875 25.408ZM76.6675 25.408C76.6675 24.096 76.5555 22.996 76.3315 22.108C76.1155 21.212 75.8195 20.492 75.4435 19.948C75.0755 19.404 74.6475 19.016 74.1595 18.784C73.6715 18.544 73.1635 18.424 72.6355 18.424C72.1075 18.424 71.5995 18.544 71.1115 18.784C70.6235 19.016 70.1955 19.404 69.8275 19.948C69.4595 20.492 69.1635 21.212 68.9395 22.108C68.7235 22.996 68.6155 24.096 68.6155 25.408C68.6155 26.72 68.7235 27.82 68.9395 28.708C69.1635 29.596 69.4595 30.312 69.8275 30.856C70.1955 31.4 70.6235 31.792 71.1115 32.032C71.5995 32.264 72.1075 32.38 72.6355 32.38C73.1635 32.38 73.6715 32.264 74.1595 32.032C74.6475 31.792 75.0755 31.4 75.4435 30.856C75.8195 30.312 76.1155 29.596 76.3315 28.708C76.5555 27.82 76.6675 26.72 76.6675 25.408ZM88.3694 27.796V20.704C88.3694 20.496 88.3774 20.268 88.3934 20.02C88.4094 19.772 88.4334 19.52 88.4654 19.264L82.2014 27.796H88.3694ZM92.8454 27.796V29.02C92.8454 29.148 92.8054 29.256 92.7254 29.344C92.6534 29.432 92.5374 29.476 92.3774 29.476H90.2414V34H88.3694V29.476H80.7374C80.5774 29.476 80.4374 29.432 80.3174 29.344C80.2054 29.248 80.1334 29.132 80.1014 28.996L79.8854 27.904L88.2494 16.804H90.2414V27.796H92.8454ZM105.747 32.368V34H96.5312V32.368H100.215V20.644C100.215 20.292 100.227 19.936 100.251 19.576L97.1913 22.204C97.0873 22.292 96.9833 22.348 96.8793 22.372C96.7753 22.388 96.6793 22.388 96.5913 22.372C96.5033 22.356 96.4193 22.324 96.3393 22.276C96.2673 22.228 96.2113 22.176 96.1713 22.12L95.4993 21.196L100.623 16.768H102.363V32.368H105.747Z" fill="white"/>
<path d="M684.76 23.44H681.796L681.016 27.352H683.98L684.76 23.44ZM689.296 21.868L689.14 22.768C689.1 23 689.004 23.172 688.852 23.284C688.708 23.388 688.484 23.44 688.18 23.44H686.524L685.744 27.352H687.892C688.124 27.352 688.288 27.42 688.384 27.556C688.488 27.684 688.516 27.912 688.468 28.24L688.36 28.924H685.516L684.508 34H683.536C683.432 34 683.336 33.976 683.248 33.928C683.16 33.88 683.084 33.816 683.02 33.736C682.964 33.656 682.924 33.56 682.9 33.448C682.876 33.336 682.876 33.212 682.9 33.076L683.752 28.924H680.788L679.936 33.184C679.888 33.48 679.772 33.692 679.588 33.82C679.404 33.94 679.196 34 678.964 34H678.004L679.024 28.924H677.272C677.048 28.924 676.884 28.86 676.78 28.732C676.684 28.596 676.66 28.364 676.708 28.036L676.804 27.352H679.252L680.032 23.44H677.248L677.404 22.552C677.444 22.32 677.536 22.148 677.68 22.036C677.832 21.924 678.06 21.868 678.364 21.868H680.26L681.124 17.572C681.172 17.332 681.28 17.144 681.448 17.008C681.624 16.872 681.832 16.804 682.072 16.804H683.032L682.024 21.868H684.988L685.996 16.804H686.944C687.176 16.804 687.356 16.88 687.484 17.032C687.62 17.184 687.668 17.376 687.628 17.608L686.752 21.868H689.296ZM694.446 18.7V24.712H701.514V26.608H694.446V34H692.118V16.804H702.714V18.7H694.446ZM705.052 21.46C705.164 20.676 705.38 19.984 705.7 19.384C706.02 18.776 706.424 18.268 706.912 17.86C707.408 17.452 707.972 17.144 708.604 16.936C709.244 16.72 709.932 16.612 710.668 16.612C711.396 16.612 712.068 16.716 712.684 16.924C713.3 17.132 713.828 17.428 714.268 17.812C714.716 18.196 715.064 18.66 715.312 19.204C715.56 19.748 715.684 20.352 715.684 21.016C715.684 21.56 715.612 22.048 715.468 22.48C715.332 22.904 715.132 23.276 714.868 23.596C714.612 23.916 714.3 24.188 713.932 24.412C713.564 24.636 713.152 24.82 712.696 24.964C713.816 25.252 714.656 25.748 715.216 26.452C715.784 27.148 716.068 28.02 716.068 29.068C716.068 29.86 715.916 30.572 715.612 31.204C715.316 31.836 714.908 32.376 714.388 32.824C713.868 33.264 713.26 33.604 712.564 33.844C711.876 34.076 711.136 34.192 710.344 34.192C709.432 34.192 708.652 34.08 708.004 33.856C707.356 33.624 706.808 33.308 706.36 32.908C705.912 32.508 705.544 32.036 705.256 31.492C704.968 30.94 704.724 30.344 704.524 29.704L705.448 29.32C705.688 29.216 705.92 29.188 706.144 29.236C706.376 29.284 706.544 29.416 706.648 29.632C706.752 29.856 706.88 30.124 707.032 30.436C707.192 30.748 707.408 31.048 707.68 31.336C707.952 31.624 708.296 31.868 708.712 32.068C709.136 32.268 709.672 32.368 710.32 32.368C710.92 32.368 711.444 32.272 711.892 32.08C712.348 31.88 712.724 31.624 713.02 31.312C713.324 31 713.552 30.652 713.704 30.268C713.856 29.884 713.932 29.504 713.932 29.128C713.932 28.664 713.872 28.24 713.752 27.856C713.632 27.472 713.408 27.14 713.08 26.86C712.752 26.58 712.3 26.36 711.724 26.2C711.156 26.04 710.424 25.96 709.528 25.96V24.412C710.264 24.404 710.888 24.324 711.4 24.172C711.92 24.02 712.34 23.812 712.66 23.548C712.988 23.284 713.224 22.968 713.368 22.6C713.52 22.232 713.596 21.824 713.596 21.376C713.596 20.88 713.516 20.448 713.356 20.08C713.204 19.712 712.992 19.408 712.72 19.168C712.448 18.928 712.124 18.748 711.748 18.628C711.38 18.508 710.98 18.448 710.548 18.448C710.116 18.448 709.712 18.512 709.336 18.64C708.968 18.768 708.64 18.948 708.352 19.18C708.072 19.404 707.836 19.672 707.644 19.984C707.452 20.296 707.316 20.64 707.236 21.016C707.132 21.296 707 21.484 706.84 21.58C706.688 21.668 706.464 21.692 706.168 21.652L705.052 21.46ZM721.938 18.7V24.712H729.006V26.608H721.938V34H719.61V16.804H730.206V18.7H721.938ZM742.828 31.972C743.06 31.972 743.244 32.04 743.38 32.176C743.516 32.312 743.584 32.488 743.584 32.704V34H732.112V33.268C732.112 33.116 732.144 32.96 732.208 32.8C732.272 32.64 732.372 32.492 732.508 32.356L738.016 26.824C738.472 26.36 738.888 25.916 739.264 25.492C739.64 25.06 739.96 24.628 740.224 24.196C740.488 23.764 740.692 23.328 740.836 22.888C740.98 22.44 741.052 21.964 741.052 21.46C741.052 20.956 740.972 20.516 740.812 20.14C740.652 19.756 740.432 19.44 740.152 19.192C739.88 18.944 739.556 18.76 739.18 18.64C738.804 18.512 738.4 18.448 737.968 18.448C737.528 18.448 737.124 18.512 736.756 18.64C736.388 18.768 736.06 18.948 735.772 19.18C735.492 19.404 735.256 19.672 735.064 19.984C734.872 20.296 734.736 20.64 734.656 21.016C734.56 21.296 734.428 21.484 734.26 21.58C734.1 21.668 733.872 21.692 733.576 21.652L732.46 21.46C732.572 20.676 732.788 19.984 733.108 19.384C733.436 18.776 733.844 18.268 734.332 17.86C734.828 17.452 735.392 17.144 736.024 16.936C736.656 16.72 737.34 16.612 738.076 16.612C738.804 16.612 739.484 16.72 740.116 16.936C740.748 17.152 741.296 17.468 741.76 17.884C742.224 18.292 742.588 18.792 742.852 19.384C743.116 19.976 743.248 20.648 743.248 21.4C743.248 22.04 743.152 22.636 742.96 23.188C742.768 23.732 742.508 24.252 742.18 24.748C741.852 25.244 741.472 25.728 741.04 26.2C740.616 26.672 740.164 27.148 739.684 27.628L735.148 32.26C735.468 32.172 735.792 32.104 736.12 32.056C736.448 32 736.764 31.972 737.068 31.972H742.828ZM757.71 32.104L757.698 34H747.102V16.804H757.698V18.7H749.43V24.412H756.126V26.236H749.43V32.104H757.71ZM770.086 27.616L767.386 20.62C767.306 20.412 767.222 20.172 767.134 19.9C767.046 19.62 766.962 19.324 766.882 19.012C766.714 19.66 766.542 20.2 766.366 20.632L763.666 27.616H770.086ZM774.934 34H773.134C772.926 34 772.758 33.948 772.63 33.844C772.502 33.74 772.406 33.608 772.342 33.448L770.734 29.296H763.018L761.41 33.448C761.362 33.592 761.27 33.72 761.134 33.832C760.998 33.944 760.83 34 760.63 34H758.83L765.706 16.804H768.058L774.934 34Z" fill="black"/>
<path d="M1349.76 23.44H1346.8L1346.02 27.352H1348.98L1349.76 23.44ZM1354.3 21.868L1354.14 22.768C1354.1 23 1354 23.172 1353.85 23.284C1353.71 23.388 1353.48 23.44 1353.18 23.44H1351.52L1350.74 27.352H1352.89C1353.12 27.352 1353.29 27.42 1353.38 27.556C1353.49 27.684 1353.52 27.912 1353.47 28.24L1353.36 28.924H1350.52L1349.51 34H1348.54C1348.43 34 1348.34 33.976 1348.25 33.928C1348.16 33.88 1348.08 33.816 1348.02 33.736C1347.96 33.656 1347.92 33.56 1347.9 33.448C1347.88 33.336 1347.88 33.212 1347.9 33.076L1348.75 28.924H1345.79L1344.94 33.184C1344.89 33.48 1344.77 33.692 1344.59 33.82C1344.4 33.94 1344.2 34 1343.96 34H1343L1344.02 28.924H1342.27C1342.05 28.924 1341.88 28.86 1341.78 28.732C1341.68 28.596 1341.66 28.364 1341.71 28.036L1341.8 27.352H1344.25L1345.03 23.44H1342.25L1342.4 22.552C1342.44 22.32 1342.54 22.148 1342.68 22.036C1342.83 21.924 1343.06 21.868 1343.36 21.868H1345.26L1346.12 17.572C1346.17 17.332 1346.28 17.144 1346.45 17.008C1346.62 16.872 1346.83 16.804 1347.07 16.804H1348.03L1347.02 21.868H1349.99L1351 16.804H1351.94C1352.18 16.804 1352.36 16.88 1352.48 17.032C1352.62 17.184 1352.67 17.376 1352.63 17.608L1351.75 21.868H1354.3ZM1357.41 34V23.668L1356.06 23.512C1355.89 23.472 1355.75 23.412 1355.64 23.332C1355.54 23.244 1355.49 23.12 1355.49 22.96V22.084H1357.41V21.088C1357.41 20.392 1357.5 19.776 1357.69 19.24C1357.89 18.696 1358.17 18.24 1358.53 17.872C1358.9 17.496 1359.34 17.212 1359.85 17.02C1360.37 16.828 1360.94 16.732 1361.58 16.732C1362.13 16.732 1362.63 16.812 1363.08 16.972L1363.03 18.052C1363.02 18.244 1362.91 18.348 1362.71 18.364C1362.52 18.38 1362.26 18.388 1361.93 18.388C1361.56 18.388 1361.23 18.436 1360.92 18.532C1360.63 18.62 1360.37 18.772 1360.15 18.988C1359.94 19.204 1359.77 19.492 1359.65 19.852C1359.54 20.204 1359.48 20.64 1359.48 21.16V22.084H1364.97V20.776C1364.97 20.08 1365.06 19.464 1365.25 18.928C1365.45 18.384 1365.73 17.928 1366.09 17.56C1366.46 17.184 1366.9 16.9 1367.41 16.708C1367.93 16.516 1368.5 16.42 1369.14 16.42C1369.68 16.42 1370.18 16.5 1370.64 16.66L1370.59 17.728C1370.58 17.92 1370.47 18.024 1370.27 18.04C1370.08 18.056 1369.82 18.064 1369.49 18.064C1369.12 18.064 1368.79 18.112 1368.48 18.208C1368.19 18.304 1367.93 18.46 1367.71 18.676C1367.5 18.892 1367.33 19.176 1367.21 19.528C1367.1 19.88 1367.04 20.316 1367.04 20.836V22.084H1370.55V23.632H1367.11V34H1364.97V23.632H1359.55V34H1357.41ZM1373.37 34V23.668L1372.02 23.512C1371.85 23.472 1371.71 23.412 1371.6 23.332C1371.5 23.244 1371.45 23.12 1371.45 22.96V22.084H1373.37V21.088C1373.37 20.392 1373.46 19.776 1373.65 19.24C1373.85 18.696 1374.13 18.24 1374.49 17.872C1374.86 17.496 1375.3 17.212 1375.81 17.02C1376.33 16.828 1376.9 16.732 1377.54 16.732C1378.09 16.732 1378.59 16.812 1379.04 16.972L1378.99 18.052C1378.98 18.244 1378.87 18.348 1378.67 18.364C1378.48 18.38 1378.22 18.388 1377.89 18.388C1377.52 18.388 1377.19 18.436 1376.88 18.532C1376.59 18.62 1376.33 18.772 1376.11 18.988C1375.9 19.204 1375.73 19.492 1375.61 19.852C1375.5 20.204 1375.44 20.64 1375.44 21.16V22.084H1380.93V20.776C1380.93 20.08 1381.02 19.464 1381.21 18.928C1381.41 18.384 1381.69 17.928 1382.05 17.56C1382.42 17.184 1382.86 16.9 1383.37 16.708C1383.89 16.516 1384.46 16.42 1385.1 16.42C1385.64 16.42 1386.14 16.5 1386.6 16.66L1386.55 17.728C1386.54 17.92 1386.43 18.024 1386.23 18.04C1386.04 18.056 1385.78 18.064 1385.45 18.064C1385.08 18.064 1384.75 18.112 1384.44 18.208C1384.15 18.304 1383.89 18.46 1383.67 18.676C1383.46 18.892 1383.29 19.176 1383.17 19.528C1383.06 19.88 1383 20.316 1383 20.836V22.084H1386.51V23.632H1383.07V34H1380.93V23.632H1375.51V34H1373.37ZM1389.33 34V23.668L1387.98 23.512C1387.82 23.472 1387.68 23.412 1387.56 23.332C1387.46 23.244 1387.41 23.12 1387.41 22.96V22.084H1389.33V21.088C1389.33 20.392 1389.42 19.776 1389.62 19.24C1389.82 18.696 1390.1 18.24 1390.46 17.872C1390.82 17.496 1391.26 17.212 1391.78 17.02C1392.29 16.828 1392.86 16.732 1393.5 16.732C1394.05 16.732 1394.55 16.812 1395 16.972L1394.96 18.052C1394.94 18.244 1394.83 18.348 1394.63 18.364C1394.44 18.38 1394.18 18.388 1393.85 18.388C1393.48 18.388 1393.15 18.436 1392.84 18.532C1392.55 18.62 1392.29 18.772 1392.08 18.988C1391.86 19.204 1391.69 19.492 1391.57 19.852C1391.46 20.204 1391.4 20.64 1391.4 21.16V22.084H1396.89V20.776C1396.89 20.08 1396.98 19.464 1397.18 18.928C1397.38 18.384 1397.66 17.928 1398.02 17.56C1398.38 17.184 1398.82 16.9 1399.34 16.708C1399.85 16.516 1400.42 16.42 1401.06 16.42C1401.6 16.42 1402.1 16.5 1402.56 16.66L1402.52 17.728C1402.5 17.92 1402.39 18.024 1402.19 18.04C1402 18.056 1401.74 18.064 1401.41 18.064C1401.04 18.064 1400.71 18.112 1400.4 18.208C1400.11 18.304 1399.85 18.46 1399.64 18.676C1399.42 18.892 1399.25 19.176 1399.13 19.528C1399.02 19.88 1398.96 20.316 1398.96 20.836V22.084H1402.47V23.632H1399.04V34H1396.89V23.632H1391.48V34H1389.33Z" fill="black"/>
<path d="M1516.76 23.44H1513.8L1513.02 27.352H1515.98L1516.76 23.44ZM1521.3 21.868L1521.14 22.768C1521.1 23 1521 23.172 1520.85 23.284C1520.71 23.388 1520.48 23.44 1520.18 23.44H1518.52L1517.74 27.352H1519.89C1520.12 27.352 1520.29 27.42 1520.38 27.556C1520.49 27.684 1520.52 27.912 1520.47 28.24L1520.36 28.924H1517.52L1516.51 34H1515.54C1515.43 34 1515.34 33.976 1515.25 33.928C1515.16 33.88 1515.08 33.816 1515.02 33.736C1514.96 33.656 1514.92 33.56 1514.9 33.448C1514.88 33.336 1514.88 33.212 1514.9 33.076L1515.75 28.924H1512.79L1511.94 33.184C1511.89 33.48 1511.77 33.692 1511.59 33.82C1511.4 33.94 1511.2 34 1510.96 34H1510L1511.02 28.924H1509.27C1509.05 28.924 1508.88 28.86 1508.78 28.732C1508.68 28.596 1508.66 28.364 1508.71 28.036L1508.8 27.352H1511.25L1512.03 23.44H1509.25L1509.4 22.552C1509.44 22.32 1509.54 22.148 1509.68 22.036C1509.83 21.924 1510.06 21.868 1510.36 21.868H1512.26L1513.12 17.572C1513.17 17.332 1513.28 17.144 1513.45 17.008C1513.62 16.872 1513.83 16.804 1514.07 16.804H1515.03L1514.02 21.868H1516.99L1518 16.804H1518.94C1519.18 16.804 1519.36 16.88 1519.48 17.032C1519.62 17.184 1519.67 17.376 1519.63 17.608L1518.75 21.868H1521.3ZM1535.12 25.408C1535.12 26.912 1534.96 28.216 1534.63 29.32C1534.31 30.416 1533.87 31.324 1533.31 32.044C1532.75 32.764 1532.09 33.3 1531.32 33.652C1530.56 34.004 1529.74 34.18 1528.87 34.18C1527.99 34.18 1527.17 34.004 1526.41 33.652C1525.66 33.3 1525 32.764 1524.44 32.044C1523.88 31.324 1523.44 30.416 1523.12 29.32C1522.8 28.216 1522.64 26.912 1522.64 25.408C1522.64 23.904 1522.8 22.6 1523.12 21.496C1523.44 20.392 1523.88 19.48 1524.44 18.76C1525 18.032 1525.66 17.492 1526.41 17.14C1527.17 16.788 1527.99 16.612 1528.87 16.612C1529.74 16.612 1530.56 16.788 1531.32 17.14C1532.09 17.492 1532.75 18.032 1533.31 18.76C1533.87 19.48 1534.31 20.392 1534.63 21.496C1534.96 22.6 1535.12 23.904 1535.12 25.408ZM1532.9 25.408C1532.9 24.096 1532.79 22.996 1532.57 22.108C1532.35 21.212 1532.05 20.492 1531.68 19.948C1531.31 19.404 1530.88 19.016 1530.39 18.784C1529.91 18.544 1529.4 18.424 1528.87 18.424C1528.34 18.424 1527.83 18.544 1527.35 18.784C1526.86 19.016 1526.43 19.404 1526.06 19.948C1525.69 20.492 1525.4 21.212 1525.17 22.108C1524.96 22.996 1524.85 24.096 1524.85 25.408C1524.85 26.72 1524.96 27.82 1525.17 28.708C1525.4 29.596 1525.69 30.312 1526.06 30.856C1526.43 31.4 1526.86 31.792 1527.35 32.032C1527.83 32.264 1528.34 32.38 1528.87 32.38C1529.4 32.38 1529.91 32.264 1530.39 32.032C1530.88 31.792 1531.31 31.4 1531.68 30.856C1532.05 30.312 1532.35 29.596 1532.57 28.708C1532.79 27.82 1532.9 26.72 1532.9 25.408ZM1549.04 25.408C1549.04 26.912 1548.88 28.216 1548.55 29.32C1548.23 30.416 1547.79 31.324 1547.23 32.044C1546.67 32.764 1546.01 33.3 1545.24 33.652C1544.48 34.004 1543.66 34.18 1542.79 34.18C1541.91 34.18 1541.09 34.004 1540.33 33.652C1539.58 33.3 1538.92 32.764 1538.36 32.044C1537.8 31.324 1537.36 30.416 1537.04 29.32C1536.72 28.216 1536.56 26.912 1536.56 25.408C1536.56 23.904 1536.72 22.6 1537.04 21.496C1537.36 20.392 1537.8 19.48 1538.36 18.76C1538.92 18.032 1539.58 17.492 1540.33 17.14C1541.09 16.788 1541.91 16.612 1542.79 16.612C1543.66 16.612 1544.48 16.788 1545.24 17.14C1546.01 17.492 1546.67 18.032 1547.23 18.76C1547.79 19.48 1548.23 20.392 1548.55 21.496C1548.88 22.6 1549.04 23.904 1549.04 25.408ZM1546.82 25.408C1546.82 24.096 1546.71 22.996 1546.49 22.108C1546.27 21.212 1545.98 20.492 1545.6 19.948C1545.23 19.404 1544.8 19.016 1544.32 18.784C1543.83 18.544 1543.32 18.424 1542.79 18.424C1542.26 18.424 1541.76 18.544 1541.27 18.784C1540.78 19.016 1540.35 19.404 1539.98 19.948C1539.62 20.492 1539.32 21.212 1539.1 22.108C1538.88 22.996 1538.77 24.096 1538.77 25.408C1538.77 26.72 1538.88 27.82 1539.1 28.708C1539.32 29.596 1539.62 30.312 1539.98 30.856C1540.35 31.4 1540.78 31.792 1541.27 32.032C1541.76 32.264 1542.26 32.38 1542.79 32.38C1543.32 32.38 1543.83 32.264 1544.32 32.032C1544.8 31.792 1545.23 31.4 1545.6 30.856C1545.98 30.312 1546.27 29.596 1546.49 28.708C1546.71 27.82 1546.82 26.72 1546.82 25.408ZM1562.97 25.408C1562.97 26.912 1562.8 28.216 1562.47 29.32C1562.15 30.416 1561.71 31.324 1561.15 32.044C1560.59 32.764 1559.93 33.3 1559.16 33.652C1558.4 34.004 1557.59 34.18 1556.71 34.18C1555.83 34.18 1555.01 34.004 1554.25 33.652C1553.5 33.3 1552.85 32.764 1552.29 32.044C1551.73 31.324 1551.29 30.416 1550.97 29.32C1550.65 28.216 1550.49 26.912 1550.49 25.408C1550.49 23.904 1550.65 22.6 1550.97 21.496C1551.29 20.392 1551.73 19.48 1552.29 18.76C1552.85 18.032 1553.5 17.492 1554.25 17.14C1555.01 16.788 1555.83 16.612 1556.71 16.612C1557.59 16.612 1558.4 16.788 1559.16 17.14C1559.93 17.492 1560.59 18.032 1561.15 18.76C1561.71 19.48 1562.15 20.392 1562.47 21.496C1562.8 22.6 1562.97 23.904 1562.97 25.408ZM1560.75 25.408C1560.75 24.096 1560.63 22.996 1560.41 22.108C1560.19 21.212 1559.9 20.492 1559.52 19.948C1559.15 19.404 1558.73 19.016 1558.24 18.784C1557.75 18.544 1557.24 18.424 1556.71 18.424C1556.19 18.424 1555.68 18.544 1555.19 18.784C1554.7 19.016 1554.27 19.404 1553.91 19.948C1553.54 20.492 1553.24 21.212 1553.02 22.108C1552.8 22.996 1552.69 24.096 1552.69 25.408C1552.69 26.72 1552.8 27.82 1553.02 28.708C1553.24 29.596 1553.54 30.312 1553.91 30.856C1554.27 31.4 1554.7 31.792 1555.19 32.032C1555.68 32.264 1556.19 32.38 1556.71 32.38C1557.24 32.38 1557.75 32.264 1558.24 32.032C1558.73 31.792 1559.15 31.4 1559.52 30.856C1559.9 30.312 1560.19 29.596 1560.41 28.708C1560.63 27.82 1560.75 26.72 1560.75 25.408ZM1576.89 25.408C1576.89 26.912 1576.72 28.216 1576.4 29.32C1576.08 30.416 1575.64 31.324 1575.08 32.044C1574.52 32.764 1573.85 33.3 1573.08 33.652C1572.32 34.004 1571.51 34.18 1570.64 34.18C1569.76 34.18 1568.94 34.004 1568.18 33.652C1567.42 33.3 1566.77 32.764 1566.21 32.044C1565.65 31.324 1565.21 30.416 1564.89 29.32C1564.57 28.216 1564.41 26.912 1564.41 25.408C1564.41 23.904 1564.57 22.6 1564.89 21.496C1565.21 20.392 1565.65 19.48 1566.21 18.76C1566.77 18.032 1567.42 17.492 1568.18 17.14C1568.94 16.788 1569.76 16.612 1570.64 16.612C1571.51 16.612 1572.32 16.788 1573.08 17.14C1573.85 17.492 1574.52 18.032 1575.08 18.76C1575.64 19.48 1576.08 20.392 1576.4 21.496C1576.72 22.6 1576.89 23.904 1576.89 25.408ZM1574.67 25.408C1574.67 24.096 1574.56 22.996 1574.33 22.108C1574.12 21.212 1573.82 20.492 1573.44 19.948C1573.08 19.404 1572.65 19.016 1572.16 18.784C1571.67 18.544 1571.16 18.424 1570.64 18.424C1570.11 18.424 1569.6 18.544 1569.11 18.784C1568.62 19.016 1568.2 19.404 1567.83 19.948C1567.46 20.492 1567.16 21.212 1566.94 22.108C1566.72 22.996 1566.62 24.096 1566.62 25.408C1566.62 26.72 1566.72 27.82 1566.94 28.708C1567.16 29.596 1567.46 30.312 1567.83 30.856C1568.2 31.4 1568.62 31.792 1569.11 32.032C1569.6 32.264 1570.11 32.38 1570.64 32.38C1571.16 32.38 1571.67 32.264 1572.16 32.032C1572.65 31.792 1573.08 31.4 1573.44 30.856C1573.82 30.312 1574.12 29.596 1574.33 28.708C1574.56 27.82 1574.67 26.72 1574.67 25.408ZM1590.81 25.408C1590.81 26.912 1590.65 28.216 1590.32 29.32C1590 30.416 1589.56 31.324 1589 32.044C1588.44 32.764 1587.77 33.3 1587.01 33.652C1586.25 34.004 1585.43 34.18 1584.56 34.18C1583.68 34.18 1582.86 34.004 1582.1 33.652C1581.35 33.3 1580.69 32.764 1580.13 32.044C1579.57 31.324 1579.13 30.416 1578.81 29.32C1578.49 28.216 1578.33 26.912 1578.33 25.408C1578.33 23.904 1578.49 22.6 1578.81 21.496C1579.13 20.392 1579.57 19.48 1580.13 18.76C1580.69 18.032 1581.35 17.492 1582.1 17.14C1582.86 16.788 1583.68 16.612 1584.56 16.612C1585.43 16.612 1586.25 16.788 1587.01 17.14C1587.77 17.492 1588.44 18.032 1589 18.76C1589.56 19.48 1590 20.392 1590.32 21.496C1590.65 22.6 1590.81 23.904 1590.81 25.408ZM1588.59 25.408C1588.59 24.096 1588.48 22.996 1588.25 22.108C1588.04 21.212 1587.74 20.492 1587.37 19.948C1587 19.404 1586.57 19.016 1586.08 18.784C1585.59 18.544 1585.09 18.424 1584.56 18.424C1584.03 18.424 1583.52 18.544 1583.03 18.784C1582.55 19.016 1582.12 19.404 1581.75 19.948C1581.38 20.492 1581.09 21.212 1580.86 22.108C1580.65 22.996 1580.54 24.096 1580.54 25.408C1580.54 26.72 1580.65 27.82 1580.86 28.708C1581.09 29.596 1581.38 30.312 1581.75 30.856C1582.12 31.4 1582.55 31.792 1583.03 32.032C1583.52 32.264 1584.03 32.38 1584.56 32.38C1585.09 32.38 1585.59 32.264 1586.08 32.032C1586.57 31.792 1587 31.4 1587.37 30.856C1587.74 30.312 1588.04 29.596 1588.25 28.708C1588.48 27.82 1588.59 26.72 1588.59 25.408ZM1604.73 25.408C1604.73 26.912 1604.57 28.216 1604.24 29.32C1603.92 30.416 1603.48 31.324 1602.92 32.044C1602.36 32.764 1601.7 33.3 1600.93 33.652C1600.17 34.004 1599.35 34.18 1598.48 34.18C1597.6 34.18 1596.78 34.004 1596.02 33.652C1595.27 33.3 1594.61 32.764 1594.05 32.044C1593.49 31.324 1593.05 30.416 1592.73 29.32C1592.41 28.216 1592.25 26.912 1592.25 25.408C1592.25 23.904 1592.41 22.6 1592.73 21.496C1593.05 20.392 1593.49 19.48 1594.05 18.76C1594.61 18.032 1595.27 17.492 1596.02 17.14C1596.78 16.788 1597.6 16.612 1598.48 16.612C1599.35 16.612 1600.17 16.788 1600.93 17.14C1601.7 17.492 1602.36 18.032 1602.92 18.76C1603.48 19.48 1603.92 20.392 1604.24 21.496C1604.57 22.6 1604.73 23.904 1604.73 25.408ZM1602.51 25.408C1602.51 24.096 1602.4 22.996 1602.18 22.108C1601.96 21.212 1601.66 20.492 1601.29 19.948C1600.92 19.404 1600.49 19.016 1600 18.784C1599.52 18.544 1599.01 18.424 1598.48 18.424C1597.95 18.424 1597.44 18.544 1596.96 18.784C1596.47 19.016 1596.04 19.404 1595.67 19.948C1595.3 20.492 1595.01 21.212 1594.78 22.108C1594.57 22.996 1594.46 24.096 1594.46 25.408C1594.46 26.72 1594.57 27.82 1594.78 28.708C1595.01 29.596 1595.3 30.312 1595.67 30.856C1596.04 31.4 1596.47 31.792 1596.96 32.032C1597.44 32.264 1597.95 32.38 1598.48 32.38C1599.01 32.38 1599.52 32.264 1600 32.032C1600.49 31.792 1600.92 31.4 1601.29 30.856C1601.66 30.312 1601.96 29.596 1602.18 28.708C1602.4 27.82 1602.51 26.72 1602.51 25.408Z" fill="white"/>
</svg>
