<?xml version="1.0" encoding="utf-8"?>
<!-- Generator: Adobe Illustrator 26.5.2, SVG Export Plug-In . SVG Version: 6.00 Build 0)  -->
<svg version="1.1" id="レイヤー_1" xmlns="http://www.w3.org/2000/svg" xmlns:xlink="http://www.w3.org/1999/xlink" x="0px"
	 y="0px" viewBox="0 0 841.9 595.3" style="enable-background:new 0 0 841.9 595.3;" xml:space="preserve">
<style type="text/css">
	.st0{fill:#FFFFFF;}
</style>
<rect x="0" y="0" class="st0" width="841.9" height="595.3"/>
<g>
	<g>
		<path d="M275.5,569.9h4.1v-25.5h-4.1v-0.5h6.5c0.4,0,0.8,0,1.1,0c0.4,0,0.8,0,1.2-0.1c0.4,0,0.8,0,1.2,0c0.4,0,0.7,0,1.1,0
			c1.8,0,3.3,0.2,4.5,0.7c1.2,0.4,2.1,1,2.8,1.6c0.7,0.6,1.1,1.3,1.4,2c0.2,0.7,0.4,1.4,0.4,2c0,0.8-0.2,1.6-0.5,2.3
			c-0.4,0.7-0.8,1.3-1.5,1.8c-0.6,0.5-1.3,0.9-2.1,1.3c-0.8,0.3-1.6,0.5-2.5,0.6v0.1c0.9,0.1,1.8,0.3,2.7,0.6
			c0.9,0.3,1.8,0.7,2.5,1.3c0.8,0.6,1.4,1.2,1.8,2.1c0.5,0.8,0.7,1.8,0.7,2.8c0,1.1-0.2,2.1-0.6,3.1c-0.4,0.9-1.1,1.7-1.9,2.4
			s-1.9,1.2-3.2,1.6c-1.3,0.4-2.8,0.6-4.5,0.6c-0.3,0-0.7,0-1,0s-0.7,0-1.1-0.1c-0.4,0-0.8,0-1.2-0.1c-0.4,0-0.8,0-1.3,0h-6.5V569.9
			z M283.4,556h3.4c0.7,0,1.3-0.1,1.9-0.3s1.1-0.5,1.5-0.9s0.7-1,1-1.8c0.2-0.7,0.3-1.7,0.3-2.8c0-1.3-0.2-2.3-0.5-3.1
			s-0.8-1.4-1.3-1.8c-0.5-0.4-1.1-0.7-1.8-0.8c-0.7-0.1-1.3-0.2-2-0.2c-0.4,0-0.9,0-1.4,0s-0.9,0-1.2,0.1V556H283.4z M283.4,569.9
			c0.3,0,0.6,0.1,1,0.1s0.9,0.1,1.5,0.1c1.2,0,2.2-0.1,3-0.3s1.5-0.6,2-1.2c0.5-0.6,0.9-1.3,1.2-2.2c0.2-0.9,0.4-2.1,0.4-3.5
			c0-2-0.4-3.5-1.3-4.7c-0.8-1.1-2.1-1.7-3.8-1.7h-4.1L283.4,569.9L283.4,569.9z"/>
		<path d="M304.7,561.2c0,0.2,0,0.5,0,0.8s0,0.6,0,1c0,0.8,0,1.7,0.1,2.6c0.1,0.9,0.3,1.7,0.7,2.4c0.3,0.7,0.8,1.3,1.5,1.8
			s1.5,0.7,2.6,0.7s2-0.2,2.7-0.5s1.3-0.7,1.7-1.2c0.4-0.5,0.7-0.9,0.9-1.4c0.2-0.5,0.3-0.9,0.4-1.2l0.6,0.1
			c-0.1,0.3-0.2,0.7-0.4,1.2c-0.2,0.5-0.5,1-1,1.5s-1.1,1-1.9,1.3c-0.8,0.4-1.8,0.6-3,0.6s-2.4-0.2-3.4-0.6c-1.1-0.4-2-1-2.7-1.7
			c-0.8-0.7-1.4-1.6-1.8-2.7c-0.4-1-0.6-2.2-0.6-3.4c0-1.1,0.2-2.2,0.7-3.2c0.4-1,1-1.9,1.8-2.7s1.6-1.4,2.7-1.9s2.1-0.7,3.3-0.7
			c0.7,0,1.4,0.1,2.2,0.4c0.8,0.2,1.5,0.7,2.2,1.2c0.7,0.6,1.3,1.3,1.7,2.2c0.5,0.9,0.7,2.1,0.7,3.4L304.7,561.2L304.7,561.2z
			 M312.4,560.7c0-0.3,0.1-0.7,0.1-1s0-0.6,0-0.9c0-0.8-0.1-1.5-0.2-2.1s-0.4-1-0.7-1.3c-0.3-0.3-0.6-0.6-1-0.7
			c-0.4-0.1-0.9-0.2-1.3-0.2c-0.8,0-1.5,0.2-2.1,0.5c-0.5,0.3-1,0.8-1.3,1.4c-0.3,0.6-0.6,1.2-0.7,2c-0.2,0.7-0.3,1.5-0.3,2.3H312.4
			z"/>
		<path d="M335.7,570c-0.3,0.2-0.7,0.5-1.2,0.7c-0.4,0.2-1,0.3-1.6,0.3c-1.2,0-2.1-0.3-2.6-0.8s-0.9-1.2-1.1-2.1h-0.1
			c-0.1,0.2-0.2,0.5-0.4,0.8c-0.2,0.3-0.4,0.7-0.8,1s-0.8,0.6-1.4,0.8s-1.4,0.3-2.3,0.3c-1,0-1.9-0.1-2.5-0.4
			c-0.6-0.2-1.1-0.5-1.5-0.9c-0.3-0.3-0.6-0.7-0.7-1.2c-0.1-0.4-0.2-0.8-0.2-1.2c0-0.9,0.2-1.6,0.5-2.1s0.8-0.9,1.4-1.2
			s1.2-0.6,1.9-0.8s1.4-0.4,2.1-0.6c0.8-0.3,1.5-0.5,2-0.7s0.9-0.4,1.2-0.7c0.3-0.3,0.5-0.6,0.6-1.1c0.1-0.4,0.2-1,0.2-1.8
			c0-0.6,0-1.1-0.1-1.6s-0.2-0.9-0.4-1.2c-0.2-0.3-0.5-0.6-0.9-0.8s-0.9-0.3-1.5-0.3c-0.8,0-1.5,0.1-2,0.4c-0.5,0.3-0.8,0.8-0.8,1.4
			c0,0.4,0,0.8,0.1,1.2s0.1,0.7,0.1,0.9c0,0.3-0.1,0.6-0.4,0.9c-0.2,0.2-0.6,0.4-1.1,0.4c-0.8,0-1.3-0.1-1.5-0.4
			c-0.2-0.3-0.3-0.7-0.3-1.2s0.1-1.1,0.4-1.6c0.2-0.5,0.6-0.9,1.1-1.3c0.5-0.4,1.1-0.7,1.8-0.9c0.7-0.2,1.6-0.3,2.5-0.3
			c1.1,0,2.1,0.1,2.9,0.4c0.8,0.3,1.4,0.7,1.9,1.2s0.8,1,1,1.6s0.3,1.2,0.3,1.9v9.3c0,0.7,0.1,1.2,0.3,1.5c0.2,0.2,0.5,0.4,1,0.4
			c0.3,0,0.6,0,0.9-0.1s0.6-0.2,0.9-0.4L335.7,570z M329.2,561.3L329.2,561.3c-0.1,0.3-0.5,0.6-1.3,1l-2.8,1.1
			c-0.8,0.3-1.4,0.8-1.8,1.4c-0.4,0.6-0.6,1.3-0.6,2.2c0,0.4,0,0.8,0.1,1.2s0.2,0.8,0.4,1.1c0.2,0.3,0.5,0.6,0.8,0.8
			s0.8,0.3,1.4,0.3c0.8,0,1.5-0.2,2-0.5s0.9-0.8,1.2-1.3c0.3-0.5,0.4-1.1,0.5-1.7c0.1-0.6,0.1-1.2,0.1-1.7L329.2,561.3L329.2,561.3z
			"/>
		<path d="M357,570.4h-6v-3.8h-0.1c-0.2,0.5-0.5,1-0.8,1.5s-0.7,1-1.2,1.4s-1,0.7-1.6,1s-1.3,0.4-2.1,0.4c-1,0-1.8-0.1-2.4-0.3
			s-1.1-0.5-1.5-0.7c-0.2-0.1-0.4-0.3-0.6-0.5s-0.4-0.4-0.6-0.8c-0.2-0.3-0.3-0.7-0.4-1.2s-0.2-1.1-0.2-1.9V555h-2.9v-0.5h6.1v11.4
			c0,0.6,0,1.2,0.1,1.8c0.1,0.5,0.3,1,0.5,1.4s0.6,0.7,1,1c0.4,0.2,0.9,0.4,1.6,0.4c0.5,0,1.1-0.2,1.7-0.5s1.1-0.8,1.6-1.4
			c0.5-0.6,0.9-1.3,1.2-2.1c0.3-0.8,0.5-1.8,0.5-2.8V555h-2.8v-0.5h6V570h2.9L357,570.4L357,570.4z"/>
		<path d="M358.5,554.5h2.9v-4.8c0.2,0.1,0.4,0.1,0.6,0.2c0.2,0,0.5,0.1,0.9,0.1s0.7,0,1-0.1s0.5-0.2,0.8-0.4v5.1h5.3v0.5h-5.3v12.2
			c0,0.7,0.1,1.3,0.2,1.7s0.3,0.8,0.5,1s0.5,0.4,0.7,0.5c0.3,0.1,0.5,0.1,0.8,0.1c0.9,0,1.6-0.3,2.1-1c0.5-0.6,0.9-1.4,1-2.2
			l0.5,0.2c-0.1,0.3-0.2,0.7-0.3,1.1c-0.1,0.4-0.4,0.8-0.7,1.1c-0.3,0.4-0.7,0.7-1.2,0.9s-1.1,0.4-1.9,0.4c-1.9,0-3.2-0.4-3.9-1.1
			c-0.7-0.7-1.1-1.7-1.1-3.1V555h-2.9V554.5z"/>
		<path d="M370.8,554.5h9.1v0.5h-3.1l4.8,11.7l5-11.7h-3.1v-0.5h5.7v0.5h-2l-6.1,14.4c-0.5,1.1-0.9,2.1-1.3,3.2
			c-0.4,1.1-0.8,2.2-1.3,3.3c-0.3,0.9-0.7,1.7-1,2.3c-0.3,0.7-0.7,1.2-1.1,1.6c-0.4,0.4-0.8,0.7-1.2,0.9c-0.4,0.2-1,0.3-1.6,0.3
			c-0.7,0-1.3-0.1-1.7-0.3s-0.8-0.5-1-0.8s-0.4-0.6-0.5-0.9c-0.1-0.3-0.1-0.6-0.1-0.8c0-0.6,0.2-1.1,0.5-1.4
			c0.3-0.3,0.8-0.5,1.3-0.5c0.2,0,0.4,0,0.6,0.1c0.2,0,0.4,0.1,0.6,0.2c0.2,0.1,0.3,0.2,0.4,0.4s0.2,0.4,0.2,0.6
			c0,0.3-0.1,0.7-0.3,1c-0.2,0.3-0.3,0.7-0.3,1s0.1,0.5,0.3,0.6c0.2,0.1,0.4,0.1,0.7,0.1c0.4,0,0.8-0.1,1.1-0.3
			c0.3-0.2,0.7-0.5,1-0.9s0.6-1,1-1.7s0.7-1.5,1.1-2.5l1.6-4.2l-6.4-15.9h-2.6v-0.3H370.8z"/>
		<path d="M408.6,567c0.5-0.9,0.9-1.7,1.1-2.6c0.2-0.9,0.3-1.7,0.3-2.6s0-1.5-0.1-2.1c-0.1-0.5-0.2-0.9-0.4-1.2
			c-0.2-0.3-0.5-0.4-0.8-0.5s-0.7-0.1-1.2-0.1v-0.4h5.1v0.4c-0.5,0-0.8,0.1-1.1,0.2c-0.3,0.1-0.5,0.3-0.7,0.6s-0.3,0.6-0.3,1
			s-0.1,0.9-0.1,1.5c0,0.7,0,1.4-0.1,2s-0.2,1.1-0.3,1.6c-0.1,0.5-0.3,0.9-0.5,1.3s-0.4,0.8-0.6,1.2c0.5,0.9,0.9,1.5,1.2,2
			c0.4,0.5,0.8,0.7,1.2,0.7c0.3,0,0.5-0.1,0.7-0.2c0.2-0.2,0.3-0.4,0.4-0.6c0.1-0.3,0.2-0.5,0.2-0.8s0.1-0.6,0.1-0.9h0.4
			c0,0.8-0.1,1.4-0.3,1.9c-0.2,0.5-0.4,0.9-0.7,1.2c-0.3,0.3-0.6,0.5-1,0.6s-0.7,0.2-1.1,0.2s-0.7,0-1-0.1s-0.5-0.2-0.7-0.4
			s-0.4-0.4-0.6-0.6s-0.4-0.5-0.6-0.9c-0.2,0.2-0.5,0.4-0.8,0.7c-0.3,0.2-0.7,0.4-1.1,0.6c-0.4,0.2-0.8,0.4-1.3,0.5s-1,0.2-1.6,0.2
			c-1.1,0-2.1-0.2-2.8-0.7c-0.8-0.4-1.4-1-1.9-1.6s-0.8-1.3-1-2s-0.3-1.3-0.3-1.8c0-0.9,0.2-1.7,0.5-2.4s0.8-1.3,1.3-1.8
			s1.1-1,1.7-1.4s1.2-0.8,1.8-1.1c-0.2-0.4-0.4-0.9-0.6-1.4s-0.3-1.2-0.3-1.9c0-0.6,0.1-1.1,0.3-1.6c0.2-0.5,0.5-0.9,0.8-1.2
			s0.7-0.6,1.2-0.8c0.4-0.2,0.9-0.3,1.3-0.3c0.7,0,1.3,0.2,1.7,0.6c0.5,0.4,0.7,1.1,0.7,2c0,0.5-0.1,1-0.3,1.4
			c-0.2,0.4-0.4,0.8-0.6,1.1c-0.3,0.3-0.6,0.6-0.9,0.8s-0.6,0.4-0.9,0.6L408.6,567z M401.5,559.1c-0.9,0.5-1.7,1-2.2,1.7
			c-0.6,0.6-0.8,1.5-0.8,2.5c0,0.8,0.1,1.6,0.4,2.5s0.7,1.7,1.1,2.4c0.5,0.7,1,1.3,1.6,1.8s1.2,0.7,1.8,0.7c0.6,0,1.2-0.2,1.8-0.5
			c0.6-0.3,1.1-0.7,1.6-1.2L401.5,559.1z M402.5,554.2c0,0.5,0.1,1,0.4,1.7c0.3,0.6,0.5,1.3,0.9,1.9c0.3-0.2,0.6-0.4,0.9-0.6
			c0.3-0.2,0.6-0.4,0.8-0.7c0.2-0.3,0.4-0.6,0.5-0.9c0.1-0.4,0.2-0.8,0.2-1.3c0-0.6-0.1-1.1-0.4-1.6s-0.8-0.7-1.5-0.7
			c-0.5,0-0.9,0.2-1.2,0.6C402.7,553.1,402.5,553.6,402.5,554.2z"/>
		<path d="M418.7,569.9h3.3l10.1-26.7h0.9l10.1,26.7h3.3v0.5h-11.5v-0.5h4.1l-3.9-10.4h-8.6l-3.9,10.4h4.1v0.5h-8V569.9z
			 M430.9,548.2l-4.1,10.8h8.2L430.9,548.2z"/>
		<path d="M448.8,569.9h2.9V555h-2.9v-0.5h6v4h0.1c0.1-0.3,0.4-0.7,0.7-1.2c0.3-0.5,0.7-1,1.2-1.5s1.1-0.9,1.9-1.2
			c0.7-0.3,1.7-0.5,2.7-0.5c1.6,0,3,0.4,4,1.2s1.5,2.1,1.5,3.8V570h2.9v0.5h-8.9V570h2.9v-12c0-1-0.2-1.8-0.7-2.4
			c-0.5-0.6-1.2-0.9-2.1-0.9c-0.8,0-1.6,0.2-2.3,0.5c-0.7,0.3-1.4,0.8-1.9,1.5c-0.5,0.6-1,1.4-1.3,2.2s-0.5,1.8-0.5,2.8v8.4h2.9v0.5
			H449v-0.7H448.8z"/>
		<path d="M472.3,568c0-0.7,0.1-1.2,0.4-1.7c0.2-0.5,0.6-0.9,0.9-1.3c0.4-0.4,0.7-0.7,1.2-0.9c0.4-0.2,0.8-0.4,1.1-0.6
			c-1.4-1-2.2-2.3-2.2-4c0-0.9,0.2-1.7,0.6-2.3c0.4-0.7,1-1.3,1.6-1.8s1.4-0.9,2.1-1.1c0.8-0.2,1.5-0.4,2.3-0.4
			c1.1,0,2.1,0.2,2.9,0.7c0.8,0.4,1.4,0.9,1.8,1.2c0.3-0.5,0.7-0.9,1.2-1.3c0.5-0.4,1.2-0.6,2-0.6c0.5,0,1,0.1,1.4,0.3
			s0.6,0.7,0.6,1.4c0,0.4-0.1,0.8-0.4,1s-0.6,0.3-0.9,0.3s-0.6-0.1-0.7-0.3s-0.3-0.4-0.4-0.6s-0.2-0.4-0.4-0.6
			c-0.1-0.2-0.3-0.3-0.6-0.3c-0.3,0-0.5,0.1-0.8,0.3s-0.5,0.5-0.7,0.7c0.2,0.2,0.5,0.7,0.9,1.3c0.3,0.6,0.5,1.3,0.5,2.2
			c0,0.7-0.2,1.4-0.6,2s-0.9,1.2-1.5,1.6c-0.6,0.5-1.3,0.8-2.1,1.1c-0.8,0.3-1.6,0.4-2.5,0.4s-1.6-0.1-2.3-0.4
			c-0.6-0.2-1.1-0.4-1.5-0.6c-0.3,0.1-0.6,0.3-0.9,0.4c-0.3,0.1-0.6,0.3-0.9,0.6c-0.3,0.2-0.5,0.5-0.7,0.8s-0.3,0.7-0.3,1.1
			c0,0.4,0.1,0.7,0.2,0.9s0.3,0.4,0.6,0.6c0.2,0.1,0.5,0.2,0.8,0.3s0.6,0.1,0.9,0.1h5.9c1.7,0,3.1,0.4,4.2,1.2
			c1,0.8,1.5,2.1,1.5,3.9c0,1.1-0.2,2.1-0.7,3s-1.1,1.7-1.9,2.3c-0.8,0.7-1.7,1.2-2.7,1.5c-1,0.4-2.1,0.5-3.1,0.5s-1.9-0.1-2.7-0.3
			c-0.8-0.2-1.5-0.5-2.1-0.9s-1.1-0.9-1.4-1.4s-0.5-1.2-0.5-1.8s0.1-1.2,0.4-1.8s0.6-1,1-1.4s0.9-0.8,1.4-1.1s1-0.5,1.6-0.7v-0.1
			c-1.6,0-2.8-0.3-3.6-0.8S472.3,569.3,472.3,568z M477.9,571.6c-0.3,0.2-0.7,0.4-1,0.6c-0.3,0.2-0.6,0.5-0.9,0.8s-0.5,0.7-0.6,1.1
			c-0.2,0.4-0.2,1-0.2,1.6c0,0.9,0.2,1.6,0.5,2.2c0.3,0.6,0.7,1.1,1.2,1.4c0.5,0.4,1,0.6,1.6,0.8c0.6,0.1,1.2,0.2,1.8,0.2
			c0.9,0,1.7-0.1,2.4-0.4c0.7-0.3,1.4-0.6,1.9-1.1s0.9-1,1.2-1.6c0.3-0.6,0.4-1.2,0.4-1.9c0-1.4-0.4-2.4-1.1-3
			c-0.8-0.6-1.8-0.9-3.1-0.9h-4.1V571.6z M483.9,559.5c0-0.6,0-1.1-0.1-1.7c-0.1-0.6-0.2-1.1-0.5-1.6c-0.2-0.5-0.6-0.9-1.1-1.2
			s-1.1-0.4-2-0.4c-1.3,0-2.2,0.4-2.9,1.2c-0.6,0.8-1,2-1,3.8c0,0.7,0.1,1.4,0.2,2s0.3,1.1,0.6,1.5c0.3,0.4,0.7,0.8,1.2,1
			s1.1,0.3,1.9,0.3c1.3,0,2.2-0.4,2.8-1.2C483.6,562.3,483.9,561.1,483.9,559.5z"/>
		<path d="M495.4,561.2c0,0.2,0,0.5,0,0.8s0,0.6,0,1c0,0.8,0,1.7,0.1,2.6c0.1,0.9,0.3,1.7,0.7,2.4c0.3,0.7,0.8,1.3,1.5,1.8
			s1.5,0.7,2.6,0.7s2-0.2,2.7-0.5s1.3-0.7,1.7-1.2c0.4-0.5,0.7-0.9,0.9-1.4c0.2-0.5,0.3-0.9,0.4-1.2l0.6,0.1
			c-0.1,0.3-0.2,0.7-0.4,1.2c-0.2,0.5-0.5,1-1,1.5s-1.1,1-1.9,1.3c-0.8,0.4-1.8,0.6-3,0.6s-2.4-0.2-3.4-0.6c-1.1-0.4-2-1-2.7-1.7
			c-0.8-0.7-1.4-1.6-1.8-2.7c-0.4-1-0.6-2.2-0.6-3.4c0-1.1,0.2-2.2,0.7-3.2c0.4-1,1-1.9,1.8-2.7s1.6-1.4,2.7-1.9s2.1-0.7,3.3-0.7
			c0.7,0,1.4,0.1,2.2,0.4c0.8,0.2,1.5,0.7,2.2,1.2c0.7,0.6,1.3,1.3,1.7,2.2c0.5,0.9,0.7,2.1,0.7,3.4L495.4,561.2L495.4,561.2z
			 M503.1,560.7c0-0.3,0.1-0.7,0.1-1s0-0.6,0-0.9c0-0.8-0.1-1.5-0.2-2.1s-0.4-1-0.7-1.3c-0.3-0.3-0.6-0.6-1-0.7
			c-0.4-0.1-0.9-0.2-1.3-0.2c-0.8,0-1.5,0.2-2.1,0.5c-0.5,0.3-1,0.8-1.3,1.4c-0.3,0.6-0.6,1.2-0.7,2c-0.2,0.7-0.3,1.5-0.3,2.3H503.1
			z"/>
		<path d="M509.6,569.9h2.9v-25.8h-2.9v-0.5h6.1v26.3h2.9v0.5h-8.9v-0.5H509.6z"/>
		<path d="M520.7,569.9h2.9V555h-2.9v-0.5h6.1V570h2.9v0.5h-8.9L520.7,569.9L520.7,569.9z M523.1,545.8c0-0.5,0.2-1,0.6-1.4
			c0.4-0.4,0.9-0.6,1.4-0.6s1,0.2,1.4,0.6c0.4,0.4,0.6,0.9,0.6,1.4s-0.2,1-0.6,1.4c-0.4,0.4-0.9,0.6-1.4,0.6s-1-0.2-1.4-0.6
			C523.3,546.8,523.1,546.3,523.1,545.8z"/>
		<path d="M547.3,566.4c-0.1,0.3-0.2,0.7-0.4,1.2s-0.5,1-1,1.5s-1.1,1-1.9,1.3c-0.8,0.4-1.8,0.6-3,0.6c-0.9,0-1.9-0.1-2.9-0.4
			c-1-0.3-2-0.8-2.8-1.4c-0.8-0.7-1.5-1.5-2.1-2.6c-0.5-1.1-0.8-2.4-0.8-3.9c0-1.2,0.2-2.3,0.7-3.4c0.5-1,1.1-1.9,1.9-2.7
			c0.8-0.8,1.7-1.4,2.8-1.8c1.1-0.4,2.2-0.7,3.4-0.7c0.7,0,1.4,0.1,2.1,0.2c0.7,0.2,1.4,0.4,1.9,0.7c0.6,0.3,1.1,0.8,1.5,1.3
			s0.6,1.2,0.6,2c0,0.5-0.2,0.9-0.5,1.3c-0.3,0.3-0.8,0.5-1.4,0.5c-0.4,0-0.8-0.1-1.2-0.3s-0.6-0.5-0.6-0.9c0-0.3,0.1-0.8,0.3-1.3
			s0.3-0.9,0.3-1.2c0-0.6-0.3-1-0.9-1.3c-0.6-0.3-1.2-0.5-2-0.5c-0.5,0-1.1,0.1-1.7,0.2c-0.6,0.1-1.1,0.5-1.6,1s-0.9,1.4-1.2,2.5
			s-0.5,2.6-0.5,4.5c0,1.1,0.1,2.1,0.2,3c0.1,0.9,0.4,1.8,0.7,2.5c0.4,0.7,0.9,1.3,1.5,1.7s1.5,0.6,2.5,0.6c1.1,0,2-0.2,2.7-0.5
			s1.3-0.7,1.7-1.2s0.7-0.9,0.9-1.4s0.3-0.9,0.4-1.2L547.3,566.4z"/>
		<path d="M566.4,570c-0.3,0.2-0.7,0.5-1.2,0.7c-0.4,0.2-1,0.3-1.6,0.3c-1.2,0-2.1-0.3-2.6-0.8s-0.9-1.2-1.1-2.1h-0.1
			c-0.1,0.2-0.2,0.5-0.4,0.8s-0.4,0.7-0.8,1c-0.4,0.3-0.8,0.6-1.4,0.8c-0.6,0.2-1.4,0.3-2.3,0.3c-1,0-1.9-0.1-2.5-0.4
			c-0.6-0.2-1.1-0.5-1.5-0.9c-0.3-0.3-0.6-0.7-0.7-1.2c-0.1-0.4-0.2-0.8-0.2-1.2c0-0.9,0.2-1.6,0.5-2.1s0.8-0.9,1.4-1.2
			c0.6-0.3,1.2-0.6,1.9-0.8s1.4-0.4,2.1-0.6c0.8-0.3,1.5-0.5,2-0.7s0.9-0.4,1.2-0.7s0.5-0.6,0.6-1.1c0.1-0.4,0.2-1,0.2-1.8
			c0-0.6,0-1.1-0.1-1.6s-0.2-0.9-0.4-1.2s-0.5-0.6-0.9-0.8s-0.9-0.3-1.5-0.3c-0.8,0-1.5,0.1-2,0.4c-0.5,0.3-0.8,0.8-0.8,1.4
			c0,0.4,0,0.8,0.1,1.2s0.1,0.7,0.1,0.9c0,0.3-0.1,0.6-0.4,0.9c-0.2,0.2-0.6,0.4-1.1,0.4c-0.8,0-1.3-0.1-1.5-0.4
			c-0.2-0.3-0.3-0.7-0.3-1.2s0.1-1.1,0.4-1.6c0.2-0.5,0.6-0.9,1.1-1.3c0.5-0.4,1.1-0.7,1.8-0.9s1.6-0.3,2.5-0.3
			c1.1,0,2.1,0.1,2.9,0.4c0.8,0.3,1.4,0.7,1.9,1.2s0.8,1,1,1.6s0.3,1.2,0.3,1.9v9.3c0,0.7,0.1,1.2,0.3,1.5c0.2,0.2,0.5,0.4,1,0.4
			c0.3,0,0.6,0,0.9-0.1c0.3-0.1,0.6-0.2,0.9-0.4L566.4,570z M559.8,561.3L559.8,561.3c-0.1,0.3-0.5,0.6-1.3,1l-2.8,1.1
			c-0.8,0.3-1.4,0.8-1.8,1.4c-0.4,0.6-0.6,1.3-0.6,2.2c0,0.4,0,0.8,0.1,1.2s0.2,0.8,0.4,1.1s0.5,0.6,0.8,0.8s0.8,0.3,1.4,0.3
			c0.8,0,1.5-0.2,2-0.5s0.9-0.8,1.2-1.3s0.4-1.1,0.5-1.7c0.1-0.6,0.1-1.2,0.1-1.7L559.8,561.3L559.8,561.3z"/>
	</g>
	<g>
		<path d="M252.1,233.8h34.8V19.5h-34.8v-4.4H307c3.1,0,6.3-0.1,9.6-0.2c3.2-0.1,6.5-0.3,9.9-0.5c3.3,0,6.6-0.1,9.7-0.2
			c3.1-0.1,6.2-0.2,9.1-0.2c15.3,0,27.8,1.8,37.6,5.5c9.8,3.7,17.5,8.2,23.2,13.5c5.6,5.3,9.5,11.1,11.6,17.2
			c2.1,6.2,3.1,11.7,3.1,16.8c0,6.9-1.5,13.3-4.6,19.1c-3,5.9-7.1,11-12.2,15.4s-11,7.9-17.7,10.7c-6.7,2.7-13.7,4.5-21,5.3v0.6
			c7.5,0.6,15.2,2.2,23,4.9c7.8,2.6,14.9,6.3,21.3,11s11.6,10.5,15.5,17.4c4,6.9,6,14.8,6,23.8c0,9.4-1.8,18-5.3,25.8
			c-3.6,7.8-8.9,14.6-16,20.2c-7.1,5.6-16.1,10.1-27,13.3s-23.5,4.9-37.9,4.9c-2.9,0-5.8-0.1-8.6-0.2c-2.8-0.1-5.8-0.3-8.9-0.5
			s-6.4-0.4-9.7-0.5c-3.4-0.1-6.9-0.2-10.7-0.2h-54.8L252.1,233.8L252.1,233.8z M318.3,116.3h28.8c5.9,0,11.2-0.7,16-2.2
			s8.9-4,12.4-7.7c3.5-3.6,6.1-8.6,8-14.9s2.8-14.2,2.8-23.8c0-10.9-1.4-19.6-4.2-26.2s-6.5-11.5-11-14.9c-4.5-3.3-9.5-5.5-15-6.6
			c-5.5-1-11-1.6-16.4-1.6c-3.8,0-7.6,0.1-11.4,0.2c-3.9,0.1-7.2,0.4-9.9,0.8L318.3,116.3L318.3,116.3z M318.3,233.8
			c2.5,0.2,5.3,0.5,8.3,0.8s7.4,0.5,13,0.5c9.8,0,18.2-1,25.2-2.8s12.7-5.2,17.2-9.9s7.8-10.9,9.9-18.7c2.1-7.7,3.1-17.4,3.1-29.1
			c0-16.7-3.6-29.9-10.7-39.5s-17.7-14.4-31.6-14.4h-34.5v113.1H318.3z"/>
		<path d="M424.7,335.6c4.5-7.6,7.6-15.2,9.2-22.7s2.4-15,2.4-22.4c0-7.5-0.3-13.4-1-17.9c-0.7-4.4-1.9-7.8-3.6-10.2
			c-1.7-2.3-4-3.9-6.9-4.6s-6.5-1.1-10.9-1.1v-3.3h44.4v3.3c-4.1,0-7.3,0.6-9.8,1.6c-2.5,1.1-4.4,2.8-5.7,5.2
			c-1.3,2.3-2.2,5.3-2.6,9s-0.6,8.1-0.6,13.2c0,6.4-0.3,12.1-0.9,17c-0.6,5-1.5,9.5-2.6,13.7c-1.1,4.1-2.5,8-4.2,11.7
			s-3.6,7.3-5.6,10.9c4,7.5,7.6,13.4,10.8,17.6c3.1,4.3,6.7,6.4,10.7,6.4c2.5,0,4.5-0.7,6-2.1s2.6-3.2,3.4-5.4
			c0.8-2.2,1.3-4.5,1.6-7.1c0.3-2.6,0.5-5.1,0.5-7.6h3.3c0,6.5-0.9,12-2.6,16.2c-1.7,4.3-3.9,7.8-6.4,10.4c-2.6,2.6-5.5,4.5-8.8,5.6
			s-6.4,1.6-9.3,1.6c-3.3,0-6.1-0.3-8.4-1.1c-2.3-0.7-4.4-1.8-6.2-3.3c-1.8-1.5-3.5-3.3-5-5.5c-1.6-2.2-3.3-4.8-5.1-7.7
			c-1.9,1.9-4.2,3.8-7,5.8s-5.9,3.9-9.5,5.6c-3.5,1.7-7.4,3.2-11.6,4.3c-4.2,1.2-8.7,1.8-13.6,1.8c-9.8,0-18.1-1.9-24.8-5.7
			c-6.7-3.8-12.1-8.4-16.2-13.8s-7.1-11-8.8-17s-2.6-11.1-2.6-15.3c0-8.1,1.4-15.2,4.3-21.3c2.9-6.1,6.5-11.4,11-16s9.3-8.6,14.6-12
			c5.3-3.4,10.4-6.5,15.4-9.3c-1.7-3.4-3.4-7.4-5.1-12s-2.6-10.2-2.6-16.7c0-5.3,0.9-10,2.8-14.1s4.3-7.7,7.2-10.6
			c2.9-2.9,6.3-5.2,10.2-6.8c3.8-1.5,7.7-2.3,11.6-2.3c5.9,0,10.9,1.9,15.1,5.6c4.1,3.7,6.2,9.6,6.2,17.5c0,4.7-0.7,8.8-2.2,12.3
			s-3.3,6.6-5.6,9.2c-2.3,2.7-4.8,4.9-7.6,6.8c-2.8,1.9-5.4,3.5-7.9,4.9L424.7,335.6z M363.5,266.9c-8.1,4.2-14.6,9.1-19.4,14.6
			s-7.2,12.8-7.2,21.9c0,7,1.2,14.4,3.7,22.1s5.8,14.8,9.8,21.1c4,6.4,8.6,11.6,13.7,15.8c5.1,4.1,10.2,6.2,15.3,6.2
			c5.6,0,10.9-1.4,15.8-4.1s9.5-6.1,13.9-10.2L363.5,266.9z M371.9,223.9c0,4.1,1.1,8.9,3.4,14.5s4.8,11.2,7.6,16.8
			c2.6-1.5,5.3-3.2,7.8-4.9c2.6-1.7,4.8-3.7,6.8-6.1c1.9-2.3,3.5-5.1,4.8-8.2c1.2-3.1,1.9-6.8,1.9-11c0-5.3-1.3-10-3.9-14
			c-2.6-4.1-7-6.1-13.2-6.1c-4,0-7.6,1.8-10.6,5.4C373.5,214,371.9,218.5,371.9,223.9z"/>
		<path d="M357.4,498.5h27.5l84.4-223.9h7.5l85.1,223.9h27.8v4.4h-96.3v-4.4h34.7l-32.8-86.9h-72.6l-32.8,86.9h34.7v4.4h-67.2
			L357.4,498.5L357.4,498.5z M459,316.2l-34.4,91h68.8L459,316.2z"/>
	</g>
</g>
</svg>
