<?xml version="1.0" encoding="utf-8"?>
<!-- Generator: Adobe Illustrator 27.3.1, SVG Export Plug-In . SVG Version: 6.00 Build 0)  -->
<svg version="1.1" id="レイヤー_1" xmlns="http://www.w3.org/2000/svg" xmlns:xlink="http://www.w3.org/1999/xlink" x="0px"
	 y="0px" viewBox="0 0 841.9 595.3" style="enable-background:new 0 0 841.9 595.3;" xml:space="preserve">
<style type="text/css">
	.st0{fill:#FFFFFF;}
	.st1{fill:#FFFFFF;stroke:#000000;stroke-width:2.8346;stroke-miterlimit:10;}
	.st2{fill:#E61E6E;stroke:#000000;stroke-width:1.4173;stroke-miterlimit:10;}
	.st3{fill:#FFFFFF;stroke:#000000;stroke-width:1.9238;stroke-miterlimit:10;}
	.st4{fill:none;stroke:#FFFFFF;stroke-miterlimit:10;}
	.st5{fill:#E4007F;stroke:#FFFFFF;stroke-miterlimit:10;}
	.st6{fill:none;stroke:#FFFFFF;stroke-width:1.0015;stroke-miterlimit:10;}
	.st7{fill:none;stroke:#FFFFFF;stroke-width:2.8346;stroke-miterlimit:10;}
	.st8{fill:#E4007F;stroke:#FFFFFF;stroke-width:0.3728;stroke-miterlimit:10;}
	.st9{fill:#FFFFFF;stroke:#000000;stroke-width:3.7872;stroke-miterlimit:10;}
	.st10{fill:#FFFFFF;stroke:#000000;stroke-width:3.7874;stroke-miterlimit:10;}
	.st11{fill:#E4007F;stroke:#FFFFFF;stroke-width:0.5087;stroke-miterlimit:10;}
	.st12{fill:none;}
	.st13{fill:none;stroke:#FFFFFF;stroke-width:1.4419;stroke-miterlimit:10;}
	.st14{fill:#C4A68A;}
	.st15{fill:#C48745;}
	.st16{fill:#F7F8F8;}
	.st17{fill:none;stroke:#FFFFFF;stroke-width:0.4503;stroke-miterlimit:10;}
	.st18{fill:#006F1E;}
	.st19{fill:none;stroke:#000000;stroke-width:0.833;stroke-miterlimit:10;}
	.st20{fill:#898989;}
	.st21{fill:#9FA0A0;}
	.st22{fill:#FFFFFF;stroke:#3E3A39;stroke-width:1.4923;stroke-miterlimit:10;}
	.st23{fill:#FFFFFF;stroke:#727171;stroke-width:0.7462;stroke-miterlimit:10;}
	.st24{fill:#727171;}
	.st25{fill:#E4007F;}
	.st26{fill:#E4007F;stroke:#FFFFFF;stroke-width:3.4435;stroke-miterlimit:10;}
</style>
<rect x="123.3" y="-123.3" transform="matrix(6.123234e-17 -1 1 6.123234e-17 123.3071 718.5827)" class="st0" width="595.3" height="841.9"/>
<g>
	<ellipse class="st1" cx="1184.2" cy="-30.4" rx="40" ry="21.9"/>
	<g>
		<path class="st2" d="M1226.9-135c0,23.6-38.6,106.5-42.7,106.5c-4.1,0-42.7-82.9-42.7-106.5s19.1-42.7,42.7-42.7
			C1207.8-177.7,1226.9-158.6,1226.9-135z"/>
		<circle class="st3" cx="1184.2" cy="-136.2" r="26.9"/>
	</g>
</g>
<g>
	<circle class="st4" cx="-430.8" cy="807" r="121.1"/>
	<circle class="st5" cx="-430.8" cy="807" r="121.1"/>
	<line class="st4" x1="-542.8" y1="761.1" x2="-385.4" y2="761.1"/>
	<line class="st4" x1="-393.2" y1="714.4" x2="-440" y2="761.2"/>
	<line class="st4" x1="-450.2" y1="711.3" x2="-499.8" y2="760.9"/>
	<line class="st4" x1="-469.7" y1="730.8" x2="-469.7" y2="798.4"/>
	<rect x="-499.7" y="798.4" class="st4" width="60.1" height="60.1"/>
	<line class="st4" x1="-499.7" y1="858.5" x2="-499.7" y2="906.6"/>
	<line class="st4" x1="-469.7" y1="858.5" x2="-469.7" y2="891"/>
	<line class="st4" x1="-342.9" y1="890.5" x2="-470.1" y2="890.5"/>
	<rect x="-439.6" y="761.1" class="st6" width="61.9" height="97.4"/>
	<line class="st6" x1="-439.6" y1="798.4" x2="-377.8" y2="798.4"/>
	<line class="st6" x1="-439.6" y1="828.5" x2="-377.8" y2="828.5"/>
	<line class="st4" x1="-439.6" y1="874.5" x2="-439.6" y2="890.5"/>
	<line class="st4" x1="-408.7" y1="874.5" x2="-408.7" y2="890.5"/>
</g>
<circle class="st5" cx="-130.7" cy="811.6" r="121.1"/>
<g>
	<circle class="st7" cx="-130.7" cy="811.6" r="121.1"/>
	<line class="st7" x1="-242.8" y1="765.7" x2="-85.4" y2="765.7"/>
	<line class="st7" x1="-68.5" y1="708.2" x2="-126.1" y2="765.8"/>
	<line class="st7" x1="-150.2" y1="715.9" x2="-199.7" y2="765.5"/>
	<line class="st7" x1="-169.6" y1="735.3" x2="-169.6" y2="803"/>
	<rect x="-199.6" y="803" class="st7" width="60.1" height="60.1"/>
	<line class="st7" x1="-199.6" y1="863.1" x2="-199.6" y2="911.1"/>
	<line class="st7" x1="-169.6" y1="863.1" x2="-169.6" y2="895.6"/>
	<line class="st7" x1="-42.9" y1="895.1" x2="-170.1" y2="895.1"/>
	<rect x="-126.1" y="765.7" class="st7" width="61.9" height="97.4"/>
	<line class="st7" x1="-126.1" y1="803" x2="-64.3" y2="803"/>
	<line class="st7" x1="-126.1" y1="833" x2="-64.3" y2="833"/>
	<line class="st7" x1="-139.6" y1="879.1" x2="-139.6" y2="895.1"/>
	<line class="st7" x1="-108.6" y1="879.1" x2="-108.6" y2="895.1"/>
</g>
<circle class="st4" cx="164" cy="823" r="121.1"/>
<circle class="st5" cx="164" cy="823" r="121.1"/>
<g>
	<line class="st7" x1="51.9" y1="777.1" x2="209.4" y2="777.1"/>
	<line class="st7" x1="215.4" y1="730.4" x2="168.6" y2="777.2"/>
	<line class="st7" x1="144.6" y1="727.3" x2="95" y2="776.9"/>
	<line class="st7" x1="125.1" y1="746.7" x2="125.1" y2="814.4"/>
	<rect x="95.1" y="814.4" class="st7" width="60.1" height="60.1"/>
	<line class="st7" x1="95.1" y1="874.5" x2="95.1" y2="922.5"/>
	<line class="st7" x1="125.1" y1="874.5" x2="125.1" y2="907"/>
	<line class="st7" x1="251.9" y1="906.5" x2="124.7" y2="906.5"/>
	<rect x="155.2" y="777.1" class="st7" width="61.9" height="97.4"/>
	<line class="st7" x1="179.5" y1="814.4" x2="241.4" y2="814.4"/>
	<line class="st7" x1="168.6" y1="844.4" x2="230.4" y2="844.4"/>
	<line class="st7" x1="155.2" y1="890.5" x2="155.2" y2="906.5"/>
	<line class="st7" x1="186.1" y1="890.5" x2="186.1" y2="906.5"/>
</g>
<g>
	<g>
		<ellipse class="st8" cx="1355.9" cy="267.3" rx="78.8" ry="43"/>
		<g>
			<path class="st9" d="M1439.9,61.2c0,46.4-76,209.7-84,209.7s-84-163.2-84-209.7s37.6-84,84-84S1439.9,14.8,1439.9,61.2z"/>
			<circle class="st10" cx="1355.9" cy="58.9" r="53"/>
		</g>
	</g>
	<g>
		<circle class="st11" cx="1355.9" cy="61.6" r="61.6"/>
		<g>
			<circle class="st12" cx="1355.9" cy="61.6" r="61.6"/>
			<line class="st13" x1="1298.9" y1="38.3" x2="1379" y2="38.3"/>
			<line class="st13" x1="1387.6" y1="9" x2="1358.2" y2="38.3"/>
			<line class="st13" x1="1346" y1="12.9" x2="1320.8" y2="38.2"/>
			<line class="st13" x1="1336.1" y1="22.8" x2="1336.1" y2="57.3"/>
			<rect x="1320.9" y="57.3" class="st13" width="30.6" height="30.6"/>
			<line class="st13" x1="1320.9" y1="87.8" x2="1320.9" y2="112.3"/>
			<line class="st13" x1="1336.1" y1="87.8" x2="1336.1" y2="104.3"/>
			<line class="st13" x1="1400.6" y1="104.1" x2="1335.9" y2="104.1"/>
			<rect x="1358.2" y="38.3" class="st13" width="31.5" height="49.5"/>
			<line class="st13" x1="1358.2" y1="57.3" x2="1389.7" y2="57.3"/>
			<line class="st13" x1="1358.2" y1="72.5" x2="1389.7" y2="72.5"/>
			<line class="st13" x1="1351.4" y1="96" x2="1351.4" y2="104.1"/>
			<line class="st13" x1="1367.1" y1="96" x2="1367.1" y2="104.1"/>
		</g>
	</g>
</g>
<g>
	<g>
		<g>
			<polygon class="st14" points="351.4,377.8 352.2,404.2 383.5,380.8 383.5,355.7 			"/>
			<path class="st15" d="M441.2,367.4c0,0-3.9,40-4.2,41.4s-33.5,39.6-33.5,39.6l-61.6-28.1l-3.6-41.4l42.1-29.3L441.2,367.4z"/>
			<polygon class="st16" points="351.4,377.8 402.8,395.7 429.5,370 383.5,355.7 			"/>
			<polyline class="st17" points="403.5,448.4 406,403.5 338.3,378.9 			"/>
			<line class="st17" x1="441.2" y1="367.4" x2="406" y2="403.5"/>
		</g>
		<g>
			<path class="st18" d="M404.4,342.6c0,0,12.4-11.1,16.3-26.7c0-0.1,0-0.2,0.1-0.2c6.3-34.9,16.1-44.4,17.1-45.3
				c0.1-0.1,0.1-0.1,0.2-0.2l63.2-68.6c0.5-0.6,1.2-0.9,2-1c3.8-0.5,16.3-1.1,28.1,9.1c11.5,10,13.1,20.9,13.2,24.6
				c0,0.8-0.2,1.6-0.8,2.2l-60.6,70.8c-0.1,0.1-0.1,0.1-0.2,0.2c-0.7,1.1-9.1,12-42.9,22.4c-0.1,0-0.2,0.1-0.2,0.1
				c-15,5.7-26.1,20.8-26.1,20.8"/>
			<path class="st19" d="M403.8,337"/>
			
				<ellipse transform="matrix(0.6775 -0.7355 0.7355 0.6775 -123.23 412.6165)" class="st20" cx="408.9" cy="346.8" rx="3.3" ry="6.2"/>
		</g>
		<path class="st20" d="M490.6,213.1l-47,51c0,0,12-0.3,26.6,11.9c14.6,12.2,17.8,25.6,17.8,25.6l45.1-52.7c0,0-1.5-13.9-15.3-25.4
			S490.6,213.1,490.6,213.1z"/>
	</g>
	<g>
		<g>
			<g>
				<path class="st21" d="M88,322.5v-16.4H73v16.4c2.3,0,4.1,20.2,4.1,45.2c0,19.4-1.1,35.9-2.7,42.3c-0.5,2.2-0.5,4.4,0.2,6.6
					c1.2,3.4,3.3,5.6,5.8,5.6c2.5,0,4.6-2.3,5.8-5.6c0.7-2.1,0.8-4.4,0.2-6.6c-1.6-6.4-2.7-22.9-2.7-42.3
					C83.8,342.7,85.7,322.5,88,322.5z"/>
			</g>
			<path class="st21" d="M105.9,294.9"/>
			<g>
				<path class="st21" d="M99.2,296.7l-2.4-42.6c-0.1-2.2-1.3-3.9-2.8-3.9c-0.5,0-0.9,0.6-1,1.4l-0.4,43.8c0,2.3-1,4.1-2.3,4.1
					c-1.3,0-2.3-1.8-2.3-4.1l-0.4-44c0-1.2-0.8-2.2-1.9-2.3c-0.1,0-0.2,0-0.3,0c0,0,0,0,0,0c-1.2,0-2.1,1.1-2.2,2.3l-0.4,43.9
					c0,2.3-1,4.1-2.3,4.1c-1.3,0-2.3-1.8-2.3-4.1l-0.4-44c0-1.2-0.8-2.2-1.9-2.3c-0.1,0-0.2,0-0.3,0c0,0,0,0,0,0
					c-1.2,0-2.1,1.1-2.2,2.3L73,295.3c0,2.3-1,4.2-2.3,4.2c-1.3,0-2.3-1.9-2.3-4.2L68,251.6c0-0.8-0.4-1.4-1-1.4h0
					c-1.4,0-2.6,1.7-2.8,3.9l-2.4,42.6c0,0.1,0,0.1,0,0.2c0.4,15.5,8.5,28,18.7,28s18.3-12.4,18.7-28
					C99.2,296.8,99.2,296.8,99.2,296.7z"/>
			</g>
		</g>
		<g>
			<g>
				<path class="st21" d="M259.2,322.5v-4.2h-14.9v4.2c2.3,0,4.1,20.2,4.1,45.2c0,19.4-1.1,35.9-2.7,42.3c-0.5,2.2-0.5,4.4,0.2,6.6
					c1.2,3.4,3.3,5.6,5.8,5.6c2.5,0,4.6-2.3,5.8-5.6c0.7-2.1,0.8-4.4,0.2-6.6c-1.6-6.4-2.7-22.9-2.7-42.3
					C255,342.7,256.9,322.5,259.2,322.5z"/>
			</g>
			<ellipse class="st21" cx="251.7" cy="287" rx="21.8" ry="37.9"/>
		</g>
		<circle class="st22" cx="165.4" cy="339.7" r="67.3"/>
		<circle class="st23" cx="165.4" cy="339.7" r="38.2"/>
	</g>
	<g>
		<ellipse class="st24" cx="695.4" cy="422.1" rx="79.4" ry="43.4"/>
		<g>
			<path class="st25" d="M780,214.5c0,46.8-76.6,211.2-84.7,211.2s-84.7-164.5-84.7-211.2s37.9-84.7,84.7-84.7S780,167.7,780,214.5z
				"/>
			<circle class="st25" cx="695.4" cy="212.1" r="53.4"/>
		</g>
		<g>
			<circle class="st26" cx="695.4" cy="214.9" r="62"/>
			<g>
				<circle class="st26" cx="695.4" cy="214.9" r="62"/>
				<line class="st26" x1="637.9" y1="191.4" x2="718.6" y2="191.4"/>
				<line class="st26" x1="727.3" y1="161.9" x2="697.7" y2="191.4"/>
				<line class="st26" x1="685.4" y1="165.8" x2="660" y2="191.3"/>
				<line class="st26" x1="675.4" y1="175.8" x2="675.4" y2="210.5"/>
				<rect x="660.1" y="210.5" class="st26" width="30.8" height="30.8"/>
				<line class="st26" x1="660.1" y1="241.3" x2="660.1" y2="265.9"/>
				<line class="st26" x1="675.4" y1="241.3" x2="675.4" y2="257.9"/>
				<line class="st26" x1="740.4" y1="257.7" x2="673.7" y2="257.7"/>
				<rect x="697.7" y="191.4" class="st26" width="31.7" height="49.9"/>
				<line class="st26" x1="697.7" y1="210.5" x2="729.4" y2="210.5"/>
				<line class="st26" x1="697.7" y1="225.9" x2="729.4" y2="225.9"/>
				<line class="st26" x1="690.8" y1="249.5" x2="690.8" y2="257.7"/>
				<line class="st26" x1="706.7" y1="249.5" x2="706.7" y2="257.7"/>
			</g>
		</g>
	</g>
</g>
<g>
	<g>
		<polygon class="st14" points="1047.3,1154.4 1048.1,1180.8 1079.4,1157.5 1079.4,1132.4 		"/>
		<path class="st15" d="M1137.1,1144.1c0,0-3.9,40-4.2,41.4c-0.4,1.3-33.5,39.6-33.5,39.6l-61.6-28.1l-3.6-41.4l42.1-29.3
			L1137.1,1144.1z"/>
		<polygon class="st16" points="1047.3,1154.4 1098.7,1172.3 1125.3,1146.7 1079.4,1132.4 		"/>
		<polyline class="st17" points="1099.3,1225.1 1101.9,1180.2 1034.1,1155.6 		"/>
		<line class="st17" x1="1137.1" y1="1144.1" x2="1101.9" y2="1180.2"/>
	</g>
	<g>
		<path class="st18" d="M1100.3,1119.3c0,0,12.4-11.1,16.3-26.7c0-0.1,0-0.2,0.1-0.2c6.3-34.9,16.1-44.4,17.1-45.3
			c0.1-0.1,0.1-0.1,0.2-0.2l63.2-68.6c0.5-0.6,1.2-0.9,2-1c3.8-0.5,16.3-1.1,28.1,9.1c11.5,10,13.1,20.9,13.2,24.6
			c0,0.8-0.2,1.6-0.8,2.2l-60.6,70.8c-0.1,0.1-0.1,0.1-0.2,0.2c-0.7,1.1-9.1,12-42.9,22.4c-0.1,0-0.2,0.1-0.2,0.1
			c-15,5.7-26.1,20.8-26.1,20.8"/>
		<path class="st19" d="M1099.6,1113.7"/>
		
			<ellipse transform="matrix(0.6775 -0.7355 0.7355 0.6775 -470.0679 1174.845)" class="st20" cx="1104.8" cy="1123.5" rx="3.3" ry="6.2"/>
	</g>
	<path class="st20" d="M1186.5,989.7l-47,51c0,0,12-0.3,26.6,11.9c14.6,12.2,17.8,25.6,17.8,25.6l45.1-52.7c0,0-1.5-13.9-15.3-25.4
		S1186.5,989.7,1186.5,989.7z"/>
</g>
<g>
	<g>
		<g>
			<path class="st21" d="M783.8,1099.2v-16.4h-14.9v16.4c2.3,0,4.1,20.2,4.1,45.2c0,19.4-1.1,35.9-2.7,42.3
				c-0.5,2.2-0.5,4.4,0.2,6.6c1.2,3.4,3.3,5.6,5.8,5.6c2.5,0,4.6-2.3,5.8-5.6c0.7-2.1,0.8-4.4,0.2-6.6c-1.6-6.4-2.7-22.9-2.7-42.3
				C779.7,1119.4,781.5,1099.2,783.8,1099.2z"/>
		</g>
		<path class="st21" d="M801.8,1071.5"/>
		<g>
			<path class="st21" d="M795,1073.4l-2.4-42.6c-0.1-2.2-1.3-3.9-2.8-3.9c-0.5,0-0.9,0.6-1,1.4l-0.4,43.8c0,2.3-1,4.1-2.3,4.1
				c-1.3,0-2.3-1.8-2.3-4.1l-0.4-44c0-1.2-0.8-2.2-1.9-2.3c-0.1,0-0.2,0-0.3,0c0,0,0,0,0,0c-1.2,0-2.1,1.1-2.2,2.3l-0.4,43.9
				c0,2.3-1,4.1-2.3,4.1c-1.3,0-2.3-1.8-2.3-4.1l-0.4-44c0-1.2-0.8-2.2-1.9-2.3c-0.1,0-0.2,0-0.3,0c0,0,0,0,0,0
				c-1.2,0-2.1,1.1-2.2,2.3l-0.4,43.9c0,2.3-1,4.2-2.3,4.2c-1.3,0-2.3-1.9-2.3-4.2l-0.4-43.7c0-0.8-0.4-1.4-1-1.4h0
				c-1.4,0-2.6,1.7-2.8,3.9l-2.4,42.6c0,0.1,0,0.1,0,0.2c0.4,15.5,8.5,28,18.7,28c10.1,0,18.3-12.4,18.7-28
				C795,1073.5,795,1073.4,795,1073.4z"/>
		</g>
	</g>
	<g>
		<g>
			<path class="st21" d="M955,1099.2v-4.2h-14.9v4.2c2.3,0,4.1,20.2,4.1,45.2c0,19.4-1.1,35.9-2.7,42.3c-0.5,2.2-0.5,4.4,0.2,6.6
				c1.2,3.4,3.3,5.6,5.8,5.6c2.5,0,4.6-2.3,5.8-5.6c0.7-2.1,0.8-4.4,0.2-6.6c-1.6-6.4-2.7-22.9-2.7-42.3
				C950.9,1119.4,952.7,1099.2,955,1099.2z"/>
		</g>
		<ellipse class="st21" cx="947.5" cy="1063.6" rx="21.8" ry="37.9"/>
	</g>
	<circle class="st22" cx="861.3" cy="1116.3" r="67.3"/>
	<circle class="st23" cx="861.3" cy="1116.3" r="38.2"/>
</g>
<g>
	<ellipse class="st24" cx="1391.2" cy="1198.8" rx="79.4" ry="43.4"/>
	<g>
		<path class="st25" d="M1475.9,991.2c0,46.8-76.6,211.2-84.7,211.2c-8.1,0-84.7-164.5-84.7-211.2c0-46.8,37.9-84.7,84.7-84.7
			S1475.9,944.4,1475.9,991.2z"/>
		<circle class="st25" cx="1391.2" cy="988.8" r="53.4"/>
	</g>
	<g>
		<circle class="st26" cx="1391.2" cy="991.6" r="62"/>
		<g>
			<circle class="st26" cx="1391.2" cy="991.6" r="62"/>
			<line class="st26" x1="1333.8" y1="968" x2="1414.5" y2="968"/>
			<line class="st26" x1="1423.1" y1="938.6" x2="1393.6" y2="968.1"/>
			<line class="st26" x1="1381.3" y1="942.5" x2="1355.9" y2="967.9"/>
			<line class="st26" x1="1371.3" y1="952.5" x2="1371.3" y2="987.2"/>
			<rect x="1355.9" y="987.2" class="st26" width="30.8" height="30.8"/>
			<line class="st26" x1="1355.9" y1="1017.9" x2="1355.9" y2="1042.6"/>
			<line class="st26" x1="1371.3" y1="1017.9" x2="1371.3" y2="1034.6"/>
			<line class="st26" x1="1436.3" y1="1034.3" x2="1369.6" y2="1034.3"/>
			<rect x="1393.6" y="968" class="st26" width="31.7" height="49.9"/>
			<line class="st26" x1="1393.6" y1="987.2" x2="1425.3" y2="987.2"/>
			<line class="st26" x1="1393.6" y1="1002.6" x2="1425.3" y2="1002.6"/>
			<line class="st26" x1="1386.7" y1="1026.1" x2="1386.7" y2="1034.3"/>
			<line class="st26" x1="1402.5" y1="1026.1" x2="1402.5" y2="1034.3"/>
		</g>
	</g>
</g>
</svg>
