<?xml version="1.0" encoding="utf-8"?>
<!-- Generator: Adobe Illustrator 27.3.1, SVG Export Plug-In . SVG Version: 6.00 Build 0)  -->
<svg version="1.1" xmlns="http://www.w3.org/2000/svg" xmlns:xlink="http://www.w3.org/1999/xlink" x="0px" y="0px"
	 viewBox="0 0 841.9 595.3" style="enable-background:new 0 0 841.9 595.3;" xml:space="preserve">
<style type="text/css">
	.st0{fill:#FFFFFF;}
	.st1{fill:#231815;}
	.st2{fill:#E4004F;}
	.st3{display:none;}
	.st4{display:inline;fill:none;stroke:#231815;stroke-miterlimit:10;}
	.st5{display:inline;fill:#F5D95E;}
</style>
<g id="文字">
	
		<rect x="123.3" y="-123.3" transform="matrix(6.123234e-17 -1 1 6.123234e-17 123.3071 718.5827)" class="st0" width="595.3" height="841.9"/>
	<g>
		<path class="st1" d="M359.2,423.4c4.6,2.5,6.6,4,11.8,8.3l-4.1,5.9c-4.8-4.4-6.9-6-11.8-9L359.2,423.4z M371.3,445.9
			c-3.1,8.4-5.8,14.3-9.8,21.1l-6.2-5.4c3.4-3.7,7.1-11,10.1-19.8L371.3,445.9z M362.1,407.4c4.5,2.7,7.3,4.7,11.6,8.7l-4.4,5.7
			c-4.6-4.6-7.1-6.6-11.6-9.3L362.1,407.4z M382.7,440.8v16.7c4.6-1.1,7-1.8,11.6-3.4v6.9c-6.9,2.2-9.8,3-18.1,4.9
			c-2.6,0.6-2.6,0.6-3.5,0.7c-1.2,0.3-1.2,0.3-2.3,0.5l-1.4-7.6c0.2,0,0.3,0,0.5,0c1,0,2.9-0.3,6.1-0.8v-39.2c0-2.5-0.1-4.4-0.3-6.2
			c1.7,0.2,3.4,0.3,6.3,0.3h7.7v-1.4c0-1.9-0.1-3.5-0.5-5h8c-0.3,1.5-0.5,3.1-0.5,5v1.4h8.3c2.9,0,4.6-0.1,6.3-0.3
			c-0.2,1.6-0.3,3.8-0.3,6.5v14.8c0,2.7,0.1,4.6,0.2,6.2c-0.8-0.1-0.8-0.1-2.3-0.1l5.2,4.2c-3.9,3.6-6,5.2-10.3,8.1
			c3.8,3.3,7.6,5.3,13.1,7.1c-2.4,2.8-3.1,3.9-4.6,7.3c-7.9-3.7-12.9-7.5-17.1-13c-3-3.9-5-8-6.4-13.7H382.7z M403.9,424.5v-4.8
			h-21.1v4.8H403.9z M382.7,435h21.1v-4.8h-21.1V435z M395.7,440.8c1.2,3.6,2,5.3,3.7,7.7c3.9-2.5,6.3-4.6,8.8-7.7c-0.7,0-1,0-2.6,0
			H395.7z"/>
		
			<rect x="387.8" y="9.3" transform="matrix(0.9848 0.1736 -0.1736 0.9848 18.628 -76.5215)" class="st2" width="117.7" height="117.7"/>
		<g>
			<path class="st0" d="M404.8,86.1c-2.6,14.8-2.9,17.3-4,23.2c-0.6,3.4-2.7,4.7-6.8,3.9c-3.6-0.6-4.7-1.9-4.2-4.9
				c0.4-2.3,2.3-10.2,11-59.5c4.6-25.9,5.6-32.7,6.9-42.1c5.1,3.6,5.8,4.1,10.3,8.1l10.3,1.8c4.5-3.3,5.6-3.8,6.5-3.6
				c1.2,0.2,1.7,1,4.8,5.9c1.3,2,1.8,3.2,1.7,4.1s-0.8,1.2-2.9,1.5c-6.1,8.2-7.6,9.8-20.6,22.7c10,14.9,11.1,19.1,9.3,29.5
				c-0.9,5.1-2.8,8.8-5.3,10.9c-2.3,2-5.1,2.7-8.4,2.1c-1.7-0.3-2.2-1-2-2.9c0.3-4.4-0.6-6.3-5.3-8.6L404.8,86.1z M416.9,17.4
				l-10.4,59.1c2.9,0.7,5.6,1.3,7.2,1.6c0.9,0.2,1.8,0.2,2.3-0.3c1.3-0.7,2.1-2.9,2.9-7.6c1.6-8.9,1.1-11.8-3.6-23
				c6.9-12.5,10.6-20.1,13.2-27.8L416.9,17.4z M428.9,100c-1.4,8.1-5.9,13.3-12.2,12.2c-3.4-0.6-5.4-3.5-4.8-6.9
				c0.4-2.6,2.2-4.2,5.4-5c6.1-1.3,9.1-4.1,10.5-10.2c0.1-0.6,1.3-0.4,1.3,0.2C429.5,93.8,429.4,97.1,428.9,100z M443.1,67
				c-2-0.3-4-0.5-6.6-0.3l-0.5-4.5c2.9,1.1,5.2,1.8,7.5,2.2l39.5,7l1.8-10.4l-42.7-7.5c-2-0.3-4.1-0.5-6.9-0.3l-0.5-4.7
				c3.1,1.3,5.4,1.9,7.8,2.3l32.7,5.8c2.9-3.4,6-8,8.3-12.4c2.1-3.6,3.6-6.9,4.2-9.2c11.1,5.8,12.7,7.1,12.5,8.4
				c-0.2,1.2-1.6,1.7-4.5,1.6c-6.1,5.4-10.7,8.7-17.1,12.2l5.4,1c4.4-3.7,5.4-4.2,6.3-4c1.2,0.2,2,1.1,5.2,4.9
				c1.5,1.8,2,2.7,1.9,3.7c-0.1,0.8-0.6,1.1-3.3,2.5l-0.7,4.2c-1.9,10.9-3,18.2-3.4,20.7c-0.5,2.8-3,3.9-6.9,3.2
				c-2.8-0.5-3.9-1.9-3.5-4.1l0.2-0.9l-43-7.6c-1.7-0.3-3.6-0.4-6.1-0.2l-0.5-4.5c2.8,1.1,4.8,1.7,7,2.1l43,7.6l2-11.5L443.1,67z
				 M472.8,112.6c-0.3,1.7-0.1,2.1,1.2,2.8c1.7,1,2.5,2.6,2.2,4.3c-0.4,2.2-2,3.6-5.3,4.1c-3.7,0.5-9.4,0-17.9-1.5
				c-16.9-3-20.4-5.3-19-12.7c0.2-0.9,0.6-1.8,1.2-5.6c0.9-5,1.7-10.1,2.1-15.3c11.3,3.2,12.9,4.1,12.6,5.6
				c-0.2,1.4-1.5,2.3-3.5,2.5l-2,11.4c-0.6,3.4,0.8,4.1,10.7,5.8c6.3,1.1,9.4,1.4,11.9-0.3c2-1.4,3.6-4.3,5.9-9.2
				c0.2-0.6,1.4-0.2,1.3,0.3L472.8,112.6z M494.6,31.7c-16.9,1.1-31.2,0-53.3-4c-0.6-0.1-0.5-1.7,0.1-1.7c12.4,0.9,27,0,38.3-2.1
				c4.7-1,8.8-2,11.9-3.3c6,6.1,9.2,10.2,9,11.3C500.4,33.2,498,33.1,494.6,31.7z M446.4,49.2c-3.1-0.6-3.8-2.1-3.5-6.7
				c0.4-4.7,0-7.2-1.7-10.8c-0.3-0.5,0.3-1,0.9-0.8c7.8,3.9,11.6,8.5,10.8,13.4C452.3,47.6,449.5,49.7,446.4,49.2z M460.5,106
				c-3.1-0.6-3.5-1.2-4.1-7.7c-0.5-3.2-2-6.4-4.1-9.3c-0.4-0.4,0-0.9,0.6-0.7c9.5,3.7,14.7,8.8,13.9,13.4
				C466.2,104.7,463.5,106.6,460.5,106z M466.3,51.7c-2.8-0.5-3.7-2-3.5-5.6c0.3-5.1-0.5-9.4-1.9-12.2c-0.3-0.5,0.3-1,0.8-0.7
				c8.4,4.7,12,9.1,11.2,13.7C472.2,50.2,469.5,52.3,466.3,51.7z M486.9,122.5c-2.9-0.5-4-2.3-3.9-5.9c0.3-8.4-0.8-13.1-3.7-17.4
				c-0.3-0.5,0.3-1.1,0.9-0.8c10.4,6,14.9,11.9,13.8,18C493.2,120.4,490.2,123.1,486.9,122.5z"/>
		</g>
		<g>
			<path class="st1" d="M436.5,165.1c0,1.2,0,2.2,0,3c0,3-0.9,4.8-2.2,4.8c-0.8,0-1.3-0.4-1.6-1.6c-0.2-1.1-0.3-1.9-0.8-2.9
				c-0.8-1.7-2-2.8-3.1-4c-0.9,1.2-1.3,1.9-1.6,2.2c-0.6,0.6-0.9,0.8-1.6,0.8c-0.6,0-1.2-0.5-1.2-1.8c0-1,0.4-2.2,1.1-2.8
				c0.2-0.2,0.5-0.5,0.9-0.9c2.7-2.8,4.9-5.3,7.3-8.9c0-1.4,0.1-2.5,0.1-3.6c-2.8,1.4-3.9,1.8-4.3,2.2c-0.3,0.4-0.6,0.5-1,0.5
				c-0.5,0-0.8-0.3-1.3-0.7c-0.9-1-1.7-2.4-1.7-3.3c0-0.5,0-0.8,0.1-1.1c0.1-0.2,0.2-0.3,0.4-0.3c0.3,0,0.4,0.3,0.6,0.6
				c0.7,1,1.1,1.4,2,1.4c0.6,0,1.1-0.2,1.7-0.4c1.3-0.5,2.4-1,3.6-1.5c0.1-2.8,0.2-4.7,0.2-6.3c0-2.3-0.4-2.8-2.4-3.6
				c-0.5-0.2-0.6-0.3-0.6-0.4c0-0.2,0.2-0.4,0.4-0.5c0.5-0.3,1.2-0.5,1.6-0.5c0.5,0,1.1,0,2,0.4c1.1,0.5,2,1,2.8,2
				c0.3,0.4,0.4,0.8,0.4,1.2s-0.2,0.8-0.5,1.1s-0.6,0.8-0.6,1.4c-0.1,1.1-0.2,2.1-0.3,4.3c0.2-0.1,0.4-0.2,0.7-0.2
				c0.2,0,0.4,0.1,1,0.6c0.4,0.4,0.6,0.8,0.6,1.1s-0.1,0.4-0.5,0.9c-0.9,1.3-1.5,2-2.1,3c0,0.4,0,1,0,1.4c2.2-2.4,3.4-3.6,6.4-6.4
				c1.9-1.8,4.7-3.3,6.6-3.3c3.2,0,4.8,2,4.8,4.8c0,2-0.3,4.1-0.7,7.3c-0.5,4.2-0.7,6.6-0.7,7.8c0,2.6,0.4,3.7,2.4,3.7
				c3,0,6.2-3,8.5-6.8c0.2-0.3,0.4-0.9,0.7-0.9c0.3,0,0.5,0.2,0.5,0.5c0,0.2-0.1,0.6-0.2,0.8c-1.1,3.2-2.1,5-3.9,6.9
				c-1.7,1.8-4,2.8-6.1,2.8c-3.6,0-5.4-1.9-5.4-6.1c0-2,0.1-4.8,0.5-9c0.2-2.6,0.3-4.7,0.3-6.6c0-2.3-0.5-3.1-2-3.1
				c-1.2,0-2.4,0.7-4.8,2.9c-2.7,2.5-4.4,3.9-7,7.1C436.4,158.8,436.4,162.9,436.5,165.1z M432.5,165.5c0.8,0.4,1.1,0.2,1.1-0.5
				c0-2.6,0-4.8,0-7c-1.4,1.9-2.8,4-4,5.7C430.6,164.4,431.4,165,432.5,165.5z"/>
		</g>
		<g>
			<path class="st1" d="M464.6,218c3.6,1.9,6.5,3.8,9,5.7c5.7,4.3,7.9,8,7.9,10.7c0,2.9-2,5.1-4.3,5.1c-2.4,0-4.1-0.7-5.8-3.2
				c-3.3-4.9-6.6-10-10.9-14c-3.7-3.4-6.2-5.3-9.4-7.3c-7.1,7.5-15,13.6-23.1,18.5c-6.2,3.7-12.2,6.2-16.1,7.4
				c-0.8,0.3-1.4,0.5-2.1,0.5c-0.5,0-0.9-0.2-0.9-0.8c0-0.4,0.3-0.8,0.7-1c11.1-6,19-12.2,29.5-22.8c7.4-7.6,12.2-14.2,19.1-25
				c0.4-0.6,0.6-0.9,0.6-1.1c0-0.3-0.3-0.4-1.2-0.3c-6.6,0.8-15.1,2.2-22.5,3.8c-2.4,0.6-3.6,1-4.3,1.5c-0.8,0.5-1.6,1-3.3,1
				c-1.8,0-3.7-1.1-6.3-4.4c-1.8-2.3-2-3.7-2-6c0-1.8,0.7-2.4,1.2-2.4c0.3,0,0.7,0.4,1.3,1.1c2.6,2.9,3.7,3.6,6.5,3.6
				c1.1,0,3.5-0.2,7.2-0.6c7.7-0.8,14-1.7,20.7-2.6c1.8-0.3,2.9-0.7,3.8-1.4c0.8-0.8,1.5-1,2.7-1c1.8,0,3,0.8,5,2.5
				c2.8,2.4,4,4,4,5.3c0,0.9-0.3,1.9-3.1,2.8c-0.8,0.3-1.4,1-2.3,2.3c-4.1,5.9-7.5,11-12.8,17C457.6,214.5,461.4,216.3,464.6,218z"
				/>
		</g>
		<g>
			<path class="st1" d="M467,334.1c2.4,0.9,4.4,2.2,5.9,3.7c1.3,1.3,2.3,3,2.3,4.7c0,2.3-1.4,3.6-3.4,3.6c-1.2,0-2-0.8-2.3-2.8
				c-0.5-2.6-1.7-5.6-3.5-7.9c-0.3-0.5-0.5-0.6-0.5-0.8c0-0.5,0.2-0.7,0.5-0.7C466.4,333.8,466.5,334,467,334.1z M497.6,330.9
				c0.8,0,2.8,0.6,5.2,2.2c2.3,1.5,3.1,2.5,3.1,3.8c0,0.8-0.7,1.5-1.6,2.2c-0.4,0.3-1,0.8-1.6,2c-3.4,6.9-7.7,12.6-12.3,17.4
				c-5.8,6.1-11.6,10.1-18.7,13.1c-0.4,0.2-0.8,0.3-1.2,0.3c-0.5,0-0.7-0.2-0.7-0.5c0-0.4,0.3-0.5,0.8-0.9
				c7-4.9,12.8-10.3,18.3-17.6c4-5.2,6.3-9.8,8.3-14.3c0.7-1.7,0.9-2.5,0.9-3c0-0.5-0.2-0.9-0.8-1.5c-0.6-0.6-1.2-1-2.3-1.6
				c-0.3-0.1-0.4-0.3-0.4-0.5c0-0.2,0.2-0.4,0.6-0.6C495.8,331.1,496.4,330.9,497.6,330.9z M480.3,331.2c2.4,1.1,4,2.2,5.3,3.7
				c1.3,1.5,2.2,3.2,2.2,5.1c0,2.2-1.3,3.8-3.1,3.8c-2.1,0-2.4-1.7-2.7-3.4c-0.4-3-1.4-5.7-3-8.1c-0.4-0.5-0.6-0.8-0.6-1
				c0-0.2,0.1-0.5,0.5-0.5C479.4,330.8,479.9,331.1,480.3,331.2z"/>
		</g>
		<g>
			<path class="st1" d="M463.6,398.6c5.7,2.4,8.8,5.3,8.8,9.5c0,3-2.2,5-4.1,5c-1.7,0-3.4-0.6-5.2-2.7c-2.3-2.6-4.4-5-6.8-6.9
				c-3-2.4-6.2-4.3-9.8-5.4c0,5.5,0,10.5,0,16.4c0,4,0.2,12.6,0.4,22.8c0,3.6-1.6,4.4-3.5,4.4c-1.3,0-3-0.5-4-2.2
				c-1.5-2.5-2.1-5.7-2.1-7.4c0-0.5,0.2-2.2,0.5-2.7c0.3-0.6,0.5-1,0.5-1.6c0.1-1.2,0.3-3.9,0.4-21.1c0.1-8.9,0-17,0-25.8
				c0-2.4,0-6.7-0.4-8c-0.3-0.8-1-1.6-2-2.2c-1.4-0.8-2.5-1.3-3.3-1.5c-0.7-0.2-0.9-0.5-0.9-0.8c0-0.6,0.7-1,1.2-1.4
				c0.8-0.5,1.8-0.8,2.6-0.8c2.2,0,5,0.5,9.5,2.5c2.5,1.1,3.8,2.6,3.8,4.4c0,1.1-0.6,2.1-1.6,3c-0.4,0.4-0.6,0.9-0.7,1.9
				c-0.3,2.6-0.5,8.2-0.5,17C452.2,395.2,458.3,396.5,463.6,398.6z"/>
		</g>
		<g>
			<path class="st1" d="M386.9,350.8c-1.4-0.2-2-0.3-4.6-0.3c-0.9,11.4-2.8,18.3-7.2,25.6c4.3,4.6,7.7,7.3,13.3,10.3
				c-2,2.8-2.9,4.4-4,7.5c-5.6-3.3-9.7-6.7-13.9-11.6c-4.3,4.8-8.8,8.4-15,11.8c-1-2.4-2.2-4.3-3.7-6.2c-1.3,4.4-2.9,5.5-8.5,5.5
				c-1,0-2.4-0.1-4.4-0.3c-0.1-2.7-0.4-4.2-1.2-6.9c1.5,0.4,3.2,0.6,4.4,0.6c2.6,0,3.1-0.3,3.5-2c0.9-3.9,1.2-9.5,1.2-21.2h-6.3
				c-1.3,16.1-3.5,23.7-9.1,30.8c-1.6-2.9-3.1-4.8-5.1-6.3c4-5.2,5.8-10,7-19.1c0.7-5.4,1-9.7,1.1-18.6h-1c-3,0-4.4,0.1-6.1,0.3v-7
				c2,0.3,3.7,0.4,6.7,0.4h4.4v-4c0-2.6-0.1-4-0.4-5.8h7.9c-0.3,1.8-0.4,3.1-0.4,5.8v4.1h3.7c2.8,0,4.3-0.1,6.2-0.3v6.9
				c-2.1-0.1-4-0.2-6.1-0.2h-8.1c-0.1,3.2-0.3,5.5-0.3,6.9h7.3c3.1,0,3.9,0,5.3-0.2v0.5c3-4.1,5-8.8,7-15.6c0.9-3.3,1.4-6.1,1.5-8.1
				l7.5,1.2c-0.3,0.7-0.3,0.7-0.7,2.6c-0.3,1.2-1.2,4.8-1.8,6.5h12.8c2.9,0,5.2-0.1,7.1-0.3V350.8z M366,376.2
				c-2.7-4.4-4.6-8.6-6.5-15c-0.9,1.2-1.2,1.9-2.6,3.7c-0.9-1.6-1.8-2.7-3.4-4.5c-0.1,6.2-0.1,10.3-0.2,12.3
				c-0.2,6.6-0.6,11.3-1.3,14.3C357.1,384.7,361.7,381.2,366,376.2z M364.9,350.5c-0.7,1.7-0.8,1.9-1.2,3c1.2,6,3.4,11.2,6.7,16.5
				c2.9-5.2,4.3-10.8,4.9-19.5H364.9z"/>
		</g>
		<g>
			<path class="st1" d="M315.7,500.5c1.6-0.1,2.8-0.3,5.2-0.9l15.7-3.6c2.6-0.6,3.7-0.9,5-1.4l1.5,6.6c-1.4,0.1-2.3,0.3-4.9,0.9
				l-16,3.7c-2.2,0.5-3.6,0.9-5,1.4L315.7,500.5z M315.8,491c1.8-0.1,2.8-0.3,5.4-0.9l11-2.5c2.5-0.6,3.6-0.9,5.2-1.5l1.4,6.3
				c-1.8,0.2-3,0.4-5.4,1l-11,2.5c-2.3,0.5-3.7,0.9-5.2,1.5L315.8,491z M320.3,509.6c1.3-0.2,2.1-0.3,4.3-0.8l13.1-3
				c2.1-0.5,2.9-0.7,4-1.1l1.4,5.9c-1.4,0.2-2.2,0.3-4.1,0.7l-13.1,3c-2,0.5-2.9,0.7-4.2,1.2L320.3,509.6z M322.4,518.6
				c1.3-0.2,2.1-0.3,4.3-0.8l13.1-3c2.1-0.5,2.9-0.7,4-1.1l1.4,5.9c-1.5,0.1-2.1,0.3-4.3,0.8l-13.1,3c-1.9,0.4-2.9,0.7-4.1,1.1
				L322.4,518.6z M329.1,548.5c-0.2-2-0.5-4.1-1.1-6.3l-2.2-9.4c-0.5-2-0.9-3.4-1.5-5c1.6-0.2,2.6-0.4,5-1l12.5-2.9
				c2.5-0.6,3.2-0.7,4.2-1.2c0.1,1.4,0.3,2.3,0.9,4.6l2.5,10.7c0.4,1.5,0.9,3.4,1.3,4.5l-6.5,1.5l-0.6-2.6l-8.6,2l0.8,3.4
				L329.1,548.5z M333.6,537.8l8.7-2l-1.4-6l-8.7,2L333.6,537.8z M359.2,530.4c0.3,1.3,0.7,1.6,1.9,1.6c1.3,0,3.2-0.3,5.7-0.9
				c5-1.2,6.9-1.9,7.7-3.1c0.7-1.2,0.5-4.1-0.9-10.7c2.7,0.6,5.3,0.9,7.6,0.7c1.2,7.5,1.2,10.9,0,13.6c-1.1,2.6-4.4,4.1-13.1,6.1
				c-11.7,2.7-14.2,2.2-15.4-3.2l-5.2-22.5c-0.7-3.1-1-4.3-1.7-6.2c2-0.2,3.7-0.6,6.4-1.2l14.3-3.3l-3.1-13.5l-14.7,3.4
				c-2.8,0.6-4.7,1.2-6.6,1.8l-1.7-7.2c2.1-0.2,4.1-0.5,6.8-1.2l15.4-3.5c2.8-0.6,4.6-1.1,6.4-1.7c0.3,2.3,0.5,3.4,1.2,6.5l3.2,14.1
				c0.6,2.7,1.1,4.4,1.7,6.3c-2.1,0.3-3.6,0.5-6.4,1.2l-14.3,3.3L359.2,530.4z"/>
		</g>
		<g>
			<path class="st1" d="M465.6,275.3c2.2-0.3,3.2-0.8,4.2-1.4c1-0.5,2.2-0.8,3.2-0.8c2.3,0,5.3,0.8,7.8,2.4c1.7,1,2.4,2.1,2.4,3.7
				c0,1.6-1.1,2.9-2.7,2.9c-1.2,0-2.8-0.2-4.7-0.5c-2.1-0.3-4.7-0.6-6.3-0.6c-3.6,0-10.2,0.1-18.3,0.5c0,7.3,0.1,13.1,0.2,17.6
				c0.2,9.4,0.5,13.8,0.5,17.2c0,2.1-0.5,4.3-1.3,5.9c-1.5,2.6-3,3.9-5.8,3.9c-1.4,0-2.4-0.6-2.9-2.7c-0.4-1.8-1-2.8-2.1-3.6
				c-1-0.8-4.3-2.8-7.3-4.1c-1.7-0.8-2.1-1-2.1-1.7c0-0.4,0.4-0.5,0.9-0.5c0.8,0,1.3,0.2,2.3,0.3c2.7,0.4,5.7,0.8,8.6,0.8
				c1.4,0,1.4-0.9,1.4-2.2c0.1-2.4,0.2-5.5,0.2-12.4c0-5.9,0.1-12.1,0.1-18c-5.7,0.7-10.6,1.4-17.7,2.5c-1.7,0.3-3,0.7-3.9,1.2
				c-1.1,0.8-2.1,1.1-3.4,1.1s-3.3-0.8-5.9-4.1c-1.8-2.2-2.4-3.4-2.4-5.2c0-1,0.4-2.7,1-2.7c0.6,0,1.4,0.9,2.8,2.2
				c2.2,2,3.7,2.3,5.7,2.3c1.1,0,2.6-0.1,3.9-0.2c4.6-0.4,12.2-1.1,19.9-1.9c0-4.8,0-9.2,0-11.2c0-1.1,0-2.3-0.4-3
				c-0.5-1-0.8-1.7-2.4-2.1c-0.8-0.2-1.9-0.4-2.7-0.6c-0.9-0.2-1.2-0.4-1.2-0.8c0-0.8,1.1-1.9,2.8-2.6c1.7-0.8,3.1-0.9,4.3-0.9
				c1.6,0,5.5,1.6,8.1,3.6c1.7,1.3,1.9,2.3,1.9,3.3c0,0.9-0.7,2.1-1.3,2.7c-1,1-1.2,1.4-1.3,3.6c-0.1,2.1-0.2,4.1-0.3,7.5
				C456.1,276.2,460.8,275.8,465.6,275.3z M427.9,291.3c0.7,0,0.8,0.8,0.8,1.8c0.3,3.9,0.2,7.3-0.8,10.5c-0.9,3.4-2.9,6.1-4.3,7.4
				c-2.2,1.9-4,2.4-5.6,2.4c-2.8,0-4.6-1.6-4.6-4.4c0-2,0.6-3.5,3.8-5.1c2.4-1.2,4.3-2.5,5.7-4.1c1.7-1.9,2.9-4.2,3.8-7.1
				C427.1,291.8,427.4,291.3,427.9,291.3z M462.1,292.4c0-0.6,0.4-0.8,1.1-0.8c0.3,0,0.8,0.1,1.3,0.2c4.1,0.8,8.6,3,12.1,5.7
				c2.6,2.1,5.4,4.9,5.4,8.5c0,3.3-1.3,5.8-4.5,5.8c-2.5,0-3.8-1.6-4.9-4.2c-1-2.4-3-6-4.9-8.9c-1.6-2.4-3.5-4.1-4.5-4.9
				C462.5,293.3,462.1,292.9,462.1,292.4z M482.4,259.4c0,4.3-3.5,7.8-7.8,7.8c-4.3,0-7.8-3.5-7.8-7.8c0-4.4,3.5-7.8,7.8-7.8
				C478.9,251.6,482.4,255,482.4,259.4z M469.4,259.4c0,2.7,2.4,5.1,5.2,5.1c2.7,0,5.1-2.4,5.1-5.1c0-2.8-2.4-5.2-5.1-5.2
				C471.7,254.3,469.4,256.6,469.4,259.4z"/>
		</g>
		<g>
			<path class="st2" d="M526.2,427.2c3.8,4,12.4,16.7-1.9,38.8c-14.6,19.2-21.7,22.9-21.7,22.9l-23.5-15c0,0,18.7-61.1,44.1-48.8
				C524.3,425.5,525.3,426.3,526.2,427.2z"/>
			<path class="st2" d="M497.6,496c0,0-20.8,28.9-30.1,19.6c-9-5.6-4.3-19.7,7.2-34.3C481,485.3,497.6,496,497.6,496z"/>
		</g>
		<g>
			<path class="st2" d="M465.5,537.2c1.5,3.2,4.1,12.6-9.1,22.9c-12.7,8.6-17.7,9.4-17.7,9.4l-11.1-13.9c0,0,23.7-32.9,36.5-20.4
				C464.7,535.9,465.1,536.5,465.5,537.2z"/>
			<path class="st2" d="M434.2,572.8c0,0-18.4,13.2-22.2,5.6c-4.3-5.2,1.4-12.7,11.3-19.2C426.3,563,434.2,572.8,434.2,572.8z"/>
		</g>
		<g>
			<path class="st2" d="M388.6,569.9c0.5,2.8,0.8,10.8-11.8,16.5c-11.9,4.4-16,4-16,4l-6.1-13.3c0,0,25.5-21.6,33.2-9.1
				C388.3,568.7,388.5,569.3,388.6,569.9z"/>
			<path class="st2" d="M356.6,592.2c0,0-17.3,6.9-18.8,0.1c-2.4-5,3.7-9.9,12.9-13.1C352.3,582.8,356.6,592.2,356.6,592.2z"/>
		</g>
	</g>
</g>
<g id="ガイド" class="st3">
	<line class="st4" x1="2918" y1="-227.2" x2="2918" y2="425.7"/>
	<rect x="2539.1" y="-173.2" class="st5" width="68" height="7.1"/>
	<rect x="2540.8" y="-148.3" class="st5" width="68" height="7.1"/>
	<rect x="2541.8" y="-112.6" class="st5" width="68" height="7.1"/>
	<rect x="2543.1" y="-71.2" class="st5" width="68" height="7.1"/>
	<rect x="2545.1" y="-44.1" class="st5" width="68" height="7.1"/>
	<rect x="2480.3" y="-37.5" class="st5" width="68" height="7.1"/>
	<rect x="2477.8" y="-1.2" class="st5" width="68" height="7.1"/>
	<line class="st4" x1="2615" y1="-229.4" x2="2615" y2="423.5"/>
	<line class="st4" x1="2545.9" y1="-227.4" x2="2545.9" y2="425.5"/>
	<rect x="2298.5" y="-181.2" class="st5" width="68" height="7.1"/>
	<rect x="2300.2" y="-156.2" class="st5" width="68" height="7.1"/>
	<rect x="2301.2" y="-120.6" class="st5" width="68" height="7.1"/>
	<rect x="2302.5" y="-79.2" class="st5" width="68" height="7.1"/>
	<rect x="2304.5" y="-52.1" class="st5" width="68" height="7.1"/>
	<rect x="2239.7" y="-45.5" class="st5" width="68" height="7.1"/>
	<rect x="2237.2" y="-9.2" class="st5" width="68" height="7.1"/>
	<line class="st4" x1="2374.4" y1="-237.4" x2="2374.4" y2="415.5"/>
	<line class="st4" x1="2305.2" y1="-235.4" x2="2305.2" y2="417.5"/>
	<line class="st4" x1="2834.2" y1="-229.4" x2="2834.2" y2="423.5"/>
	<line class="st4" x1="2862.9" y1="-229.4" x2="2862.9" y2="423.5"/>
	<line class="st4" x1="2805.5" y1="-229.4" x2="2805.5" y2="423.5"/>
</g>
</svg>
