<?xml version="1.0" encoding="utf-8"?>
<!-- Generator: Adobe Illustrator 26.5.2, SVG Export Plug-In . SVG Version: 6.00 Build 0)  -->
<svg version="1.1" id="レイヤー_1" xmlns="http://www.w3.org/2000/svg" xmlns:xlink="http://www.w3.org/1999/xlink" x="0px"
	 y="0px" viewBox="0 0 283.5 283.5" style="enable-background:new 0 0 283.5 283.5;" xml:space="preserve">
<style type="text/css">
	.st0{fill-rule:evenodd;clip-rule:evenodd;fill:#FFFFFF;}
	.st1{fill-rule:evenodd;clip-rule:evenodd;stroke:#FFFFFF;stroke-width:1.4178;stroke-miterlimit:10;}
	.st2{fill-rule:evenodd;clip-rule:evenodd;}
</style>
<g>
	<circle class="st0" cx="141.7" cy="141.7" r="134.6"/>
	<path class="st1" d="M7.1,141.7C7.1,67.4,67.4,7.1,141.7,7.1s134.6,60.3,134.6,134.6S216,276.3,141.7,276.3S7.1,216.1,7.1,141.7z
		 M227,136.8c0-36.9-37.2-66.9-83-66.9s-83,30-83,66.9c0,33.1,29.5,60.8,69.4,66c2.7,0.6,6.4,1.8,7.3,4.1c0.8,2.1,0.5,5.3,0.3,7.5
		c0,0-1,5.8-1.2,7.1c-0.4,2.1-1.7,8.2,7.2,4.4c8.9-3.7,47.8-28,65.2-47.9C221.2,164.9,227,151.6,227,136.8z"/>
	<path class="st2" d="M126.7,119.3h-5.8c-0.9,0-1.6,0.7-1.6,1.7v37c0,0.9,0.7,1.7,1.6,1.7h5.8c0.9,0,1.6-0.7,1.6-1.7v-37.1
		C128.3,120,127.6,119.3,126.7,119.3z"/>
	<path class="st2" d="M167,119.3h-6.1c-0.9,0-1.7,0.7-1.7,1.7v22l-17.3-23c0-0.1-0.1-0.1-0.1-0.2l0,0l-0.1-0.1l0,0l-0.1-0.1l0,0
		c0,0-0.1,0-0.1-0.1c0,0,0,0-0.1,0c0,0-0.1,0-0.1-0.1c0,0,0,0-0.1,0h-0.1c0,0,0,0-0.1,0h-0.1c0,0,0,0-0.1,0h-0.1c0,0,0,0-0.1,0h-0.1
		h-0.1c0,0,0,0-0.1,0h-6.1c-0.9,0-1.7,0.7-1.7,1.7V158c0,0.9,0.8,1.7,1.7,1.7h6.1c0.9,0,1.7-0.7,1.7-1.7v-22l17.3,23
		c0.1,0.2,0.3,0.3,0.4,0.4l0,0c0,0,0.1,0,0.1,0.1l0,0h0.1h0.1l0,0h0.1l0,0c0.1,0,0.3,0.1,0.4,0.1h6.1c0.9,0,1.7-0.7,1.7-1.7v-37.1
		C168.7,120,167.9,119.3,167,119.3z"/>
	<path class="st2" d="M113.2,150.4H97.1V121c0-0.9-0.7-1.7-1.6-1.7h-5.9c-0.9,0-1.6,0.7-1.6,1.7v37c0,0.4,0.2,0.9,0.5,1.1l0,0l0,0
		c0.3,0.3,0.7,0.5,1.1,0.5h23.6c0.9,0,1.6-0.7,1.6-1.7v-6C114.8,151.1,114.1,150.4,113.2,150.4z"/>
	<path class="st2" d="M198.4,128.6c0.9,0,1.6-0.7,1.6-1.7v-6c0-0.9-0.7-1.7-1.6-1.7h-23.6c-0.4,0-0.8,0.2-1.1,0.5l0,0l0,0
		c-0.3,0.3-0.5,0.7-0.5,1.1V158c0,0.4,0.2,0.9,0.5,1.1l0,0l0,0c0.3,0.3,0.7,0.5,1.1,0.5h23.6c0.9,0,1.6-0.7,1.6-1.7v-6
		c0-0.9-0.7-1.7-1.6-1.7h-16.1v-6.3h16.1c0.9,0,1.6-0.7,1.6-1.7v-6c0-0.9-0.7-1.7-1.6-1.7h-16.1v-6.3h16.1V128.6z"/>
</g>
</svg>
